<?xml version="1.0" encoding="UTF-8" ?>
<svg xmlns="http://www.w3.org/2000/svg" xmlns:xlink="http://www.w3.org/1999/xlink" stroke-dasharray="none" shape-rendering="auto" font-family="&apos;Dialog&apos;" width="960px" text-rendering="auto" fill-opacity="1" contentScriptType="text/ecmascript" color-interpolation="auto" color-rendering="auto" preserveAspectRatio="xMidYMid meet" font-size="12px" fill="black" stroke="black" image-rendering="auto" stroke-miterlimit="10" zoomAndPan="magnify" version="1.0" stroke-linecap="square" stroke-linejoin="miter" contentStyleType="text/css" font-style="normal" height="376px" stroke-width="1" stroke-dashoffset="0" font-weight="normal" stroke-opacity="1">
    <!--Generated by the Batik Graphics2D SVG Generator-->
    <defs id="genericDefs" />
    <g>
        <defs id="defs1">
            <clipPath clipPathUnits="userSpaceOnUse" id="clipPath1">
                <path d="M2 2 L67 2 L67 24.06 L2 24.06 L2 2 Z" />
            </clipPath>
            <clipPath clipPathUnits="userSpaceOnUse" id="clipPath2">
                <path d="M2 2 L569 2 L569 24.06 L2 24.06 L2 2 Z" />
            </clipPath>
            <clipPath clipPathUnits="userSpaceOnUse" id="clipPath3">
                <path d="M2 2 L589 2 L589 24.06 L2 24.06 L2 2 Z" />
            </clipPath>
            <clipPath clipPathUnits="userSpaceOnUse" id="clipPath4">
                <path d="M2 2 L61 2 L61 22.83 L2 22.83 L2 2 Z" />
            </clipPath>
            <clipPath clipPathUnits="userSpaceOnUse" id="clipPath5">
                <path d="M2 2 L540 2 L540 22.83 L2 22.83 L2 2 Z" />
            </clipPath>
            <clipPath clipPathUnits="userSpaceOnUse" id="clipPath6">
                <path d="M2 2 L522 2 L522 22.83 L2 22.83 L2 2 Z" />
            </clipPath>
            <clipPath clipPathUnits="userSpaceOnUse" id="clipPath7">
                <path d="M2 2 L57 2 L57 24.06 L2 24.06 L2 2 Z" />
            </clipPath>
            <clipPath clipPathUnits="userSpaceOnUse" id="clipPath8">
                <path d="M2 2 L559 2 L559 24.06 L2 24.06 L2 2 Z" />
            </clipPath>
            <clipPath clipPathUnits="userSpaceOnUse" id="clipPath9">
                <path d="M2 2 L579 2 L579 24.06 L2 24.06 L2 2 Z" />
            </clipPath>
            <clipPath clipPathUnits="userSpaceOnUse" id="clipPath10">
                <path d="M2 2 L504 2 L504 22.83 L2 22.83 L2 2 Z" />
            </clipPath>
            <clipPath clipPathUnits="userSpaceOnUse" id="clipPath11">
                <path d="M2 2 L15 2 L15 30.18 L2 30.18 L2 2 Z" />
            </clipPath>
            <clipPath clipPathUnits="userSpaceOnUse" id="clipPath12">
                <path d="M2 2 L80 2 L80 27.73 L2 27.73 L2 2 Z" />
            </clipPath>
            <clipPath clipPathUnits="userSpaceOnUse" id="clipPath13">
                <path d="M2 2 L619 2 L619 27.73 L2 27.73 L2 2 Z" />
            </clipPath>
            <clipPath clipPathUnits="userSpaceOnUse" id="clipPath14">
                <path d="M2 2 L68 2 L68 27.73 L2 27.73 L2 2 Z" />
            </clipPath>
            <clipPath clipPathUnits="userSpaceOnUse" id="clipPath15">
                <path d="M2 2 L595 2 L595 27.73 L2 27.73 L2 2 Z" />
            </clipPath>
            <clipPath clipPathUnits="userSpaceOnUse" id="clipPath16">
                <path d="M2 2 L56 2 L56 27.73 L2 27.73 L2 2 Z" />
            </clipPath>
            <clipPath clipPathUnits="userSpaceOnUse" id="clipPath17">
                <path d="M2 2 L571 2 L571 27.73 L2 27.73 L2 2 Z" />
            </clipPath>
        </defs>
        <g fill="rgb(255,255,255)" text-rendering="optimizeLegibility" fill-opacity="0" stroke-opacity="0" stroke="rgb(255,255,255)">
            <rect x="0" width="960" height="376" y="0" stroke="none" />
        </g>
        <g text-rendering="optimizeLegibility" stroke-dasharray="0,4.06" stroke-width="2.03" transform="matrix(0.8149,0,0,0.8149,0,0) translate(10,10)">
            <path fill="none" d="M557.2814 188.0325 L519.0873 156.6562" style=";stroke-width:1;stroke:lightgray;fill:lightgray;stroke-dasharray:1,5" />
            <path stroke-width="1" stroke-dasharray="none" d="M7 0 L10 3 L1.5 0 L10 -3 Z" transform="matrix(0.7727,0.6348,-0.6348,0.7727,515.2238,153.4824)" stroke="none" style=";stroke-width:1;stroke:lightgray;fill:lightgray;stroke-dasharray:1,5" />
            <path fill="none" stroke-dasharray="none" d="M7 0 L10 3 L1.5 0 L10 -3 Z" stroke-width="1" transform="matrix(0.7727,0.6348,-0.6348,0.7727,515.2238,153.4824)" stroke-linecap="butt" style=";stroke-width:1;stroke:lightgray;fill:lightgray;stroke-dasharray:1,5" />
        </g>
        <g text-rendering="optimizeLegibility" stroke-dasharray="0,4.06" stroke-width="2.03" transform="matrix(0.8149,0,0,0.8149,8.1492,8.1492)">
            <path fill="none" d="M372.0089 176.0419 L471.0625 348.4974" style=";stroke-width:1;stroke:lightgray;fill:lightgray;stroke-dasharray:1,5" />
            <path stroke-width="1" stroke-dasharray="none" d="M7 0 L10 3 L1.5 0 L10 -3 Z" transform="matrix(-0.4981,-0.8671,0.8671,-0.4981,473.5528,352.8331)" stroke="none" style=";stroke-width:1;stroke:lightgray;fill:lightgray;stroke-dasharray:1,5" />
            <path fill="none" stroke-dasharray="none" d="M7 0 L10 3 L1.5 0 L10 -3 Z" stroke-width="1" transform="matrix(-0.4981,-0.8671,0.8671,-0.4981,473.5528,352.8331)" stroke-linecap="butt" style=";stroke-width:1;stroke:lightgray;fill:lightgray;stroke-dasharray:1,5" />
        </g>
        <g text-rendering="optimizeLegibility" stroke-dasharray="0,4.04" stroke-width="2.02" transform="matrix(0.8149,0,0,0.8149,8.1492,8.1492)">
            <path fill="none" d="M569.8638 280.586 L505.3554 168.2748" style=";stroke-width:1;stroke:gray;fill:gray;stroke-dasharray:5,2" />
            <path stroke-width="1" stroke-dasharray="none" d="M7 0 L10 3 L1.5 0 L10 -3 Z" transform="matrix(0.4981,0.8671,-0.8671,0.4981,502.8651,163.9391)" stroke="none" style=";stroke-width:1;stroke:gray;fill:gray;stroke-dasharray:5,2" />
            <path fill="none" stroke-dasharray="none" d="M7 0 L10 3 L1.5 0 L10 -3 Z" stroke-width="1" transform="matrix(0.4981,0.8671,-0.8671,0.4981,502.8651,163.9391)" stroke-linecap="butt" style=";stroke-width:1;stroke:gray;fill:gray;stroke-dasharray:5,2" />
        </g>
        <g text-rendering="optimizeLegibility" stroke-dasharray="0,4.04" stroke-width="2.02" transform="matrix(0.8149,0,0,0.8149,8.1492,8.1492)">
            <path fill="none" d="M905.0139 403.3867 L834.4045 381.2603" style=";stroke-width:1;stroke:gray;fill:gray;stroke-dasharray:5,2" />
            <path stroke-width="1" stroke-dasharray="none" d="M7 0 L10 3 L1.5 0 L10 -3 Z" transform="matrix(0.9542,0.299,-0.299,0.9542,829.6333,379.7652)" stroke="none" style=";stroke-width:1;stroke:gray;fill:gray;stroke-dasharray:5,2" />
            <path fill="none" stroke-dasharray="none" d="M7 0 L10 3 L1.5 0 L10 -3 Z" stroke-width="1" transform="matrix(0.9542,0.299,-0.299,0.9542,829.6333,379.7652)" stroke-linecap="butt" style=";stroke-width:1;stroke:gray;fill:gray;stroke-dasharray:5,2" />
        </g>
        <g text-rendering="optimizeLegibility" stroke-dasharray="0,4.06" stroke-width="2.03" transform="matrix(0.8149,0,0,0.8149,8.1492,8.1492)">
            <path fill="none" d="M601.5838 203.0338 L746.976 197.9832" style=";stroke-width:1;stroke:lightgray;fill:lightgray;stroke-dasharray:1,5" />
            <path stroke-width="1" stroke-dasharray="none" d="M7 0 L10 3 L1.5 0 L10 -3 Z" transform="matrix(-0.9994,0.0347,-0.0347,-0.9994,751.973,197.8096)" stroke="none" style=";stroke-width:1;stroke:lightgray;fill:lightgray;stroke-dasharray:1,5" />
            <path fill="none" stroke-dasharray="none" d="M7 0 L10 3 L1.5 0 L10 -3 Z" stroke-width="1" transform="matrix(-0.9994,0.0347,-0.0347,-0.9994,751.973,197.8096)" stroke-linecap="butt" style=";stroke-width:1;stroke:lightgray;fill:lightgray;stroke-dasharray:1,5" />
        </g>
        <g text-rendering="optimizeLegibility" stroke-dasharray="0,4.04" stroke-width="2.02" transform="matrix(0.8149,0,0,0.8149,8.1492,8.1492)">
            <path fill="none" d="M564.9662 320.2647 L530.6639 355.8541" style=";stroke-width:1;stroke:gray;fill:gray;stroke-dasharray:5,2" />
            <path stroke-width="1" stroke-dasharray="none" d="M7 0 L10 3 L1.5 0 L10 -3 Z" transform="matrix(0.694,-0.72,0.72,0.694,527.1941,359.4542)" stroke="none" style=";stroke-width:1;stroke:gray;fill:gray;stroke-dasharray:5,2" />
            <path fill="none" stroke-dasharray="none" d="M7 0 L10 3 L1.5 0 L10 -3 Z" stroke-width="1" transform="matrix(0.694,-0.72,0.72,0.694,527.1941,359.4542)" stroke-linecap="butt" style=";stroke-width:1;stroke:gray;fill:gray;stroke-dasharray:5,2" />
        </g>
        <g text-rendering="optimizeLegibility" stroke-dasharray="0,4.06" stroke-width="2.03" transform="matrix(0.8149,0,0,0.8149,8.1492,8.1492)">
            <path fill="none" d="M397.2852 379.6742 L446.3422 385.7294" style=";stroke-width:1;stroke:lightgray;fill:lightgray;stroke-dasharray:1,5" />
            <path stroke-width="1" stroke-dasharray="none" d="M7 0 L10 3 L1.5 0 L10 -3 Z" transform="matrix(-0.9925,-0.1225,0.1225,-0.9925,451.3045,386.3419)" stroke="none" style=";stroke-width:1;stroke:lightgray;fill:lightgray;stroke-dasharray:1,5" />
            <path fill="none" stroke-dasharray="none" d="M7 0 L10 3 L1.5 0 L10 -3 Z" stroke-width="1" transform="matrix(-0.9925,-0.1225,0.1225,-0.9925,451.3045,386.3419)" stroke-linecap="butt" style=";stroke-width:1;stroke:lightgray;fill:lightgray;stroke-dasharray:1,5" />
        </g>
        <g text-rendering="optimizeLegibility" stroke-dasharray="0,4.06" stroke-width="2.03" transform="matrix(0.8149,0,0,0.8149,8.1492,8.1492)">
            <path fill="none" d="M566.7424 226.8767 L515.6785 345.9045" style=";stroke-width:1;stroke:lightgray;fill:lightgray;stroke-dasharray:1,5" />
            <path stroke-width="1" stroke-dasharray="none" d="M7 0 L10 3 L1.5 0 L10 -3 Z" transform="matrix(0.3943,-0.919,0.919,0.3943,513.7072,350.4995)" stroke="none" style=";stroke-width:1;stroke:lightgray;fill:lightgray;stroke-dasharray:1,5" />
            <path fill="none" stroke-dasharray="none" d="M7 0 L10 3 L1.5 0 L10 -3 Z" stroke-width="1" transform="matrix(0.3943,-0.919,0.919,0.3943,513.7072,350.4995)" stroke-linecap="butt" style=";stroke-width:1;stroke:lightgray;fill:lightgray;stroke-dasharray:1,5" />
        </g>
        <g text-rendering="optimizeLegibility" stroke-dasharray="0,4.04" stroke-width="2.02" transform="matrix(0.8149,0,0,0.8149,8.1492,8.1492)">
            <path fill="none" d="M918.8652 173.6545 L846.1089 187.137" style=";stroke-width:1;stroke:gray;fill:gray;stroke-dasharray:5,2" />
            <path stroke-width="1" stroke-dasharray="none" d="M7 0 L10 3 L1.5 0 L10 -3 Z" transform="matrix(0.9833,-0.1822,0.1822,0.9833,841.1926,188.048)" stroke="none" style=";stroke-width:1;stroke:gray;fill:gray;stroke-dasharray:5,2" />
            <path fill="none" stroke-dasharray="none" d="M7 0 L10 3 L1.5 0 L10 -3 Z" stroke-width="1" transform="matrix(0.9833,-0.1822,0.1822,0.9833,841.1926,188.048)" stroke-linecap="butt" style=";stroke-width:1;stroke:gray;fill:gray;stroke-dasharray:5,2" />
        </g>
        <g text-rendering="optimizeLegibility" stroke-dasharray="0,4.06" stroke-width="2.03" transform="matrix(0.8149,0,0,0.8149,8.1492,8.1492)">
            <path fill="none" d="M552.309 209.8179 L359.0798 256.8815" style=";stroke-width:1;stroke:lightgray;fill:lightgray;stroke-dasharray:1,5" />
            <path stroke-width="1" stroke-dasharray="none" d="M7 0 L10 3 L1.5 0 L10 -3 Z" transform="matrix(0.9716,-0.2366,0.2366,0.9716,354.2218,258.0648)" stroke="none" style=";stroke-width:1;stroke:lightgray;fill:lightgray;stroke-dasharray:1,5" />
            <path fill="none" stroke-dasharray="none" d="M7 0 L10 3 L1.5 0 L10 -3 Z" stroke-width="1" transform="matrix(0.9716,-0.2366,0.2366,0.9716,354.2218,258.0648)" stroke-linecap="butt" style=";stroke-width:1;stroke:lightgray;fill:lightgray;stroke-dasharray:1,5" />
        </g>
        <g text-rendering="optimizeLegibility" stroke-dasharray="0,4.06" stroke-width="2.03" transform="matrix(0.8149,0,0,0.8149,8.1492,8.1492)">
            <path fill="none" d="M606.1714 309.7402 L738.98 351.3577" style=";stroke-width:1;stroke:lightgray;fill:lightgray;stroke-dasharray:1,5" />
            <path stroke-width="1" stroke-dasharray="none" d="M7 0 L10 3 L1.5 0 L10 -3 Z" transform="matrix(-0.9542,-0.299,0.299,-0.9542,743.7513,352.8528)" stroke="none" style=";stroke-width:1;stroke:lightgray;fill:lightgray;stroke-dasharray:1,5" />
            <path fill="none" stroke-dasharray="none" d="M7 0 L10 3 L1.5 0 L10 -3 Z" stroke-width="1" transform="matrix(-0.9542,-0.299,0.299,-0.9542,743.7513,352.8528)" stroke-linecap="butt" style=";stroke-width:1;stroke:lightgray;fill:lightgray;stroke-dasharray:1,5" />
        </g>
        <g text-rendering="optimizeLegibility" stroke-dasharray="0,4.04" stroke-width="2.02" transform="matrix(0.8149,0,0,0.8149,8.1492,8.1492)">
            <path fill="none" d="M557.5037 299.202 L360.1234 274.8389" style=";stroke-width:1;stroke:gray;fill:gray;stroke-dasharray:5,2" />
            <path stroke-width="1" stroke-dasharray="none" d="M7 0 L10 3 L1.5 0 L10 -3 Z" transform="matrix(0.9925,0.1225,-0.1225,0.9925,355.1611,274.2264)" stroke="none" style=";stroke-width:1;stroke:gray;fill:gray;stroke-dasharray:5,2" />
            <path fill="none" stroke-dasharray="none" d="M7 0 L10 3 L1.5 0 L10 -3 Z" stroke-width="1" transform="matrix(0.9925,0.1225,-0.1225,0.9925,355.1611,274.2264)" stroke-linecap="butt" style=";stroke-width:1;stroke:gray;fill:gray;stroke-dasharray:5,2" />
        </g>
        <g text-rendering="optimizeLegibility" stroke-dasharray="0,4.04" stroke-width="2.02" transform="matrix(0.8149,0,0,0.8149,8.1492,8.1492)">
            <path fill="none" d="M593.9299 185.884 L694.7821 81.0354" style=";stroke-width:1;stroke:gray;fill:gray;stroke-dasharray:5,2" />
            <path stroke-width="1" stroke-dasharray="none" d="M7 0 L10 3 L1.5 0 L10 -3 Z" transform="matrix(-0.6932,0.7207,-0.7207,-0.6932,698.2483,77.4319)" stroke="none" style=";stroke-width:1;stroke:gray;fill:gray;stroke-dasharray:5,2" />
            <path fill="none" stroke-dasharray="none" d="M7 0 L10 3 L1.5 0 L10 -3 Z" stroke-width="1" transform="matrix(-0.6932,0.7207,-0.7207,-0.6932,698.2483,77.4319)" stroke-linecap="butt" style=";stroke-width:1;stroke:gray;fill:gray;stroke-dasharray:5,2" />
        </g>
        <g text-rendering="optimizeLegibility" stroke-dasharray="0,4.06" stroke-width="2.03" transform="matrix(0.8149,0,0,0.8149,8.1492,8.1492)">
            <path fill="none" d="M383.8472 148.4472 L431.8725 136.75" style=";stroke-width:1;stroke:lightgray;fill:lightgray;stroke-dasharray:1,5" />
            <path stroke-width="1" stroke-dasharray="none" d="M7 0 L10 3 L1.5 0 L10 -3 Z" transform="matrix(-0.9716,0.2366,-0.2366,-0.9716,436.7305,135.5668)" stroke="none" style=";stroke-width:1;stroke:lightgray;fill:lightgray;stroke-dasharray:1,5" />
            <path fill="none" stroke-dasharray="none" d="M7 0 L10 3 L1.5 0 L10 -3 Z" stroke-width="1" transform="matrix(-0.9716,0.2366,-0.2366,-0.9716,436.7305,135.5668)" stroke-linecap="butt" style=";stroke-width:1;stroke:lightgray;fill:lightgray;stroke-dasharray:1,5" />
        </g>
        <g text-rendering="optimizeLegibility" stroke-dasharray="0,4.04" stroke-width="2.02" transform="matrix(0.8149,0,0,0.8149,8.1492,8.1492)">
            <path fill="none" d="M349.7008 177.3384 L330.2129 222.7638" style=";stroke-width:1;stroke:gray;fill:gray;stroke-dasharray:5,2" />
            <path stroke-width="1" stroke-dasharray="none" d="M7 0 L10 3 L1.5 0 L10 -3 Z" transform="matrix(0.3943,-0.919,0.919,0.3943,328.2416,227.3588)" stroke="none" style=";stroke-width:1;stroke:gray;fill:gray;stroke-dasharray:5,2" />
            <path fill="none" stroke-dasharray="none" d="M7 0 L10 3 L1.5 0 L10 -3 Z" stroke-width="1" transform="matrix(0.3943,-0.919,0.919,0.3943,328.2416,227.3588)" stroke-linecap="butt" style=";stroke-width:1;stroke:gray;fill:gray;stroke-dasharray:5,2" />
        </g>
        <g text-rendering="optimizeLegibility" stroke-dasharray="0,4.06" stroke-width="2.03" transform="matrix(0.8149,0,0,0.8149,8.1492,8.1492)">
            <path fill="none" d="M382.33 353.6366 L460.7393 170.8677" style=";stroke-width:1;stroke:lightgray;fill:lightgray;stroke-dasharray:1,5" />
            <path stroke-width="1" stroke-dasharray="none" d="M7 0 L10 3 L1.5 0 L10 -3 Z" transform="matrix(-0.3943,0.919,-0.919,-0.3943,462.7106,166.2727)" stroke="none" style=";stroke-width:1;stroke:lightgray;fill:lightgray;stroke-dasharray:1,5" />
            <path fill="none" stroke-dasharray="none" d="M7 0 L10 3 L1.5 0 L10 -3 Z" stroke-width="1" transform="matrix(-0.3943,0.919,-0.919,-0.3943,462.7106,166.2727)" stroke-linecap="butt" style=";stroke-width:1;stroke:lightgray;fill:lightgray;stroke-dasharray:1,5" />
        </g>
        <g text-rendering="optimizeLegibility" stroke-dasharray="0,4.04" stroke-width="2.02" transform="matrix(0.8149,0,0,0.8149,8.1492,8.1492)">
            <path fill="none" d="M360.0219 354.9331 L335.4031 312.0709" style=";stroke-width:1;stroke:gray;fill:gray;stroke-dasharray:5,2" />
            <path stroke-width="1" stroke-dasharray="none" d="M7 0 L10 3 L1.5 0 L10 -3 Z" transform="matrix(0.4981,0.8671,-0.8671,0.4981,332.9128,307.7352)" stroke="none" style=";stroke-width:1;stroke:gray;fill:gray;stroke-dasharray:5,2" />
            <path fill="none" stroke-dasharray="none" d="M7 0 L10 3 L1.5 0 L10 -3 Z" stroke-width="1" transform="matrix(0.4981,0.8671,-0.8671,0.4981,332.9128,307.7352)" stroke-linecap="butt" style=";stroke-width:1;stroke:gray;fill:gray;stroke-dasharray:5,2" />
        </g>
        <g fill="white" text-rendering="optimizeLegibility" transform="matrix(0.8149,0,0,0.8149,8.1492,8.1492)" stroke="white">
            <circle r="25" cx="576.5989" cy="203.9017" stroke="none" />
        </g>
        <g text-rendering="optimizeLegibility" stroke-width="3.03" stroke-dasharray="6.06,6.06" stroke-dashoffset="1" transform="matrix(0.8149,0,0,0.8149,8.1492,8.1492)">
            <circle fill="none" r="25" cx="576.5989" cy="203.9017" style=";stroke:#005500;stroke-width:1;stroke-dasharray:none;fill:#d8e9de" />
        </g>
        <g fill="white" text-rendering="optimizeLegibility" transform="matrix(0.8149,0,0,0.8149,8.1492,8.1492)" stroke="white">
            <circle r="45" cx="480.4523" cy="124.9177" stroke="none" />
        </g>
        <g text-rendering="optimizeLegibility" stroke-width="3.01" stroke-dasharray="6.02,6.02" stroke-dashoffset="1" transform="matrix(0.8149,0,0,0.8149,8.1492,8.1492)">
            <circle fill="none" r="45" cx="480.4523" cy="124.9177" style=";stroke:#005500;stroke-width:1;stroke-dasharray:none;fill:#d8e9de" />
        </g>
        <g fill="white" text-rendering="optimizeLegibility" transform="matrix(0.8149,0,0,0.8149,8.1492,8.1492)" stroke="white">
            <circle r="25" cx="359.5573" cy="154.3634" stroke="none" />
        </g>
        <g text-rendering="optimizeLegibility" stroke-width="3.03" stroke-dasharray="6.06,6.06" stroke-dashoffset="1" transform="matrix(0.8149,0,0,0.8149,8.1492,8.1492)">
            <circle fill="none" r="25" cx="359.5573" cy="154.3634" style=";stroke:#005500;stroke-width:1;stroke-dasharray:none;fill:#d8e9de" />
        </g>
        <g fill="white" text-rendering="optimizeLegibility" transform="matrix(0.8149,0,0,0.8149,8.1492,8.1492)" stroke="white">
            <circle r="45" cx="495.9656" cy="391.8545" stroke="none" />
        </g>
        <g text-rendering="optimizeLegibility" stroke-width="3.01" stroke-dasharray="6.02,6.02" stroke-dashoffset="1" transform="matrix(0.8149,0,0,0.8149,8.1492,8.1492)">
            <circle fill="none" r="45" cx="495.9656" cy="391.8545" style=";stroke:#005500;stroke-width:1;stroke-dasharray:none;fill:#d8e9de" />
        </g>
        <g fill="white" text-rendering="optimizeLegibility" transform="matrix(0.8149,0,0,0.8149,8.1492,8.1492)" stroke="white">
            <circle r="25" cx="582.3154" cy="302.2645" stroke="none" />
        </g>
        <g text-rendering="optimizeLegibility" stroke-width="3.03" stroke-dasharray="6.06,6.06" stroke-dashoffset="1" transform="matrix(0.8149,0,0,0.8149,8.1492,8.1492)">
            <circle fill="none" r="25" cx="582.3154" cy="302.2645" style=";stroke:#005500;stroke-width:1;stroke-dasharray:none;fill:#d8e9de" />
        </g>
        <g fill="white" text-rendering="optimizeLegibility" transform="matrix(0.8149,0,0,0.8149,8.1492,8.1492)" stroke="white">
            <circle r="25" cx="928.87" cy="410.8624" stroke="none" />
        </g>
        <g text-rendering="optimizeLegibility" stroke-width="3.03" stroke-dasharray="6.06,6.06" stroke-dashoffset="1" transform="matrix(0.8149,0,0,0.8149,8.1492,8.1492)">
            <circle fill="none" r="25" cx="928.87" cy="410.8624" style=";stroke:#005500;stroke-width:1;stroke-dasharray:none;fill:#d8e9de" />
        </g>
        <g fill="white" text-rendering="optimizeLegibility" transform="matrix(0.8149,0,0,0.8149,8.1492,8.1492)" stroke="white">
            <circle r="45" cx="786.6923" cy="366.309" stroke="none" />
        </g>
        <g text-rendering="optimizeLegibility" stroke-width="3.01" stroke-dasharray="6.02,6.02" stroke-dashoffset="1" transform="matrix(0.8149,0,0,0.8149,8.1492,8.1492)">
            <circle fill="none" r="45" cx="786.6923" cy="366.309" style=";stroke:#005500;stroke-width:1;stroke-dasharray:none;fill:#d8e9de" />
        </g>
        <g fill="white" text-rendering="optimizeLegibility" transform="matrix(0.8149,0,0,0.8149,8.1492,8.1492)" stroke="white">
            <circle r="45" cx="796.9459" cy="196.2474" stroke="none" />
        </g>
        <g text-rendering="optimizeLegibility" stroke-width="3.01" stroke-dasharray="6.02,6.02" stroke-dashoffset="1" transform="matrix(0.8149,0,0,0.8149,8.1492,8.1492)">
            <circle fill="none" r="45" cx="796.9459" cy="196.2474" style=";stroke:#005500;stroke-width:1;stroke-dasharray:none;fill:#d8e9de" />
        </g>
        <g fill="white" text-rendering="optimizeLegibility" transform="matrix(0.8149,0,0,0.8149,8.1492,8.1492)" stroke="white">
            <circle r="25" cx="372.4735" cy="376.6116" stroke="none" />
        </g>
        <g text-rendering="optimizeLegibility" stroke-width="3.03" stroke-dasharray="6.06,6.06" stroke-dashoffset="1" transform="matrix(0.8149,0,0,0.8149,8.1492,8.1492)">
            <circle fill="none" r="25" cx="372.4735" cy="376.6116" style=";stroke:#005500;stroke-width:1;stroke-dasharray:none;fill:#d8e9de" />
        </g>
        <g fill="white" text-rendering="optimizeLegibility" transform="matrix(0.8149,0,0,0.8149,8.1492,8.1492)" stroke="white">
            <circle r="25" cx="943.4467" cy="169.0994" stroke="none" />
        </g>
        <g text-rendering="optimizeLegibility" stroke-width="3.03" stroke-dasharray="6.06,6.06" stroke-dashoffset="1" transform="matrix(0.8149,0,0,0.8149,8.1492,8.1492)">
            <circle fill="none" r="25" cx="943.4467" cy="169.0994" style=";stroke:#005500;stroke-width:1;stroke-dasharray:none;fill:#d8e9de" />
        </g>
        <g fill="white" text-rendering="optimizeLegibility" transform="matrix(0.8149,0,0,0.8149,8.1492,8.1492)" stroke="white">
            <circle r="45" cx="310.5" cy="268.7138" stroke="none" />
        </g>
        <g text-rendering="optimizeLegibility" stroke-width="3.01" stroke-dasharray="6.02,6.02" stroke-dashoffset="1" transform="matrix(0.8149,0,0,0.8149,8.1492,8.1492)">
            <circle fill="none" r="45" cx="310.5" cy="268.7138" style=";stroke:#005500;stroke-width:1;stroke-dasharray:none;fill:#d8e9de" />
        </g>
        <g fill="white" text-rendering="optimizeLegibility" transform="matrix(0.8149,0,0,0.8149,8.1492,8.1492)" stroke="white">
            <circle r="45" cx="729.444" cy="45" stroke="none" />
        </g>
        <g text-rendering="optimizeLegibility" stroke-width="3.01" stroke-dasharray="6.02,6.02" stroke-dashoffset="1" transform="matrix(0.8149,0,0,0.8149,8.1492,8.1492)">
            <circle fill="none" r="45" cx="729.444" cy="45" style=";stroke:#005500;stroke-width:1;stroke-dasharray:none;fill:#d8e9de" />
        </g>
        <g text-rendering="optimizeLegibility" font-size="18px" font-family="sans-serif" transform="matrix(0.8149,0,0,0.8149,8.1492,8.1492) translate(503.6844,159.3143)" display="none">
            <text x="2" y="20.0967" clip-path="url(#clipPath1)" stroke="none" style=";font-family:&apos;Arial Rounded MT&apos;, Arial;fill:lightgray;font-size:14px">7.26121</text>
        </g>
        <g text-rendering="optimizeLegibility" font-size="18px" font-family="sans-serif" transform="matrix(0.8149,0,0,0.8149,8.1492,8.1492) translate(503.6844,159.3143)">
            <text x="2" y="20.0967" clip-path="url(#clipPath2)" stroke="none" style=";font-family:&apos;Arial Rounded MT&apos;, Arial;fill:lightgray;font-size:14px">
                <a xlink:href="/pedigree/775.1/10356.1/1/1" target="_top">7.26121</a>
            </text>
        </g>
        <g text-rendering="optimizeLegibility" font-size="18px" font-family="sans-serif" transform="matrix(0.8149,0,0,0.8149,8.1492,8.1492) translate(387.5177,250.0789)" display="none">
            <text x="2" y="20.0967" clip-path="url(#clipPath1)" stroke="none" style=";font-family:&apos;Arial Rounded MT&apos;, Arial;fill:lightgray;font-size:14px">9.41824</text>
        </g>
        <g text-rendering="optimizeLegibility" font-size="18px" font-family="sans-serif" transform="matrix(0.8149,0,0,0.8149,8.1492,8.1492) translate(387.5177,250.0789)">
            <text x="2" y="20.0967" clip-path="url(#clipPath3)" stroke="none" style=";font-family:&apos;Arial Rounded MT&apos;, Arial;fill:lightgray;font-size:14px">
                <a xlink:href="/pedigree/10356.1/10356.5/1/1" target="_top">9.41824</a>
            </text>
        </g>
        <g text-rendering="optimizeLegibility" font-size="17px" font-family="sans-serif" transform="matrix(0.8149,0,0,0.8149,8.1492,8.1492) translate(505.6275,211.1761)" display="none">
            <text x="2" y="19.0913" clip-path="url(#clipPath4)" stroke="none" style=";font-family:&apos;Arial Rounded MT&apos;, Arial;fill:gray;font-size:14px">12.0389</text>
        </g>
        <g text-rendering="optimizeLegibility" font-size="17px" font-family="sans-serif" transform="matrix(0.8149,0,0,0.8149,8.1492,8.1492) translate(505.6275,211.1761)">
            <text x="2" y="19.0913" clip-path="url(#clipPath5)" stroke="none" style=";font-family:&apos;Arial Rounded MT&apos;, Arial;fill:gray;font-size:14px">
                <a xlink:href="/pedigree/10356.6/10356.1/1/1" target="_top">12.0389</a>
            </text>
        </g>
        <g text-rendering="optimizeLegibility" font-size="17px" font-family="sans-serif" transform="matrix(0.8149,0,0,0.8149,8.1492,8.1492) translate(837.4508,379.6709)" display="none">
            <text x="2" y="19.0913" clip-path="url(#clipPath4)" stroke="none" style=";font-family:&apos;Arial Rounded MT&apos;, Arial;fill:gray;font-size:14px">12.7076</text>
        </g>
        <g text-rendering="optimizeLegibility" font-size="17px" font-family="sans-serif" transform="matrix(0.8149,0,0,0.8149,8.1492,8.1492) translate(837.4508,379.6709)">
            <text x="2" y="19.0913" clip-path="url(#clipPath6)" stroke="none" style=";font-family:&apos;Arial Rounded MT&apos;, Arial;fill:gray;font-size:14px">
                <a xlink:href="/pedigree/5688.1/5688.1/1/1" target="_top">12.7076</a>
            </text>
        </g>
        <g text-rendering="optimizeLegibility" font-size="18px" font-family="sans-serif" transform="matrix(0.8149,0,0,0.8149,8.1492,8.1492) translate(647.2724,187.3919)" display="none">
            <text x="2" y="20.0967" clip-path="url(#clipPath7)" stroke="none" style=";font-family:&apos;Arial Rounded MT&apos;, Arial;fill:lightgray;font-size:14px">3.4435</text>
        </g>
        <g text-rendering="optimizeLegibility" font-size="18px" font-family="sans-serif" transform="matrix(0.8149,0,0,0.8149,8.1492,8.1492) translate(647.2724,187.3919)">
            <text x="2" y="20.0967" clip-path="url(#clipPath8)" stroke="none" style=";font-family:&apos;Arial Rounded MT&apos;, Arial;fill:lightgray;font-size:14px">
                <a xlink:href="/pedigree/775.1/10379.1/1/1" target="_top">3.4435</a>
            </text>
        </g>
        <g text-rendering="optimizeLegibility" font-size="17px" font-family="sans-serif" transform="matrix(0.8149,0,0,0.8149,8.1492,8.1492) translate(516.3151,325.6444)" display="none">
            <text x="2" y="19.0913" clip-path="url(#clipPath4)" stroke="none" style=";font-family:&apos;Arial Rounded MT&apos;, Arial;fill:gray;font-size:14px">12.0389</text>
        </g>
        <g text-rendering="optimizeLegibility" font-size="17px" font-family="sans-serif" transform="matrix(0.8149,0,0,0.8149,8.1492,8.1492) translate(516.3151,325.6444)">
            <text x="2" y="19.0913" clip-path="url(#clipPath5)" stroke="none" style=";font-family:&apos;Arial Rounded MT&apos;, Arial;fill:gray;font-size:14px">
                <a xlink:href="/pedigree/10356.6/10356.5/1/1" target="_top">12.0389</a>
            </text>
        </g>
        <g text-rendering="optimizeLegibility" font-size="18px" font-family="sans-serif" transform="matrix(0.8149,0,0,0.8149,8.1492,8.1492) translate(387.3137,369.6718)" display="none">
            <text x="2" y="20.0967" clip-path="url(#clipPath1)" stroke="none" style=";font-family:&apos;Arial Rounded MT&apos;, Arial;fill:lightgray;font-size:14px">11.4487</text>
        </g>
        <g text-rendering="optimizeLegibility" font-size="18px" font-family="sans-serif" transform="matrix(0.8149,0,0,0.8149,8.1492,8.1492) translate(387.3137,369.6718)">
            <text x="2" y="20.0967" clip-path="url(#clipPath3)" stroke="none" style=";font-family:&apos;Arial Rounded MT&apos;, Arial;fill:lightgray;font-size:14px">
                <a xlink:href="/pedigree/10356.5/10356.5/1/1" target="_top">11.4487</a>
            </text>
        </g>
        <g text-rendering="optimizeLegibility" font-size="18px" font-family="sans-serif" transform="matrix(0.8149,0,0,0.8149,8.1492,8.1492) translate(506.0723,274.8481)" display="none">
            <text x="2" y="20.0967" clip-path="url(#clipPath1)" stroke="none" style=";font-family:&apos;Arial Rounded MT&apos;, Arial;fill:lightgray;font-size:14px">7.26121</text>
        </g>
        <g text-rendering="optimizeLegibility" font-size="18px" font-family="sans-serif" transform="matrix(0.8149,0,0,0.8149,8.1492,8.1492) translate(506.0723,274.8481)">
            <text x="2" y="20.0967" clip-path="url(#clipPath2)" stroke="none" style=";font-family:&apos;Arial Rounded MT&apos;, Arial;fill:lightgray;font-size:14px">
                <a xlink:href="/pedigree/775.1/10356.5/1/1" target="_top">7.26121</a>
            </text>
        </g>
        <g text-rendering="optimizeLegibility" font-size="17px" font-family="sans-serif" transform="matrix(0.8149,0,0,0.8149,8.1492,8.1492) translate(848.9665,168.3552)" display="none">
            <text x="2" y="19.0913" clip-path="url(#clipPath4)" stroke="none" style=";font-family:&apos;Arial Rounded MT&apos;, Arial;fill:gray;font-size:14px">5.25578</text>
        </g>
        <g text-rendering="optimizeLegibility" font-size="17px" font-family="sans-serif" transform="matrix(0.8149,0,0,0.8149,8.1492,8.1492) translate(848.9665,168.3552)">
            <text x="2" y="19.0913" clip-path="url(#clipPath5)" stroke="none" style=";font-family:&apos;Arial Rounded MT&apos;, Arial;fill:gray;font-size:14px">
                <a xlink:href="/pedigree/10379.1/10379.1/1/1" target="_top">5.25578</a>
            </text>
        </g>
        <g text-rendering="optimizeLegibility" font-size="18px" font-family="sans-serif" transform="matrix(0.8149,0,0,0.8149,8.1492,8.1492) translate(419.0495,220.8421)" display="none">
            <text x="2" y="20.0967" clip-path="url(#clipPath1)" stroke="none" style=";font-family:&apos;Arial Rounded MT&apos;, Arial;fill:lightgray;font-size:14px">7.26121</text>
        </g>
        <g text-rendering="optimizeLegibility" font-size="18px" font-family="sans-serif" transform="matrix(0.8149,0,0,0.8149,8.1492,8.1492) translate(419.0495,220.8421)">
            <text x="2" y="20.0967" clip-path="url(#clipPath2)" stroke="none" style=";font-family:&apos;Arial Rounded MT&apos;, Arial;fill:lightgray;font-size:14px">
                <a xlink:href="/pedigree/775.1/10356.6/1/1" target="_top">7.26121</a>
            </text>
        </g>
        <g text-rendering="optimizeLegibility" font-size="18px" font-family="sans-serif" transform="matrix(0.8149,0,0,0.8149,8.1492,8.1492) translate(640.0038,318.1231)" display="none">
            <text x="2" y="20.0967" clip-path="url(#clipPath1)" stroke="none" style=";font-family:&apos;Arial Rounded MT&apos;, Arial;fill:lightgray;font-size:14px">7.18189</text>
        </g>
        <g text-rendering="optimizeLegibility" font-size="18px" font-family="sans-serif" transform="matrix(0.8149,0,0,0.8149,8.1492,8.1492) translate(640.0038,318.1231)">
            <text x="2" y="20.0967" clip-path="url(#clipPath9)" stroke="none" style=";font-family:&apos;Arial Rounded MT&apos;, Arial;fill:lightgray;font-size:14px">
                <a xlink:href="/pedigree/10356.6/5688.1/1/1" target="_top">7.18189</a>
            </text>
        </g>
        <g text-rendering="optimizeLegibility" font-size="17px" font-family="sans-serif" transform="matrix(0.8149,0,0,0.8149,8.1492,8.1492) translate(424.9077,274.3085)" display="none">
            <text x="2" y="19.0913" clip-path="url(#clipPath4)" stroke="none" style=";font-family:&apos;Arial Rounded MT&apos;, Arial;fill:gray;font-size:14px">12.0389</text>
        </g>
        <g text-rendering="optimizeLegibility" font-size="17px" font-family="sans-serif" transform="matrix(0.8149,0,0,0.8149,8.1492,8.1492) translate(424.9077,274.3085)">
            <text x="2" y="19.0913" clip-path="url(#clipPath5)" stroke="none" style=";font-family:&apos;Arial Rounded MT&apos;, Arial;fill:gray;font-size:14px">
                <a xlink:href="/pedigree/10356.6/10356.6/1/1" target="_top">12.0389</a>
            </text>
        </g>
        <g text-rendering="optimizeLegibility" font-size="17px" font-family="sans-serif" transform="matrix(0.8149,0,0,0.8149,8.1492,8.1492) translate(611.9026,122.0359)" display="none">
            <text x="2" y="19.0913" clip-path="url(#clipPath4)" stroke="none" style=";font-family:&apos;Arial Rounded MT&apos;, Arial;fill:gray;font-size:14px">12.8394</text>
        </g>
        <g text-rendering="optimizeLegibility" font-size="17px" font-family="sans-serif" transform="matrix(0.8149,0,0,0.8149,8.1492,8.1492) translate(611.9026,122.0359)">
            <text x="2" y="19.0913" clip-path="url(#clipPath10)" stroke="none" style=";font-family:&apos;Arial Rounded MT&apos;, Arial;fill:gray;font-size:14px">
                <a xlink:href="/pedigree/775.1/775.1/1/1" target="_top">12.8394</a>
            </text>
        </g>
        <g text-rendering="optimizeLegibility" font-size="18px" font-family="sans-serif" transform="matrix(0.8149,0,0,0.8149,8.1492,8.1492) translate(373.3598,129.5686)" display="none">
            <text x="2" y="20.0967" clip-path="url(#clipPath1)" stroke="none" style=";font-family:&apos;Arial Rounded MT&apos;, Arial;fill:lightgray;font-size:14px">9.41824</text>
        </g>
        <g text-rendering="optimizeLegibility" font-size="18px" font-family="sans-serif" transform="matrix(0.8149,0,0,0.8149,8.1492,8.1492) translate(373.3598,129.5686)">
            <text x="2" y="20.0967" clip-path="url(#clipPath3)" stroke="none" style=";font-family:&apos;Arial Rounded MT&apos;, Arial;fill:lightgray;font-size:14px">
                <a xlink:href="/pedigree/10356.1/10356.1/1/1" target="_top">9.41824</a>
            </text>
        </g>
        <g text-rendering="optimizeLegibility" font-size="17px" font-family="sans-serif" transform="matrix(0.8149,0,0,0.8149,8.1492,8.1492) translate(307.8187,189.1236)" display="none">
            <text x="2" y="19.0913" clip-path="url(#clipPath4)" stroke="none" style=";font-family:&apos;Arial Rounded MT&apos;, Arial;fill:gray;font-size:14px">9.41824</text>
        </g>
        <g text-rendering="optimizeLegibility" font-size="17px" font-family="sans-serif" transform="matrix(0.8149,0,0,0.8149,8.1492,8.1492) translate(307.8187,189.1236)">
            <text x="2" y="19.0913" clip-path="url(#clipPath5)" stroke="none" style=";font-family:&apos;Arial Rounded MT&apos;, Arial;fill:gray;font-size:14px">
                <a xlink:href="/pedigree/10356.1/10356.6/1/1" target="_top">9.41824</a>
            </text>
        </g>
        <g text-rendering="optimizeLegibility" font-size="18px" font-family="sans-serif" transform="matrix(0.8149,0,0,0.8149,8.1492,8.1492) translate(387.6728,247.7347)" display="none">
            <text x="2" y="20.0967" clip-path="url(#clipPath1)" stroke="none" style=";font-family:&apos;Arial Rounded MT&apos;, Arial;fill:lightgray;font-size:14px">11.4487</text>
        </g>
        <g text-rendering="optimizeLegibility" font-size="18px" font-family="sans-serif" transform="matrix(0.8149,0,0,0.8149,8.1492,8.1492) translate(387.6728,247.7347)">
            <text x="2" y="20.0967" clip-path="url(#clipPath3)" stroke="none" style=";font-family:&apos;Arial Rounded MT&apos;, Arial;fill:lightgray;font-size:14px">
                <a xlink:href="/pedigree/10356.5/10356.1/1/1" target="_top">11.4487</a>
            </text>
        </g>
        <g text-rendering="optimizeLegibility" font-size="17px" font-family="sans-serif" transform="matrix(0.8149,0,0,0.8149,8.1492,8.1492) translate(315.7305,320.2477)" display="none">
            <text x="2" y="19.0913" clip-path="url(#clipPath4)" stroke="none" style=";font-family:&apos;Arial Rounded MT&apos;, Arial;fill:gray;font-size:14px">11.4487</text>
        </g>
        <g text-rendering="optimizeLegibility" font-size="17px" font-family="sans-serif" transform="matrix(0.8149,0,0,0.8149,8.1492,8.1492) translate(315.7305,320.2477)">
            <text x="2" y="19.0913" clip-path="url(#clipPath5)" stroke="none" style=";font-family:&apos;Arial Rounded MT&apos;, Arial;fill:gray;font-size:14px">
                <a xlink:href="/pedigree/10356.5/10356.6/1/1" target="_top">11.4487</a>
            </text>
        </g>
        <g fill="rgb(135,206,250)" text-rendering="optimizeLegibility" font-size="23px" font-family="sans-serif" transform="matrix(0.8149,0,0,0.8149,8.1492,8.1492) translate(568.0989,187.8117)" stroke="rgb(135,206,250)">
            <text x="2" y="25.1235" clip-path="url(#clipPath11)" stroke="none" style=";font-family:&apos;Arial Rounded MT&apos;, Arial;fill:#005500;font-size:20px">0</text>
        </g>
        <g fill="rgb(135,206,250)" text-rendering="optimizeLegibility" font-size="21px" font-family="sans-serif" transform="matrix(0.8149,0,0,0.8149,8.1492,8.1492) translate(439.4523,110.0527)" stroke="rgb(135,206,250)" display="none">
            <text x="2" y="23.1128" clip-path="url(#clipPath12)" stroke="none" style=";font-family:&apos;Arial Rounded MT&apos;, Arial;fill:#005500;font-size:20px">10356.1</text>
        </g>
        <g fill="rgb(135,206,250)" text-rendering="optimizeLegibility" font-size="21px" font-family="sans-serif" transform="matrix(0.8149,0,0,0.8149,8.1492,8.1492) translate(439.4523,110.0527)" stroke="rgb(135,206,250)">
            <text x="2" y="23.1128" clip-path="url(#clipPath13)" stroke="none" style=";font-family:&apos;Arial Rounded MT&apos;, Arial;fill:#005500;font-size:20px">
                <a xlink:href="/50/1/?search=10356.1" target="_top">10356.1</a>
            </text>
        </g>
        <g fill="rgb(135,206,250)" text-rendering="optimizeLegibility" font-size="23px" font-family="sans-serif" transform="matrix(0.8149,0,0,0.8149,8.1492,8.1492) translate(351.0573,138.2734)" stroke="rgb(135,206,250)">
            <text x="2" y="25.1235" clip-path="url(#clipPath11)" stroke="none" style=";font-family:&apos;Arial Rounded MT&apos;, Arial;fill:#005500;font-size:20px">1</text>
        </g>
        <g fill="rgb(135,206,250)" text-rendering="optimizeLegibility" font-size="21px" font-family="sans-serif" transform="matrix(0.8149,0,0,0.8149,8.1492,8.1492) translate(454.9656,376.9895)" stroke="rgb(135,206,250)" display="none">
            <text x="2" y="23.1128" clip-path="url(#clipPath12)" stroke="none" style=";font-family:&apos;Arial Rounded MT&apos;, Arial;fill:#005500;font-size:20px">10356.5</text>
        </g>
        <g fill="rgb(135,206,250)" text-rendering="optimizeLegibility" font-size="21px" font-family="sans-serif" transform="matrix(0.8149,0,0,0.8149,8.1492,8.1492) translate(454.9656,376.9895)" stroke="rgb(135,206,250)">
            <text x="2" y="23.1128" clip-path="url(#clipPath13)" stroke="none" style=";font-family:&apos;Arial Rounded MT&apos;, Arial;fill:#005500;font-size:20px">
                <a xlink:href="/50/1/?search=10356.5" target="_top">10356.5</a>
            </text>
        </g>
        <g fill="rgb(135,206,250)" text-rendering="optimizeLegibility" font-size="23px" font-family="sans-serif" transform="matrix(0.8149,0,0,0.8149,8.1492,8.1492) translate(573.8154,286.1745)" stroke="rgb(135,206,250)">
            <text x="2" y="25.1235" clip-path="url(#clipPath11)" stroke="none" style=";font-family:&apos;Arial Rounded MT&apos;, Arial;fill:#005500;font-size:20px">2</text>
        </g>
        <g fill="rgb(135,206,250)" text-rendering="optimizeLegibility" font-size="23px" font-family="sans-serif" transform="matrix(0.8149,0,0,0.8149,8.1492,8.1492) translate(920.37,394.7724)" stroke="rgb(135,206,250)">
            <text x="2" y="25.1235" clip-path="url(#clipPath11)" stroke="none" style=";font-family:&apos;Arial Rounded MT&apos;, Arial;fill:#005500;font-size:20px">3</text>
        </g>
        <g fill="rgb(135,206,250)" text-rendering="optimizeLegibility" font-size="21px" font-family="sans-serif" transform="matrix(0.8149,0,0,0.8149,8.1492,8.1492) translate(751.6923,351.444)" stroke="rgb(135,206,250)" display="none">
            <text x="2" y="23.1128" clip-path="url(#clipPath14)" stroke="none" style=";font-family:&apos;Arial Rounded MT&apos;, Arial;fill:#005500;font-size:20px">5688.1</text>
        </g>
        <g fill="rgb(135,206,250)" text-rendering="optimizeLegibility" font-size="21px" font-family="sans-serif" transform="matrix(0.8149,0,0,0.8149,8.1492,8.1492) translate(751.6923,351.444)" stroke="rgb(135,206,250)">
            <text x="2" y="23.1128" clip-path="url(#clipPath15)" stroke="none" style=";font-family:&apos;Arial Rounded MT&apos;, Arial;fill:#005500;font-size:20px">
                <a xlink:href="/50/1/?search=5688.1" target="_top">5688.1</a>
            </text>
        </g>
        <g fill="rgb(135,206,250)" text-rendering="optimizeLegibility" font-size="21px" font-family="sans-serif" transform="matrix(0.8149,0,0,0.8149,8.1492,8.1492) translate(755.9459,181.3824)" stroke="rgb(135,206,250)" display="none">
            <text x="2" y="23.1128" clip-path="url(#clipPath12)" stroke="none" style=";font-family:&apos;Arial Rounded MT&apos;, Arial;fill:#005500;font-size:20px">10379.1</text>
        </g>
        <g fill="rgb(135,206,250)" text-rendering="optimizeLegibility" font-size="21px" font-family="sans-serif" transform="matrix(0.8149,0,0,0.8149,8.1492,8.1492) translate(755.9459,181.3824)" stroke="rgb(135,206,250)">
            <text x="2" y="23.1128" clip-path="url(#clipPath13)" stroke="none" style=";font-family:&apos;Arial Rounded MT&apos;, Arial;fill:#005500;font-size:20px">
                <a xlink:href="/50/1/?search=10379.1" target="_top">10379.1</a>
            </text>
        </g>
        <g fill="rgb(135,206,250)" text-rendering="optimizeLegibility" font-size="23px" font-family="sans-serif" transform="matrix(0.8149,0,0,0.8149,8.1492,8.1492) translate(363.9735,360.5216)" stroke="rgb(135,206,250)">
            <text x="2" y="25.1235" clip-path="url(#clipPath11)" stroke="none" style=";font-family:&apos;Arial Rounded MT&apos;, Arial;fill:#005500;font-size:20px">4</text>
        </g>
        <g fill="rgb(135,206,250)" text-rendering="optimizeLegibility" font-size="23px" font-family="sans-serif" transform="matrix(0.8149,0,0,0.8149,8.1492,8.1492) translate(934.9467,153.0094)" stroke="rgb(135,206,250)">
            <text x="2" y="25.1235" clip-path="url(#clipPath11)" stroke="none" style=";font-family:&apos;Arial Rounded MT&apos;, Arial;fill:#005500;font-size:20px">5</text>
        </g>
        <g fill="rgb(135,206,250)" text-rendering="optimizeLegibility" font-size="21px" font-family="sans-serif" transform="matrix(0.8149,0,0,0.8149,8.1492,8.1492) translate(269.5,253.8488)" stroke="rgb(135,206,250)" display="none">
            <text x="2" y="23.1128" clip-path="url(#clipPath12)" stroke="none" style=";font-family:&apos;Arial Rounded MT&apos;, Arial;fill:#005500;font-size:20px">10356.6</text>
        </g>
        <g fill="rgb(135,206,250)" text-rendering="optimizeLegibility" font-size="21px" font-family="sans-serif" transform="matrix(0.8149,0,0,0.8149,8.1492,8.1492) translate(269.5,253.8488)" stroke="rgb(135,206,250)">
            <text x="2" y="23.1128" clip-path="url(#clipPath13)" stroke="none" style=";font-family:&apos;Arial Rounded MT&apos;, Arial;fill:#005500;font-size:20px">
                <a xlink:href="/50/1/?search=10356.6" target="_top">10356.6</a>
            </text>
        </g>
        <g fill="rgb(135,206,250)" text-rendering="optimizeLegibility" font-size="21px" font-family="sans-serif" transform="matrix(0.8149,0,0,0.8149,8.1492,8.1492) translate(700.444,30.135)" stroke="rgb(135,206,250)" display="none">
            <text x="2" y="23.1128" clip-path="url(#clipPath16)" stroke="none" style=";font-family:&apos;Arial Rounded MT&apos;, Arial;fill:#005500;font-size:20px">775.1</text>
        </g>
        <g fill="rgb(135,206,250)" text-rendering="optimizeLegibility" font-size="21px" font-family="sans-serif" transform="matrix(0.8149,0,0,0.8149,8.1492,8.1492) translate(700.444,30.135)" stroke="rgb(135,206,250)">
            <text x="2" y="23.1128" clip-path="url(#clipPath17)" stroke="none" style=";font-family:&apos;Arial Rounded MT&apos;, Arial;fill:#005500;font-size:20px">
                <a xlink:href="/50/1/?search=775.1" target="_top">775.1</a>
            </text>
        </g>
    </g>
</svg>
