<svg xmlns="http://www.w3.org/2000/svg" viewBox="0 0 855.32 335"><defs><style>.cls-1,.cls-6,.cls-9{fill:#fff;}.cls-1{fill-opacity:0;}.cls-11,.cls-2,.cls-3{fill:#d3d3d3;}.cls-2,.cls-3{stroke:#d3d3d3;stroke-dasharray:1 5;}.cls-2,.cls-4,.cls-7,.cls-8{stroke-linecap:square;}.cls-2,.cls-3,.cls-4,.cls-5,.cls-7,.cls-8{stroke-miterlimit:10;}.cls-10,.cls-4,.cls-5{fill:#818181;}.cls-4,.cls-5{stroke:#818181;stroke-dasharray:5 2;}.cls-7{fill:#d8e8de;stroke:#1f562b;}.cls-8{font-size:13px;fill:#1f562b;stroke:#d8e8de;stroke-width:0.25px;font-family:Calibri-Bold, Calibri Bold;font-weight:700;}.cls-9{fill-rule:evenodd;}.cls-10,.cls-11{font-size:11px;font-family:Calibri, Calibri;}</style></defs><title>368_blind_network</title><g id="Layer_2" data-name="Layer 2"><g id="Layer_1-2" data-name="Layer 1"><g id="_Group_" data-name="&lt;Group&gt;"><g id="_Group_2" data-name="&lt;Group&gt;"><g id="_Group_3" data-name="&lt;Group&gt;"><g id="_Group_4" data-name="&lt;Group&gt;"><rect id="_Path_" data-name="&lt;Path&gt;" class="cls-1" width="855.32" height="335"/></g><g id="_Group_5" data-name="&lt;Group&gt;"><path id="_Path_2" data-name="&lt;Path&gt;" class="cls-2" d="M411.87,143.78,384.14,121"/><path id="_Path_3" data-name="&lt;Path&gt;" class="cls-2" d="M385.26,121.92l.3,3.07-3.38-5.6,6.15,2.23Z"/><path id="_Path_4" data-name="&lt;Path&gt;" class="cls-3" d="M385.26,121.92l.3,3.07-3.38-5.6,6.15,2.23Z"/></g><g id="_Group_6" data-name="&lt;Group&gt;"><path id="_Path_5" data-name="&lt;Path&gt;" class="cls-2" d="M277.35,135.07l71.92,125.21"/><path id="_Path_6" data-name="&lt;Path&gt;" class="cls-2" d="M348.55,259l.8-3,1.19,6.44-5-4.27Z"/><path id="_Path_7" data-name="&lt;Path&gt;" class="cls-3" d="M348.55,259l.8-3,1.19,6.44-5-4.27Z"/></g><g id="_Group_7" data-name="&lt;Group&gt;"><path id="_Path_8" data-name="&lt;Path&gt;" class="cls-4" d="M421,211l-46.84-81.54"/><path id="_Path_9" data-name="&lt;Path&gt;" class="cls-4" d="M374.89,130.69l-.8,3-1.19-6.44,5,4.27Z"/><path id="_Path_10" data-name="&lt;Path&gt;" class="cls-5" d="M374.89,130.69l-.8,3-1.19-6.44,5,4.27Z"/></g><g id="_Group_8" data-name="&lt;Group&gt;"><path id="_Path_11" data-name="&lt;Path&gt;" class="cls-4" d="M664.34,300.14l-51.27-16.07"/><path id="_Path_12" data-name="&lt;Path&gt;" class="cls-4" d="M614.46,284.51l1.43,2.73-5.24-3.93,6.54-.23Z"/><path id="_Path_13" data-name="&lt;Path&gt;" class="cls-5" d="M614.46,284.51l1.43,2.73-5.24-3.93,6.54-.23Z"/></g><g id="_Group_9" data-name="&lt;Group&gt;"><path id="_Path_14" data-name="&lt;Path&gt;" class="cls-2" d="M444,154.67,549.6,151"/><path id="_Path_15" data-name="&lt;Path&gt;" class="cls-2" d="M548.14,151.05l-2.25-2.1,6.25,2-6.1,2.39Z"/><path id="_Path_16" data-name="&lt;Path&gt;" class="cls-3" d="M548.14,151.05l-2.25-2.1,6.25,2-6.1,2.39Z"/></g><g id="_Group_10" data-name="&lt;Group&gt;"><path id="_Path_17" data-name="&lt;Path&gt;" class="cls-4" d="M417.45,239.79l-24.91,25.84"/><path id="_Path_18" data-name="&lt;Path&gt;" class="cls-4" d="M393.55,264.58l3.08-.06-5.85,2.94,2.72-6Z"/><path id="_Path_19" data-name="&lt;Path&gt;" class="cls-5" d="M393.55,264.58l3.08-.06-5.85,2.94,2.72-6Z"/></g><g id="_Group_11" data-name="&lt;Group&gt;"><path id="_Path_20" data-name="&lt;Path&gt;" class="cls-2" d="M295.71,282.92l35.61,4.4"/><path id="_Path_21" data-name="&lt;Path&gt;" class="cls-2" d="M329.88,287.14,328,284.71l5.86,2.92-6.4,1.4Z"/><path id="_Path_22" data-name="&lt;Path&gt;" class="cls-3" d="M329.88,287.14,328,284.71l5.86,2.92-6.4,1.4Z"/></g><g id="_Group_12" data-name="&lt;Group&gt;"><path id="_Path_23" data-name="&lt;Path&gt;" class="cls-2" d="M418.74,172,381.66,258.4"/><path id="_Path_24" data-name="&lt;Path&gt;" class="cls-2" d="M382.24,257.07l2.86-1.15-4.44,4.82.43-6.53Z"/><path id="_Path_25" data-name="&lt;Path&gt;" class="cls-3" d="M382.24,257.07l2.86-1.15-4.44,4.82.43-6.53Z"/></g><g id="_Group_13" data-name="&lt;Group&gt;"><path id="_Path_26" data-name="&lt;Path&gt;" class="cls-4" d="M674.39,133.34l-52.82,9.79"/><path id="_Path_27" data-name="&lt;Path&gt;" class="cls-4" d="M623,142.87l2.54,1.74-6.47-1,5.67-3.26Z"/><path id="_Path_28" data-name="&lt;Path&gt;" class="cls-5" d="M623,142.87l2.54,1.74-6.47-1,5.67-3.26Z"/></g><g id="_Group_14" data-name="&lt;Group&gt;"><path id="_Path_29" data-name="&lt;Path&gt;" class="cls-2" d="M408.26,159.6,268,193.77"/><path id="_Path_30" data-name="&lt;Path&gt;" class="cls-2" d="M269.38,193.42,272,195l-6.51-.65,5.48-3.58Z"/><path id="_Path_31" data-name="&lt;Path&gt;" class="cls-3" d="M269.38,193.42,272,195l-6.51-.65,5.48-3.58Z"/></g><g id="_Group_15" data-name="&lt;Group&gt;"><path id="_Path_32" data-name="&lt;Path&gt;" class="cls-2" d="M447.37,232.14l96.42,30.22"/><path id="_Path_33" data-name="&lt;Path&gt;" class="cls-2" d="M542.41,261.93,541,259.2l5.24,3.92-6.54.23Z"/><path id="_Path_34" data-name="&lt;Path&gt;" class="cls-3" d="M542.41,261.93,541,259.2l5.24,3.92-6.54.23Z"/></g><g id="_Group_16" data-name="&lt;Group&gt;"><path id="_Path_35" data-name="&lt;Path&gt;" class="cls-4" d="M412,224.49,268.73,206.8"/><path id="_Path_36" data-name="&lt;Path&gt;" class="cls-4" d="M270.17,207l1.89,2.43-5.86-2.92,6.39-1.4Z"/><path id="_Path_37" data-name="&lt;Path&gt;" class="cls-5" d="M270.17,207l1.89,2.43-5.86-2.92,6.39-1.4Z"/></g><g id="_Group_17" data-name="&lt;Group&gt;"><path id="_Path_38" data-name="&lt;Path&gt;" class="cls-4" d="M438.48,142.22,511.7,66.1"/><path id="_Path_39" data-name="&lt;Path&gt;" class="cls-4" d="M510.69,67.14l-3.08.06,5.85-2.94-2.71,6Z"/><path id="_Path_40" data-name="&lt;Path&gt;" class="cls-5" d="M510.69,67.14l-3.08.06,5.85-2.94-2.71,6Z"/></g><g id="_Group_18" data-name="&lt;Group&gt;"><path id="_Path_41" data-name="&lt;Path&gt;" class="cls-2" d="M286,115l34.87-8.49"/><path id="_Path_42" data-name="&lt;Path&gt;" class="cls-2" d="M319.41,106.89l-2.63-1.6,6.51.66-5.48,3.57Z"/><path id="_Path_43" data-name="&lt;Path&gt;" class="cls-3" d="M319.41,106.89l-2.63-1.6,6.51.66-5.48,3.57Z"/></g><g id="_Group_19" data-name="&lt;Group&gt;"><path id="_Path_44" data-name="&lt;Path&gt;" class="cls-4" d="M261.16,136,247,169"/><path id="_Path_45" data-name="&lt;Path&gt;" class="cls-4" d="M247.58,167.66l2.86-1.14L246,171.33l.43-6.53Z"/><path id="_Path_46" data-name="&lt;Path&gt;" class="cls-5" d="M247.58,167.66l2.86-1.14L246,171.33l.43-6.53Z"/></g><g id="_Group_20" data-name="&lt;Group&gt;"><path id="_Path_47" data-name="&lt;Path&gt;" class="cls-2" d="M284.85,264l56.93-132.7"/><path id="_Path_48" data-name="&lt;Path&gt;" class="cls-2" d="M341.2,132.65l-2.86,1.14,4.44-4.81-.43,6.53Z"/><path id="_Path_49" data-name="&lt;Path&gt;" class="cls-3" d="M341.2,132.65l-2.86,1.14,4.44-4.81-.43,6.53Z"/></g><g id="_Group_21" data-name="&lt;Group&gt;"><path id="_Path_50" data-name="&lt;Path&gt;" class="cls-4" d="M268.65,265l-17.87-31.12"/><path id="_Path_51" data-name="&lt;Path&gt;" class="cls-4" d="M251.5,235.1l-.8,3-1.19-6.44,5,4.27Z"/><path id="_Path_52" data-name="&lt;Path&gt;" class="cls-5" d="M251.5,235.1l-.8,3-1.19-6.44,5,4.27Z"/></g><g id="_Group_22" data-name="&lt;Group&gt;"><circle id="_Path_53" data-name="&lt;Path&gt;" class="cls-6" cx="425.9" cy="155.3" r="18.15"/></g><g id="_Group_23" data-name="&lt;Group&gt;"><circle id="_Path_54" data-name="&lt;Path&gt;" class="cls-7" cx="425.9" cy="155.3" r="18.15"/></g><g id="_Group_24" data-name="&lt;Group&gt;"><circle id="_Path_55" data-name="&lt;Path&gt;" class="cls-6" cx="356.09" cy="97.96" r="32.67" transform="translate(186.35 425.95) rotate(-78.02)"/></g><g id="_Group_25" data-name="&lt;Group&gt;"><circle id="_Path_56" data-name="&lt;Path&gt;" class="cls-7" cx="356.09" cy="97.96" r="32.67" transform="translate(186.35 425.95) rotate(-78.02)"/></g><g id="_Group_26" data-name="&lt;Group&gt;"><circle id="_Path_57" data-name="&lt;Path&gt;" class="cls-6" cx="268.31" cy="119.33" r="18.15"/></g><g id="_Group_27" data-name="&lt;Group&gt;"><circle id="_Path_58" data-name="&lt;Path&gt;" class="cls-7" cx="268.31" cy="119.33" r="18.15"/></g><g id="_Group_28" data-name="&lt;Group&gt;"><circle id="_Path_59" data-name="&lt;Path&gt;" class="cls-6" cx="367.35" cy="291.76" r="32.67" transform="translate(20.51 607.64) rotate(-80.78)"/></g><g id="_Group_29" data-name="&lt;Group&gt;"><circle id="_Path_60" data-name="&lt;Path&gt;" class="cls-7" cx="367.35" cy="291.76" r="32.67" transform="translate(20.51 607.64) rotate(-80.78)"/></g><g id="_Group_30" data-name="&lt;Group&gt;"><circle id="_Path_61" data-name="&lt;Path&gt;" class="cls-6" cx="430.05" cy="226.72" r="18.15"/></g><g id="_Group_31" data-name="&lt;Group&gt;"><circle id="_Path_62" data-name="&lt;Path&gt;" class="cls-7" cx="430.05" cy="226.72" r="18.15"/></g><g id="_Group_32" data-name="&lt;Group&gt;"><circle id="_Path_63" data-name="&lt;Path&gt;" class="cls-6" cx="681.66" cy="305.56" r="18.15"/></g><g id="_Group_33" data-name="&lt;Group&gt;"><circle id="_Path_64" data-name="&lt;Path&gt;" class="cls-7" cx="681.66" cy="305.56" r="18.15"/></g><g id="_Group_34" data-name="&lt;Group&gt;"><circle id="_Path_65" data-name="&lt;Path&gt;" class="cls-6" cx="578.43" cy="273.22" r="32.67"/></g><g id="_Group_35" data-name="&lt;Group&gt;"><circle id="_Path_66" data-name="&lt;Path&gt;" class="cls-7" cx="578.43" cy="273.22" r="32.67"/></g><g id="_Group_36" data-name="&lt;Group&gt;"><circle id="_Path_67" data-name="&lt;Path&gt;" class="cls-6" cx="585.88" cy="149.74" r="32.67"/></g><g id="_Group_37" data-name="&lt;Group&gt;"><circle id="_Path_68" data-name="&lt;Path&gt;" class="cls-7" cx="585.88" cy="149.74" r="32.67"/></g><g id="_Group_38" data-name="&lt;Group&gt;"><circle id="_Path_69" data-name="&lt;Path&gt;" class="cls-6" cx="277.69" cy="280.7" r="18.15"/></g><g id="_Group_39" data-name="&lt;Group&gt;"><circle id="_Path_70" data-name="&lt;Path&gt;" class="cls-7" cx="277.69" cy="280.7" r="18.15"/></g><g id="_Group_40" data-name="&lt;Group&gt;"><circle id="_Path_71" data-name="&lt;Path&gt;" class="cls-6" cx="692.24" cy="130.03" r="18.15"/></g><g id="_Group_41" data-name="&lt;Group&gt;"><circle id="_Path_72" data-name="&lt;Path&gt;" class="cls-7" cx="692.24" cy="130.03" r="18.15"/></g><g id="_Group_42" data-name="&lt;Group&gt;"><circle id="_Path_73" data-name="&lt;Path&gt;" class="cls-6" cx="232.7" cy="202.36" r="32.67"/></g><g id="_Group_43" data-name="&lt;Group&gt;"><circle id="_Path_74" data-name="&lt;Path&gt;" class="cls-7" cx="232.7" cy="202.36" r="32.67"/></g><g id="_Group_44" data-name="&lt;Group&gt;"><circle id="_Path_75" data-name="&lt;Path&gt;" class="cls-6" cx="536.87" cy="39.93" r="32.67"/></g><g id="_Group_45" data-name="&lt;Group&gt;"><circle id="_Path_76" data-name="&lt;Path&gt;" class="cls-7" cx="536.87" cy="39.93" r="32.67"/></g></g><text class="cls-8" transform="translate(522.55 45.15)">775.1</text><text class="cls-8" transform="translate(564.38 154.9)">10379.1</text><text class="cls-8" transform="translate(689.27 135.01)">5</text><text class="cls-8" transform="translate(678.52 310.26)">3</text><text class="cls-8" transform="translate(560.47 277.65)">5688.1</text><text class="cls-8" transform="translate(345.88 296.4)">10356.5</text><text class="cls-8" transform="translate(422.65 160.08)">0</text><text class="cls-8" transform="translate(426.52 231.26)">2</text><text class="cls-8" transform="translate(335.38 102.4)">10356.1</text><text class="cls-8" transform="translate(265.15 124.08)">1</text><text class="cls-8" transform="translate(274.65 285.58)">4</text><text class="cls-8" transform="translate(210.88 207.4)">10356.6</text></g><g id="_Group_47" data-name="&lt;Group&gt;"><polygon id="_Path_77" data-name="&lt;Path&gt;" class="cls-9" points="157.23 23.88 157.23 24.52 157.86 24.52 157.86 23.88 157.23 23.88 157.23 23.88"/><polygon id="_Path_78" data-name="&lt;Path&gt;" class="cls-9" points="157.23 23.88 157.23 24.52 157.86 24.52 157.86 23.88 157.23 23.88 157.23 23.88"/><text class="cls-10" transform="translate(233.94 157.28)">9.41824</text><text class="cls-10" transform="translate(327.28 219.28)">12.0389</text><text class="cls-10" transform="translate(243.28 253.62)">11.4487</text><text class="cls-10" transform="translate(388.94 255.95)">12.0389</text><text class="cls-10" transform="translate(379.61 177.28)">12.0389</text><text class="cls-10" transform="translate(453.61 107.95)">12.8394</text><text class="cls-10" transform="translate(622.61 296.62)">12.7076</text><text class="cls-10" transform="translate(631.94 140.28)">5.25578</text><text class="cls-11" transform="translate(474.61 248.62)">7.18189</text><text class="cls-11" transform="translate(476.61 155.95)">3.4435</text><text class="cls-11" transform="translate(379.94 135.28)">7.26121</text><text class="cls-11" transform="translate(316.61 177.95)">7.26121</text><text class="cls-11" transform="translate(379.28 214.28)">7.26121</text><text class="cls-11" transform="translate(281.94 114.62)">9.41824</text><text class="cls-11" transform="translate(295.94 201.95)">9.41824</text><text class="cls-11" transform="translate(298.44 199.62)">11.4487</text><text class="cls-11" transform="translate(291.94 289.62)">11.4487</text></g></g></g></g></svg>