<svg xmlns="http://www.w3.org/2000/svg" viewBox="0 0 395 294"><defs><style>.cls-1{fill:#fff;}.cls-11,.cls-2,.cls-3{fill:#d3d3d3;}.cls-2,.cls-3{stroke:#d3d3d3;stroke-dasharray:0.68 3.41;}.cls-2,.cls-4,.cls-6,.cls-8{stroke-linecap:square;}.cls-2,.cls-3,.cls-4,.cls-5,.cls-6,.cls-8{stroke-miterlimit:10;}.cls-2,.cls-3,.cls-4,.cls-5,.cls-6{stroke-width:0.68px;}.cls-4,.cls-5,.cls-9{fill:#818181;}.cls-4,.cls-5{stroke:#818181;stroke-dasharray:3.41 1.36;}.cls-6{fill:#d8e8de;stroke:#1f562b;}.cls-11,.cls-7,.cls-8,.cls-9{isolation:isolate;}.cls-7,.cls-8{font-size:8.84px;font-family:Arial-BoldMT, Arial;font-weight:700;}.cls-7{fill:#1f562b;}.cls-8{fill:none;stroke:#d8e8de;stroke-width:0.17px;}.cls-11,.cls-9{font-size:7.48px;font-family:ArialMT, Arial;}.cls-10{letter-spacing:-0.07em;}</style></defs><title>368_blind_network</title><g id="Layer_2" data-name="Layer 2"><g id="Layer_1-2" data-name="Layer 1"><rect class="cls-1" width="395" height="294"/><g id="Layer_1-2-2" data-name="Layer 1-2"><g id="_Group_" data-name=" Group "><g id="_Group_2" data-name=" Group 2"><g id="_Group_3" data-name=" Group 3"><g id="_Group_5" data-name=" Group 5"><path id="_Path_2" data-name=" Path 2" class="cls-2" d="M177.06,126.2l-19-15.49"/><path id="_Path_3" data-name=" Path 3" class="cls-2" d="M158.83,111.34l.21,2.09-2.31-3.81,4.21,1.51Z"/><path id="_Path_4" data-name=" Path 4" class="cls-3" d="M158.83,111.34l.21,2.09-2.31-3.81,4.21,1.51Z"/></g><g id="_Group_6" data-name=" Group 6"><path id="_Path_5" data-name=" Path 5" class="cls-2" d="M84.93,120.28l49.26,85.12"/><path id="_Path_6" data-name=" Path 6" class="cls-2" d="M133.69,204.53l.55-2,.82,4.38L131.63,204Z"/><path id="_Path_7" data-name=" Path 7" class="cls-3" d="M133.69,204.53l.55-2,.82,4.38L131.63,204Z"/></g><g id="_Group_7" data-name=" Group 7"><path id="_Path_8" data-name=" Path 8" class="cls-4" d="M183.31,171.9l-32.08-55.44"/><path id="_Path_9" data-name=" Path 9" class="cls-4" d="M151.73,117.3l-.55,2-.81-4.38,3.42,2.9Z"/><path id="_Path_10" data-name=" Path 10" class="cls-5" d="M151.73,117.3l-.55,2-.81-4.38,3.42,2.9Z"/></g><g id="_Group_8" data-name=" Group 8"><path id="_Path_11" data-name=" Path 11" class="cls-4" d="M350,232.5l-35.11-10.93"/><path id="_Path_12" data-name=" Path 12" class="cls-4" d="M315.8,221.87l1,1.86-3.59-2.67,4.48-.16Z"/><path id="_Path_13" data-name=" Path 13" class="cls-5" d="M315.8,221.87l1,1.86-3.59-2.67,4.48-.16Z"/></g><g id="_Group_9" data-name=" Group 9"><path id="_Path_14" data-name=" Path 14" class="cls-2" d="M199.06,133.6l72.32-2.49"/><path id="_Path_15" data-name=" Path 15" class="cls-2" d="M270.38,131.14l-1.54-1.43,4.28,1.36-4.18,1.63Z"/><path id="_Path_16" data-name=" Path 16" class="cls-3" d="M270.38,131.14l-1.54-1.43,4.28,1.36-4.18,1.63Z"/></g><g id="_Group_10" data-name=" Group 10"><path id="_Path_17" data-name=" Path 17" class="cls-4" d="M180.88,191.47,163.82,209"/><path id="_Path_18" data-name=" Path 18" class="cls-4" d="M164.5,208.32l2.11,0-4,2,1.87-4.08Z"/><path id="_Path_19" data-name=" Path 19" class="cls-5" d="M164.5,208.32l2.11,0-4,2,1.87-4.08Z"/></g><g id="_Group_11" data-name=" Group 11"><path id="_Path_20" data-name=" Path 20" class="cls-2" d="M97.51,220.79l24.38,3"/><path id="_Path_21" data-name=" Path 21" class="cls-2" d="M120.91,223.66,119.62,222l4,2-4.38.95Z"/><path id="_Path_22" data-name=" Path 22" class="cls-3" d="M120.91,223.66,119.62,222l4,2-4.38.95Z"/></g><g id="_Group_12" data-name=" Group 12"><path id="_Path_23" data-name=" Path 23" class="cls-2" d="M181.76,145.38l-25.39,58.74"/><path id="_Path_24" data-name=" Path 24" class="cls-2" d="M156.77,203.22l1.95-.78-3,3.27.3-4.44Z"/><path id="_Path_25" data-name=" Path 25" class="cls-3" d="M156.77,203.22l1.95-.78-3,3.27.3-4.44Z"/></g><g id="_Group_13" data-name=" Group 13"><path id="_Path_26" data-name=" Path 26" class="cls-4" d="M356.85,119.1l-36.18,6.66"/><path id="_Path_27" data-name=" Path 27" class="cls-4" d="M321.65,125.58l1.74,1.18-4.43-.68,3.88-2.21Z"/><path id="_Path_28" data-name=" Path 28" class="cls-5" d="M321.65,125.58l1.74,1.18-4.43-.68,3.88-2.21Z"/></g><g id="_Group_14" data-name=" Group 14"><path id="_Path_29" data-name=" Path 29" class="cls-2" d="M174.59,137,78.53,160.18"/><path id="_Path_30" data-name=" Path 30" class="cls-2" d="M79.47,160l1.8,1.07-4.46-.44,3.75-2.44Z"/><path id="_Path_31" data-name=" Path 31" class="cls-3" d="M79.47,160l1.8,1.07-4.46-.44,3.75-2.44Z"/></g><g id="_Group_15" data-name=" Group 15"><path id="_Path_32" data-name=" Path 32" class="cls-2" d="M201.37,186.27l66,20.54"/><path id="_Path_33" data-name=" Path 33" class="cls-2" d="M266.46,206.52l-1-1.86,3.59,2.67-4.48.16Z"/><path id="_Path_34" data-name=" Path 34" class="cls-3" d="M266.46,206.52l-1-1.86,3.59,2.67-4.48.16Z"/></g><g id="_Group_16" data-name=" Group 16"><path id="_Path_35" data-name=" Path 35" class="cls-4" d="M177.15,181.07,79,169"/><path id="_Path_36" data-name=" Path 36" class="cls-4" d="M80,169.18l1.29,1.65-4-2,4.37-1Z"/><path id="_Path_37" data-name=" Path 37" class="cls-5" d="M80,169.18l1.29,1.65-4-2,4.37-1Z"/></g><g id="_Group_17" data-name=" Group 17"><path id="_Path_38" data-name=" Path 38" class="cls-4" d="M195.28,125.14l50.15-51.75"/><path id="_Path_39" data-name=" Path 39" class="cls-4" d="M244.74,74.1l-2.11,0,4-2-1.85,4.08Z"/><path id="_Path_40" data-name=" Path 40" class="cls-5" d="M244.74,74.1l-2.11,0,4-2-1.85,4.08Z"/></g><g id="_Group_18" data-name=" Group 18"><path id="_Path_41" data-name=" Path 41" class="cls-2" d="M90.86,106.63l23.88-5.77"/><path id="_Path_42" data-name=" Path 42" class="cls-2" d="M113.74,101.12l-1.8-1.09,4.45.45-3.75,2.43Z"/><path id="_Path_43" data-name=" Path 43" class="cls-3" d="M113.74,101.12l-1.8-1.09,4.45.45-3.75,2.43Z"/></g><g id="_Group_19" data-name=" Group 19"><path id="_Path_44" data-name=" Path 44" class="cls-4" d="M73.84,120.91l-9.69,22.43"/><path id="_Path_45" data-name=" Path 45" class="cls-4" d="M64.54,142.43l2-.77-3,3.27.3-4.44Z"/><path id="_Path_46" data-name=" Path 46" class="cls-5" d="M64.54,142.43l2-.77-3,3.27.3-4.44Z"/></g><g id="_Group_20" data-name=" Group 20"><path id="_Path_47" data-name=" Path 47" class="cls-2" d="M90.07,207.93l39-90.21"/><path id="_Path_48" data-name=" Path 48" class="cls-2" d="M128.66,118.63l-2,.78,3-3.27-.29,4.44Z"/><path id="_Path_49" data-name=" Path 49" class="cls-3" d="M128.66,118.63l-2,.78,3-3.27-.29,4.44Z"/></g><g id="_Group_21" data-name=" Group 21"><path id="_Path_50" data-name=" Path 50" class="cls-4" d="M79,208.61,66.74,187.45"/><path id="_Path_51" data-name=" Path 51" class="cls-4" d="M67.23,188.28l-.55,2-.81-4.38,3.42,2.91Z"/><path id="_Path_52" data-name=" Path 52" class="cls-5" d="M67.23,188.28l-.55,2-.81-4.38,3.42,2.91Z"/></g><g id="_Group_22" data-name=" Group 22"><ellipse id="_Path_53" data-name=" Path 53" class="cls-1" cx="186.67" cy="134.03" rx="12.43" ry="12.34"/></g><g id="_Group_23" data-name=" Group 23"><ellipse id="_Path_54" data-name=" Path 54" class="cls-6" cx="186.67" cy="134.03" rx="12.43" ry="12.34"/></g><g id="_Group_24" data-name=" Group 24"><ellipse id="_Path_55" data-name=" Path 55" class="cls-1" cx="138.86" cy="95.04" rx="22.37" ry="22.21"/></g><g id="_Group_25" data-name=" Group 25"><ellipse id="_Path_56" data-name=" Path 56" class="cls-6" cx="138.86" cy="95.04" rx="22.37" ry="22.21"/></g><g id="_Group_26" data-name=" Group 26"><ellipse id="_Path_57" data-name=" Path 57" class="cls-1" cx="78.74" cy="109.58" rx="12.43" ry="12.34"/></g><g id="_Group_27" data-name=" Group 27"><ellipse id="_Path_58" data-name=" Path 58" class="cls-6" cx="78.74" cy="109.58" rx="12.43" ry="12.34"/></g><g id="_Group_28" data-name=" Group 28"><ellipse id="_Path_59" data-name=" Path 59" class="cls-1" cx="146.58" cy="226.82" rx="22.37" ry="22.21"/></g><g id="_Group_29" data-name=" Group 29"><ellipse id="_Path_60" data-name=" Path 60" class="cls-6" cx="146.58" cy="226.82" rx="22.37" ry="22.21"/></g><g id="_Group_30" data-name=" Group 30"><ellipse id="_Path_61" data-name=" Path 61" class="cls-1" cx="189.51" cy="182.58" rx="12.43" ry="12.34"/></g><g id="_Group_31" data-name=" Group 31"><ellipse id="_Path_62" data-name=" Path 62" class="cls-6" cx="189.51" cy="182.58" rx="12.43" ry="12.34"/></g><g id="_Group_32" data-name=" Group 32"><ellipse id="_Path_63" data-name=" Path 63" class="cls-1" cx="361.82" cy="236.18" rx="12.43" ry="12.34"/></g><g id="_Group_33" data-name=" Group 33"><ellipse id="_Path_64" data-name=" Path 64" class="cls-6" cx="361.82" cy="236.18" rx="12.43" ry="12.34"/></g><g id="_Group_34" data-name=" Group 34"><ellipse id="_Path_65" data-name=" Path 65" class="cls-1" cx="291.13" cy="214.2" rx="22.37" ry="22.21"/></g><g id="_Group_35" data-name=" Group 35"><ellipse id="_Path_66" data-name=" Path 66" class="cls-6" cx="291.13" cy="214.2" rx="22.37" ry="22.21"/></g><g id="_Group_36" data-name=" Group 36"><ellipse id="_Path_67" data-name=" Path 67" class="cls-1" cx="296.23" cy="130.25" rx="22.37" ry="22.21"/></g><g id="_Group_37" data-name=" Group 37"><ellipse id="_Path_68" data-name=" Path 68" class="cls-6" cx="296.23" cy="130.25" rx="22.37" ry="22.21"/></g><g id="_Group_38" data-name=" Group 38"><ellipse id="_Path_69" data-name=" Path 69" class="cls-1" cx="85.17" cy="219.28" rx="12.43" ry="12.34"/></g><g id="_Group_39" data-name=" Group 39"><ellipse id="_Path_70" data-name=" Path 70" class="cls-6" cx="85.17" cy="219.28" rx="12.43" ry="12.34"/></g><g id="_Group_40" data-name=" Group 40"><ellipse id="_Path_71" data-name=" Path 71" class="cls-1" cx="369.07" cy="116.85" rx="12.43" ry="12.34"/></g><g id="_Group_41" data-name=" Group 41"><ellipse id="_Path_72" data-name=" Path 72" class="cls-6" cx="369.07" cy="116.85" rx="12.43" ry="12.34"/></g><g id="_Group_42" data-name=" Group 42"><ellipse id="_Path_73" data-name=" Path 73" class="cls-1" cx="54.35" cy="166.02" rx="22.37" ry="22.21"/></g><g id="_Group_43" data-name=" Group 43"><ellipse id="_Path_74" data-name=" Path 74" class="cls-6" cx="54.35" cy="166.02" rx="22.37" ry="22.21"/></g><g id="_Group_44" data-name=" Group 44"><ellipse id="_Path_75" data-name=" Path 75" class="cls-1" cx="262.66" cy="55.6" rx="22.37" ry="22.21"/></g><g id="_Group_45" data-name=" Group 45"><ellipse id="_Path_76" data-name=" Path 76" class="cls-6" cx="262.66" cy="55.6" rx="22.37" ry="22.21"/></g></g><text class="cls-7" transform="translate(252.86 59.15) scale(1.01 1)">775.1</text><text class="cls-8" transform="translate(252.86 59.15) scale(1.01 1)">775.1</text><text class="cls-7" transform="translate(281.51 133.76) scale(1.01 1)">10379.1</text><text class="cls-8" transform="translate(281.51 133.76) scale(1.01 1)">10379.1</text><text class="cls-7" transform="translate(367.04 120.24) scale(1.01 1)">5</text><text class="cls-8" transform="translate(367.04 120.24) scale(1.01 1)">5</text><text class="cls-7" transform="translate(359.67 239.38) scale(1.01 1)">3</text><text class="cls-8" transform="translate(359.67 239.38) scale(1.01 1)">3</text><text class="cls-7" transform="translate(278.83 217.21) scale(1.01 1)">5688.1</text><text class="cls-8" transform="translate(278.83 217.21) scale(1.01 1)">5688.1</text><text class="cls-7" transform="translate(131.87 229.96) scale(1.01 1)">10356.5</text><text class="cls-8" transform="translate(131.87 229.96) scale(1.01 1)">10356.5</text><text class="cls-7" transform="translate(184.44 137.28) scale(1.01 1)">0</text><text class="cls-8" transform="translate(184.44 137.28) scale(1.01 1)">0</text><text class="cls-7" transform="translate(187.09 185.67) scale(1.01 1)">2</text><text class="cls-8" transform="translate(187.09 185.67) scale(1.01 1)">2</text><text class="cls-7" transform="translate(124.67 98.07) scale(1.01 1)">10356.1</text><text class="cls-8" transform="translate(124.67 98.07) scale(1.01 1)">10356.1</text><text class="cls-7" transform="translate(76.58 112.81) scale(1.01 1)">1</text><text class="cls-8" transform="translate(76.58 112.81) scale(1.01 1)">1</text><text class="cls-7" transform="translate(83.08 222.6) scale(1.01 1)">4</text><text class="cls-8" transform="translate(83.08 222.6) scale(1.01 1)">4</text><text class="cls-7" transform="translate(39.41 169.45) scale(1.01 1)">10356.6</text><text class="cls-8" transform="translate(39.41 169.45) scale(1.01 1)">10356.6</text></g><g id="_Group_47" data-name=" Group 47"><polygon id="_Path_77" data-name=" Path 77" class="cls-1" points="2.5 44.63 2.5 45.31 3.19 45.31 3.19 44.63 2.67 44.63 2.5 44.63"/><polygon id="_Path_78" data-name=" Path 78" class="cls-1" points="2.5 44.63 2.5 45.31 3.19 45.31 3.19 44.63 2.67 44.63 2.5 44.63"/><text class="cls-9" transform="translate(55.2 135.38) scale(1.01 1)">9.41824</text><text class="cls-9" transform="translate(119.13 177.53) scale(1.01 1)">12.0389</text><text class="cls-9" transform="translate(61.6 200.87) scale(1.01 1)"><tspan class="cls-10">1</tspan><tspan x="3.6" y="0">1.4487</tspan></text><text class="cls-9" transform="translate(161.36 202.46) scale(1.01 1)">12.0389</text><text class="cls-9" transform="translate(154.96 148.97) scale(1.01 1)">12.0389</text><text class="cls-9" transform="translate(205.64 101.84) scale(1.01 1)">12.8394</text><text class="cls-9" transform="translate(321.38 230.1) scale(1.01 1)">12.7076</text><text class="cls-9" transform="translate(327.77 123.82) scale(1.01 1)">5.25578</text><text class="cls-11" transform="translate(220.03 197.47) scale(1.01 1)">7.18189</text><text class="cls-11" transform="translate(221.4 134.47) scale(1.01 1)">3.4435</text><text class="cls-11" transform="translate(155.19 120.42) scale(1.01 1)">7.26121</text><text class="cls-11" transform="translate(111.82 149.43) scale(1.01 1)">7.26121</text><text class="cls-11" transform="translate(154.74 174.13) scale(1.01 1)">7.26121</text><text class="cls-11" transform="translate(88.08 106.38) scale(1.01 1)">9.41824</text><text class="cls-11" transform="translate(97.66 165.74) scale(1.01 1)">9.41824</text><text class="cls-11" transform="translate(99.38 164.16) scale(1.01 1)"><tspan class="cls-10">1</tspan><tspan x="3.6" y="0">1.4487</tspan></text><text class="cls-11" transform="translate(94.93 225.35) scale(1.01 1)"><tspan class="cls-10">1</tspan><tspan x="3.6" y="0">1.4487</tspan></text></g></g></g></g></g></svg>