<svg xmlns="http://www.w3.org/2000/svg" viewBox="0 0 102 101.63"><defs><style>.cls-1{fill:#fefefe;}.cls-2{fill:#a9a8ae;}.cls-3{fill:#a23814;}</style></defs><title>button</title><g id="Layer_2" data-name="Layer 2"><path class="cls-1" d="M242.4,279.15q0-23.91,0-47.81c0-1.18.24-1.42,1.43-1.42q49.4.06,98.79,0c1.18,0,1.42.24,1.42,1.42-.05,15,0,30,0,45-.34-.19-.35-.52-.4-.85-2.58-17.45-16.32-30.92-33.82-32.33-14.55-1.19-26.25,4.52-34.83,16.41a4.6,4.6,0,0,0,6,6.66c1.31-.68,2-1.94,2.83-3,7.12-8.75,16.38-12.43,27.39-10.52a28.45,28.45,0,1,1-16.51,54,31.5,31.5,0,0,1-12.31-10.27,4.34,4.34,0,0,0-6.32-.88,4.49,4.49,0,0,0-1.07,6.31A32.94,32.94,0,0,0,278,305.8c9.11,9.73,20.28,14.14,33.54,12.2,14.15-2.07,23.91-10.07,29.64-23.12,1.27-2.9,1.59-6.07,2.77-9,0,14.75,0,29.5,0,44.24,0,1.19-.24,1.42-1.42,1.42q-49.4-.06-98.79,0c-1.19,0-1.43-.23-1.43-1.42q.07-23.89,0-47.81c1.56,2.49,3.81,3.16,6.69,3.14,16.26-.1,32.51,0,48.76,0,.66,0,1.43-.34,2.26.65-1.88,1.76-3.84,3.44-5.61,5.3a4.46,4.46,0,0,0,0,6.42,4.39,4.39,0,0,0,6.4.19q7.17-7,14.15-14.15a4.36,4.36,0,0,0,0-6.14c-4.65-4.78-9.35-9.51-14.15-14.14a4.47,4.47,0,0,0-6.82.54,4.61,4.61,0,0,0,.61,6.28c1.75,1.74,3.65,3.33,5.65,5.14a4.3,4.3,0,0,1-2.73.53c-16.11,0-32.23.07-48.35,0C246.37,276,244,276.6,242.4,279.15Z" transform="translate(-242 -229.92)"/><path class="cls-2" d="M343.57,284.31v2c0,2.78-1.14,5.79-2.37,8.59-5.73,13.05-15.49,21.05-29.64,23.12-13.26,1.94-24.43-2.47-33.54-12.2a32.94,32.94,0,0,1-3.06-3.89A4.49,4.49,0,0,1,276,295.6a4.34,4.34,0,0,1,6.32.88,31.5,31.5,0,0,0,12.31,10.27,28.45,28.45,0,1,0,16.51-54c-11-1.91-20.27,1.77-27.39,10.52-.87,1.06-1.52,2.32-2.83,3a4.6,4.6,0,0,1-6-6.66c8.58-11.89,20.28-17.6,34.83-16.41,17.5,1.41,31.24,14.88,33.82,32.33a15.17,15.17,0,0,1,0,1.64C343.57,280.23,343.59,281.24,343.57,284.31Z" transform="translate(-242 -229.92)"/><path class="cls-3" d="M242.4,279.15c1.62-2.55,4-3.16,6.91-3.14,16.12.11,32.24.05,48.35,0a4.3,4.3,0,0,0,2.73-.53c-2-1.81-3.9-3.4-5.65-5.14a4.61,4.61,0,0,1-.61-6.28,4.47,4.47,0,0,1,6.82-.54c4.8,4.63,9.5,9.36,14.15,14.14a4.36,4.36,0,0,1,0,6.14q-7,7.17-14.15,14.15a4.39,4.39,0,0,1-6.4-.19,4.46,4.46,0,0,1,0-6.42c1.77-1.86,3.73-3.54,5.61-5.3-.83-1-1.6-.65-2.26-.65-16.25,0-32.5-.07-48.76,0-2.88,0-5.13-.65-6.69-3.14Z" transform="translate(-242 -229.92)"/><ellipse class="cls-2" cx="98.99" cy="49.83" rx="2.98" ry="8.13"/><ellipse class="cls-2" cx="98.99" cy="52.01" rx="2.98" ry="10.32"/><ellipse class="cls-2" cx="340.22" cy="286.1" rx="8.13" ry="3" transform="translate(-261.59 317.22) rotate(-76.02)"/><ellipse class="cls-3" cx="3.37" cy="50.82" rx="3.37" ry="3.57"/></g></svg>