<svg xmlns="http://www.w3.org/2000/svg" viewBox="0 0 12.32 12.25"><defs><style>.cls-1{fill:#a9a8ae;}.cls-2{fill:#3e95a6;}</style></defs><title>buttonHighlight_1</title><g id="Layer_2" data-name="Layer 2"><g id="Layer_1-2" data-name="Layer 1"><path class="cls-1" d="M12.26,6.7V7a3.55,3.55,0,0,1-.41,1.4,6.22,6.22,0,0,1-5.09,3.75,6.46,6.46,0,0,1-5.75-2,6.31,6.31,0,0,1-.53-.63.71.71,0,0,1,.17-1h0a.78.78,0,0,1,1,.1l0,0a5.39,5.39,0,0,0,2.11,1.66A5,5,0,0,0,10.31,8a4.52,4.52,0,0,0-2.47-6.1,4.59,4.59,0,0,0-1.15-.33A4.84,4.84,0,0,0,2,3.28a1.6,1.6,0,0,1-.48.49A.82.82,0,0,1,.43,3.48a.71.71,0,0,1,0-.79A6.47,6.47,0,0,1,6.45,0a6.27,6.27,0,0,1,5.81,5.24V6.7Z"/><path class="cls-2" d="M.07,5.86A.93.93,0,0,1,1,5.35c2.19,0,4.37,0,6.55,0a.54.54,0,0,0,.37-.08c-.27-.3-.53-.56-.77-.84a.87.87,0,0,1-.08-1,.55.55,0,0,1,.84-.17L8,3.32c.65.76,1.29,1.52,1.92,2.3a.81.81,0,0,1,0,1C9.28,7.39,8.64,8.16,8,8.91a.53.53,0,0,1-.84,0l0,0a.83.83,0,0,1,0-1l0,0c.24-.3.5-.57.76-.86-.12-.16-.22-.11-.31-.11H1a.89.89,0,0,1-.9-.5Z"/><ellipse class="cls-1" cx="11.81" cy="5.96" rx="0.51" ry="1.32"/><ellipse class="cls-1" cx="11.81" cy="6.31" rx="0.51" ry="1.68"/><ellipse class="cls-1" cx="11.68" cy="6.99" rx="1.32" ry="0.51" transform="translate(1.9 16.47) rotate(-75)"/><circle class="cls-2" cx="0.58" cy="6.11" r="0.58"/></g></g></svg>