<svg xmlns="http://www.w3.org/2000/svg" viewBox="0 0 865.49 543.2"><defs><style>.cls-1,.cls-13,.cls-4,.cls-7,.cls-8{fill:none;}.cls-1,.cls-4,.cls-7{stroke:#a23814;}.cls-1,.cls-4,.cls-7,.cls-8{stroke-miterlimit:10;}.cls-1{stroke-width:4.26px;}.cls-10,.cls-11,.cls-12,.cls-2,.cls-6,.cls-9{isolation:isolate;}.cls-2{font-size:60.87px;fill:#222;}.cls-10,.cls-12,.cls-15,.cls-2,.cls-6,.cls-9{font-family:Arial-Black, Arial Black;}.cls-3{fill:#a23814;}.cls-4{stroke-width:2.99px;}.cls-5{fill:#363636;}.cls-6{font-size:23.19px;}.cls-7,.cls-8{stroke-width:2.6px;}.cls-8{stroke:#363636;}.cls-9{font-size:8.19px;}.cls-10{font-size:11.61px;}.cls-12,.cls-15{font-size:16.36px;}.cls-14{fill:#231f20;}.cls-16{letter-spacing:0.01em;}</style></defs><title>features</title><g id="Layer_2" data-name="Layer 2"><g id="Layer_1-2" data-name="Layer 1"><path class="cls-1" d="M163.73,48.7a25,25,0,0,0-15.1-31.9,25.4,25.4,0,0,0-17.2.1,37.74,37.74,0,0,0-53-5.5A36.82,36.82,0,0,0,68,24.8a25.06,25.06,0,0,0-42.1,26.1c-.5,0-1.1-.1-1.7-.1a22.1,22.1,0,0,0,0,44.2,22.42,22.42,0,0,0,13.6-4.7,36.58,36.58,0,0,0,51.6,3.8,34.69,34.69,0,0,0,5.5-6,31.09,31.09,0,0,0,43.7,5.4,32.4,32.4,0,0,0,5.8-5.9,21.71,21.71,0,1,0,22.4-37.2A11.67,11.67,0,0,0,163.73,48.7Z"/><path class="cls-1" d="M316.23,122.1A24.32,24.32,0,0,0,301.43,91a24.86,24.86,0,0,0-16.8.1A36.66,36.66,0,0,0,233,85.8a37.48,37.48,0,0,0-10.2,13.1,24.34,24.34,0,0,0-40.9,25.4c-.5,0-1.1-.1-1.6-.1a21.5,21.5,0,1,0,13.3,38.4,35.65,35.65,0,0,0,50.3,3.7,37.13,37.13,0,0,0,5.4-5.8,30.28,30.28,0,0,0,42.6,5.2,34.79,34.79,0,0,0,5.7-5.8,21.2,21.2,0,0,0,21.9-36.3C318.43,123.1,317.33,122.5,316.23,122.1Z"/><path class="cls-1" d="M123,158.1a17.53,17.53,0,0,0-22.7-22.3,26.47,26.47,0,0,0-37.2-3.8,26.85,26.85,0,0,0-7.3,9.4,17.56,17.56,0,0,0-29.5,18.3h-1.2a15.5,15.5,0,0,0,0,31,15.93,15.93,0,0,0,9.6-3.3,25.76,25.76,0,0,0,36.2,2.7,30.83,30.83,0,0,0,3.9-4.2,21.92,21.92,0,0,0,30.7,3.8,23.33,23.33,0,0,0,4.1-4.2,15.23,15.23,0,0,0,15.7-26.1,7.55,7.55,0,0,0-2.3-1.3Z"/><text class="cls-2" transform="translate(222.76 313.27) scale(0.62 1)">B</text><text class="cls-2" transform="translate(252.13 313.27) scale(0.62 1)">L</text><text class="cls-2" transform="translate(276.67 313.27) scale(0.62 1)">OODHOUND 2.0</text><path class="cls-3" d="M418.13,487.4a2.84,2.84,0,0,1-2.1,1.2l-3.2.4-5.7-31.2a1.56,1.56,0,0,0-1.8-1.2,1.43,1.43,0,0,0-1.2,1.5v.3l8.2,44.6a.73.73,0,0,1-.2.6.71.71,0,0,1-.6.3H405a1.54,1.54,0,0,0-1.5,1.5v30.2a3,3,0,0,1-3,3h-6.3a3,3,0,0,1-3-3V506a2.22,2.22,0,0,0-2.2-2.2h-4.6a.27.27,0,0,0-.3.3V538a.43.43,0,0,1-.4.4h-11.3a.43.43,0,0,1-.4-.4h0V504a.22.22,0,0,0-.2-.2h-7.1a.86.86,0,0,1-.6-.3,1.42,1.42,0,0,1-.2-.6l2.2-12h0l6-32.6a1.48,1.48,0,0,0-1.2-1.7h0a1.56,1.56,0,0,0-1.8,1.2l-5.7,31.2-1.7-.2a4.68,4.68,0,0,0-.2-1.7l-.2-.7c0-.1,0-.1-.1-.2a4.68,4.68,0,0,0-3.4-2.4l8-42.7a1.27,1.27,0,0,1,1.1-1.1l16.2-3.8a1.55,1.55,0,0,0,1.1-1.9,1.61,1.61,0,0,0-.4-.7l-.1-.1a10.51,10.51,0,0,1-5.3-13.9h0c0-.1.1-.1.1-.2a10.76,10.76,0,0,1,20.3,3.6,10.65,10.65,0,0,1-6.2,10.6.1.1,0,0,0-.1.1,1.49,1.49,0,0,0,.1,2.2,1.61,1.61,0,0,0,.7.4l10.8,2.5a9.75,9.75,0,0,1,7.4,7.7l7.3,38.7a3.81,3.81,0,0,1-.7,2.2Zm-59.5,1.7a1.6,1.6,0,0,1-.9.7l-1,.3-19.4,6.1V485a1.62,1.62,0,0,0-1.5-1.6,1.49,1.49,0,0,0-1.6,1.5h0v51.9a1.54,1.54,0,0,1-1.5,1.5h-4.1a1.54,1.54,0,0,1-1.5-1.5h0V518.2a3.3,3.3,0,0,0-2.4-3.1,3.07,3.07,0,0,0-3.7,2.3,1.48,1.48,0,0,0-.1.7v18.7a1.54,1.54,0,0,1-1.5,1.5h-3.9s-1.5-.8-1.3-1.6V498.1c-.2,0-.2,0,0-.1V484.8a2,2,0,0,0-1.7-1.5c-.8,0-1.8,1.5-1.8,1.5v11.4l-18.9-6-1.5-.5c-.1,0-.2-.1-.3-.2a1.46,1.46,0,0,1-.7-1.3.6.6,0,0,1,.1-.4l.1-.3a1.33,1.33,0,0,1,1.5-1,.37.37,0,0,1,.3.1l1.1.3,1.4.5,10.8,3.4a1.5,1.5,0,0,0,1.9-1v-.2l2.3-12.6a6.14,6.14,0,0,1,4.5-4.8l7.6-1.8c.1,0,.1,0,.2-.1a1.6,1.6,0,0,0,.4-2.2,1,1,0,0,0-.6-.5,6.62,6.62,0,1,1,6-11.8,6.7,6.7,0,0,1,3,3c0,.1.1.1.1.2a6.57,6.57,0,0,1-3.4,8.7.1.1,0,0,0-.1.1,1.57,1.57,0,0,0,.1,2.2,1.61,1.61,0,0,0,.7.4l10.2,2.4a1.28,1.28,0,0,1,1,1.1l2.9,15.6a1.51,1.51,0,0,0,1.8,1.2h.2l11.5-3.6,1.4-.5,1.2-.4c.1,0,.3,0,.3.2h0a.1.1,0,0,0,.1.1,1.27,1.27,0,0,1,.7.9l.1.2h0c.1.8.1,1.2-.1,1.5ZM289,484.2a4.37,4.37,0,0,0-2.2,2.6l-.1.2a4.25,4.25,0,0,0-.2,1.1,3.23,3.23,0,0,1-1.4-2L280,457.7a1.56,1.56,0,0,0-1.8-1.2,1.46,1.46,0,0,0-.9.6.76.76,0,0,0-.2.5V537a1.54,1.54,0,0,1-1.5,1.5h-7.3a3,3,0,0,1-3-3V507.8a3.85,3.85,0,0,0-3-3.8,3.8,3.8,0,0,0-4.6,2.9,2.49,2.49,0,0,0-.1.8v27.8a3,3,0,0,1-3,3h-7.8a1.54,1.54,0,0,1-1.5-1.5V457.8a1.42,1.42,0,0,0-.2-.6,1.57,1.57,0,0,0-2.2-.2,1.05,1.05,0,0,0-.5.9l-5.1,28.4a3,3,0,0,1-3.3,2.4l-.7-.1a.76.76,0,0,1-.5-.2,3,3,0,0,1-1.7-3.3l7.1-38.7a9.64,9.64,0,0,1,7.3-7.7l10.6-2.5a1.55,1.55,0,0,0,1.1-1.9l-.3-.6c-.1-.1-.2-.2-.3-.2a10.5,10.5,0,0,1,4.5-20h.7a10.52,10.52,0,0,1,3.7,20c-.1.1-.2.1-.3.2a1.68,1.68,0,0,0,.2,2.2l.6.3,13.7,3.3a4.7,4.7,0,0,1,3.6,3.8l7.5,40.5a3.29,3.29,0,0,0-1.8.4Zm133.4.2-7.2-38.7a14.15,14.15,0,0,0-10.7-11.2l-4.9-1.2a15,15,0,0,0-10.8-24.2h-1.1a15.07,15.07,0,0,0-15,15.1,15.45,15.45,0,0,0,3.1,9.2l-4.9,1.2a14.15,14.15,0,0,0-10.7,11.2l-6.9,37.6-8.1,2.5-1.7-9.2a10.52,10.52,0,0,0-7.9-8.3l-1.9-.5a11.06,11.06,0,0,0-4-15.1,10.84,10.84,0,0,0-5.5-1.5h-.7a11,11,0,0,0-10.3,11.7,10,10,0,0,0,1.5,4.8l-1.9.5a10.66,10.66,0,0,0-7.9,8.3l-1.7,9.2-7.3-2.3-7-37.8a14.15,14.15,0,0,0-10.7-11.2l-4.9-1.2a15,15,0,0,0-10.8-24.2h-1.1a14.92,14.92,0,0,0-11.9,5.9,14.47,14.47,0,0,0-2.9,6.7,15.06,15.06,0,0,0,3,11.7l-4.9,1.2A14.15,14.15,0,0,0,234,445.8l-7.1,38.7a7.36,7.36,0,0,0,6,8.7c.2,0,.3.1.5.1h.3c.3,0,.6.1.9.1a7.41,7.41,0,0,0,6.5-3.9v46.2a7.49,7.49,0,0,0,7.5,7.5H254a7.7,7.7,0,0,0,6.9-4.4,7.49,7.49,0,0,0,6.9,4.4H274a7.49,7.49,0,0,0,7.5-7.5h0V489.5a7.38,7.38,0,0,0,5.7,3.8,7.81,7.81,0,0,0,2,1.1l20.3,6.3V537a6,6,0,0,0,6,6h3.8a6.22,6.22,0,0,0,4.6-2.1,6.06,6.06,0,0,0,4.6,2.1h4.1a6,6,0,0,0,6-6h0V500.5l20.2-6.3a5.08,5.08,0,0,0,1.8-.9h.2l-1.6,8.7a5.79,5.79,0,0,0,.3,3.2,5.16,5.16,0,0,0,4.8,3.1H367v27.2a7.49,7.49,0,0,0,7.5,7.5h6.2a7.45,7.45,0,0,0,6.8-4.4,7.45,7.45,0,0,0,6.8,4.4h6.1a7.49,7.49,0,0,0,7.5-7.5V508.3h2.7a5.61,5.61,0,0,0,3.1-.9,5.23,5.23,0,0,0,2.2-5.3l-1.6-8.9,1.5-.2a7.53,7.53,0,0,0,6.5-8.4c.1,0,.1-.1.1-.2Z"/><path class="cls-3" d="M220.33,487.4a2.84,2.84,0,0,1-2.1,1.2l-3.2.4-5.7-31.2a1.56,1.56,0,0,0-1.8-1.2,1.43,1.43,0,0,0-1.2,1.5v.3l8.2,44.6a.73.73,0,0,1-.2.6.71.71,0,0,1-.6.3h-6a1.54,1.54,0,0,0-1.5,1.5h0v30.2a3,3,0,0,1-3,3H197a3,3,0,0,1-3-3V506a2.22,2.22,0,0,0-2.2-2.2h-5.1a.27.27,0,0,0-.3.3h0V538a.43.43,0,0,1-.4.4h-11.3a.43.43,0,0,1-.4-.4V504a.22.22,0,0,0-.2-.2H167a.86.86,0,0,1-.6-.3,1.42,1.42,0,0,1-.2-.6l2.2-12h0l6-32.6a1.48,1.48,0,0,0-1.2-1.7h0a1.56,1.56,0,0,0-1.8,1.2l-5.7,31.2-3.8-.5h-.2a3,3,0,0,1-1.9-3.4l7.3-38.7a9.75,9.75,0,0,1,7.4-7.7l10.8-2.5a1.55,1.55,0,0,0,1.1-1.9,1.61,1.61,0,0,0-.4-.7l-.1-.1a10.51,10.51,0,0,1-5.3-13.9h0c0-.1.1-.1.1-.2A10.76,10.76,0,0,1,201,423a10.65,10.65,0,0,1-6.2,10.6.1.1,0,0,0-.1.1,1.49,1.49,0,0,0,.1,2.2,1.61,1.61,0,0,0,.7.4l10.8,2.5a9.75,9.75,0,0,1,7.4,7.7l7.3,38.7a3.81,3.81,0,0,1-.7,2.2Zm4.3-3-7.2-38.7a14.15,14.15,0,0,0-10.7-11.2l-4.9-1.2a15,15,0,0,0-2.7-21.1,15.31,15.31,0,0,0-8.2-3.1h-1.1a15,15,0,0,0-15,15,14.7,14.7,0,0,0,3.2,9.2l-4.9,1.2a14.15,14.15,0,0,0-10.7,11.2l-7.2,38.7a7.36,7.36,0,0,0,6,8.7c.1,0,.3.1.4.1l1.5.2-1.6,8.8a5.79,5.79,0,0,0,.3,3.2,5.16,5.16,0,0,0,4.8,3.1h2.7v27.2a7.49,7.49,0,0,0,7.5,7.5h6.1a7.45,7.45,0,0,0,6.8-4.4,7.45,7.45,0,0,0,6.8,4.4h6.1a7.49,7.49,0,0,0,7.5-7.5h0V508.5h2.8a5.1,5.1,0,0,0,5.3-5.1,4.1,4.1,0,0,0-.1-1.1l-1.6-8.9,1.5-.2a7.44,7.44,0,0,0,6.5-8.3c.2-.3.2-.4.1-.5Z"/><path class="cls-3" d="M660.33,498.2a2.07,2.07,0,0,1-1,.6l-1.7.2-3.7-19.1a1.47,1.47,0,0,0-2.9.5h0l5.4,27.9h-3.9a1.5,1.5,0,0,0-1.1.4,1.28,1.28,0,0,0-.4,1v18.9a1.45,1.45,0,0,1-1.5,1.4h-4.1a1.45,1.45,0,0,1-1.5-1.4V511.1a2.9,2.9,0,0,0-3-2.8h-2.4a.67.67,0,0,0-.7.6v20.7a.32.32,0,0,1-.3.3H631a.27.27,0,0,1-.3-.3v-20a1.78,1.78,0,0,0-.4-1,1.5,1.5,0,0,0-1.1-.4h-3.8l5.4-27.9c.2-1.2-1.2-2.3-2.7-1.2-.1.1-.1.1-.1.2l-2.1,10.7-15.6-4.6-2.2-.6-.5-.1a1.6,1.6,0,0,1-.9-.7c-.1-.1-.1-.2-.1-.4v-.7l.1-.4a.1.1,0,0,1,.1-.1,1.57,1.57,0,0,1,1.8-.6l1.1.3,1.4.4,1.4.4,9.2,2.7a1.67,1.67,0,0,0,1.2-.1,1.27,1.27,0,0,0,.7-.9L626,473a6.1,6.1,0,0,1,4.8-4.7l6.9-1.5a1.35,1.35,0,0,0,1.1-1.7,1.61,1.61,0,0,0-.4-.7.35.35,0,0,0-.2-.1,6.09,6.09,0,0,1-3.9-5.8,6.39,6.39,0,0,1,6.1-6,6.58,6.58,0,0,1,6.3,3.5c0,.1.1.1.1.2a6,6,0,0,1-3.1,8c-.1,0-.2.1-.3.1a.1.1,0,0,0-.1.1,1.52,1.52,0,0,0,0,2,1.61,1.61,0,0,0,.7.4l7,1.6a6.1,6.1,0,0,1,4.8,4.7l4.7,24.1a1.23,1.23,0,0,1-.2,1Zm-55.7-16.1-5.3-26.8a1.44,1.44,0,0,0-1.7-1.1,1.4,1.4,0,0,0-1.2,1.4v.2l8.1,41.3a.73.73,0,0,1-.2.6.48.48,0,0,1-.6.2h-6a1.45,1.45,0,0,0-1.5,1.4v27.9a3,3,0,0,1-3,2.8H587a2.9,2.9,0,0,1-3-2.8V499.9a2.14,2.14,0,0,0-2.2-2.1h-5a.27.27,0,0,0-.3.3v31.4a.43.43,0,0,1-.4.4h-11.2a.43.43,0,0,1-.4-.4V498a.22.22,0,0,0-.2-.2h-7a.71.71,0,0,1-.8-.8l2.2-11.1h0l5.9-30.2a1.38,1.38,0,0,0-1.2-1.6h-.1a1.35,1.35,0,0,0-1.7,1.1l-5.7,28.9-2.1-.2a4.94,4.94,0,0,0,.8-3.9l-2.2-10.9,5.9-29.3a1.53,1.53,0,0,1,1.1-1.1l16-3.5a1.3,1.3,0,0,0,1.1-1.6c0-.3-.2-.5-.4-.8l-.1-.1c-5.1-2.2-7.7-7.6-5.3-12.9,0-.1.1-.1.1-.2a11,11,0,0,1,10.4-5.5c5.1.3,9.3,4.1,9.8,8.8a9.49,9.49,0,0,1-6.1,9.8.1.1,0,0,0-.1.1,1.34,1.34,0,0,0,0,2,1.23,1.23,0,0,0,.8.4l10.7,2.3a9.59,9.59,0,0,1,7.4,7.1l7,34.9-.4-.1a4.87,4.87,0,0,0-5.7,2.7Zm-53.3.6-.5.5c-.2.1-.3.3-.5.3s-.7.2-1,.3h-1.1a3,3,0,0,1-2.4-2.2l-5.1-26.3a1.6,1.6,0,0,0-1.9-1.1,2.18,2.18,0,0,0-.8.5.76.76,0,0,0-.2.5v73.4a1.45,1.45,0,0,1-1.5,1.4H529a2.9,2.9,0,0,1-3-2.8V501.5a3.54,3.54,0,0,0-2.9-3.5,3.7,3.7,0,0,0-4.5,2.7,1.7,1.7,0,0,0-.1.7v25.8a3,3,0,0,1-3,2.8h-7.7a1.52,1.52,0,0,1-1.5-1.4V455.2a.55.55,0,0,0-.3-.5,1.57,1.57,0,0,0-2.2-.1,2.18,2.18,0,0,0-.5.8l-5.1,26.3c0,.1-.1.2-.1.4a4.61,4.61,0,0,0-4.4-2.7,2,2,0,0,0-.7.1l-.8.2,6.9-34.8a9.21,9.21,0,0,1,7.2-7.1l10.5-2.3a1.3,1.3,0,0,0,1.1-1.6.71.71,0,0,0-.3-.6c-.1-.1-.2-.2-.3-.2a9.46,9.46,0,0,1-5.9-8.8c0-5.4,4.7-9.7,10.4-9.7h.7a10.07,10.07,0,0,1,9.6,8.8,9.49,9.49,0,0,1-5.9,9.7c-.1,0-.2.1-.3.2a1.43,1.43,0,0,0,.2,2,.86.86,0,0,0,.6.3l10.5,2.3a9.21,9.21,0,0,1,7.2,7.1l4.8,24.4.8,3.8.8,3.8.8,3.8a1.57,1.57,0,0,1-.3,1.9Zm-55.5,1.2c0,.2-.1.3-.2.5a1.6,1.6,0,0,1-.9.7l-.4.1-2.2.6-17.6,5.1V480.6a1.5,1.5,0,0,0-1-1.4,1.45,1.45,0,0,0-1.9.9c0,.1-.1.3-.1.4v48a1.45,1.45,0,0,1-1.5,1.4h-4.1a1.45,1.45,0,0,1-1.5-1.4V511.3a2.81,2.81,0,0,0-2.3-2.8,3,3,0,0,0-3.6,2.2c0,.2-.1.4-.1.6v17.3a1.45,1.45,0,0,1-1.5,1.4h-5.3a.27.27,0,0,1-.3-.3V480.1c0-.1,0-.2-.1-.2a1.6,1.6,0,0,0-2.2-.4,1.46,1.46,0,0,0-.6.9L445,498a1.51,1.51,0,0,1-1.6,1.1l-.5-.1h-.1a1.37,1.37,0,0,1-.9-1.6l4.8-23.8a6.1,6.1,0,0,1,4.8-4.7l7.3-1.6c.1,0,.1,0,.2-.1a1.43,1.43,0,0,0,.5-1.9,1.47,1.47,0,0,0-.6-.5,6,6,0,0,1-3.2-7.8c0-.1,0-.1.1-.2s.1-.1.1-.2a6.69,6.69,0,0,1,6.3-3.4,6.3,6.3,0,0,1,6.1,5.9,6.05,6.05,0,0,1-3.9,5.7.1.1,0,0,0-.1.1,1.52,1.52,0,0,0,0,2,2.51,2.51,0,0,0,.7.4l7,1.5a6.24,6.24,0,0,1,4.8,4.7l2.3,11.4a1.27,1.27,0,0,0,.7.9,1.29,1.29,0,0,0,1.2.1l9.2-2.7,1.4-.4,1.4-.4,1.1-.3a1.72,1.72,0,0,1,1.8.6.1.1,0,0,0,.1.1l.1.4a.83.83,0,0,0-.3.7Zm169.1,12.5-4.7-24.1a10.4,10.4,0,0,0-8.1-8l-1.7-.4a9.55,9.55,0,0,0,1.5-5.2c0-5.7-4.9-10.3-11-10.3h-.7a10.26,10.26,0,0,0-8.8,15.6l-1.7.4a10.39,10.39,0,0,0-8.1,8l-1.7,8.4-5.5-1.6-7-35.8a13.61,13.61,0,0,0-10.6-10.5l-4.8-1.1a13.7,13.7,0,0,0,3.1-9.9c-.7-6.8-6.6-12.2-13.8-12.7h-1.1a15.25,15.25,0,0,0-12.7,6.7,10.84,10.84,0,0,0-1.7,3.8,13.53,13.53,0,0,0,2.7,12.2l-4.9,1.1A13.76,13.76,0,0,0,553,443.4l-2,10.1-2-10a13.61,13.61,0,0,0-10.6-10.5l-4.8-1.1a13.7,13.7,0,0,0,3.1-9.9c-.7-6.8-6.6-12.2-13.8-12.7h-1.1a15.25,15.25,0,0,0-12.7,6.7,10.84,10.84,0,0,0-1.7,3.8,13.53,13.53,0,0,0,2.7,12.2l-4.8,1.1a13.61,13.61,0,0,0-10.6,10.5l-7,35.8-5.5,1.6-1.7-8.4a10.53,10.53,0,0,0-8.1-8l-1.7-.4a10.32,10.32,0,0,0,1.5-5.5c-.1-5.3-4.7-9.7-10.3-10h-.7a11.21,11.21,0,0,0-9.3,4.9,8.06,8.06,0,0,0-1.3,3,9.64,9.64,0,0,0,1.2,7.6l-1.7.4a10.53,10.53,0,0,0-8.1,8l-4.7,24.1a5.17,5.17,0,0,0,1.1,4.3,5.63,5.63,0,0,0,4.1,2.2h.9a5.89,5.89,0,0,0,3.4-1v26.7a5.7,5.7,0,0,0,5.9,5.5h4.5a6.36,6.36,0,0,0,4.5-1.9,6.36,6.36,0,0,0,4.5,1.9h4a5.7,5.7,0,0,0,5.9-5.5V495.1l19.8-5.9a7.44,7.44,0,0,0,2.7-1.6,7.15,7.15,0,0,0,3.3-2.9v48a1.77,1.77,0,0,0,1.8,1.7h11.6a7.51,7.51,0,0,0,6.7-4,7.33,7.33,0,0,0,6.7,4h11.6a1.71,1.71,0,0,0,1.8-1.7v-48a7.58,7.58,0,0,0,6.5,3.6h1.2a3.58,3.58,0,0,1,2.5,0l1.5.2-1.7,8.9v.4a5.09,5.09,0,0,0,5.3,4.7h2.5v25.2a7.09,7.09,0,0,0,7.4,6.9h6.1a7.51,7.51,0,0,0,6.7-4,7.33,7.33,0,0,0,6.7,4h6.1a7.16,7.16,0,0,0,7.4-6.9V502.5h2.6a5.33,5.33,0,0,0,3.4-1.1,4.69,4.69,0,0,0,1.8-4.6l-1.4-7.1,16.5,4.8-2.8,14.2a3.22,3.22,0,0,0,1.7,3.5,4.55,4.55,0,0,0,2,.5h2.4v16a6,6,0,0,0,1.1,3.4,5.92,5.92,0,0,0,4.9,2.3h3.7a6.29,6.29,0,0,0,4.6-2,6.13,6.13,0,0,0,4.6,2h4.1a6.26,6.26,0,0,0,4.2-1.6,5.44,5.44,0,0,0,1.7-4V512.7H657a4.55,4.55,0,0,0,2-.5,3.35,3.35,0,0,0,1.7-3.6l-1-5.4a6.41,6.41,0,0,0,4.1-2.2,6.12,6.12,0,0,0,1.1-4.6Z"/><path class="cls-4" d="M593.23,31.5H650a12,12,0,0,1,12,12v56.8a12,12,0,0,1-12,12h-56.8a12,12,0,0,1-12-12V43.5A12,12,0,0,1,593.23,31.5Z"/><rect class="cls-5" x="589.73" y="13" width="5" height="14"/><rect class="cls-5" x="600.73" y="13" width="5" height="14"/><rect class="cls-5" x="612.73" y="13" width="5" height="14"/><rect class="cls-5" x="624.63" y="13" width="5" height="14"/><rect class="cls-5" x="635.63" y="13" width="5" height="14"/><rect class="cls-5" x="647.63" y="13" width="5" height="14"/><rect class="cls-5" x="666.53" y="40" width="14" height="5"/><rect class="cls-5" x="666.53" y="51" width="14" height="5"/><rect class="cls-5" x="666.53" y="62.9" width="14" height="5"/><rect class="cls-5" x="666.53" y="74.9" width="14" height="5"/><rect class="cls-5" x="666.53" y="85.9" width="14" height="5"/><rect class="cls-5" x="666.53" y="97.9" width="14" height="5"/><rect class="cls-5" x="648.63" y="117.8" width="5" height="14"/><rect class="cls-5" x="637.63" y="117.8" width="5" height="14"/><rect class="cls-5" x="625.63" y="117.8" width="5" height="14"/><rect class="cls-5" x="613.73" y="117.8" width="5" height="14"/><rect class="cls-5" x="602.73" y="117.8" width="5" height="14"/><rect class="cls-5" x="590.73" y="117.8" width="5" height="14"/><rect class="cls-5" x="560.83" y="98.9" width="14" height="5"/><rect class="cls-5" x="560.83" y="87.9" width="14" height="5"/><rect class="cls-5" x="560.83" y="75.9" width="14" height="5"/><rect class="cls-5" x="560.83" y="63.9" width="14" height="5"/><rect class="cls-5" x="560.83" y="53" width="14" height="5"/><rect class="cls-5" x="560.83" y="41" width="14" height="5"/><text class="cls-6" transform="translate(592.73 78.39)">CPU</text><path class="cls-4" d="M762.73,18.5h56.8a12,12,0,0,1,12,12V87.3a12,12,0,0,1-12,12h-56.8a12,12,0,0,1-12-12V30.5A12,12,0,0,1,762.73,18.5Z"/><rect class="cls-5" x="759.23" width="5" height="14"/><rect class="cls-5" x="770.13" width="5" height="14"/><rect class="cls-5" x="782.13" width="5" height="14"/><rect class="cls-5" x="794.13" width="5" height="14"/><rect class="cls-5" x="805.13" width="5" height="14"/><rect class="cls-5" x="817.03" width="5" height="14"/><rect class="cls-5" x="836.03" y="26.9" width="14" height="5"/><rect class="cls-5" x="836.03" y="37.9" width="14" height="5"/><rect class="cls-5" x="836.03" y="49.9" width="14" height="5"/><rect class="cls-5" x="836.03" y="61.9" width="14" height="5"/><rect class="cls-5" x="836.03" y="72.9" width="14" height="5"/><rect class="cls-5" x="836.03" y="84.8" width="14" height="5"/><rect class="cls-5" x="818.03" y="104.8" width="5" height="14"/><rect class="cls-5" x="807.13" y="104.8" width="5" height="14"/><rect class="cls-5" x="795.13" y="104.8" width="5" height="14"/><rect class="cls-5" x="783.13" y="104.8" width="5" height="14"/><rect class="cls-5" x="772.13" y="104.8" width="5" height="14"/><rect class="cls-5" x="760.23" y="104.8" width="5" height="14"/><rect class="cls-5" x="730.23" y="85.8" width="14" height="5"/><rect class="cls-5" x="730.23" y="74.9" width="14" height="5"/><rect class="cls-5" x="730.23" y="62.9" width="14" height="5"/><rect class="cls-5" x="730.23" y="50.9" width="14" height="5"/><rect class="cls-5" x="730.23" y="39.9" width="14" height="5"/><rect class="cls-5" x="730.23" y="27.9" width="14" height="5"/><path class="cls-7" d="M689.93,143.1h46.2a12,12,0,0,1,12,12v46.2a12,12,0,0,1-12,12h-46.2a12,12,0,0,1-12-12V155.1A12,12,0,0,1,689.93,143.1Z"/><path class="cls-8" d="M688,149.2h3.3a4,4,0,0,1,4,4v3.3a4,4,0,0,1-4,4H688a4,4,0,0,1-4-4v-3.3A4,4,0,0,1,688,149.2Z"/><path class="cls-8" d="M703.63,149.2h3.3a4,4,0,0,1,4,4v3.3a4,4,0,0,1-4,4h-3.3a4,4,0,0,1-4-4v-3.3A4,4,0,0,1,703.63,149.2Z"/><path class="cls-8" d="M719.23,149.2h3.3a4,4,0,0,1,4,4v3.3a4,4,0,0,1-4,4h-3.3a4,4,0,0,1-4-4v-3.3A4,4,0,0,1,719.23,149.2Z"/><path class="cls-8" d="M734.73,149.2H738a4,4,0,0,1,4,4v3.3a4,4,0,0,1-4,4h-3.3a4,4,0,0,1-4-4v-3.3A4,4,0,0,1,734.73,149.2Z"/><path class="cls-8" d="M688,164.8h3.3a4,4,0,0,1,4,4v3.3a4,4,0,0,1-4,4H688a4,4,0,0,1-4-4v-3.3A4,4,0,0,1,688,164.8Z"/><path class="cls-8" d="M703.63,164.8h3.3a4,4,0,0,1,4,4v3.3a4,4,0,0,1-4,4h-3.3a4,4,0,0,1-4-4v-3.3A4,4,0,0,1,703.63,164.8Z"/><path class="cls-8" d="M719.23,164.8h3.3a4,4,0,0,1,4,4v3.3a4,4,0,0,1-4,4h-3.3a4,4,0,0,1-4-4v-3.3A4,4,0,0,1,719.23,164.8Z"/><path class="cls-8" d="M734.73,164.8H738a4,4,0,0,1,4,4v3.3a4,4,0,0,1-4,4h-3.3a4,4,0,0,1-4-4v-3.3A4,4,0,0,1,734.73,164.8Z"/><path class="cls-8" d="M688,180.4h3.3a4,4,0,0,1,4,4v3.3a4,4,0,0,1-4,4H688a4,4,0,0,1-4-4v-3.3A4,4,0,0,1,688,180.4Z"/><path class="cls-8" d="M703.63,180.4h3.3a4,4,0,0,1,4,4v3.3a4,4,0,0,1-4,4h-3.3a4,4,0,0,1-4-4v-3.3A4,4,0,0,1,703.63,180.4Z"/><path class="cls-8" d="M719.23,180.4h3.3a4,4,0,0,1,4,4v3.3a4,4,0,0,1-4,4h-3.3a4,4,0,0,1-4-4v-3.3A4,4,0,0,1,719.23,180.4Z"/><path class="cls-8" d="M734.73,180.4H738a4,4,0,0,1,4,4v3.3a4,4,0,0,1-4,4h-3.3a4,4,0,0,1-4-4v-3.3A4,4,0,0,1,734.73,180.4Z"/><path class="cls-8" d="M688,196h3.3a4,4,0,0,1,4,4v3.3a4,4,0,0,1-4,4H688a4,4,0,0,1-4-4V200A4,4,0,0,1,688,196Z"/><path class="cls-8" d="M703.63,196h3.3a4,4,0,0,1,4,4v3.3a4,4,0,0,1-4,4h-3.3a4,4,0,0,1-4-4V200A4,4,0,0,1,703.63,196Z"/><path class="cls-8" d="M719.23,196h3.3a4,4,0,0,1,4,4v3.3a4,4,0,0,1-4,4h-3.3a4,4,0,0,1-4-4V200A3.89,3.89,0,0,1,719.23,196Z"/><path class="cls-8" d="M734.73,196H738a4,4,0,0,1,4,4v3.3a4,4,0,0,1-4,4h-3.3a4,4,0,0,1-4-4V200A4,4,0,0,1,734.73,196Z"/><rect class="cls-5" x="685.33" y="127.1" width="4.3" height="12.1"/><rect class="cls-5" x="694.83" y="127.1" width="4.3" height="12.1"/><rect class="cls-5" x="705.23" y="127.1" width="4.3" height="12.1"/><rect class="cls-5" x="715.63" y="127.1" width="4.3" height="12.1"/><rect class="cls-5" x="725.13" y="127.1" width="4.3" height="12.1"/><rect class="cls-5" x="735.53" y="127.1" width="4.3" height="12.1"/><rect class="cls-5" x="752.03" y="150.5" width="12.1" height="4.3"/><rect class="cls-5" x="752.03" y="160" width="12.1" height="4.3"/><rect class="cls-5" x="752.03" y="170.4" width="12.1" height="4.3"/><rect class="cls-5" x="752.03" y="180.8" width="12.1" height="4.3"/><rect class="cls-5" x="752.03" y="190.3" width="12.1" height="4.3"/><rect class="cls-5" x="752.03" y="200.7" width="12.1" height="4.3"/><rect class="cls-5" x="736.43" y="218" width="4.3" height="12.1"/><rect class="cls-5" x="726.83" y="218" width="4.3" height="12.1"/><rect class="cls-5" x="716.53" y="218" width="4.3" height="12.1"/><rect class="cls-5" x="706.13" y="218" width="4.3" height="12.1"/><rect class="cls-5" x="696.53" y="218" width="4.3" height="12.1"/><rect class="cls-5" x="686.13" y="218" width="4.3" height="12.1"/><rect class="cls-5" x="660.23" y="201.6" width="12.1" height="4.3"/><rect class="cls-5" x="660.23" y="192.1" width="12.1" height="4.3"/><rect class="cls-5" x="660.23" y="181.7" width="12.1" height="4.3"/><rect class="cls-5" x="660.23" y="171.3" width="12.1" height="4.3"/><rect class="cls-5" x="660.23" y="161.7" width="12.1" height="4.3"/><rect class="cls-5" x="660.23" y="151.3" width="12.1" height="4.3"/><text class="cls-9" transform="translate(677.93 240.27) scale(1.04 1)">Multi-Co</text><text class="cls-9" transform="translate(716.08 240.27) scale(1.04 1)">r</text><text class="cls-9" transform="translate(719.98 240.27) scale(1.04 1)">e CPU</text><rect x="763.63" y="32.6" width="22.8" height="53"/><rect x="793.83" y="32.6" width="22.8" height="53"/><text class="cls-10" transform="translate(855.53 18.11) rotate(90) scale(0.87 1)">Dual-Co</text><text class="cls-10" transform="translate(855.53 60.93) rotate(90) scale(0.87 1)">r</text><text class="cls-10" transform="translate(855.53 65.59) rotate(90) scale(0.87 1)">e CPU</text><text class="cls-11"></text><text class="cls-12" transform="translate(52.56 166.53)">GCP</text><rect class="cls-13" x="376.03" y="71.8" width="146" height="36.8"/><polygon class="cls-14" points="457.73 108.5 489.83 99.3 522.03 90.1 489.83 80.9 457.73 71.8 457.73 81.1 426.43 81.1 426.43 99.2 457.73 99.2 457.73 108.5"/><rect class="cls-14" x="403.73" y="81.5" width="16.7" height="17.3"/><rect class="cls-14" x="389.03" y="81.5" width="9.5" height="17.3"/><rect class="cls-14" x="376.03" y="81.5" width="6.4" height="17.3"/><rect class="cls-13" x="136.6" y="199.11" width="36.8" height="114" transform="translate(-138.48 197.07) rotate(-47.44)"/><polygon class="cls-14" points="162.43 238 137.73 227.8 113.03 217.6 125.33 241.3 137.63 265.1 143.93 258.2 161.93 274.7 174.13 261.4 156.13 244.9 162.43 238"/><rect class="cls-14" x="167.6" y="269.1" width="17.3" height="13" transform="translate(-145.96 219.03) rotate(-47.44)"/><rect class="cls-14" x="178.14" y="281.58" width="17.3" height="7.4" transform="translate(-149.68 229.93) rotate(-47.44)"/><rect class="cls-14" x="186.56" y="290.49" width="17.3" height="5" transform="translate(-152.64 238.63) rotate(-47.44)"/><rect class="cls-13" x="615.1" y="323.79" width="146" height="36.8" transform="translate(119.24 858.88) rotate(-68.69)"/><polygon class="cls-14" points="667.73 343.5 664.63 376.8 661.53 410.1 681.73 383.5 702.03 356.9 693.23 353.5 704.63 324.4 687.83 317.8 676.43 346.9 667.73 343.5"/><rect class="cls-14" x="693.14" y="299.09" width="16.7" height="17.3" transform="translate(159.86 849.43) rotate(-68.69)"/><rect class="cls-14" x="703.38" y="282.12" width="9.5" height="17.3" transform="translate(179.9 844.81) rotate(-68.69)"/><rect class="cls-14" x="710.2" y="268.53" width="6.4" height="17.3" transform="translate(195.91 841.07) rotate(-68.69)"/><rect class="cls-13" x="57.43" y="47.6" width="83.7" height="27.9"/><text class="cls-12" transform="translate(57.43 59.27)">AZURE</text><text class="cls-15" transform="translate(225.01 130.2)"><tspan class="cls-16">A</tspan><tspan x="12.85" y="0">WS</tspan></text></g></g></svg>