<?xml version="1.0" encoding="utf-8"?>
<!-- Generator: Adobe Illustrator 22.1.0, SVG Export Plug-In . SVG Version: 6.00 Build 0)  -->
<svg version="1.1" id="Layer_1" xmlns="http://www.w3.org/2000/svg" xmlns:xlink="http://www.w3.org/1999/xlink" x="0px" y="0px"
	 viewBox="0 0 865.49 543.2" style="enable-background:new 0 0 865.49 543.2;" xml:space="preserve">
<style type="text/css">
	.st0{fill:#363636;}
	.st1{fill:none;stroke:#A23814;stroke-width:4.26;stroke-miterlimit:10;}
	.st2{fill:#222222;}
	.st3{font-family:'Arial-Black';}
	.st4{font-size:60.87px;}
	.st5{fill:#A23814;}
	.st6{fill:none;stroke:#A23814;stroke-width:2.99;stroke-miterlimit:10;}
	.st7{font-size:23.19px;}
	.st8{fill:none;stroke:#A23814;stroke-width:2.6;stroke-miterlimit:10;}
	.st9{fill:none;stroke:#363636;stroke-width:2.6;stroke-miterlimit:10;}
	.st10{font-size:8.19px;}
	.st11{font-size:11.61px;}
	.st12{font-family:'Roboto-Bold';}
	.st13{font-size:16.36px;}
	.st14{fill:none;}
	.st15{fill:#231F20;}
</style>
<title>features</title>
<g id="Layer_1-2">
	<rect x="589.73" y="13" class="st0" width="5" height="14"/>
	<rect x="600.73" y="13" class="st0" width="5" height="14"/>
	<rect x="612.73" y="13" class="st0" width="5" height="14"/>
	<rect x="624.63" y="13" class="st0" width="5" height="14"/>
	<rect x="635.63" y="13" class="st0" width="5" height="14"/>
	<rect x="647.63" y="13" class="st0" width="5" height="14"/>
	<rect x="759.23" class="st0" width="5" height="14"/>
	<rect x="770.13" class="st0" width="5" height="14"/>
	<rect x="782.13" class="st0" width="5" height="14"/>
	<rect x="794.13" class="st0" width="5" height="14"/>
	<rect x="805.13" class="st0" width="5" height="14"/>
	<rect x="817.03" class="st0" width="5" height="14"/>
	<g>
		<path class="st1" d="M163.73,48.7c4.613-12.977-2.139-27.241-15.1-31.9c-5.57-1.968-11.653-1.933-17.2,0.1
			c-13.134-16.122-36.835-18.581-53-5.5c-4.473,3.593-8.045,8.182-10.43,13.4c-9.001-10.514-24.82-11.74-35.334-2.739
			C24.362,29.169,21.624,40.84,25.9,50.9c-0.5,0-1.1-0.1-1.7-0.1C11.995,50.805,2.104,60.703,2.108,72.908
			C2.113,85.107,12.001,94.995,24.2,95c4.927-0.03,9.706-1.682,13.6-4.7c13.195,15.298,36.294,17.003,51.592,3.807
			c0.003-0.002,0.006-0.005,0.008-0.007c2.062-1.777,3.908-3.791,5.5-6c10.541,13.554,30.074,15.997,43.628,5.456
			c0.024-0.019,0.048-0.037,0.072-0.056c2.178-1.711,4.127-3.694,5.8-5.9c10.272,6.186,23.614,2.872,29.8-7.4
			c6.186-10.272,2.872-23.614-7.4-29.8l0,0C165.868,49.682,164.833,49.109,163.73,48.7z"/>
		<path class="st1" d="M316.23,122.1c4.513-12.651-2.085-26.565-14.736-31.077c-0.021-0.008-0.043-0.015-0.064-0.023
			c-5.442-1.917-11.381-1.882-16.8,0.1c-12.763-15.718-35.851-18.113-51.568-5.35c-0.021,0.017-0.041,0.033-0.062,0.05
			c-4.337,3.549-7.822,8.026-10.2,13.1c-8.702-10.246-24.062-11.498-34.308-2.796c-8.157,6.928-10.832,18.37-6.592,28.196
			c-0.5,0-1.1-0.1-1.6-0.1c-11.874,0.005-21.496,9.635-21.491,21.509c0.005,11.874,9.635,21.496,21.509,21.491
			c4.817-0.002,9.494-1.622,13.281-4.6c12.858,14.911,35.369,16.575,50.279,3.718c0.007-0.006,0.014-0.012,0.021-0.018
			c2.002-1.735,3.812-3.68,5.4-5.8c10.276,13.193,29.302,15.558,42.495,5.282c0.035-0.027,0.07-0.054,0.105-0.082
			c2.12-1.704,4.033-3.65,5.7-5.8c10.121,5.887,23.098,2.455,28.985-7.666c5.754-9.892,2.618-22.566-7.085-28.634
			C318.43,123.1,317.33,122.5,316.23,122.1z"/>
		<path class="st1" d="M123,158.1c3.259-9.117-1.49-19.149-10.607-22.408c-3.916-1.4-8.202-1.362-12.093,0.107
			c-9.231-11.307-25.873-13.007-37.2-3.8c-3.106,2.548-5.6,5.76-7.3,9.4c-6.301-7.372-17.386-8.24-24.758-1.939
			c-5.833,4.986-7.753,13.181-4.742,20.239h-1.2c-8.56,0-15.5,6.94-15.5,15.5s6.94,15.5,15.5,15.5c3.474-0.024,6.845-1.183,9.6-3.3
			c9.275,10.693,25.441,11.899,36.2,2.7c1.428-1.276,2.733-2.682,3.9-4.2c7.442,9.503,21.166,11.202,30.7,3.8
			c1.538-1.222,2.916-2.633,4.1-4.2c7.255,4.256,16.587,1.826,20.843-5.429c4.191-7.143,1.906-16.325-5.143-20.671
			C124.616,158.835,123.837,158.395,123,158.1L123,158.1z"/>
		<g>
			<text transform="matrix(0.62 0 0 1 222.7598 313.2695)" class="st2 st3 st4">B</text>
			<text transform="matrix(0.62 0 0 1 252.1299 313.2695)" class="st2 st3 st4">L</text>
			<text transform="matrix(0.62 0 0 1 276.6699 313.2695)" class="st2 st3 st4">OODHOUND 2.0</text>
		</g>
		<path class="st5" d="M418.13,487.4c-0.486,0.693-1.256,1.133-2.1,1.2l-3.2,0.4l-5.7-31.2c-0.18-0.819-0.975-1.349-1.8-1.2
			c-0.726,0.117-1.245,0.766-1.2,1.5v0.3l8.2,44.6c0.028,0.22-0.046,0.441-0.2,0.6c-0.137,0.194-0.362,0.307-0.6,0.3H405
			c-0.82,0.021-1.479,0.68-1.5,1.5v30.2c0,1.657-1.343,3-3,3h-6.3c-1.657,0-3-1.343-3-3V506c-0.011-1.211-0.99-2.189-2.2-2.2h-4.6
			c-0.148-0.018-0.282,0.088-0.3,0.236c-0.003,0.021-0.003,0.043,0,0.064V538c-0.014,0.215-0.185,0.385-0.4,0.4h-11.3
			c-0.215-0.015-0.385-0.185-0.4-0.4l0,0v-34c-0.009-0.106-0.094-0.191-0.2-0.2h-7.1c-0.232-0.015-0.449-0.123-0.6-0.3
			c-0.111-0.182-0.179-0.388-0.2-0.6l2.2-12l0,0l6-32.6c0.133-0.8-0.402-1.558-1.2-1.7l0,0c-0.825-0.149-1.62,0.381-1.8,1.2
			l-5.7,31.2l-1.7-0.2c0.038-0.574-0.029-1.15-0.2-1.7l-0.2-0.7c0-0.1,0-0.1-0.1-0.2c-0.696-1.288-1.954-2.176-3.4-2.4l8-42.7
			c0.073-0.575,0.525-1.027,1.1-1.1l16.2-3.8c0.827-0.219,1.321-1.068,1.101-1.895c0-0.002-0.001-0.003-0.001-0.005
			c-0.072-0.263-0.209-0.504-0.4-0.7l-0.1-0.1c-5.299-2.368-7.676-8.584-5.307-13.884c0.002-0.005,0.005-0.011,0.007-0.016l0,0
			c0-0.1,0.1-0.1,0.1-0.2c2.672-5.308,9.14-7.446,14.449-4.774c3.236,1.628,5.435,4.776,5.851,8.374
			c0.384,4.489-2.099,8.734-6.2,10.6c-0.055,0-0.1,0.045-0.1,0.1l0,0c-0.582,0.581-0.583,1.525-0.002,2.107
			c0.032,0.033,0.066,0.063,0.102,0.093c0.196,0.191,0.437,0.328,0.7,0.4l10.8,2.5c3.778,0.867,6.683,3.891,7.4,7.7l7.3,38.7
			c0,0.788-0.245,1.557-0.7,2.2H418.13z M358.63,489.1c-0.204,0.336-0.524,0.585-0.9,0.7l-1,0.3l-19.4,6.1V485
			c-0.008-0.842-0.66-1.538-1.5-1.6c-0.821-0.061-1.535,0.555-1.596,1.376c-0.003,0.041-0.004,0.083-0.004,0.124l0,0v51.9
			c-0.021,0.82-0.68,1.479-1.5,1.5h-4.1c-0.82-0.021-1.479-0.68-1.5-1.5l0,0v-18.6c-0.033-1.448-1.006-2.705-2.4-3.1
			c-1.65-0.391-3.304,0.63-3.695,2.279c-0.002,0.007-0.003,0.014-0.005,0.021c-0.089,0.222-0.124,0.462-0.1,0.7v18.7
			c-0.021,0.82-0.68,1.479-1.5,1.5h-3.9c0,0-1.5-0.8-1.3-1.6v-38.6c-0.2,0-0.2,0,0-0.1v-13.2c-0.201-0.804-0.877-1.4-1.7-1.5
			c-0.8,0-1.8,1.5-1.8,1.5v11.4l-18.9-6l-1.5-0.5c-0.1,0-0.2-0.1-0.3-0.2c-0.451-0.275-0.719-0.772-0.7-1.3
			c-0.015-0.141,0.02-0.283,0.1-0.4l0.1-0.3c0.163-0.673,0.816-1.108,1.5-1c0.11-0.013,0.22,0.023,0.3,0.1l1.1,0.3l1.4,0.5l10.8,3.4
			c0.788,0.255,1.634-0.177,1.889-0.965c0.004-0.012,0.007-0.023,0.011-0.035v-0.2l2.3-12.6c0.444-2.336,2.197-4.207,4.5-4.8
			l7.6-1.8c0.1,0,0.1,0,0.2-0.1c0.709-0.503,0.886-1.48,0.4-2.2c-0.124-0.241-0.34-0.422-0.6-0.5
			c-3.289-1.598-4.659-5.559-3.062-8.847s5.559-4.659,8.847-3.062c0.072,0.035,0.144,0.071,0.214,0.109c1.299,0.649,2.351,1.701,3,3
			c0,0.1,0.1,0.1,0.1,0.2c1.474,3.316-0.02,7.198-3.336,8.672c-0.021,0.009-0.043,0.019-0.064,0.028c-0.055,0-0.1,0.045-0.1,0.1l0,0
			c-0.573,0.638-0.528,1.617,0.1,2.2c0.196,0.191,0.437,0.328,0.7,0.4l10.2,2.4c0.534,0.116,0.936,0.557,1,1.1l2.9,15.6
			c0.153,0.82,0.941,1.361,1.761,1.208c0.013-0.002,0.026-0.005,0.039-0.008h0.2l11.5-3.6l1.4-0.5l1.2-0.4c0.1,0,0.3,0,0.3,0.2l0,0
			c0,0.055,0.045,0.1,0.1,0.1l0,0c0.362,0.173,0.622,0.506,0.7,0.9l0.1,0.2l0,0C358.83,488.4,358.83,488.8,358.63,489.1
			L358.63,489.1z M289,484.2c-1.055,0.533-1.848,1.471-2.2,2.6l-0.1,0.2c-0.115,0.356-0.182,0.726-0.2,1.1
			c-0.71-0.458-1.213-1.176-1.4-2l-5.1-28.4c-0.18-0.819-0.975-1.349-1.8-1.2c-0.366,0.077-0.688,0.292-0.9,0.6
			c-0.125,0.137-0.197,0.315-0.2,0.5V537c-0.021,0.82-0.68,1.479-1.5,1.5h-7.3c-1.657,0-3-1.343-3-3v-27.7
			c0.021-1.816-1.229-3.399-3-3.8c-2.041-0.488-4.092,0.77-4.58,2.811c-0.007,0.029-0.014,0.059-0.02,0.089
			c-0.077,0.259-0.11,0.53-0.1,0.8v27.8c0,1.657-1.343,3-3,3h-7.8c-0.82-0.021-1.479-0.68-1.5-1.5v-79.2
			c-0.021-0.212-0.089-0.418-0.2-0.6c-0.554-0.659-1.536-0.748-2.2-0.2c-0.312,0.192-0.502,0.533-0.5,0.9l-5.1,28.4
			c-0.303,1.54-1.742,2.586-3.3,2.4l-0.7-0.1c-0.185-0.003-0.363-0.075-0.5-0.2c-1.261-0.575-1.964-1.939-1.7-3.3l7.1-38.7
			c0.675-3.795,3.546-6.824,7.3-7.7l10.6-2.5c0.827-0.219,1.321-1.068,1.101-1.895c0-0.002-0.001-0.003-0.001-0.005l-0.3-0.6
			c-0.1-0.1-0.2-0.2-0.3-0.2c-5.247-2.47-7.498-8.725-5.028-13.972c1.736-3.689,5.451-6.039,9.528-6.028h0.7
			c5.793,0.44,10.133,5.494,9.692,11.287c-0.287,3.77-2.574,7.097-5.992,8.713c-0.1,0.1-0.2,0.1-0.3,0.2
			c-0.493,0.68-0.407,1.62,0.2,2.2l0.6,0.3l13.7,3.3c1.86,0.419,3.282,1.92,3.6,3.8l7.5,40.5
			C290.174,483.759,289.55,483.898,289,484.2L289,484.2z M422.4,484.4l-7.2-38.7c-1.025-5.527-5.225-9.924-10.7-11.2l-4.9-1.2
			c5.1-6.528,3.943-15.955-2.586-21.055c-2.362-1.846-5.224-2.941-8.214-3.145h-1.1c-8.307,0.039-15.017,6.793-15,15.1
			c0.018,3.32,1.105,6.546,3.1,9.2l-4.9,1.2c-5.475,1.276-9.675,5.673-10.7,11.2l-6.9,37.6l-8.1,2.5l-1.7-9.2
			c-0.763-4.084-3.859-7.336-7.9-8.3l-1.9-0.5c3.057-5.275,1.267-12.03-4-15.1c-1.667-0.982-3.566-1.5-5.5-1.5h-0.7
			c-6.064,0.374-10.676,5.592-10.303,11.656c0.001,0.015,0.002,0.03,0.003,0.044c0.083,1.702,0.599,3.354,1.5,4.8l-1.9,0.5
			c-4.023,0.996-7.104,4.233-7.9,8.3l-1.7,9.2l-7.3-2.3l-7-37.8c-1.025-5.527-5.225-9.924-10.7-11.2l-4.9-1.2
			c5.1-6.528,3.943-15.955-2.586-21.055c-2.362-1.846-5.224-2.941-8.214-3.145h-1.1c-4.672-0.005-9.076,2.179-11.9,5.9
			c-1.523,1.949-2.522,4.256-2.9,6.7c-0.676,4.148,0.411,8.389,3,11.7l-4.9,1.2c-5.475,1.276-9.675,5.673-10.7,11.2l-7.1,38.7
			c-0.796,3.986,1.79,7.863,5.776,8.659c0.074,0.015,0.149,0.029,0.224,0.041c0.2,0,0.3,0.1,0.5,0.1h0.3c0.3,0,0.6,0.1,0.9,0.1
			c2.718-0.01,5.213-1.506,6.5-3.9v46.2c-0.006,4.137,3.343,7.494,7.48,7.5c0.007,0,0.013,0,0.02,0h5.4
			c2.954-0.022,5.634-1.731,6.9-4.4c1.225,2.705,3.931,4.43,6.9,4.4h6.2c4.137,0.006,7.494-3.343,7.5-7.48c0-0.007,0-0.013,0-0.02
			l0,0v-46.2c1.161,2.125,3.292,3.545,5.7,3.8c0.609,0.463,1.283,0.833,2,1.1l20.3,6.3V537c0,3.314,2.686,6,6,6h3.8
			c1.762-0.017,3.433-0.78,4.6-2.1c1.154,1.337,2.834,2.104,4.6,2.1h4.1c3.314,0,6-2.686,6-6l0,0v-36.5l20.2-6.3
			c0.654-0.177,1.266-0.483,1.8-0.9h0.2l-1.6,8.7c-0.204,1.074-0.1,2.183,0.3,3.2c0.83,1.906,2.722,3.128,4.8,3.1h2.7v27.2
			c-0.006,4.137,3.343,7.494,7.48,7.5c0.007,0,0.013,0,0.02,0h6.2c2.936,0.001,5.598-1.722,6.8-4.4c1.202,2.678,3.864,4.401,6.8,4.4
			h6.1c4.137,0.006,7.494-3.343,7.5-7.48c0-0.007,0-0.013,0-0.02v-27.2h2.7c1.099,0.01,2.177-0.303,3.1-0.9
			c1.724-1.171,2.588-3.253,2.2-5.3l-1.6-8.9l1.5-0.2c4.109-0.535,7.013-4.289,6.5-8.4C422.4,484.6,422.4,484.5,422.4,484.4
			L422.4,484.4z"/>
		<path class="st5" d="M220.33,487.4c-0.486,0.693-1.256,1.133-2.1,1.2l-3.2,0.4l-5.7-31.2c-0.18-0.819-0.975-1.349-1.8-1.2
			c-0.726,0.117-1.245,0.766-1.2,1.5v0.3l8.2,44.6c0.028,0.22-0.046,0.441-0.2,0.6c-0.137,0.194-0.362,0.307-0.6,0.3h-6
			c-0.82,0.021-1.479,0.68-1.5,1.5l0,0v30.2c0,1.657-1.343,3-3,3H197c-1.657,0-3-1.343-3-3V506c-0.011-1.211-0.989-2.189-2.2-2.2
			h-5.1c-0.148-0.018-0.282,0.088-0.3,0.236c-0.003,0.021-0.003,0.043,0,0.064l0,0V538c-0.015,0.215-0.185,0.385-0.4,0.4h-11.3
			c-0.215-0.015-0.385-0.185-0.4-0.4v-34c-0.009-0.106-0.094-0.191-0.2-0.2H167c-0.232-0.015-0.449-0.123-0.6-0.3
			c-0.111-0.182-0.179-0.388-0.2-0.6l2.2-12l0,0l6-32.6c0.133-0.8-0.402-1.558-1.2-1.7l0,0c-0.825-0.149-1.62,0.381-1.8,1.2
			l-5.7,31.2l-3.8-0.5h-0.2c-1.383-0.512-2.188-1.954-1.9-3.4l7.3-38.7c0.717-3.809,3.622-6.833,7.4-7.7l10.8-2.5
			c0.827-0.219,1.321-1.068,1.101-1.895c0-0.002-0.001-0.003-0.001-0.005c-0.072-0.263-0.209-0.504-0.4-0.7l-0.1-0.1
			c-5.299-2.368-7.676-8.584-5.307-13.884c0.002-0.005,0.005-0.011,0.007-0.016l0,0c0-0.1,0.1-0.1,0.1-0.2
			c2.672-5.308,9.14-7.446,14.449-4.774c3.236,1.629,5.435,4.776,5.851,8.374c0.384,4.489-2.099,8.734-6.2,10.6
			c-0.055,0-0.1,0.045-0.1,0.1l0,0c-0.582,0.581-0.583,1.525-0.002,2.107c0.032,0.033,0.066,0.063,0.102,0.093
			c0.196,0.191,0.437,0.328,0.7,0.4l10.8,2.5c3.778,0.867,6.683,3.891,7.4,7.7l7.3,38.7c0,0.788-0.245,1.557-0.7,2.2L220.33,487.4z
			 M224.63,484.4l-7.2-38.7c-1.025-5.527-5.225-9.924-10.7-11.2l-4.9-1.2c5.085-6.54,3.906-15.964-2.634-21.049
			c-0.022-0.017-0.044-0.034-0.066-0.051c-2.373-1.811-5.223-2.888-8.2-3.1h-1.1c-8.284,0-15,6.716-15,15
			c-0.01,3.341,1.119,6.586,3.2,9.2l-4.9,1.2c-5.475,1.276-9.675,5.673-10.7,11.2l-7.2,38.7c-0.796,3.986,1.79,7.863,5.776,8.659
			c0.074,0.015,0.149,0.029,0.224,0.041c0.1,0,0.3,0.1,0.4,0.1l1.5,0.2l-1.6,8.8c-0.204,1.074-0.1,2.183,0.3,3.2
			c0.83,1.906,2.722,3.128,4.8,3.1h2.7v27.2c-0.006,4.137,3.343,7.494,7.48,7.5c0.007,0,0.013,0,0.02,0h6.1
			c2.936,0.001,5.598-1.722,6.8-4.4c1.202,2.678,3.864,4.401,6.8,4.4h6.1c4.137,0.006,7.494-3.343,7.5-7.48c0-0.007,0-0.013,0-0.02
			l0,0v-27.2h2.8c2.814,0.11,5.186-2.082,5.296-4.896c0.003-0.068,0.004-0.136,0.004-0.204c0.016-0.37-0.017-0.74-0.1-1.1l-1.6-8.9
			l1.5-0.2c4.08-0.488,6.992-4.191,6.504-8.271c-0.001-0.01-0.002-0.019-0.004-0.029C224.73,484.6,224.73,484.5,224.63,484.4
			L224.63,484.4z"/>
		<path class="st5" d="M660.33,498.2c-0.269,0.292-0.616,0.5-1,0.6l-1.7,0.2l-3.7-19.1c-0.138-0.801-0.899-1.338-1.7-1.2
			s-1.338,0.899-1.2,1.7l0,0l5.4,27.9h-3.9c-0.406-0.021-0.803,0.123-1.1,0.4c-0.274,0.258-0.42,0.624-0.4,1v18.9
			c-0.027,0.8-0.698,1.427-1.498,1.4c-0.001,0-0.001,0-0.002,0h-4.1c-0.8,0.028-1.472-0.598-1.5-1.398c0-0.001,0-0.001,0-0.002
			v-17.5c-0.054-1.601-1.396-2.854-2.997-2.8c-0.001,0-0.002,0-0.003,0h-2.4c-0.356-0.018-0.663,0.246-0.7,0.6v20.7
			c-0.01,0.161-0.139,0.29-0.3,0.3H631c-0.148,0.018-0.282-0.088-0.3-0.236c-0.003-0.021-0.003-0.043,0-0.064v-20
			c-0.027-0.367-0.167-0.716-0.4-1c-0.297-0.277-0.694-0.421-1.1-0.4h-3.8l5.4-27.9c0.2-1.2-1.2-2.3-2.7-1.2
			c-0.1,0.1-0.1,0.1-0.1,0.2l-2.1,10.7l-15.6-4.6l-2.2-0.6l-0.5-0.1c-0.376-0.115-0.696-0.364-0.9-0.7c-0.1-0.1-0.1-0.2-0.1-0.4
			v-0.7l0.1-0.4c0-0.055,0.045-0.1,0.1-0.1c0.398-0.581,1.133-0.826,1.8-0.6l1.1,0.3l1.4,0.4l1.4,0.4l9.2,2.7
			c0.398,0.117,0.826,0.081,1.2-0.1c0.362-0.173,0.622-0.506,0.7-0.9L626,473c0.516-2.386,2.404-4.235,4.8-4.7l6.9-1.5
			c0.737-0.11,1.246-0.798,1.135-1.535c-0.008-0.056-0.02-0.111-0.035-0.165c-0.072-0.263-0.209-0.504-0.4-0.7
			c-0.054-0.054-0.124-0.089-0.2-0.1c-2.39-0.921-3.949-3.239-3.9-5.8c0.197-3.267,2.83-5.857,6.1-6
			c2.609-0.189,5.082,1.185,6.3,3.5c0,0.1,0.1,0.1,0.1,0.2c1.372,3.016,0.039,6.574-2.977,7.946
			c-0.041,0.018-0.082,0.037-0.123,0.054c-0.1,0-0.2,0.1-0.3,0.1c-0.055,0-0.1,0.045-0.1,0.1c-0.5,0.573-0.5,1.427,0,2
			c0.196,0.191,0.437,0.328,0.7,0.4l7,1.6c2.396,0.465,4.284,2.314,4.8,4.7l4.7,24.1c0.081,0.347,0.008,0.711-0.2,1H660.33z
			 M604.63,482.1l-5.3-26.8c-0.17-0.77-0.928-1.261-1.7-1.1c-0.694,0.1-1.207,0.699-1.2,1.4v0.2l8.1,41.3
			c0.028,0.22-0.046,0.441-0.2,0.6c-0.122,0.208-0.378,0.293-0.6,0.2h-6c-0.8-0.028-1.472,0.598-1.5,1.398c0,0.001,0,0.001,0,0.002
			v27.9c-0.105,1.578-1.418,2.804-3,2.8H587c-1.601,0.056-2.944-1.196-3-2.797c0-0.001,0-0.002,0-0.003v-27.3
			c-0.022-1.182-0.997-2.122-2.179-2.1c-0.007,0-0.014,0-0.021,0h-5c-0.148-0.018-0.282,0.088-0.3,0.236
			c-0.003,0.021-0.003,0.043,0,0.064v31.4c-0.015,0.215-0.185,0.385-0.4,0.4h-11.2c-0.215-0.015-0.385-0.185-0.4-0.4V498
			c-0.009-0.106-0.094-0.191-0.2-0.2h-7c-0.388,0.053-0.747-0.218-0.8-0.607c-0.009-0.064-0.009-0.129,0-0.193l2.2-11.1l0,0
			l5.9-30.2c0.127-0.752-0.38-1.464-1.131-1.59c-0.023-0.004-0.046-0.007-0.069-0.01h-0.1c-0.718-0.202-1.463,0.217-1.665,0.935
			c-0.015,0.054-0.027,0.109-0.035,0.165l-5.7,28.9l-2.1-0.2c0.802-1.13,1.092-2.545,0.8-3.9l-2.2-10.9l5.9-29.3
			c0.139-0.54,0.56-0.961,1.1-1.1l16-3.5c0.712-0.09,1.217-0.74,1.127-1.452c-0.006-0.05-0.015-0.099-0.027-0.148
			c0-0.3-0.2-0.5-0.4-0.8l-0.1-0.1c-5.1-2.2-7.7-7.6-5.3-12.9c0-0.1,0.1-0.1,0.1-0.2c2.113-3.689,6.162-5.83,10.4-5.5
			c5.1,0.3,9.3,4.1,9.8,8.8c0.416,4.27-2.085,8.288-6.1,9.8c-0.055,0-0.1,0.045-0.1,0.1c-0.552,0.493-0.601,1.34-0.108,1.892
			c0.034,0.038,0.07,0.074,0.108,0.108c0.207,0.229,0.493,0.372,0.8,0.4l10.7,2.3c3.631,0.738,6.512,3.502,7.4,7.1l7,34.9l-0.4-0.1
			c-2.305-0.618-4.718,0.525-5.7,2.7L604.63,482.1z M551.33,482.7l-0.5,0.5c-0.2,0.1-0.3,0.3-0.5,0.3s-0.7,0.2-1,0.3h-1.1
			c-1.163-0.198-2.102-1.059-2.4-2.2l-5.1-26.3c-0.242-0.812-1.075-1.294-1.9-1.1c-0.3,0.106-0.573,0.277-0.8,0.5
			c-0.125,0.137-0.197,0.315-0.2,0.5v73.4c-0.027,0.8-0.698,1.427-1.498,1.4c-0.001,0-0.001,0-0.002,0H529
			c-1.601,0.056-2.944-1.196-3-2.797c0-0.001,0-0.002,0-0.003v-25.7c0.009-1.715-1.213-3.19-2.9-3.5
			c-1.981-0.501-3.993,0.698-4.495,2.679c-0.002,0.007-0.004,0.014-0.005,0.021c-0.082,0.224-0.116,0.462-0.1,0.7v25.8
			c-0.105,1.578-1.418,2.804-3,2.8h-7.7c-0.787-0.008-1.438-0.615-1.5-1.4v-73.4c0.004-0.21-0.113-0.404-0.3-0.5
			c-0.583-0.628-1.562-0.673-2.2-0.1c-0.223,0.227-0.394,0.5-0.5,0.8l-5.1,26.3c0,0.1-0.1,0.2-0.1,0.4
			c-0.778-1.714-2.52-2.783-4.4-2.7c-0.237-0.009-0.474,0.025-0.7,0.1l-0.8,0.2l6.9-34.8c0.77-3.59,3.599-6.38,7.2-7.1l10.5-2.3
			c0.712-0.09,1.217-0.74,1.127-1.452c-0.006-0.05-0.015-0.099-0.027-0.148c0.007-0.238-0.106-0.463-0.3-0.6
			c-0.1-0.1-0.2-0.2-0.3-0.2c-3.579-1.454-5.914-4.937-5.9-8.8c0-5.4,4.7-9.7,10.4-9.7h0.7c4.921,0.191,8.983,3.914,9.6,8.8
			c0.398,4.183-2.003,8.129-5.9,9.7c-0.1,0-0.2,0.1-0.3,0.2c-0.492,0.609-0.403,1.501,0.2,2c0.151,0.177,0.368,0.285,0.6,0.3
			l10.5,2.3c3.601,0.72,6.43,3.51,7.2,7.1l4.8,24.4l0.8,3.8l0.8,3.8l0.8,3.8c0.345,0.628,0.222,1.409-0.3,1.9L551.33,482.7z
			 M495.83,483.9c0,0.2-0.1,0.3-0.2,0.5c-0.204,0.336-0.524,0.585-0.9,0.7l-0.4,0.1l-2.2,0.6l-17.6,5.1v-10.3
			c-0.006-0.63-0.406-1.19-1-1.4c-0.747-0.289-1.587,0.083-1.875,0.83c-0.009,0.023-0.017,0.046-0.025,0.07c0,0.1-0.1,0.3-0.1,0.4
			v48c-0.027,0.8-0.698,1.427-1.498,1.4c-0.001,0-0.001,0-0.002,0h-4.1c-0.8,0.028-1.472-0.598-1.5-1.398c0-0.001,0-0.001,0-0.002
			v-17.2c0.018-1.369-0.954-2.552-2.3-2.8c-1.6-0.377-3.205,0.604-3.6,2.2c0,0.2-0.1,0.4-0.1,0.6v17.3
			c-0.027,0.8-0.698,1.427-1.498,1.4c-0.001,0-0.001,0-0.002,0h-5.3c-0.148,0.018-0.282-0.088-0.3-0.236
			c-0.003-0.021-0.003-0.043,0-0.064v-49.6c0-0.1,0-0.2-0.1-0.2c-0.503-0.709-1.48-0.886-2.2-0.4c-0.308,0.212-0.523,0.534-0.6,0.9
			L445,498c-0.196,0.706-0.87,1.17-1.6,1.1l-0.5-0.1h-0.1c-0.666-0.224-1.055-0.915-0.9-1.6l4.8-23.8
			c0.516-2.386,2.404-4.235,4.8-4.7l7.3-1.6c0.1,0,0.1,0,0.2-0.1c0.644-0.4,0.864-1.234,0.5-1.9c-0.151-0.218-0.359-0.39-0.6-0.5
			c-3.021-1.286-4.448-4.762-3.2-7.8c0-0.1,0-0.1,0.1-0.2s0.1-0.1,0.1-0.2c1.266-2.256,3.719-3.58,6.3-3.4
			c3.252,0.097,5.895,2.653,6.1,5.9c0.019,2.528-1.537,4.802-3.9,5.7c-0.055,0-0.1,0.045-0.1,0.1l0,0c-0.5,0.573-0.5,1.427,0,2
			c0.21,0.17,0.447,0.305,0.7,0.4l7,1.5c2.379,0.498,4.252,2.332,4.8,4.7l2.3,11.4c0.078,0.394,0.338,0.727,0.7,0.9
			c0.359,0.229,0.808,0.267,1.2,0.1l9.2-2.7l1.4-0.4l1.4-0.4l1.1-0.3c0.666-0.179,1.375,0.057,1.8,0.6c0,0.055,0.045,0.1,0.1,0.1
			l0,0l0.1,0.4c-0.207,0.171-0.319,0.432-0.3,0.7H495.83z M664.93,496.4l-4.7-24.1c-0.871-4.039-4.051-7.179-8.1-8l-1.7-0.4
			c0.991-1.552,1.512-3.358,1.5-5.2c0-5.7-4.9-10.3-11-10.3h-0.7c-5.666-0.022-10.277,4.554-10.299,10.221
			c-0.007,1.897,0.512,3.759,1.499,5.379l-1.7,0.4c-4.051,0.819-7.231,3.96-8.1,8l-1.7,8.4l-5.5-1.6l-7-35.8
			c-1.129-5.297-5.292-9.421-10.6-10.5l-4.8-1.1c2.291-2.766,3.404-6.321,3.1-9.9c-0.7-6.8-6.6-12.2-13.8-12.7h-1.1
			c-5.086-0.024-9.849,2.489-12.7,6.7c-0.807,1.145-1.384,2.435-1.7,3.8c-1.144,4.264-0.136,8.817,2.7,12.2l-4.9,1.1
			c-5.273,1.088-9.427,5.152-10.63,10.4l-2,10.1l-2-10c-1.129-5.297-5.292-9.421-10.6-10.5l-4.8-1.1
			c2.291-2.766,3.404-6.321,3.1-9.9c-0.7-6.8-6.6-12.2-13.8-12.7h-1.1c-5.086-0.024-9.849,2.489-12.7,6.7
			c-0.807,1.145-1.384,2.435-1.7,3.8c-1.144,4.264-0.136,8.817,2.7,12.2l-4.8,1.1c-5.308,1.079-9.471,5.203-10.6,10.5l-7,35.8
			l-5.5,1.6l-1.7-8.4c-0.901-4.022-4.067-7.149-8.1-8l-1.7-0.4c1.007-1.656,1.526-3.562,1.5-5.5c-0.1-5.3-4.7-9.7-10.3-10h-0.7
			c-3.721-0.011-7.205,1.824-9.3,4.9c-0.634,0.901-1.076,1.922-1.3,3c-0.672,2.59-0.237,5.343,1.2,7.6l-1.7,0.4
			c-4.033,0.851-7.199,3.978-8.1,8l-4.7,24.1c-0.299,1.526,0.105,3.105,1.1,4.3c0.986,1.29,2.48,2.092,4.1,2.2h0.9
			c1.209,0.024,2.396-0.326,3.4-1v26.7c0.108,3.146,2.747,5.609,5.893,5.5c0.002,0,0.005,0,0.007,0h4.5
			c1.693-0.009,3.313-0.693,4.5-1.9c1.187,1.207,2.807,1.891,4.5,1.9h4c3.146,0.112,5.787-2.347,5.9-5.493c0-0.002,0-0.005,0-0.007
			v-33.8l19.8-5.9c1.004-0.335,1.924-0.881,2.7-1.6c1.377-0.596,2.532-1.611,3.3-2.9v48c0.038,0.962,0.838,1.717,1.8,1.7h11.6
			c2.805,0.023,5.389-1.52,6.7-4c1.279,2.51,3.884,4.065,6.7,4h11.6c0.943,0.05,1.748-0.674,1.798-1.618
			c0.001-0.027,0.002-0.055,0.002-0.082v-48c1.39,2.252,3.853,3.617,6.5,3.6h1.2c0.806-0.3,1.694-0.3,2.5,0l1.5,0.2l-1.7,8.9v0.4
			c0.208,2.741,2.554,4.821,5.3,4.7h2.5v25.2c0.101,3.914,3.356,7.006,7.271,6.905c0.043-0.001,0.086-0.003,0.129-0.005h6.1
			c2.805,0.023,5.389-1.52,6.7-4c1.279,2.51,3.884,4.065,6.7,4h6.1c3.948,0.135,7.259-2.953,7.4-6.9v-25.2h2.6
			c1.226,0.035,2.427-0.353,3.4-1.1c1.424-1.068,2.122-2.849,1.8-4.6l-1.4-7.1l16.5,4.8l-2.8,14.2c-0.282,1.416,0.413,2.846,1.7,3.5
			c0.62,0.318,1.304,0.489,2,0.5h2.4v16c0.013,1.219,0.396,2.405,1.1,3.4c1.167,1.512,2.991,2.369,4.9,2.3h3.7
			c1.744,0,3.41-0.724,4.6-2c1.178,1.292,2.852,2.02,4.6,2h4.1c1.55,0.005,3.046-0.565,4.2-1.6c1.098-1.039,1.714-2.488,1.7-4v-16.1
			h1.6c0.696-0.011,1.38-0.182,2-0.5c1.296-0.697,1.985-2.157,1.7-3.6l-1-5.4c1.594-0.194,3.057-0.979,4.1-2.2
			c0.968-1.324,1.365-2.981,1.1-4.6L664.93,496.4z"/>
		<path class="st6" d="M593.23,31.5H650c6.627,0,12,5.373,12,12v56.8c0,6.627-5.373,12-12,12h-56.8c-6.627,0-12-5.373-12-12V43.5
			c0-6.627,5.373-12,12-12C593.21,31.5,593.22,31.5,593.23,31.5z"/>
		<rect x="666.53" y="40" class="st0" width="14" height="5"/>
		<rect x="666.53" y="51" class="st0" width="14" height="5"/>
		<rect x="666.53" y="62.9" class="st0" width="14" height="5"/>
		<rect x="666.53" y="74.9" class="st0" width="14" height="5"/>
		<rect x="666.53" y="85.9" class="st0" width="14" height="5"/>
		<rect x="666.53" y="97.9" class="st0" width="14" height="5"/>
		<rect x="648.63" y="117.8" class="st0" width="5" height="14"/>
		<rect x="637.63" y="117.8" class="st0" width="5" height="14"/>
		<rect x="625.63" y="117.8" class="st0" width="5" height="14"/>
		<rect x="613.73" y="117.8" class="st0" width="5" height="14"/>
		<rect x="602.73" y="117.8" class="st0" width="5" height="14"/>
		<rect x="590.73" y="117.8" class="st0" width="5" height="14"/>
		<rect x="560.83" y="98.9" class="st0" width="14" height="5"/>
		<rect x="560.83" y="87.9" class="st0" width="14" height="5"/>
		<rect x="560.83" y="75.9" class="st0" width="14" height="5"/>
		<rect x="560.83" y="63.9" class="st0" width="14" height="5"/>
		<rect x="560.83" y="53" class="st0" width="14" height="5"/>
		<rect x="560.83" y="41" class="st0" width="14" height="5"/>
		<text transform="matrix(1 0 0 1 592.73 78.39)" class="st3 st7">CPU</text>
		<path class="st6" d="M762.73,18.5h56.8c6.627,0,12,5.373,12,12l0,0v56.8c0,6.627-5.373,12-12,12h-56.8c-6.627,0-12-5.373-12-12
			V30.5C750.73,23.873,756.103,18.5,762.73,18.5z"/>
		<rect x="836.03" y="26.9" class="st0" width="14" height="5"/>
		<rect x="836.03" y="37.9" class="st0" width="14" height="5"/>
		<rect x="836.03" y="49.9" class="st0" width="14" height="5"/>
		<rect x="836.03" y="61.9" class="st0" width="14" height="5"/>
		<rect x="836.03" y="72.9" class="st0" width="14" height="5"/>
		<rect x="836.03" y="84.8" class="st0" width="14" height="5"/>
		<rect x="818.03" y="104.8" class="st0" width="5" height="14"/>
		<rect x="807.13" y="104.8" class="st0" width="5" height="14"/>
		<rect x="795.13" y="104.8" class="st0" width="5" height="14"/>
		<rect x="783.13" y="104.8" class="st0" width="5" height="14"/>
		<rect x="772.13" y="104.8" class="st0" width="5" height="14"/>
		<rect x="760.23" y="104.8" class="st0" width="5" height="14"/>
		<rect x="730.23" y="85.8" class="st0" width="14" height="5"/>
		<rect x="730.23" y="74.9" class="st0" width="14" height="5"/>
		<rect x="730.23" y="62.9" class="st0" width="14" height="5"/>
		<rect x="730.23" y="50.9" class="st0" width="14" height="5"/>
		<rect x="730.23" y="39.9" class="st0" width="14" height="5"/>
		<rect x="730.23" y="27.9" class="st0" width="14" height="5"/>
		<path class="st8" d="M689.93,143.1h46.2c6.627,0,12,5.373,12,12v46.2c0,6.627-5.373,12-12,12h-46.2c-6.627,0-12-5.373-12-12v-46.2
			C677.93,148.473,683.303,143.1,689.93,143.1z"/>
		<path class="st9" d="M688,149.2h3.3c2.209,0,4,1.791,4,4v3.3c0,2.209-1.791,4-4,4H688c-2.209,0-4-1.791-4-4v-3.3
			C684,150.991,685.791,149.2,688,149.2z"/>
		<path class="st9" d="M703.63,149.2h3.3c2.209,0,4,1.791,4,4v3.3c0,2.209-1.791,4-4,4h-3.3c-2.209,0-4-1.791-4-4v-3.3
			C699.63,150.991,701.421,149.2,703.63,149.2z"/>
		<path class="st9" d="M719.23,149.2h3.3c2.209,0,4,1.791,4,4v3.3c0,2.209-1.791,4-4,4h-3.3c-2.209,0-4-1.791-4-4v-3.3
			C715.23,150.991,717.021,149.2,719.23,149.2z"/>
		<path class="st9" d="M734.73,149.2H738c2.209,0,4,1.791,4,4v3.3c0,2.209-1.791,4-4,4h-3.3c-2.209,0-4-1.791-4-4v-3.3
			c0-2.209,1.791-4,4-4C734.71,149.2,734.72,149.2,734.73,149.2z"/>
		<path class="st9" d="M688,164.8h3.3c2.209,0,4,1.791,4,4v3.3c0,2.209-1.791,4-4,4H688c-2.209,0-4-1.791-4-4v-3.3
			C684,166.591,685.791,164.8,688,164.8z"/>
		<path class="st9" d="M703.63,164.8h3.3c2.209,0,4,1.791,4,4v3.3c0,2.209-1.791,4-4,4h-3.3c-2.209,0-4-1.791-4-4v-3.3
			C699.63,166.591,701.421,164.8,703.63,164.8z"/>
		<path class="st9" d="M719.23,164.8h3.3c2.209,0,4,1.791,4,4v3.3c0,2.209-1.791,4-4,4h-3.3c-2.209,0-4-1.791-4-4v-3.3
			C715.23,166.591,717.021,164.8,719.23,164.8z"/>
		<path class="st9" d="M734.73,164.8H738c2.209,0,4,1.791,4,4v3.3c0,2.209-1.791,4-4,4h-3.3c-2.209,0-4-1.791-4-4v-3.3
			c0-2.209,1.791-4,4-4C734.71,164.8,734.72,164.8,734.73,164.8z"/>
		<path class="st9" d="M688,180.4h3.3c2.209,0,4,1.791,4,4v3.3c0,2.209-1.791,4-4,4H688c-2.209,0-4-1.791-4-4v-3.3
			C684,182.191,685.791,180.4,688,180.4z"/>
		<path class="st9" d="M703.63,180.4h3.3c2.209,0,4,1.791,4,4v3.3c0,2.209-1.791,4-4,4h-3.3c-2.209,0-4-1.791-4-4v-3.3
			C699.63,182.191,701.421,180.4,703.63,180.4z"/>
		<path class="st9" d="M719.23,180.4h3.3c2.209,0,4,1.791,4,4v3.3c0,2.209-1.791,4-4,4h-3.3c-2.209,0-4-1.791-4-4v-3.3
			C715.23,182.191,717.021,180.4,719.23,180.4z"/>
		<path class="st9" d="M734.73,180.4H738c2.209,0,4,1.791,4,4v3.3c0,2.209-1.791,4-4,4h-3.3c-2.209,0-4-1.791-4-4v-3.3
			c0-2.209,1.791-4,4-4C734.71,180.4,734.72,180.4,734.73,180.4z"/>
		<path class="st9" d="M688,196h3.3c2.209,0,4,1.791,4,4v3.3c0,2.209-1.791,4-4,4H688c-2.209,0-4-1.791-4-4V200
			C684,197.791,685.791,196,688,196z"/>
		<path class="st9" d="M703.63,196h3.3c2.209,0,4,1.791,4,4v3.3c0,2.209-1.791,4-4,4h-3.3c-2.209,0-4-1.791-4-4V200
			C699.63,197.791,701.421,196,703.63,196z"/>
		<path class="st9" d="M719.23,196h3.3c2.209,0,4,1.791,4,4v3.3c0,2.209-1.791,4-4,4h-3.3c-2.209,0-4-1.791-4-4V200
			c-0.062-2.148,1.629-3.938,3.777-4C719.081,195.998,719.156,195.998,719.23,196z"/>
		<path class="st9" d="M734.73,196H738c2.209,0,4,1.791,4,4v3.3c0,2.209-1.791,4-4,4h-3.3c-2.209,0-4-1.791-4-4V200
			c0-2.209,1.791-4,4-4C734.71,196,734.72,196,734.73,196z"/>
		<rect x="685.33" y="127.1" class="st0" width="4.3" height="12.1"/>
		<rect x="694.83" y="127.1" class="st0" width="4.3" height="12.1"/>
		<rect x="705.23" y="127.1" class="st0" width="4.3" height="12.1"/>
		<rect x="715.63" y="127.1" class="st0" width="4.3" height="12.1"/>
		<rect x="725.13" y="127.1" class="st0" width="4.3" height="12.1"/>
		<rect x="735.53" y="127.1" class="st0" width="4.3" height="12.1"/>
		<rect x="752.03" y="150.5" class="st0" width="12.1" height="4.3"/>
		<rect x="752.03" y="160" class="st0" width="12.1" height="4.3"/>
		<rect x="752.03" y="170.4" class="st0" width="12.1" height="4.3"/>
		<rect x="752.03" y="180.8" class="st0" width="12.1" height="4.3"/>
		<rect x="752.03" y="190.3" class="st0" width="12.1" height="4.3"/>
		<rect x="752.03" y="200.7" class="st0" width="12.1" height="4.3"/>
		<rect x="736.43" y="218" class="st0" width="4.3" height="12.1"/>
		<rect x="726.83" y="218" class="st0" width="4.3" height="12.1"/>
		<rect x="716.53" y="218" class="st0" width="4.3" height="12.1"/>
		<rect x="706.13" y="218" class="st0" width="4.3" height="12.1"/>
		<rect x="696.53" y="218" class="st0" width="4.3" height="12.1"/>
		<rect x="686.13" y="218" class="st0" width="4.3" height="12.1"/>
		<rect x="660.23" y="201.6" class="st0" width="12.1" height="4.3"/>
		<rect x="660.23" y="192.1" class="st0" width="12.1" height="4.3"/>
		<rect x="660.23" y="181.7" class="st0" width="12.1" height="4.3"/>
		<rect x="660.23" y="171.3" class="st0" width="12.1" height="4.3"/>
		<rect x="660.23" y="161.7" class="st0" width="12.1" height="4.3"/>
		<rect x="660.23" y="151.3" class="st0" width="12.1" height="4.3"/>
		<text transform="matrix(1.04 0 0 1 677.9297 240.2695)" class="st3 st10">Multi-Co</text>
		<text transform="matrix(1.04 0 0 1 716.0801 240.2695)" class="st3 st10">r</text>
		<text transform="matrix(1.04 0 0 1 719.9805 240.2695)" class="st3 st10">e CPU</text>
		<rect x="763.63" y="32.6" width="22.8" height="53"/>
		<rect x="793.83" y="32.6" width="22.8" height="53"/>
		<text transform="matrix(5.327214e-17 0.87 -1 6.123234e-17 855.5293 18.1099)" class="st3 st11">Dual-Co</text>
		<text transform="matrix(5.327214e-17 0.87 -1 6.123234e-17 855.5293 60.9297)" class="st3 st11">r</text>
		<text transform="matrix(5.327214e-17 0.87 -1 6.123234e-17 855.5293 65.5898)" class="st3 st11">e CPU</text>
		<text transform="matrix(1 0 0 1 52.56 166.53)" class="st12 st13">GCP</text>
		<rect x="376.03" y="71.8" class="st14" width="146" height="36.8"/>
		<polygon class="st15" points="457.73,108.5 489.83,99.3 522.03,90.1 489.83,80.9 457.73,71.8 457.73,81.1 426.43,81.1 
			426.43,99.2 457.73,99.2 		"/>
		<rect x="403.73" y="81.5" class="st15" width="16.7" height="17.3"/>
		<rect x="389.03" y="81.5" class="st15" width="9.5" height="17.3"/>
		<rect x="376.03" y="81.5" class="st15" width="6.4" height="17.3"/>
		
			<rect x="136.599" y="199.125" transform="matrix(0.6764 -0.7366 0.7366 0.6764 -138.4901 197.0592)" class="st14" width="36.8" height="114"/>
		<polygon class="st15" points="162.43,238 137.73,227.8 113.03,217.6 125.33,241.3 137.63,265.1 143.93,258.2 161.93,274.7 
			174.13,261.4 156.13,244.9 		"/>
		
			<rect x="167.597" y="269.115" transform="matrix(0.6764 -0.7366 0.7366 0.6764 -145.9692 219.0179)" class="st15" width="17.3" height="13"/>
		
			<rect x="178.136" y="281.599" transform="matrix(0.6764 -0.7366 0.7366 0.6764 -149.6912 229.9145)" class="st15" width="17.3" height="7.4"/>
		
			<rect x="186.55" y="290.512" transform="matrix(0.6764 -0.7366 0.7366 0.6764 -152.6492 238.6081)" class="st15" width="17.3" height="5"/>
		
			<rect x="615.099" y="323.784" transform="matrix(0.3634 -0.9316 0.9316 0.3634 119.2465 858.8812)" class="st14" width="146" height="36.8"/>
		<polygon class="st15" points="667.73,343.5 664.63,376.8 661.53,410.1 681.73,383.5 702.03,356.9 693.23,353.5 704.63,324.4 
			687.83,317.8 676.43,346.9 		"/>
		
			<rect x="693.14" y="299.089" transform="matrix(0.3634 -0.9316 0.9316 0.3634 159.8605 849.4305)" class="st15" width="16.7" height="17.3"/>
		
			<rect x="703.384" y="282.116" transform="matrix(0.3634 -0.9316 0.9316 0.3634 179.9022 844.8148)" class="st15" width="9.5" height="17.3"/>
		
			<rect x="710.198" y="268.528" transform="matrix(0.3634 -0.9316 0.9316 0.3634 195.9128 841.069)" class="st15" width="6.4" height="17.3"/>
		<rect x="57.43" y="47.6" class="st14" width="83.7" height="27.9"/>
		<text transform="matrix(1 0 0 1 57.43 59.27)" class="st12 st13">AZURE</text>
		<g>
			<rect x="205.61" y="118.967" class="st14" width="81.886" height="25.884"/>
			<text transform="matrix(1 0 0 1 229.0866 131.4282)" class="st12 st13">AWS</text>
		</g>
	</g>
</g>
</svg>
