<?xml version="1.0" encoding="utf-8"?>
<!-- Generator: Adobe Illustrator 22.1.0, SVG Export Plug-In . SVG Version: 6.00 Build 0)  -->
<svg version="1.1" id="Layer_1" xmlns="http://www.w3.org/2000/svg" xmlns:xlink="http://www.w3.org/1999/xlink" x="0px" y="0px"
	 viewBox="0 0 865.5 543" style="enable-background:new 0 0 865.5 543;" xml:space="preserve">
<style type="text/css">
	.st0{fill:none;stroke:#A23814;stroke-width:4.2632;stroke-miterlimit:10;}
	.st1{fill:#222222;}
	.st2{font-family:'Arial-Black';}
	.st3{font-size:60.8691px;}
	.st4{fill:#A23814;}
	.st5{fill:none;stroke:#A23814;stroke-width:2.9941;stroke-miterlimit:10;}
	.st6{fill:#363636;}
	.st7{font-size:23.1883px;}
	.st8{fill:none;stroke:#A23814;stroke-width:2.5985;stroke-miterlimit:10;}
	.st9{fill:none;stroke:#363636;stroke-width:2.5985;stroke-miterlimit:10;}
	.st10{font-size:8.1914px;}
	.st11{font-size:11.6143px;}
	.st12{font-size:21.5405px;}
	.st13{font-size:16.3618px;}
	.st14{fill:none;}
	.st15{fill:#231F20;}
</style>
<title>features</title>
<g>
	<path class="st0" d="M163.7,48.7c4.6-13-2.1-27.3-15.1-31.9c-5.6-2-11.7-1.9-17.2,0.1c-13.1-16.1-36.8-18.6-53-5.5
		c-4.5,3.6-8,8.2-10.4,13.4C59,14.3,43.2,13.1,32.7,22c-8.4,7.1-11.1,18.8-6.8,28.9c-0.5,0-1.1-0.1-1.7-0.1
		C12,50.8,2.1,60.7,2.1,72.9C2.1,85.1,12,95,24.2,95c4.9,0,9.7-1.7,13.6-4.7c13.2,15.3,36.3,17,51.6,3.8c2.1-1.8,3.9-3.8,5.5-6
		c10.6,13.6,30.2,16,43.7,5.4c2.2-1.7,4.1-3.7,5.8-5.9c10.3,6.2,23.6,2.9,29.8-7.4s2.9-23.6-7.4-29.8
		C165.9,49.7,164.8,49.1,163.7,48.7z"/>
	<path class="st0" d="M316.2,122.1c4.5-12.7-2.1-26.6-14.8-31.1c-5.4-1.9-11.4-1.9-16.8,0.1C271.9,75.4,248.8,73,233,85.8
		c-4.3,3.5-7.8,8-10.2,13.1c-8.7-10.3-24.1-11.5-34.3-2.8c-8.1,6.9-10.8,18.3-6.6,28.2c-0.5,0-1.1-0.1-1.6-0.1
		c-11.9,0-21.5,9.6-21.5,21.5s9.6,21.5,21.5,21.5c4.8,0,9.5-1.6,13.3-4.6c12.9,14.9,35.4,16.6,50.3,3.7c2-1.7,3.8-3.7,5.4-5.8
		c10.3,13.2,29.4,15.6,42.6,5.2c2.1-1.7,4-3.6,5.7-5.8c10,6,23,2.8,29.1-7.2c6-10,2.8-23-7.2-29.1
		C318.4,123.1,317.3,122.5,316.2,122.1z"/>
	<path class="st0" d="M123,158.1c3.3-9.1-1.5-19.2-10.6-22.4c-3.9-1.4-8.2-1.4-12.1,0.1c-9.2-11.3-25.8-13-37.2-3.8
		c-3.1,2.5-5.6,5.8-7.3,9.4c-6.3-7.4-17.3-8.3-24.7-2c-5.9,5-7.8,13.2-4.8,20.3c-0.4,0-0.8,0-1.2,0c-8.6,0-15.5,6.9-15.5,15.5
		c0,8.6,6.9,15.5,15.5,15.5c3.5,0,6.8-1.2,9.6-3.3c9.3,10.7,25.5,11.9,36.2,2.7c1.4-1.3,2.8-2.7,3.9-4.2c7.4,9.5,21.2,11.2,30.7,3.8
		c1.5-1.2,2.9-2.6,4.1-4.2c7.2,4.4,16.6,2,20.9-5.2c4.4-7.2,2-16.6-5.2-20.9C124.6,158.8,123.8,158.4,123,158.1L123,158.1z"/>
	<text transform="matrix(0.6203 0 0 1 222.7329 313.2705)" class="st1 st2 st3">B</text>
	<text transform="matrix(0.6203 0 0 1 252.1016 313.2705)" class="st1 st2 st3">L</text>
	<text transform="matrix(0.6203 0 0 1 276.6392 313.2705)" class="st1 st2 st3">OODHOUND 2.0</text>
	<path class="st4" d="M418.1,487.4c-0.5,0.7-1.2,1.1-2.1,1.2l-3.2,0.4l-5.7-31.2c-0.2-0.8-1-1.4-1.8-1.2c-0.7,0.1-1.2,0.7-1.2,1.5
		c0,0.1,0,0.2,0,0.3l8.2,44.6c0,0.2,0,0.4-0.2,0.6c-0.1,0.2-0.4,0.3-0.6,0.3H405c-0.8,0-1.5,0.7-1.5,1.5v30.2c0,1.7-1.3,3-3,3
		c0,0,0,0,0,0h-6.3c-1.7,0-3-1.3-3-3V506c0-1.2-1-2.2-2.2-2.2l0,0h-4.6c-0.2,0-0.3,0.1-0.3,0.3V538c0,0.2-0.2,0.4-0.4,0.4h0h-11.3
		c-0.2,0-0.4-0.2-0.4-0.4l0,0v-34c0-0.1-0.1-0.2-0.2-0.2l0,0h-7.1c-0.2,0-0.4-0.1-0.6-0.3c-0.1-0.2-0.2-0.4-0.2-0.6l2.2-12l0,0
		l6-32.6c0.1-0.8-0.4-1.6-1.2-1.7c0,0,0,0,0,0c-0.8-0.2-1.6,0.4-1.8,1.2l-5.7,31.2l-1.7-0.2c0-0.6,0-1.2-0.2-1.7l-0.2-0.7
		c0-0.1,0-0.1-0.1-0.2c-0.7-1.3-2-2.2-3.4-2.4l8-42.7c0.1-0.6,0.5-1,1.1-1.1l16.2-3.8c0.8-0.2,1.3-1,1.1-1.9
		c-0.1-0.3-0.2-0.5-0.4-0.7c0,0-0.1-0.1-0.1-0.1c-5.3-2.4-7.7-8.6-5.3-13.9c0,0,0,0,0,0c0-0.1,0.1-0.1,0.1-0.2
		c2-3.9,6.1-6.2,10.4-5.9c5.2,0.4,9.3,4.4,9.9,9.5c0.4,4.5-2.1,8.7-6.2,10.6c0,0-0.1,0-0.1,0.1c-0.6,0.6-0.6,1.6,0.1,2.2
		c0.2,0.2,0.4,0.3,0.7,0.4l10.8,2.5c3.8,0.9,6.7,3.9,7.4,7.7l7.3,38.7C418.8,485.9,418.6,486.7,418.1,487.4L418.1,487.4z
		 M358.6,489.1c-0.2,0.3-0.5,0.6-0.9,0.7l-1,0.3l-19.4,6.1v-11.2c0-0.8-0.6-1.5-1.5-1.6s-1.5,0.6-1.6,1.5c0,0,0,0,0,0v51.9
		c0,0.8-0.7,1.5-1.5,1.5l0,0h-4.1c-0.8,0-1.5-0.7-1.5-1.5l0,0v-18.6c0-1.4-1-2.7-2.4-3.1c-1.6-0.4-3.3,0.6-3.7,2.3
		c-0.1,0.2-0.1,0.4-0.1,0.7v18.7c0,0.8-0.7,1.5-1.5,1.5l0,0h-3.9c0,0-1.5-0.8-1.3-1.6v-38.6c-0.2,0-0.2,0,0-0.1v-13.2
		c-0.2-0.8-0.9-1.4-1.7-1.5c-0.8,0-1.8,1.5-1.8,1.5v11.4l-18.9-6l-1.5-0.5c-0.1,0-0.2-0.1-0.3-0.2c-0.5-0.3-0.7-0.8-0.7-1.3
		c0-0.1,0-0.3,0.1-0.4l0.1-0.3c0.2-0.7,0.8-1.1,1.5-1c0.1,0,0.2,0,0.3,0.1l1.1,0.3l1.4,0.5l10.8,3.4c0.8,0.3,1.6-0.2,1.9-1
		c0-0.1,0-0.1,0-0.2l2.3-12.6c0.4-2.3,2.2-4.2,4.5-4.8l7.6-1.8c0.1,0,0.1,0,0.2-0.1c0.7-0.5,0.9-1.5,0.4-2.2
		c-0.1-0.2-0.3-0.4-0.6-0.5c-3.3-1.6-4.6-5.6-2.9-8.9c1.6-3.3,5.6-4.6,8.9-2.9c1.3,0.7,2.4,1.7,3,3c0,0.1,0.1,0.1,0.1,0.2
		c1.5,3.4-0.1,7.3-3.4,8.7c-0.1,0-0.1,0.1-0.1,0.1c-0.6,0.6-0.5,1.6,0.1,2.2c0.2,0.2,0.4,0.3,0.7,0.4l10.2,2.4
		c0.5,0.1,0.9,0.5,1,1.1l2.9,15.6c0.2,0.8,0.9,1.4,1.8,1.2c0.1,0,0.1,0,0.2,0l11.5-3.6l1.4-0.5l1.2-0.4c0.1,0,0.3,0,0.3,0.2
		c0,0,0,0,0,0c0,0.1,0.1,0.1,0.1,0.1c0.4,0.2,0.6,0.5,0.7,0.9l0.1,0.2l0,0C358.8,488.4,358.8,488.8,358.6,489.1L358.6,489.1z
		 M289,484.2c-1.1,0.5-1.8,1.5-2.2,2.6l-0.1,0.2c-0.1,0.4-0.2,0.7-0.2,1.1c-0.7-0.4-1.2-1.2-1.4-2l-5.1-28.4c-0.2-0.8-1-1.4-1.8-1.2
		c-0.4,0.1-0.7,0.3-0.9,0.6c-0.1,0.1-0.2,0.3-0.2,0.5V537c0,0.8-0.7,1.5-1.5,1.5l0,0h-7.3c-1.7,0-3-1.3-3-3v-27.7
		c0-1.8-1.2-3.4-3-3.8c-2.1-0.5-4.1,0.8-4.6,2.9c-0.1,0.3-0.1,0.6-0.1,0.8v27.8c0,1.7-1.3,3-3,3h0h-7.8c-0.8,0-1.5-0.7-1.5-1.5
		v-79.2c0-0.2-0.1-0.4-0.2-0.6c-0.5-0.7-1.5-0.7-2.2-0.2c-0.3,0.2-0.5,0.5-0.5,0.9l-5.1,28.4c-0.3,1.5-1.7,2.6-3.3,2.4l-0.7-0.1
		c-0.2,0-0.4-0.1-0.5-0.2c-1.3-0.6-2-2-1.7-3.3l7.1-38.7c0.7-3.8,3.5-6.8,7.3-7.7l10.6-2.5c0.8-0.2,1.3-1,1.1-1.9
		c-0.1-0.2-0.2-0.4-0.3-0.6c-0.1-0.1-0.2-0.2-0.3-0.2c-5.2-2.5-7.5-8.8-5-14c1.7-3.6,5.4-6,9.5-6c0.2,0,0.5,0,0.7,0
		c5.8,0.4,10.1,5.5,9.7,11.3c-0.3,3.8-2.6,7.1-6,8.7c-0.1,0.1-0.2,0.1-0.3,0.2c-0.5,0.7-0.4,1.6,0.2,2.2c0.2,0.1,0.4,0.2,0.6,0.3
		l13.7,3.3c1.8,0.4,3.3,1.9,3.6,3.8l7.5,40.5C290.4,483.7,289.6,483.9,289,484.2L289,484.2z M422.4,484.4l-7.2-38.7
		c-1-5.5-5.2-9.9-10.7-11.2l-4.9-1.2c5.1-6.6,3.9-16-2.7-21.1c-2.3-1.8-5.2-2.9-8.1-3.1c-0.4,0-0.7,0-1.1,0c-8.3,0-15,6.8-15,15.1
		c0,3.3,1.1,6.5,3.1,9.2l-4.9,1.2c-5.5,1.3-9.7,5.7-10.7,11.2l-6.9,37.6l-8.1,2.5l-1.7-9.2c-0.8-4.1-3.8-7.3-7.9-8.3l-1.9-0.5
		c3.1-5.3,1.2-12.1-4-15.1c-1.7-1-3.6-1.5-5.5-1.5c-0.2,0-0.5,0-0.7,0c-6.1,0.4-10.7,5.7-10.3,11.7c0.1,1.7,0.6,3.4,1.5,4.8
		l-1.9,0.5c-4,1-7.1,4.2-7.9,8.3l-1.7,9.2l-7.3-2.3l-7-37.8c-1-5.5-5.2-9.9-10.7-11.2l-4.9-1.2c5.1-6.6,3.9-16-2.7-21.1
		c-2.3-1.8-5.2-2.9-8.1-3.1c-0.4,0-0.7,0-1.1,0c-4.7,0-9.1,2.2-11.9,5.9c-1.5,1.9-2.5,4.2-2.9,6.7c-0.7,4.1,0.4,8.3,3,11.7l-4.9,1.2
		c-5.5,1.3-9.7,5.7-10.7,11.2l-7.1,38.7c-0.8,4.1,1.9,8,6,8.7c0.2,0,0.3,0.1,0.5,0.1l0.3,0c0.3,0,0.6,0.1,0.9,0.1
		c2.7,0,5.2-1.5,6.5-3.9v46.2c0,4.1,3.3,7.5,7.5,7.5h0h5.4c2.9,0,5.6-1.7,6.9-4.4c1.2,2.7,3.9,4.4,6.9,4.4h6.2
		c4.1,0,7.5-3.3,7.5-7.5l0,0v-46.2c1.2,2.1,3.3,3.6,5.7,3.8c0.6,0.5,1.3,0.8,2,1.1l20.3,6.3V537c0,3.3,2.7,6,6,6l0,0h3.8
		c1.8,0,3.4-0.8,4.6-2.1c1.1,1.3,2.8,2.1,4.6,2.1h4.1c3.3,0,6-2.7,6-6l0,0v-36.5l20.2-6.3c0.7-0.2,1.3-0.5,1.8-0.9l0.2,0l-1.6,8.7
		c-0.2,1.1-0.1,2.2,0.3,3.2c0.8,1.9,2.7,3.1,4.8,3.1h2.7v27.2c0,4.1,3.3,7.5,7.5,7.5l0,0h6.2c2.9,0,5.6-1.7,6.8-4.4
		c1.2,2.7,3.9,4.4,6.8,4.4h6.1c4.1,0,7.5-3.3,7.5-7.5v-27.2h2.7c1.1,0,2.2-0.3,3.1-0.9c1.7-1.2,2.6-3.2,2.2-5.3l-1.6-8.9l1.5-0.2
		c4.1-0.5,7-4.3,6.5-8.4C422.4,484.6,422.4,484.5,422.4,484.4L422.4,484.4z"/>
	<path class="st4" d="M220.3,487.4c-0.5,0.7-1.2,1.1-2.1,1.2L215,489l-5.7-31.2c-0.2-0.8-1-1.4-1.8-1.2c-0.7,0.1-1.2,0.7-1.2,1.5
		c0,0.1,0,0.2,0,0.3l8.2,44.6c0,0.2,0,0.4-0.2,0.6c-0.1,0.2-0.4,0.3-0.6,0.3h-6c-0.8,0-1.5,0.7-1.5,1.5c0,0,0,0,0,0v30.2
		c0,1.7-1.3,3-3,3l0,0H197c-1.7,0-3-1.3-3-3V506c0-1.2-1-2.2-2.2-2.2c0,0,0,0,0,0h-5.1c-0.2,0-0.3,0.1-0.3,0.3l0,0V538
		c0,0.2-0.2,0.4-0.4,0.4h-11.3c-0.2,0-0.4-0.2-0.4-0.4v-34c0-0.1-0.1-0.2-0.2-0.2c0,0,0,0,0,0h-7.1c-0.2,0-0.4-0.1-0.6-0.3
		c-0.1-0.2-0.2-0.4-0.2-0.6l2.2-12l0,0l6-32.6c0.1-0.8-0.4-1.6-1.2-1.7c0,0,0,0,0,0c-0.8-0.2-1.6,0.4-1.8,1.2l-5.7,31.2l-3.8-0.5
		c-0.1,0-0.1,0-0.2,0c-1.4-0.5-2.2-2-1.9-3.4l7.3-38.7c0.7-3.8,3.6-6.8,7.4-7.7l10.8-2.5c0.8-0.2,1.3-1,1.1-1.9
		c-0.1-0.3-0.2-0.5-0.4-0.7c0,0-0.1-0.1-0.1-0.1c-5.3-2.4-7.7-8.6-5.3-13.9c0,0,0,0,0,0c0-0.1,0.1-0.1,0.1-0.2
		c2-3.9,6.1-6.2,10.4-5.9c5.2,0.4,9.3,4.4,9.9,9.5c0.4,4.5-2.1,8.7-6.2,10.6c0,0-0.1,0-0.1,0.1c-0.6,0.6-0.6,1.6,0.1,2.2
		c0.2,0.2,0.4,0.3,0.7,0.4l10.8,2.5c3.8,0.9,6.7,3.9,7.4,7.7l7.3,38.7C221,485.9,220.8,486.7,220.3,487.4L220.3,487.4z M224.6,484.4
		l-7.2-38.7c-1-5.5-5.2-9.9-10.7-11.2l-4.9-1.2c5.1-6.6,3.9-16-2.7-21.1c-2.4-1.8-5.2-2.9-8.2-3.1c-0.4,0-0.7,0-1.1,0
		c-8.3,0-15,6.7-15,15c0,3.3,1.1,6.6,3.2,9.2l-4.9,1.2c-5.5,1.3-9.7,5.7-10.7,11.2l-7.2,38.7c-0.8,4.1,1.9,8,6,8.7
		c0.1,0,0.3,0.1,0.4,0.1l1.5,0.2l-1.6,8.8c-0.2,1.1-0.1,2.2,0.3,3.2c0.8,1.9,2.7,3.1,4.8,3.1h2.7v27.2c0,4.1,3.3,7.5,7.5,7.5h0h6.1
		c2.9,0,5.6-1.7,6.8-4.4c1.2,2.7,3.9,4.4,6.8,4.4h6.1c4.1,0,7.5-3.3,7.5-7.5l0,0v-27.2h2.8c2.9,0.1,5.3-2.2,5.3-5.1
		c0-0.4,0-0.7-0.1-1.1l-1.6-8.9l1.5-0.2c4.1-0.5,7-4.2,6.5-8.3C224.7,484.6,224.7,484.5,224.6,484.4L224.6,484.4z"/>
	<path class="st4" d="M660.3,498.2c-0.3,0.3-0.6,0.5-1,0.6l-1.7,0.2l-3.7-19.1c-0.2-0.8-0.9-1.3-1.7-1.1c-0.8,0.1-1.3,0.8-1.2,1.6
		c0,0,0,0,0,0l5.4,27.9h-3.9c-0.4,0-0.8,0.1-1.1,0.4c-0.3,0.3-0.4,0.6-0.4,1v18.9c0,0.8-0.7,1.4-1.5,1.4h-4.1
		c-0.8,0-1.5-0.6-1.5-1.4v-17.5c-0.1-1.6-1.4-2.9-3-2.8h-2.4c-0.4,0-0.7,0.3-0.7,0.6v20.7c0,0.2-0.2,0.3-0.3,0.3H631
		c-0.2,0-0.3-0.1-0.3-0.3l0-20c0-0.4-0.2-0.7-0.4-1c-0.3-0.3-0.7-0.4-1.1-0.4h-3.8l5.4-27.9c0.2-1.2-1.2-2.3-2.7-1.2
		c-0.1,0.1-0.1,0.1-0.1,0.2l-2.1,10.7l-15.6-4.6l-2.2-0.6l-0.5-0.1c-0.4-0.1-0.7-0.4-0.9-0.7c-0.1-0.1-0.1-0.2-0.1-0.4
		c0-0.2,0-0.5,0-0.7l0.1-0.4c0,0,0-0.1,0.1-0.1c0.4-0.6,1.1-0.8,1.8-0.6l1.1,0.3l1.4,0.4l1.4,0.4l9.2,2.7c0.4,0.1,0.8,0.1,1.2-0.1
		c0.4-0.2,0.6-0.5,0.7-0.9L626,473c0.5-2.4,2.4-4.2,4.8-4.7l6.9-1.5c0.8-0.1,1.3-0.9,1.1-1.7c-0.1-0.3-0.2-0.5-0.4-0.7
		c0,0-0.1-0.1-0.2-0.1c-2.4-0.9-3.9-3.2-3.9-5.8c0.2-3.3,2.8-5.8,6.1-6c2.6-0.2,5.1,1.2,6.3,3.5c0,0.1,0.1,0.1,0.1,0.2
		c1.4,3,0,6.6-3.1,8c-0.1,0-0.2,0.1-0.3,0.1c-0.1,0-0.1,0.1-0.1,0.1c-0.5,0.6-0.5,1.5,0,2c0.2,0.2,0.4,0.3,0.7,0.4l7,1.6
		c2.4,0.5,4.3,2.3,4.8,4.7l4.7,24.1C660.6,497.5,660.5,497.9,660.3,498.2L660.3,498.2z M604.6,482.1l-5.3-26.8
		c-0.2-0.8-1-1.3-1.7-1.1c-0.7,0.1-1.2,0.7-1.2,1.4c0,0.1,0,0.2,0,0.2l8.1,41.3c0,0.2,0,0.4-0.2,0.6c-0.1,0.2-0.4,0.3-0.6,0.2h-6
		c-0.8,0-1.5,0.6-1.5,1.4v27.9c-0.1,1.6-1.4,2.8-3,2.8h-6.2c-1.6,0.1-2.9-1.2-3-2.8v-27.3c0-1.2-1-2.1-2.2-2.1h-5
		c-0.2,0-0.3,0.1-0.3,0.3v31.4c0,0.2-0.2,0.4-0.4,0.4h-11.2c-0.2,0-0.4-0.2-0.4-0.4v-31.5c0-0.1-0.1-0.2-0.2-0.2h-7
		c-0.2,0-0.4-0.1-0.6-0.2c-0.1-0.2-0.2-0.4-0.2-0.6l2.2-11.1l0,0l5.9-30.2c0.1-0.8-0.4-1.5-1.2-1.6c0,0,0,0-0.1,0
		c-0.8-0.2-1.6,0.3-1.7,1.1l-5.7,28.9l-2.1-0.2c0.8-1.1,1.1-2.6,0.8-3.9l-2.2-10.9l5.9-29.3c0.1-0.5,0.5-0.9,1.1-1.1l16-3.5
		c0.8-0.1,1.3-0.9,1.1-1.6c0-0.3-0.2-0.5-0.4-0.8c0,0-0.1-0.1-0.1-0.1c-5.1-2.2-7.7-7.6-5.3-12.9c0-0.1,0.1-0.1,0.1-0.2
		c2.1-3.7,6.1-5.8,10.4-5.5c5.1,0.3,9.3,4.1,9.8,8.8c0.4,4.3-2.1,8.3-6.1,9.8c0,0-0.1,0-0.1,0.1c-0.6,0.5-0.6,1.4,0,2
		c0.2,0.2,0.5,0.4,0.8,0.4l10.7,2.3c3.6,0.7,6.5,3.5,7.4,7.1l7,34.9l-0.4-0.1C608,478.8,605.6,479.9,604.6,482.1L604.6,482.1z
		 M551.3,482.7c-0.2,0.2-0.3,0.3-0.5,0.5c-0.2,0.1-0.3,0.3-0.5,0.3c-0.3,0.1-0.7,0.2-1,0.3l-0.3,0c-0.1,0-0.2,0-0.3,0
		c-0.2,0-0.4,0-0.5,0c-1.2-0.2-2.1-1.1-2.4-2.2l-5.1-26.3c-0.2-0.8-1.1-1.3-1.9-1.1c-0.3,0.1-0.6,0.3-0.8,0.5
		c-0.1,0.1-0.2,0.3-0.2,0.5v73.4c0,0.8-0.7,1.4-1.5,1.4H529c-1.6,0.1-2.9-1.2-3-2.8v-25.7c0-1.7-1.2-3.2-2.9-3.5
		c-2-0.5-4,0.7-4.5,2.7c-0.1,0.2-0.1,0.5-0.1,0.7v25.8c-0.1,1.6-1.4,2.8-3,2.8h-7.7c-0.8,0-1.4-0.6-1.5-1.4v-73.4
		c0-0.2-0.1-0.4-0.3-0.5c-0.6-0.6-1.6-0.7-2.2-0.1c-0.2,0.2-0.4,0.5-0.5,0.8l-5.1,26.3c0,0.1-0.1,0.2-0.1,0.4
		c-0.8-1.7-2.5-2.8-4.4-2.7c-0.2,0-0.4,0-0.7,0.1l-0.8,0.2l6.9-34.8c0.8-3.6,3.6-6.4,7.2-7.1l10.5-2.3c0.8-0.1,1.3-0.9,1.1-1.6
		c0-0.2-0.1-0.5-0.3-0.6c-0.1-0.1-0.2-0.2-0.3-0.2c-3.6-1.5-5.9-4.9-5.9-8.8c0-5.4,4.7-9.7,10.4-9.7c0.2,0,0.5,0,0.7,0
		c4.9,0.2,9,3.9,9.6,8.8c0.4,4.2-2,8.1-5.9,9.7c-0.1,0-0.2,0.1-0.3,0.2c-0.5,0.6-0.4,1.5,0.2,2c0.2,0.2,0.4,0.3,0.6,0.3l10.5,2.3
		c3.6,0.7,6.4,3.5,7.2,7.1l4.8,24.4l0.8,3.8l0.8,3.8l0.8,3.8C552,481.3,551.8,482.1,551.3,482.7L551.3,482.7z M495.8,483.9
		c0,0.2-0.1,0.3-0.2,0.5c-0.2,0.3-0.5,0.6-0.9,0.7l-0.4,0.1l-2.2,0.6l-17.6,5.1v-10.3c0-0.6-0.4-1.2-1-1.4c-0.8-0.3-1.6,0.1-1.9,0.9
		c0,0.1-0.1,0.3-0.1,0.4v48c0,0.8-0.7,1.4-1.5,1.4h-4.1c-0.8,0-1.5-0.6-1.5-1.4v-17.2c0-1.4-1-2.6-2.3-2.8c-1.6-0.4-3.2,0.6-3.6,2.2
		c0,0.2-0.1,0.4-0.1,0.6v17.3c0,0.8-0.7,1.4-1.5,1.4h-5.3c-0.2,0-0.3-0.1-0.3-0.3v-49.6c0-0.1,0-0.2-0.1-0.2
		c-0.5-0.7-1.5-0.9-2.2-0.4c-0.3,0.2-0.5,0.5-0.6,0.9l-3.4,17.6c-0.2,0.7-0.9,1.2-1.6,1.1l-0.5-0.1c0,0-0.1,0-0.1,0
		c-0.7-0.2-1-0.9-0.9-1.6l4.8-23.8c0.5-2.4,2.4-4.2,4.8-4.7l7.3-1.6c0.1,0,0.1,0,0.2-0.1c0.6-0.4,0.9-1.2,0.5-1.9
		c-0.1-0.2-0.4-0.4-0.6-0.5c-3-1.3-4.4-4.7-3.2-7.8c0-0.1,0-0.1,0.1-0.2c0-0.1,0.1-0.1,0.1-0.2c1.3-2.3,3.8-3.6,6.3-3.4
		c3.3,0.1,5.9,2.7,6.1,5.9c0,2.5-1.5,4.8-3.9,5.7c-0.1,0-0.1,0.1-0.1,0.1c-0.5,0.6-0.5,1.4,0,2c0.2,0.2,0.5,0.3,0.7,0.4l7,1.5
		c2.4,0.5,4.2,2.3,4.8,4.7l2.3,11.4c0.1,0.4,0.3,0.7,0.7,0.9c0.4,0.2,0.8,0.3,1.2,0.1l9.2-2.7l1.4-0.4l1.4-0.4l1.1-0.3
		c0.7-0.2,1.4,0.1,1.8,0.6c0,0,0,0.1,0.1,0.1l0.1,0.4C495.8,483.5,495.8,483.7,495.8,483.9L495.8,483.9z M664.9,496.4l-4.7-24.1
		c-0.9-4-4-7.2-8.1-8l-1.7-0.4c1-1.6,1.5-3.3,1.5-5.2c0-5.7-4.9-10.3-11-10.3c-0.2,0-0.5,0-0.7,0c-5.6,0.3-10.1,4.7-10.3,10.1
		c0,1.9,0.5,3.8,1.5,5.5l-1.7,0.4c-4,0.8-7.2,3.9-8.1,8l-1.7,8.4l-5.5-1.6l-7-35.8c-1.1-5.3-5.3-9.4-10.6-10.5l-4.8-1.1
		c2.3-2.8,3.4-6.3,3.1-9.9c-0.7-6.8-6.6-12.2-13.8-12.7c-0.3,0-0.7,0-1.1,0l0,0c-5.1,0-9.9,2.5-12.7,6.7c-0.8,1.2-1.4,2.4-1.7,3.8
		c-1.1,4.2-0.2,8.8,2.7,12.2l-4.9,1.1c-5.3,1.1-9.4,5.2-10.6,10.4l-2,10.1l-2-10c-1.1-5.3-5.3-9.4-10.6-10.5l-4.8-1.1
		c2.3-2.8,3.4-6.3,3.1-9.9c-0.7-6.8-6.6-12.2-13.8-12.7c-0.3,0-0.7,0-1.1,0c-5.1,0-9.9,2.5-12.7,6.7c-0.8,1.2-1.4,2.4-1.7,3.8
		c-1.1,4.2-0.2,8.8,2.7,12.2l-4.8,1.1c-5.3,1.1-9.5,5.2-10.6,10.5l-7,35.8l-5.5,1.6l-1.7-8.4c-0.9-4-4-7.1-8.1-8l-1.7-0.4
		c1-1.6,1.5-3.5,1.5-5.5c-0.1-5.3-4.7-9.7-10.3-10c-0.2,0-0.5,0-0.7,0c-3.7,0-7.2,1.8-9.3,4.9c-0.6,0.9-1.1,1.9-1.3,3
		c-0.7,2.6-0.2,5.4,1.2,7.6l-1.7,0.4c-4,0.8-7.2,4-8.1,8l-4.7,24.1c-0.3,1.5,0.1,3.1,1.1,4.3c1,1.3,2.5,2.1,4.1,2.2l0.2,0
		c0.2,0,0.5,0,0.7,0c1.2,0,2.4-0.3,3.4-1v26.7c0.1,3.2,2.8,5.6,5.9,5.5h4.5c1.7,0,3.3-0.7,4.5-1.9c1.2,1.2,2.8,1.9,4.5,1.9h4
		c3.2,0.1,5.8-2.4,5.9-5.5v-33.8l19.8-5.9c1-0.3,1.9-0.9,2.7-1.6c1.4-0.6,2.5-1.6,3.3-2.9v48c0,1,0.9,1.7,1.8,1.7h11.6
		c2.8,0,5.4-1.5,6.7-4c1.3,2.5,3.9,4.1,6.7,4h11.6c1,0,1.8-0.7,1.8-1.7v-48c1.4,2.3,3.9,3.6,6.5,3.6c0.3,0,0.6,0,0.9,0l0.3,0
		c0.8-0.3,1.7-0.3,2.5,0l1.5,0.2l-1.7,8.9c0,0.1,0,0.2,0,0.4c0.2,2.7,2.5,4.8,5.3,4.7h2.5v25.2c0.1,4,3.5,7.1,7.4,6.9h6.1
		c2.8,0,5.4-1.5,6.7-4c1.3,2.5,3.9,4.1,6.7,4h6.1c4,0.1,7.3-3,7.4-6.9v-25.2h2.6c1.2,0,2.4-0.3,3.4-1.1c1.4-1,2.1-2.8,1.8-4.6
		l-1.4-7.1l16.5,4.8l-2.8,14.2c-0.3,1.4,0.4,2.8,1.7,3.5c0.6,0.3,1.3,0.5,2,0.5h2.4l0,16c0,1.2,0.4,2.4,1.1,3.4
		c1.2,1.5,3,2.4,4.9,2.3h3.7c1.7,0,3.4-0.7,4.6-2c1.2,1.3,2.8,2,4.6,2h4.1c1.6,0,3.1-0.6,4.2-1.6c1.1-1,1.7-2.5,1.7-4v-16.1h1.6
		c0.7,0,1.4-0.2,2-0.5c1.3-0.7,2-2.2,1.7-3.6l-1-5.4c1.6-0.2,3.1-1,4.1-2.2C664.8,499.5,665.2,497.9,664.9,496.4L664.9,496.4z"/>
	<path class="st5" d="M593.2,31.5h56.8c6.6,0,12,5.4,12,12v56.8c0,6.6-5.4,12-12,12h-56.8c-6.6,0-12-5.4-12-12V43.5
		C581.2,36.9,586.6,31.5,593.2,31.5z"/>
	<rect x="589.7" y="13" class="st6" width="5" height="14"/>
	<rect x="600.7" y="13" class="st6" width="5" height="14"/>
	<rect x="612.7" y="13" class="st6" width="5" height="14"/>
	<rect x="624.6" y="13" class="st6" width="5" height="14"/>
	<rect x="635.6" y="13" class="st6" width="5" height="14"/>
	<rect x="647.6" y="13" class="st6" width="5" height="14"/>
	<rect x="666.5" y="40" class="st6" width="14" height="5"/>
	<rect x="666.5" y="51" class="st6" width="14" height="5"/>
	<rect x="666.5" y="62.9" class="st6" width="14" height="5"/>
	<rect x="666.5" y="74.9" class="st6" width="14" height="5"/>
	<rect x="666.5" y="85.9" class="st6" width="14" height="5"/>
	<rect x="666.5" y="97.9" class="st6" width="14" height="5"/>
	<rect x="648.6" y="117.8" class="st6" width="5" height="14"/>
	<rect x="637.6" y="117.8" class="st6" width="5" height="14"/>
	<rect x="625.6" y="117.8" class="st6" width="5" height="14"/>
	<rect x="613.7" y="117.8" class="st6" width="5" height="14"/>
	<rect x="602.7" y="117.8" class="st6" width="5" height="14"/>
	<rect x="590.7" y="117.8" class="st6" width="5" height="14"/>
	<rect x="560.8" y="98.9" class="st6" width="14" height="5"/>
	<rect x="560.8" y="87.9" class="st6" width="14" height="5"/>
	<rect x="560.8" y="75.9" class="st6" width="14" height="5"/>
	<rect x="560.8" y="63.9" class="st6" width="14" height="5"/>
	<rect x="560.8" y="53" class="st6" width="14" height="5"/>
	<rect x="560.8" y="41" class="st6" width="14" height="5"/>
	<text transform="matrix(1 0 0 1 592.6953 78.3867)" class="st2 st7">CPU</text>
	<path class="st5" d="M762.7,18.5h56.8c6.6,0,12,5.4,12,12v56.8c0,6.6-5.4,12-12,12h-56.8c-6.6,0-12-5.4-12-12V30.5
		C750.7,23.8,756.1,18.5,762.7,18.5z"/>
	<rect x="759.2" class="st6" width="5" height="14"/>
	<rect x="770.1" class="st6" width="5" height="14"/>
	<rect x="782.1" class="st6" width="5" height="14"/>
	<rect x="794.1" class="st6" width="5" height="14"/>
	<rect x="805.1" class="st6" width="5" height="14"/>
	<rect x="817" class="st6" width="5" height="14"/>
	<rect x="836" y="26.9" class="st6" width="14" height="5"/>
	<rect x="836" y="37.9" class="st6" width="14" height="5"/>
	<rect x="836" y="49.9" class="st6" width="14" height="5"/>
	<rect x="836" y="61.9" class="st6" width="14" height="5"/>
	<rect x="836" y="72.9" class="st6" width="14" height="5"/>
	<rect x="836" y="84.8" class="st6" width="14" height="5"/>
	<rect x="818" y="104.8" class="st6" width="5" height="14"/>
	<rect x="807.1" y="104.8" class="st6" width="5" height="14"/>
	<rect x="795.1" y="104.8" class="st6" width="5" height="14"/>
	<rect x="783.1" y="104.8" class="st6" width="5" height="14"/>
	<rect x="772.1" y="104.8" class="st6" width="5" height="14"/>
	<rect x="760.2" y="104.8" class="st6" width="5" height="14"/>
	<rect x="730.2" y="85.8" class="st6" width="14" height="5"/>
	<rect x="730.2" y="74.9" class="st6" width="14" height="5"/>
	<rect x="730.2" y="62.9" class="st6" width="14" height="5"/>
	<rect x="730.2" y="50.9" class="st6" width="14" height="5"/>
	<rect x="730.2" y="39.9" class="st6" width="14" height="5"/>
	<rect x="730.2" y="27.9" class="st6" width="14" height="5"/>
	<path class="st8" d="M689.9,143.1h46.2c6.6,0,12,5.4,12,12v46.2c0,6.6-5.4,12-12,12h-46.2c-6.6,0-12-5.4-12-12v-46.2
		C677.9,148.5,683.3,143.1,689.9,143.1z"/>
	<path class="st9" d="M688,149.2h3.3c2.2,0,4,1.8,4,4v3.3c0,2.2-1.8,4-4,4H688c-2.2,0-4-1.8-4-4v-3.3C684,151,685.8,149.2,688,149.2
		z"/>
	<path class="st9" d="M703.6,149.2h3.3c2.2,0,4,1.8,4,4v3.3c0,2.2-1.8,4-4,4h-3.3c-2.2,0-4-1.8-4-4v-3.3
		C699.6,151,701.4,149.2,703.6,149.2z"/>
	<path class="st9" d="M719.2,149.2h3.3c2.2,0,4,1.8,4,4v3.3c0,2.2-1.8,4-4,4h-3.3c-2.2,0-4-1.8-4-4v-3.3
		C715.2,151,716.9,149.2,719.2,149.2z"/>
	<path class="st9" d="M734.7,149.2h3.3c2.2,0,4,1.8,4,4v3.3c0,2.2-1.8,4-4,4h-3.3c-2.2,0-4-1.8-4-4v-3.3
		C730.7,151,732.5,149.2,734.7,149.2z"/>
	<path class="st9" d="M688,164.8h3.3c2.2,0,4,1.8,4,4v3.3c0,2.2-1.8,4-4,4H688c-2.2,0-4-1.8-4-4v-3.3
		C684,166.6,685.8,164.8,688,164.8z"/>
	<path class="st9" d="M703.6,164.8h3.3c2.2,0,4,1.8,4,4v3.3c0,2.2-1.8,4-4,4h-3.3c-2.2,0-4-1.8-4-4v-3.3
		C699.6,166.6,701.4,164.8,703.6,164.8z"/>
	<path class="st9" d="M719.2,164.8h3.3c2.2,0,4,1.8,4,4v3.3c0,2.2-1.8,4-4,4h-3.3c-2.2,0-4-1.8-4-4v-3.3
		C715.2,166.6,716.9,164.8,719.2,164.8z"/>
	<path class="st9" d="M734.7,164.8h3.3c2.2,0,4,1.8,4,4v3.3c0,2.2-1.8,4-4,4h-3.3c-2.2,0-4-1.8-4-4v-3.3
		C730.7,166.6,732.5,164.8,734.7,164.8z"/>
	<path class="st9" d="M688,180.4h3.3c2.2,0,4,1.8,4,4v3.3c0,2.2-1.8,4-4,4H688c-2.2,0-4-1.8-4-4v-3.3
		C684,182.2,685.8,180.4,688,180.4z"/>
	<path class="st9" d="M703.6,180.4h3.3c2.2,0,4,1.8,4,4v3.3c0,2.2-1.8,4-4,4h-3.3c-2.2,0-4-1.8-4-4v-3.3
		C699.6,182.2,701.4,180.4,703.6,180.4z"/>
	<path class="st9" d="M719.2,180.4h3.3c2.2,0,4,1.8,4,4v3.3c0,2.2-1.8,4-4,4h-3.3c-2.2,0-4-1.8-4-4v-3.3
		C715.2,182.2,716.9,180.4,719.2,180.4z"/>
	<path class="st9" d="M734.7,180.4h3.3c2.2,0,4,1.8,4,4v3.3c0,2.2-1.8,4-4,4h-3.3c-2.2,0-4-1.8-4-4v-3.3
		C730.7,182.2,732.5,180.4,734.7,180.4z"/>
	<path class="st9" d="M688,196h3.3c2.2,0,4,1.8,4,4v3.3c0,2.2-1.8,4-4,4H688c-2.2,0-4-1.8-4-4V200C684,197.7,685.8,196,688,196z"/>
	<path class="st9" d="M703.6,196h3.3c2.2,0,4,1.8,4,4v3.3c0,2.2-1.8,4-4,4h-3.3c-2.2,0-4-1.8-4-4V200
		C699.6,197.7,701.4,196,703.6,196z"/>
	<path class="st9" d="M719.2,196h3.3c2.2,0,4,1.8,4,4v3.3c0,2.2-1.8,4-4,4h-3.3c-2.2,0-4-1.8-4-4V200
		C715.2,197.7,716.9,196,719.2,196z"/>
	<path class="st9" d="M734.7,196h3.3c2.2,0,4,1.8,4,4v3.3c0,2.2-1.8,4-4,4h-3.3c-2.2,0-4-1.8-4-4V200
		C730.7,197.7,732.5,196,734.7,196z"/>
	<rect x="685.3" y="127.1" class="st6" width="4.3" height="12.1"/>
	<rect x="694.8" y="127.1" class="st6" width="4.3" height="12.1"/>
	<rect x="705.2" y="127.1" class="st6" width="4.3" height="12.1"/>
	<rect x="715.6" y="127.1" class="st6" width="4.3" height="12.1"/>
	<rect x="725.1" y="127.1" class="st6" width="4.3" height="12.1"/>
	<rect x="735.5" y="127.1" class="st6" width="4.3" height="12.1"/>
	<rect x="752" y="150.5" class="st6" width="12.1" height="4.3"/>
	<rect x="752" y="160" class="st6" width="12.1" height="4.3"/>
	<rect x="752" y="170.4" class="st6" width="12.1" height="4.3"/>
	<rect x="752" y="180.8" class="st6" width="12.1" height="4.3"/>
	<rect x="752" y="190.3" class="st6" width="12.1" height="4.3"/>
	<rect x="752" y="200.7" class="st6" width="12.1" height="4.3"/>
	<rect x="736.4" y="218" class="st6" width="4.3" height="12.1"/>
	<rect x="726.8" y="218" class="st6" width="4.3" height="12.1"/>
	<rect x="716.5" y="218" class="st6" width="4.3" height="12.1"/>
	<rect x="706.1" y="218" class="st6" width="4.3" height="12.1"/>
	<rect x="696.5" y="218" class="st6" width="4.3" height="12.1"/>
	<rect x="686.1" y="218" class="st6" width="4.3" height="12.1"/>
	<rect x="660.2" y="201.6" class="st6" width="12.1" height="4.3"/>
	<rect x="660.2" y="192.1" class="st6" width="12.1" height="4.3"/>
	<rect x="660.2" y="181.7" class="st6" width="12.1" height="4.3"/>
	<rect x="660.2" y="171.3" class="st6" width="12.1" height="4.3"/>
	<rect x="660.2" y="161.7" class="st6" width="12.1" height="4.3"/>
	<rect x="660.2" y="151.3" class="st6" width="12.1" height="4.3"/>
	<text transform="matrix(1.0351 0 0 1 677.9023 240.2744)" class="st2 st10">Multi-Co</text>
	<text transform="matrix(1.0351 0 0 1 716.0459 240.2744)" class="st2 st10">r</text>
	<text transform="matrix(1.0351 0 0 1 719.9463 240.2744)" class="st2 st10">e CPU</text>
	<rect x="763.6" y="32.6" width="22.8" height="53"/>
	<rect x="793.8" y="32.6" width="22.8" height="53"/>
	<text transform="matrix(0 0.8731 -1 0 855.498 18.1074)" class="st2 st11">Dual-Co</text>
	<text transform="matrix(0 0.8731 -1 0 855.498 60.9282)" class="st2 st11">r</text>
	<text transform="matrix(0 0.8731 -1 0 855.498 65.5923)" class="st2 st11">e CPU</text>
	<text transform="matrix(1 0 0 1 216.4727 134.2168)" class="st2 st12">A</text>
	<text transform="matrix(1 0 0 1 233.396 134.2168)" class="st2 st12">WS</text>
	<text transform="matrix(1 0 0 1 52.5293 166.5332)" class="st2 st13">GCP</text>
	<rect x="376" y="71.8" class="st14" width="146" height="36.8"/>
	<polygon class="st15" points="457.7,108.5 489.8,99.3 522,90.1 489.8,80.9 457.7,71.8 457.7,81.1 426.4,81.1 426.4,99.2 
		457.7,99.2 	"/>
	<rect x="403.7" y="81.5" class="st15" width="16.7" height="17.3"/>
	<rect x="389" y="81.5" class="st15" width="9.5" height="17.3"/>
	<rect x="376" y="81.5" class="st15" width="6.4" height="17.3"/>
	
		<rect x="136.6" y="199.1" transform="matrix(0.6763 -0.7366 0.7366 0.6763 -138.4994 197.0778)" class="st14" width="36.8" height="114"/>
	<polygon class="st15" points="162.4,238 137.7,227.8 113,217.6 125.3,241.3 137.6,265.1 143.9,258.2 161.9,274.7 174.1,261.4 
		156.1,244.9 	"/>
	
		<rect x="167.6" y="269.1" transform="matrix(0.6763 -0.7366 0.7366 0.6763 -145.9913 219.037)" class="st15" width="17.3" height="13"/>
	
		<rect x="178.1" y="281.6" transform="matrix(0.6763 -0.7366 0.7366 0.6763 -149.6954 229.8959)" class="st15" width="17.3" height="7.4"/>
	
		<rect x="186.5" y="290.5" transform="matrix(0.6763 -0.7366 0.7366 0.6763 -152.6292 238.583)" class="st15" width="17.3" height="5"/>
	
		<rect x="615" y="323.8" transform="matrix(0.3634 -0.9316 0.9316 0.3634 119.2498 858.7779)" class="st14" width="146" height="36.8"/>
	<polygon class="st15" points="667.7,343.5 664.6,376.8 661.5,410.1 681.7,383.5 702,356.9 693.2,353.5 704.6,324.4 687.8,317.8 
		676.4,346.9 	"/>
	
		<rect x="693.1" y="299.1" transform="matrix(0.3634 -0.9316 0.9316 0.3634 159.8493 849.3779)" class="st15" width="16.7" height="17.3"/>
	
		<rect x="703.3" y="282.1" transform="matrix(0.3634 -0.9316 0.9316 0.3634 179.9252 844.7288)" class="st15" width="9.5" height="17.3"/>
	
		<rect x="710.1" y="268.5" transform="matrix(0.3634 -0.9316 0.9316 0.3634 195.9605 840.9753)" class="st15" width="6.4" height="17.3"/>
	<g>
		<rect x="57.4" y="47.6" class="st14" width="83.7" height="27.9"/>
		<text transform="matrix(1 0 0 1 57.3981 59.2673)" class="st2 st13">AZURE</text>
	</g>
</g>
</svg>
