<?xml version="1.0" encoding="utf-8"?>
<!-- Generator: Adobe Illustrator 22.1.0, SVG Export Plug-In . SVG Version: 6.00 Build 0)  -->
<svg version="1.1" id="Layer_1" xmlns="http://www.w3.org/2000/svg" xmlns:xlink="http://www.w3.org/1999/xlink" x="0px" y="0px"
	 viewBox="0 0 865.49 543.2" style="enable-background:new 0 0 865.49 543.2;" xml:space="preserve">
<style type="text/css">
	.st0{fill:#363636;}
	.st1{fill:none;stroke:#A23814;stroke-width:4.26;stroke-miterlimit:10;}
	.st2{enable-background:new    ;}
	.st3{fill:#222222;}
	.st4{fill:#A23814;}
	.st5{fill:none;stroke:#A23814;stroke-width:2.99;stroke-miterlimit:10;}
	.st6{fill:none;stroke:#A23814;stroke-width:2.6;stroke-miterlimit:10;}
	.st7{fill:none;stroke:#363636;stroke-width:2.6;stroke-miterlimit:10;}
	.st8{font-family:'Arial-Black';}
	.st9{font-size:8.19px;}
	.st10{font-size:11.61px;}
	.st11{fill:none;}
	.st12{fill:#231F20;}
</style>
<title>features</title>
<g>
	<rect x="589.73" y="13" class="st0" width="5" height="14"/>
	<rect x="600.73" y="13" class="st0" width="5" height="14"/>
	<rect x="612.73" y="13" class="st0" width="5" height="14"/>
	<rect x="624.63" y="13" class="st0" width="5" height="14"/>
	<rect x="635.63" y="13" class="st0" width="5" height="14"/>
	<rect x="647.63" y="13" class="st0" width="5" height="14"/>
	<rect x="759.23" class="st0" width="5" height="14"/>
	<rect x="770.13" class="st0" width="5" height="14"/>
	<rect x="782.13" class="st0" width="5" height="14"/>
	<rect x="794.13" class="st0" width="5" height="14"/>
	<rect x="805.13" class="st0" width="5" height="14"/>
	<rect x="817.03" class="st0" width="5" height="14"/>
	<path class="st1" d="M163.73,48.7c4.613-12.977-2.139-27.241-15.1-31.9c-5.57-1.968-11.653-1.933-17.2,0.1
		c-13.134-16.122-36.835-18.581-53-5.5c-4.473,3.593-8.045,8.182-10.43,13.4c-9.001-10.514-24.82-11.74-35.334-2.739
		C24.362,29.169,21.624,40.84,25.9,50.9c-0.5,0-1.1-0.1-1.7-0.1C11.995,50.805,2.104,60.703,2.108,72.908
		C2.113,85.107,12.001,94.995,24.2,95c4.927-0.03,9.706-1.682,13.6-4.7c13.195,15.298,36.294,17.003,51.592,3.807
		c0.003-0.002,0.006-0.005,0.008-0.007c2.062-1.777,3.908-3.791,5.5-6c10.541,13.554,30.074,15.997,43.628,5.456
		c0.024-0.019,0.048-0.037,0.072-0.056c2.178-1.711,4.127-3.694,5.8-5.9c10.272,6.186,23.614,2.872,29.8-7.4s2.872-23.614-7.4-29.8
		l0,0C165.868,49.682,164.833,49.109,163.73,48.7z"/>
	<path class="st1" d="M316.23,122.1c4.513-12.651-2.085-26.565-14.736-31.077c-0.021-0.008-0.043-0.015-0.064-0.023
		c-5.442-1.917-11.381-1.882-16.8,0.1c-12.763-15.718-35.851-18.113-51.568-5.35c-0.021,0.017-0.041,0.033-0.062,0.05
		c-4.337,3.549-7.822,8.026-10.2,13.1c-8.702-10.246-24.062-11.498-34.308-2.796c-8.157,6.928-10.832,18.37-6.592,28.196
		c-0.5,0-1.1-0.1-1.6-0.1c-11.874,0.005-21.496,9.635-21.491,21.509c0.005,11.874,9.635,21.496,21.509,21.491
		c4.817-0.002,9.494-1.622,13.281-4.6c12.858,14.911,35.369,16.575,50.279,3.718c0.007-0.006,0.014-0.012,0.021-0.018
		c2.002-1.735,3.812-3.68,5.4-5.8c10.276,13.193,29.302,15.558,42.495,5.282c0.035-0.027,0.07-0.054,0.105-0.082
		c2.12-1.704,4.033-3.65,5.7-5.8c10.121,5.887,23.098,2.455,28.985-7.666c5.754-9.892,2.618-22.566-7.085-28.634
		C318.43,123.1,317.33,122.5,316.23,122.1z"/>
	<path class="st1" d="M123,158.1c3.259-9.117-1.49-19.149-10.607-22.408c-3.916-1.4-8.202-1.362-12.093,0.107
		c-9.231-11.307-25.873-13.007-37.2-3.8c-3.106,2.548-5.6,5.76-7.3,9.4c-6.301-7.372-17.386-8.24-24.758-1.939
		c-5.833,4.986-7.753,13.181-4.742,20.239h-1.2c-8.56,0-15.5,6.94-15.5,15.5s6.94,15.5,15.5,15.5c3.474-0.024,6.845-1.183,9.6-3.3
		c9.275,10.693,25.441,11.899,36.2,2.7c1.428-1.276,2.733-2.682,3.9-4.2c7.442,9.503,21.166,11.202,30.7,3.8
		c1.538-1.222,2.916-2.633,4.1-4.2c7.255,4.256,16.587,1.826,20.843-5.429c4.191-7.143,1.906-16.325-5.143-20.671
		C124.616,158.835,123.837,158.395,123,158.1L123,158.1z"/>
	<g>
		<g class="st2">
			<path class="st3" d="M225.542,269.697h15.627c2.604,0,4.604,1.041,5.998,3.121s2.092,4.656,2.092,7.728
				c0,2.576-0.498,4.785-1.493,6.628c-0.663,1.229-1.634,2.199-2.911,2.913c1.94,0.753,3.369,2.046,4.284,3.878
				c0.915,1.833,1.373,4.137,1.373,6.911c0,2.259-0.326,4.29-0.977,6.093c-0.651,1.803-1.542,3.229-2.672,4.279
				c-0.7,0.654-1.758,1.13-3.17,1.427c-1.88,0.396-3.127,0.595-3.741,0.595h-14.41V269.697z M233.964,286.787h3.63
				c1.302,0,2.208-0.361,2.718-1.084c0.51-0.724,0.765-1.769,0.765-3.136c0-1.269-0.255-2.259-0.765-2.973
				c-0.51-0.713-1.397-1.07-2.662-1.07h-3.686V286.787z M233.964,303.907h4.257c1.438,0,2.45-0.411,3.04-1.233
				s0.885-1.927,0.885-3.314c0-1.287-0.292-2.322-0.875-3.105c-0.584-0.782-1.606-1.174-3.068-1.174h-4.238V303.907z"/>
		</g>
		<g class="st2">
			<path class="st3" d="M254.894,269.697h8.348v32.843h13.028v10.729h-21.376V269.697z"/>
		</g>
		<g class="st2">
			<path class="st3" d="M278.384,291.514c0-7.113,1.229-12.651,3.686-16.615c2.457-3.962,5.878-5.944,10.264-5.944
				c4.496,0,7.961,1.947,10.394,5.841s3.648,9.348,3.648,16.361c0,5.093-0.531,9.269-1.594,12.528
				c-1.063,3.26-2.599,5.796-4.607,7.608c-2.008,1.813-4.512,2.72-7.509,2.72c-3.047,0-5.568-0.782-7.564-2.348
				c-1.997-1.565-3.615-4.043-4.855-7.431C279.004,300.846,278.384,296.605,278.384,291.514z M286.731,291.572
				c0,4.399,0.507,7.56,1.521,9.481c1.013,1.923,2.392,2.883,4.137,2.883c1.793,0,3.182-0.94,4.164-2.823
				c0.983-1.882,1.475-5.261,1.475-10.135c0-4.102-0.513-7.099-1.539-8.991c-1.025-1.892-2.417-2.838-4.174-2.838
				c-1.683,0-3.034,0.961-4.054,2.883S286.731,287.135,286.731,291.572z"/>
			<path class="st3" d="M309.821,291.514c0-7.113,1.229-12.651,3.686-16.615c2.457-3.962,5.878-5.944,10.264-5.944
				c4.496,0,7.961,1.947,10.394,5.841s3.648,9.348,3.648,16.361c0,5.093-0.531,9.269-1.594,12.528
				c-1.063,3.26-2.599,5.796-4.607,7.608c-2.008,1.813-4.512,2.72-7.509,2.72c-3.047,0-5.568-0.782-7.564-2.348
				c-1.997-1.565-3.615-4.043-4.855-7.431C310.441,300.846,309.821,296.605,309.821,291.514z M318.169,291.572
				c0,4.399,0.507,7.56,1.521,9.481c1.013,1.923,2.392,2.883,4.137,2.883c1.793,0,3.182-0.94,4.164-2.823
				c0.983-1.882,1.475-5.261,1.475-10.135c0-4.102-0.513-7.099-1.539-8.991c-1.025-1.892-2.417-2.838-4.174-2.838
				c-1.683,0-3.034,0.961-4.054,2.883S318.169,287.135,318.169,291.572z"/>
			<path class="st3" d="M342.419,269.697h12.401c2.444,0,4.419,0.535,5.925,1.605c1.504,1.069,2.748,2.605,3.731,4.606
				c0.982,2.002,1.695,4.33,2.138,6.984c0.441,2.656,0.663,5.469,0.663,8.441c0,4.656-0.329,8.268-0.986,10.834
				c-0.657,2.565-1.569,4.716-2.736,6.449c-1.167,1.734-2.42,2.888-3.759,3.463c-1.831,0.792-3.489,1.188-4.976,1.188h-12.401
				V269.697z M350.767,279.565v23.807h2.045c1.744,0,2.985-0.312,3.723-0.937c0.737-0.624,1.314-1.713,1.732-3.269
				c0.417-1.556,0.626-4.077,0.626-7.564c0-4.617-0.467-7.777-1.4-9.481s-2.481-2.556-4.644-2.556H350.767z"/>
			<path class="st3" d="M371.7,269.697h8.348v15.247h9.122v-15.247h8.384v43.572h-8.384v-17.625h-9.122v17.625H371.7V269.697z"/>
			<path class="st3" d="M402.051,291.514c0-7.113,1.229-12.651,3.686-16.615c2.457-3.962,5.878-5.944,10.264-5.944
				c4.496,0,7.961,1.947,10.394,5.841s3.648,9.348,3.648,16.361c0,5.093-0.531,9.269-1.594,12.528
				c-1.063,3.26-2.599,5.796-4.607,7.608c-2.008,1.813-4.512,2.72-7.509,2.72c-3.047,0-5.568-0.782-7.564-2.348
				c-1.997-1.565-3.615-4.043-4.855-7.431C402.671,300.846,402.051,296.605,402.051,291.514z M410.398,291.572
				c0,4.399,0.507,7.56,1.521,9.481c1.013,1.923,2.392,2.883,4.137,2.883c1.793,0,3.182-0.94,4.164-2.823
				c0.983-1.882,1.475-5.261,1.475-10.135c0-4.102-0.513-7.099-1.539-8.991c-1.025-1.892-2.417-2.838-4.174-2.838
				c-1.683,0-3.034,0.961-4.054,2.883S410.398,287.135,410.398,291.572z"/>
			<path class="st3" d="M452.117,269.697h8.329v25.96c0,2.574-0.248,5.005-0.746,7.291c-0.497,2.288-1.277,4.288-2.34,6.001
				c-1.063,1.712-2.178,2.915-3.345,3.608c-1.622,0.97-3.569,1.455-5.842,1.455c-1.314,0-2.749-0.148-4.303-0.445
				c-1.555-0.298-2.854-0.887-3.897-1.768s-1.999-2.134-2.865-3.757c-0.866-1.624-1.459-3.297-1.778-5.02
				c-0.516-2.772-0.774-5.228-0.774-7.366v-25.96h8.329v26.578c0,2.376,0.409,4.231,1.226,5.568c0.817,1.336,1.95,2.004,3.4,2.004
				c1.438,0,2.564-0.658,3.381-1.975c0.817-1.316,1.226-3.183,1.226-5.598V269.697z"/>
			<path class="st3" d="M466.03,269.697h7.795l10.172,24.106v-24.106h7.868v43.572h-7.868l-10.116-23.924v23.924h-7.851V269.697z"/>
			<path class="st3" d="M497.523,269.697h12.401c2.444,0,4.419,0.535,5.925,1.605c1.504,1.069,2.748,2.605,3.731,4.606
				c0.982,2.002,1.695,4.33,2.138,6.984c0.441,2.656,0.663,5.469,0.663,8.441c0,4.656-0.329,8.268-0.986,10.834
				c-0.657,2.565-1.569,4.716-2.736,6.449c-1.167,1.734-2.42,2.888-3.759,3.463c-1.831,0.792-3.489,1.188-4.976,1.188h-12.401
				V269.697z M505.871,279.565v23.807h2.045c1.744,0,2.985-0.312,3.723-0.937c0.737-0.624,1.314-1.713,1.732-3.269
				c0.417-1.556,0.626-4.077,0.626-7.564c0-4.617-0.467-7.777-1.4-9.481s-2.481-2.556-4.644-2.556H505.871z"/>
			<path class="st3" d="M560.103,313.27h-22.519c0.258-3.586,1.041-6.96,2.35-10.12s3.762-6.891,7.361-11.19
				c2.199-2.635,3.605-4.637,4.22-6.004s0.922-2.664,0.922-3.894c0-1.327-0.304-2.462-0.912-3.403
				c-0.608-0.94-1.373-1.411-2.294-1.411c-0.959,0-1.742,0.485-2.35,1.456c-0.608,0.971-1.017,2.686-1.226,5.142l-7.519-0.98
				c0.295-3.408,0.835-6.067,1.622-7.98c0.785-1.912,1.895-3.378,3.326-4.398c1.431-1.021,3.411-1.531,5.942-1.531
				c2.642,0,4.696,0.486,6.164,1.457s2.623,2.462,3.464,4.473c0.842,2.012,1.263,4.266,1.263,6.762c0,2.655-0.482,5.191-1.446,7.609
				c-0.965,2.417-2.719,5.072-5.262,7.965c-1.511,1.685-2.521,2.863-3.031,3.537s-1.108,1.556-1.796,2.646h11.72V313.27z"/>
			<path class="st3" d="M564.046,301.144h8.016v12.126h-8.016V301.144z"/>
			<path class="st3" d="M575.876,291.306c0-8.282,0.924-14.078,2.773-17.388c1.849-3.309,4.665-4.964,8.449-4.964
				c1.817,0,3.311,0.362,4.478,1.085c1.167,0.724,2.119,1.665,2.856,2.824s1.317,2.377,1.741,3.655s0.765,2.77,1.022,4.474
				c0.504,3.249,0.756,6.638,0.756,10.164c0,7.906-0.829,13.692-2.487,17.357c-1.659,3.666-4.516,5.499-8.569,5.499
				c-2.272,0-4.109-0.585-5.51-1.754s-2.549-2.883-3.446-5.142c-0.65-1.605-1.157-3.799-1.52-6.583S575.876,294.674,575.876,291.306
				z M583.32,291.335c0,5.548,0.305,9.338,0.912,11.368c0.608,2.031,1.49,3.047,2.645,3.047c0.762,0,1.422-0.431,1.981-1.293
				c0.559-0.862,0.97-2.224,1.234-4.087c0.264-1.862,0.396-4.765,0.396-8.708c0-5.786-0.305-9.675-0.912-11.666
				c-0.608-1.991-1.521-2.987-2.736-2.987c-1.241,0-2.138,1.016-2.69,3.047C583.597,282.087,583.32,285.847,583.32,291.335z"/>
		</g>
	</g>
	<path class="st4" d="M418.13,487.4c-0.486,0.693-1.256,1.133-2.1,1.2l-3.2,0.4l-5.7-31.2c-0.18-0.819-0.975-1.349-1.8-1.2
		c-0.726,0.117-1.245,0.766-1.2,1.5v0.3l8.2,44.6c0.028,0.22-0.046,0.441-0.2,0.6c-0.137,0.194-0.362,0.307-0.6,0.3H405
		c-0.82,0.021-1.479,0.68-1.5,1.5v30.2c0,1.657-1.343,3-3,3h-6.3c-1.657,0-3-1.343-3-3V506c-0.011-1.211-0.99-2.189-2.2-2.2h-4.6
		c-0.148-0.018-0.282,0.088-0.3,0.236c-0.003,0.021-0.003,0.043,0,0.064V538c-0.014,0.215-0.185,0.385-0.4,0.4h-11.3
		c-0.215-0.015-0.385-0.185-0.4-0.4l0,0v-34c-0.009-0.106-0.094-0.191-0.2-0.2h-7.1c-0.232-0.015-0.449-0.123-0.6-0.3
		c-0.111-0.182-0.179-0.388-0.2-0.6l2.2-12l0,0l6-32.6c0.133-0.8-0.402-1.558-1.2-1.7l0,0c-0.825-0.149-1.62,0.381-1.8,1.2
		l-5.7,31.2l-1.7-0.2c0.038-0.574-0.029-1.15-0.2-1.7l-0.2-0.7c0-0.1,0-0.1-0.1-0.2c-0.696-1.288-1.954-2.176-3.4-2.4l8-42.7
		c0.073-0.575,0.525-1.027,1.1-1.1l16.2-3.8c0.827-0.219,1.321-1.068,1.101-1.895c0-0.002-0.001-0.003-0.001-0.005
		c-0.072-0.263-0.209-0.504-0.4-0.7l-0.1-0.1c-5.299-2.368-7.676-8.584-5.307-13.884c0.002-0.005,0.005-0.011,0.007-0.016l0,0
		c0-0.1,0.1-0.1,0.1-0.2c2.672-5.308,9.14-7.446,14.449-4.774c3.236,1.628,5.435,4.776,5.851,8.374
		c0.384,4.489-2.099,8.734-6.2,10.6c-0.055,0-0.1,0.045-0.1,0.1l0,0c-0.582,0.581-0.583,1.525-0.002,2.107
		c0.032,0.033,0.066,0.063,0.102,0.093c0.196,0.191,0.437,0.328,0.7,0.4l10.8,2.5c3.778,0.867,6.683,3.891,7.4,7.7l7.3,38.7
		c0,0.788-0.245,1.557-0.7,2.2L418.13,487.4L418.13,487.4z M358.63,489.1c-0.204,0.336-0.524,0.585-0.9,0.7l-1,0.3l-19.4,6.1V485
		c-0.008-0.842-0.66-1.538-1.5-1.6c-0.821-0.061-1.535,0.555-1.596,1.376c-0.003,0.041-0.004,0.083-0.004,0.124l0,0v51.9
		c-0.021,0.82-0.68,1.479-1.5,1.5h-4.1c-0.82-0.021-1.479-0.68-1.5-1.5l0,0v-18.6c-0.033-1.448-1.006-2.705-2.4-3.1
		c-1.65-0.391-3.304,0.63-3.695,2.279c-0.002,0.007-0.003,0.014-0.005,0.021c-0.089,0.222-0.124,0.462-0.1,0.7v18.7
		c-0.021,0.82-0.68,1.479-1.5,1.5h-3.9c0,0-1.5-0.8-1.3-1.6v-38.6c-0.2,0-0.2,0,0-0.1v-13.2c-0.201-0.804-0.877-1.4-1.7-1.5
		c-0.8,0-1.8,1.5-1.8,1.5v11.4l-18.9-6l-1.5-0.5c-0.1,0-0.2-0.1-0.3-0.2c-0.451-0.275-0.719-0.772-0.7-1.3
		c-0.015-0.141,0.02-0.283,0.1-0.4l0.1-0.3c0.163-0.673,0.816-1.108,1.5-1c0.11-0.013,0.22,0.023,0.3,0.1l1.1,0.3l1.4,0.5l10.8,3.4
		c0.788,0.255,1.634-0.177,1.889-0.965c0.004-0.012,0.007-0.023,0.011-0.035v-0.2l2.3-12.6c0.444-2.336,2.197-4.207,4.5-4.8l7.6-1.8
		c0.1,0,0.1,0,0.2-0.1c0.709-0.503,0.886-1.48,0.4-2.2c-0.124-0.241-0.34-0.422-0.6-0.5c-3.289-1.598-4.659-5.559-3.062-8.847
		s5.559-4.659,8.847-3.062c0.072,0.035,0.144,0.071,0.214,0.109c1.299,0.649,2.351,1.701,3,3c0,0.1,0.1,0.1,0.1,0.2
		c1.474,3.316-0.02,7.198-3.336,8.672c-0.021,0.009-0.043,0.019-0.064,0.028c-0.055,0-0.1,0.045-0.1,0.1l0,0
		c-0.573,0.638-0.528,1.617,0.1,2.2c0.196,0.191,0.437,0.328,0.7,0.4l10.2,2.4c0.534,0.116,0.936,0.557,1,1.1l2.9,15.6
		c0.153,0.82,0.941,1.361,1.761,1.208c0.013-0.002,0.026-0.005,0.039-0.008h0.2l11.5-3.6l1.4-0.5l1.2-0.4c0.1,0,0.3,0,0.3,0.2l0,0
		c0,0.055,0.045,0.1,0.1,0.1l0,0c0.362,0.173,0.622,0.506,0.7,0.9l0.1,0.2l0,0C358.83,488.4,358.83,488.8,358.63,489.1L358.63,489.1
		z M289,484.2c-1.055,0.533-1.848,1.471-2.2,2.6l-0.1,0.2c-0.115,0.356-0.182,0.726-0.2,1.1c-0.71-0.458-1.213-1.176-1.4-2
		l-5.1-28.4c-0.18-0.819-0.975-1.349-1.8-1.2c-0.366,0.077-0.688,0.292-0.9,0.6c-0.125,0.137-0.197,0.315-0.2,0.5V537
		c-0.021,0.82-0.68,1.479-1.5,1.5h-7.3c-1.657,0-3-1.343-3-3v-27.7c0.021-1.816-1.229-3.399-3-3.8
		c-2.041-0.488-4.092,0.77-4.58,2.811c-0.007,0.029-0.014,0.059-0.02,0.089c-0.077,0.259-0.11,0.53-0.1,0.8v27.8
		c0,1.657-1.343,3-3,3h-7.8c-0.82-0.021-1.479-0.68-1.5-1.5v-79.2c-0.021-0.212-0.089-0.418-0.2-0.6
		c-0.554-0.659-1.536-0.748-2.2-0.2c-0.312,0.192-0.502,0.533-0.5,0.9l-5.1,28.4c-0.303,1.54-1.742,2.586-3.3,2.4l-0.7-0.1
		c-0.185-0.003-0.363-0.075-0.5-0.2c-1.261-0.575-1.964-1.939-1.7-3.3l7.1-38.7c0.675-3.795,3.546-6.824,7.3-7.7l10.6-2.5
		c0.827-0.219,1.321-1.068,1.101-1.895c0-0.002-0.001-0.003-0.001-0.005l-0.3-0.6c-0.1-0.1-0.2-0.2-0.3-0.2
		c-5.247-2.47-7.498-8.725-5.028-13.972c1.736-3.689,5.451-6.039,9.528-6.028h0.7c5.793,0.44,10.133,5.494,9.692,11.287
		c-0.287,3.77-2.574,7.097-5.992,8.713c-0.1,0.1-0.2,0.1-0.3,0.2c-0.493,0.68-0.407,1.62,0.2,2.2l0.6,0.3l13.7,3.3
		c1.86,0.419,3.282,1.92,3.6,3.8l7.5,40.5C290.174,483.759,289.55,483.898,289,484.2L289,484.2z M422.4,484.4l-7.2-38.7
		c-1.025-5.527-5.225-9.924-10.7-11.2l-4.9-1.2c5.1-6.528,3.943-15.955-2.586-21.055c-2.362-1.846-5.224-2.941-8.214-3.145h-1.1
		c-8.307,0.039-15.017,6.793-15,15.1c0.018,3.32,1.105,6.546,3.1,9.2l-4.9,1.2c-5.475,1.276-9.675,5.673-10.7,11.2l-6.9,37.6
		l-8.1,2.5l-1.7-9.2c-0.763-4.084-3.859-7.336-7.9-8.3l-1.9-0.5c3.057-5.275,1.267-12.03-4-15.1c-1.667-0.982-3.566-1.5-5.5-1.5
		h-0.7c-6.064,0.374-10.676,5.592-10.303,11.656c0.001,0.015,0.002,0.03,0.003,0.044c0.083,1.702,0.599,3.354,1.5,4.8l-1.9,0.5
		c-4.023,0.996-7.104,4.233-7.9,8.3l-1.7,9.2l-7.3-2.3l-7-37.8c-1.025-5.527-5.225-9.924-10.7-11.2l-4.9-1.2
		c5.1-6.528,3.943-15.955-2.586-21.055c-2.362-1.846-5.224-2.941-8.214-3.145h-1.1c-4.672-0.005-9.076,2.179-11.9,5.9
		c-1.523,1.949-2.522,4.256-2.9,6.7c-0.676,4.148,0.411,8.389,3,11.7l-4.9,1.2c-5.475,1.276-9.675,5.673-10.7,11.2l-7.1,38.7
		c-0.796,3.986,1.79,7.863,5.776,8.659c0.074,0.015,0.149,0.029,0.224,0.041c0.2,0,0.3,0.1,0.5,0.1h0.3c0.3,0,0.6,0.1,0.9,0.1
		c2.718-0.01,5.213-1.506,6.5-3.9v46.2c-0.006,4.137,3.343,7.494,7.48,7.5c0.007,0,0.013,0,0.02,0h5.4
		c2.954-0.022,5.634-1.731,6.9-4.4c1.225,2.705,3.931,4.43,6.9,4.4h6.2c4.137,0.006,7.494-3.343,7.5-7.48c0-0.007,0-0.013,0-0.02
		l0,0v-46.2c1.161,2.125,3.292,3.545,5.7,3.8c0.609,0.463,1.283,0.833,2,1.1l20.3,6.3V537c0,3.314,2.686,6,6,6h3.8
		c1.762-0.017,3.433-0.78,4.6-2.1c1.154,1.337,2.834,2.104,4.6,2.1h4.1c3.314,0,6-2.686,6-6l0,0v-36.5l20.2-6.3
		c0.654-0.177,1.266-0.483,1.8-0.9h0.2l-1.6,8.7c-0.204,1.074-0.1,2.183,0.3,3.2c0.83,1.906,2.722,3.128,4.8,3.1h2.7v27.2
		c-0.006,4.137,3.343,7.494,7.48,7.5c0.007,0,0.013,0,0.02,0h6.2c2.936,0.001,5.598-1.722,6.8-4.4c1.202,2.678,3.864,4.401,6.8,4.4
		h6.1c4.137,0.006,7.494-3.343,7.5-7.48c0-0.007,0-0.013,0-0.02v-27.2h2.7c1.099,0.01,2.177-0.303,3.1-0.9
		c1.724-1.171,2.588-3.253,2.2-5.3l-1.6-8.9l1.5-0.2c4.109-0.535,7.013-4.289,6.5-8.4C422.4,484.6,422.4,484.5,422.4,484.4
		L422.4,484.4z"/>
	<path class="st4" d="M220.33,487.4c-0.486,0.693-1.256,1.133-2.1,1.2l-3.2,0.4l-5.7-31.2c-0.18-0.819-0.975-1.349-1.8-1.2
		c-0.726,0.117-1.245,0.766-1.2,1.5v0.3l8.2,44.6c0.028,0.22-0.046,0.441-0.2,0.6c-0.137,0.194-0.362,0.307-0.6,0.3h-6
		c-0.82,0.021-1.479,0.68-1.5,1.5l0,0v30.2c0,1.657-1.343,3-3,3H197c-1.657,0-3-1.343-3-3V506c-0.011-1.211-0.989-2.189-2.2-2.2
		h-5.1c-0.148-0.018-0.282,0.088-0.3,0.236c-0.003,0.021-0.003,0.043,0,0.064l0,0V538c-0.015,0.215-0.185,0.385-0.4,0.4h-11.3
		c-0.215-0.015-0.385-0.185-0.4-0.4v-34c-0.009-0.106-0.094-0.191-0.2-0.2H167c-0.232-0.015-0.449-0.123-0.6-0.3
		c-0.111-0.182-0.179-0.388-0.2-0.6l2.2-12l0,0l6-32.6c0.133-0.8-0.402-1.558-1.2-1.7l0,0c-0.825-0.149-1.62,0.381-1.8,1.2
		l-5.7,31.2l-3.8-0.5h-0.2c-1.383-0.512-2.188-1.954-1.9-3.4l7.3-38.7c0.717-3.809,3.622-6.833,7.4-7.7l10.8-2.5
		c0.827-0.219,1.321-1.068,1.101-1.895c0-0.002-0.001-0.003-0.001-0.005c-0.072-0.263-0.209-0.504-0.4-0.7l-0.1-0.1
		c-5.299-2.368-7.676-8.584-5.307-13.884c0.002-0.005,0.005-0.011,0.007-0.016l0,0c0-0.1,0.1-0.1,0.1-0.2
		c2.672-5.308,9.14-7.446,14.449-4.774c3.236,1.629,5.435,4.776,5.851,8.374c0.384,4.489-2.099,8.734-6.2,10.6
		c-0.055,0-0.1,0.045-0.1,0.1l0,0c-0.582,0.581-0.583,1.525-0.002,2.107c0.032,0.033,0.066,0.063,0.102,0.093
		c0.196,0.191,0.437,0.328,0.7,0.4l10.8,2.5c3.778,0.867,6.683,3.891,7.4,7.7l7.3,38.7c0,0.788-0.245,1.557-0.7,2.2H220.33z
		 M224.63,484.4l-7.2-38.7c-1.025-5.527-5.225-9.924-10.7-11.2l-4.9-1.2c5.085-6.54,3.906-15.964-2.634-21.049
		c-0.022-0.017-0.044-0.034-0.066-0.051c-2.373-1.811-5.223-2.888-8.2-3.1h-1.1c-8.284,0-15,6.716-15,15
		c-0.01,3.341,1.119,6.586,3.2,9.2l-4.9,1.2c-5.475,1.276-9.675,5.673-10.7,11.2l-7.2,38.7c-0.796,3.986,1.79,7.863,5.776,8.659
		c0.074,0.015,0.149,0.029,0.224,0.041c0.1,0,0.3,0.1,0.4,0.1l1.5,0.2l-1.6,8.8c-0.204,1.074-0.1,2.183,0.3,3.2
		c0.83,1.906,2.722,3.128,4.8,3.1h2.7v27.2c-0.006,4.137,3.343,7.494,7.48,7.5c0.007,0,0.013,0,0.02,0h6.1
		c2.936,0.001,5.598-1.722,6.8-4.4c1.202,2.678,3.864,4.401,6.8,4.4h6.1c4.137,0.006,7.494-3.343,7.5-7.48c0-0.007,0-0.013,0-0.02
		l0,0v-27.2h2.8c2.814,0.11,5.186-2.082,5.296-4.896c0.003-0.068,0.004-0.136,0.004-0.204c0.016-0.37-0.017-0.74-0.1-1.1l-1.6-8.9
		l1.5-0.2c4.08-0.488,6.992-4.191,6.504-8.271c-0.001-0.01-0.002-0.019-0.004-0.029C224.73,484.6,224.73,484.5,224.63,484.4
		L224.63,484.4z"/>
	<path class="st4" d="M660.33,498.2c-0.269,0.292-0.616,0.5-1,0.6l-1.7,0.2l-3.7-19.1c-0.138-0.801-0.899-1.338-1.7-1.2
		s-1.338,0.899-1.2,1.7l0,0l5.4,27.9h-3.9c-0.406-0.021-0.803,0.123-1.1,0.4c-0.274,0.258-0.42,0.624-0.4,1v18.9
		c-0.027,0.8-0.698,1.427-1.498,1.4c-0.001,0-0.001,0-0.002,0h-4.1c-0.8,0.028-1.472-0.598-1.5-1.398c0-0.001,0-0.001,0-0.002v-17.5
		c-0.054-1.601-1.396-2.854-2.997-2.8c-0.001,0-0.002,0-0.003,0h-2.4c-0.356-0.018-0.663,0.246-0.7,0.6v20.7
		c-0.01,0.161-0.139,0.29-0.3,0.3H631c-0.148,0.018-0.282-0.088-0.3-0.236c-0.003-0.021-0.003-0.043,0-0.064v-20
		c-0.027-0.367-0.167-0.716-0.4-1c-0.297-0.277-0.694-0.421-1.1-0.4h-3.8l5.4-27.9c0.2-1.2-1.2-2.3-2.7-1.2
		c-0.1,0.1-0.1,0.1-0.1,0.2l-2.1,10.7l-15.6-4.6l-2.2-0.6l-0.5-0.1c-0.376-0.115-0.696-0.364-0.9-0.7c-0.1-0.1-0.1-0.2-0.1-0.4v-0.7
		l0.1-0.4c0-0.055,0.045-0.1,0.1-0.1c0.398-0.581,1.133-0.826,1.8-0.6l1.1,0.3l1.4,0.4l1.4,0.4l9.2,2.7
		c0.398,0.117,0.826,0.081,1.2-0.1c0.362-0.173,0.622-0.506,0.7-0.9L626,473c0.516-2.386,2.404-4.235,4.8-4.7l6.9-1.5
		c0.737-0.11,1.246-0.798,1.135-1.535c-0.008-0.056-0.02-0.111-0.035-0.165c-0.072-0.263-0.209-0.504-0.4-0.7
		c-0.054-0.054-0.124-0.089-0.2-0.1c-2.39-0.921-3.949-3.239-3.9-5.8c0.197-3.267,2.83-5.857,6.1-6c2.609-0.189,5.082,1.185,6.3,3.5
		c0,0.1,0.1,0.1,0.1,0.2c1.372,3.016,0.039,6.574-2.977,7.946c-0.041,0.018-0.082,0.037-0.123,0.054c-0.1,0-0.2,0.1-0.3,0.1
		c-0.055,0-0.1,0.045-0.1,0.1c-0.5,0.573-0.5,1.427,0,2c0.196,0.191,0.437,0.328,0.7,0.4l7,1.6c2.396,0.465,4.284,2.314,4.8,4.7
		l4.7,24.1c0.081,0.347,0.008,0.711-0.2,1H660.33z M604.63,482.1l-5.3-26.8c-0.17-0.77-0.928-1.261-1.7-1.1
		c-0.694,0.1-1.207,0.699-1.2,1.4v0.2l8.1,41.3c0.028,0.22-0.046,0.441-0.2,0.6c-0.122,0.208-0.378,0.293-0.6,0.2h-6
		c-0.8-0.028-1.472,0.598-1.5,1.398c0,0.001,0,0.001,0,0.002v27.9c-0.105,1.578-1.418,2.804-3,2.8H587
		c-1.601,0.056-2.944-1.196-3-2.797c0-0.001,0-0.002,0-0.003v-27.3c-0.022-1.182-0.997-2.122-2.179-2.1c-0.007,0-0.014,0-0.021,0h-5
		c-0.148-0.018-0.282,0.088-0.3,0.236c-0.003,0.021-0.003,0.043,0,0.064v31.4c-0.015,0.215-0.185,0.385-0.4,0.4h-11.2
		c-0.215-0.015-0.385-0.185-0.4-0.4V498c-0.009-0.106-0.094-0.191-0.2-0.2h-7c-0.388,0.053-0.747-0.218-0.8-0.607
		c-0.009-0.064-0.009-0.129,0-0.193l2.2-11.1l0,0l5.9-30.2c0.127-0.752-0.38-1.464-1.131-1.59c-0.023-0.004-0.046-0.007-0.069-0.01
		h-0.1c-0.718-0.202-1.463,0.217-1.665,0.935c-0.015,0.054-0.027,0.109-0.035,0.165l-5.7,28.9l-2.1-0.2
		c0.802-1.13,1.092-2.545,0.8-3.9l-2.2-10.9l5.9-29.3c0.139-0.54,0.56-0.961,1.1-1.1l16-3.5c0.712-0.09,1.217-0.74,1.127-1.452
		c-0.006-0.05-0.015-0.099-0.027-0.148c0-0.3-0.2-0.5-0.4-0.8l-0.1-0.1c-5.1-2.2-7.7-7.6-5.3-12.9c0-0.1,0.1-0.1,0.1-0.2
		c2.113-3.689,6.162-5.83,10.4-5.5c5.1,0.3,9.3,4.1,9.8,8.8c0.416,4.27-2.085,8.288-6.1,9.8c-0.055,0-0.1,0.045-0.1,0.1
		c-0.552,0.493-0.601,1.34-0.108,1.892c0.034,0.038,0.07,0.074,0.108,0.108c0.207,0.229,0.493,0.372,0.8,0.4l10.7,2.3
		c3.631,0.738,6.512,3.502,7.4,7.1l7,34.9l-0.4-0.1c-2.305-0.618-4.718,0.525-5.7,2.7L604.63,482.1z M551.33,482.7l-0.5,0.5
		c-0.2,0.1-0.3,0.3-0.5,0.3s-0.7,0.2-1,0.3h-1.1c-1.163-0.198-2.102-1.059-2.4-2.2l-5.1-26.3c-0.242-0.812-1.075-1.294-1.9-1.1
		c-0.3,0.106-0.573,0.277-0.8,0.5c-0.125,0.137-0.197,0.315-0.2,0.5v73.4c-0.027,0.8-0.698,1.427-1.498,1.4
		c-0.001,0-0.001,0-0.002,0H529c-1.601,0.056-2.944-1.196-3-2.797c0-0.001,0-0.002,0-0.003v-25.7c0.009-1.715-1.213-3.19-2.9-3.5
		c-1.981-0.501-3.993,0.698-4.495,2.679c-0.002,0.007-0.004,0.014-0.005,0.021c-0.082,0.224-0.116,0.462-0.1,0.7v25.8
		c-0.105,1.578-1.418,2.804-3,2.8h-7.7c-0.787-0.008-1.438-0.615-1.5-1.4v-73.4c0.004-0.21-0.113-0.404-0.3-0.5
		c-0.583-0.628-1.562-0.673-2.2-0.1c-0.223,0.227-0.394,0.5-0.5,0.8l-5.1,26.3c0,0.1-0.1,0.2-0.1,0.4
		c-0.778-1.714-2.52-2.783-4.4-2.7c-0.237-0.009-0.474,0.025-0.7,0.1l-0.8,0.2l6.9-34.8c0.77-3.59,3.599-6.38,7.2-7.1l10.5-2.3
		c0.712-0.09,1.217-0.74,1.127-1.452c-0.006-0.05-0.015-0.099-0.027-0.148c0.007-0.238-0.106-0.463-0.3-0.6
		c-0.1-0.1-0.2-0.2-0.3-0.2c-3.579-1.454-5.914-4.937-5.9-8.8c0-5.4,4.7-9.7,10.4-9.7h0.7c4.921,0.191,8.983,3.914,9.6,8.8
		c0.398,4.183-2.003,8.129-5.9,9.7c-0.1,0-0.2,0.1-0.3,0.2c-0.492,0.609-0.403,1.501,0.2,2c0.151,0.177,0.368,0.285,0.6,0.3
		l10.5,2.3c3.601,0.72,6.43,3.51,7.2,7.1l4.8,24.4l0.8,3.8l0.8,3.8l0.8,3.8c0.345,0.628,0.222,1.409-0.3,1.9L551.33,482.7z
		 M495.83,483.9c0,0.2-0.1,0.3-0.2,0.5c-0.204,0.336-0.524,0.585-0.9,0.7l-0.4,0.1l-2.2,0.6l-17.6,5.1v-10.3
		c-0.006-0.63-0.406-1.19-1-1.4c-0.747-0.289-1.587,0.083-1.875,0.83c-0.009,0.023-0.017,0.046-0.025,0.07c0,0.1-0.1,0.3-0.1,0.4v48
		c-0.027,0.8-0.698,1.427-1.498,1.4c-0.001,0-0.001,0-0.002,0h-4.1c-0.8,0.028-1.472-0.598-1.5-1.398c0-0.001,0-0.001,0-0.002v-17.2
		c0.018-1.369-0.954-2.552-2.3-2.8c-1.6-0.377-3.205,0.604-3.6,2.2c0,0.2-0.1,0.4-0.1,0.6v17.3c-0.027,0.8-0.698,1.427-1.498,1.4
		c-0.001,0-0.001,0-0.002,0h-5.3c-0.148,0.018-0.282-0.088-0.3-0.236c-0.003-0.021-0.003-0.043,0-0.064v-49.6c0-0.1,0-0.2-0.1-0.2
		c-0.503-0.709-1.48-0.886-2.2-0.4c-0.308,0.212-0.523,0.534-0.6,0.9L445,498c-0.196,0.706-0.87,1.17-1.6,1.1l-0.5-0.1h-0.1
		c-0.666-0.224-1.055-0.915-0.9-1.6l4.8-23.8c0.516-2.386,2.404-4.235,4.8-4.7l7.3-1.6c0.1,0,0.1,0,0.2-0.1
		c0.644-0.4,0.864-1.234,0.5-1.9c-0.151-0.218-0.359-0.39-0.6-0.5c-3.021-1.286-4.448-4.762-3.2-7.8c0-0.1,0-0.1,0.1-0.2
		s0.1-0.1,0.1-0.2c1.266-2.256,3.719-3.58,6.3-3.4c3.252,0.097,5.895,2.653,6.1,5.9c0.019,2.528-1.537,4.802-3.9,5.7
		c-0.055,0-0.1,0.045-0.1,0.1l0,0c-0.5,0.573-0.5,1.427,0,2c0.21,0.17,0.447,0.305,0.7,0.4l7,1.5c2.379,0.498,4.252,2.332,4.8,4.7
		l2.3,11.4c0.078,0.394,0.338,0.727,0.7,0.9c0.359,0.229,0.808,0.267,1.2,0.1l9.2-2.7l1.4-0.4l1.4-0.4l1.1-0.3
		c0.666-0.179,1.375,0.057,1.8,0.6c0,0.055,0.045,0.1,0.1,0.1l0,0l0.1,0.4c-0.207,0.171-0.319,0.432-0.3,0.7L495.83,483.9
		L495.83,483.9z M664.93,496.4l-4.7-24.1c-0.871-4.039-4.051-7.179-8.1-8l-1.7-0.4c0.991-1.552,1.512-3.358,1.5-5.2
		c0-5.7-4.9-10.3-11-10.3h-0.7c-5.666-0.022-10.277,4.554-10.299,10.221c-0.007,1.897,0.512,3.759,1.499,5.379l-1.7,0.4
		c-4.051,0.819-7.231,3.96-8.1,8l-1.7,8.4l-5.5-1.6l-7-35.8c-1.129-5.297-5.292-9.421-10.6-10.5l-4.8-1.1
		c2.291-2.766,3.404-6.321,3.1-9.9c-0.7-6.8-6.6-12.2-13.8-12.7h-1.1c-5.086-0.024-9.849,2.489-12.7,6.7
		c-0.807,1.145-1.384,2.435-1.7,3.8c-1.144,4.264-0.136,8.817,2.7,12.2l-4.9,1.1c-5.273,1.088-9.427,5.152-10.63,10.4l-2,10.1l-2-10
		c-1.129-5.297-5.292-9.421-10.6-10.5l-4.8-1.1c2.291-2.766,3.404-6.321,3.1-9.9c-0.7-6.8-6.6-12.2-13.8-12.7h-1.1
		c-5.086-0.024-9.849,2.489-12.7,6.7c-0.807,1.145-1.384,2.435-1.7,3.8c-1.144,4.264-0.136,8.817,2.7,12.2l-4.8,1.1
		c-5.308,1.079-9.471,5.203-10.6,10.5l-7,35.8l-5.5,1.6l-1.7-8.4c-0.901-4.022-4.067-7.149-8.1-8l-1.7-0.4
		c1.007-1.656,1.526-3.562,1.5-5.5c-0.1-5.3-4.7-9.7-10.3-10h-0.7c-3.721-0.011-7.205,1.824-9.3,4.9c-0.634,0.901-1.076,1.922-1.3,3
		c-0.672,2.59-0.237,5.343,1.2,7.6l-1.7,0.4c-4.033,0.851-7.199,3.978-8.1,8l-4.7,24.1c-0.299,1.526,0.105,3.105,1.1,4.3
		c0.986,1.29,2.48,2.092,4.1,2.2h0.9c1.209,0.024,2.396-0.326,3.4-1v26.7c0.108,3.146,2.747,5.609,5.893,5.5
		c0.002,0,0.005,0,0.007,0h4.5c1.693-0.009,3.313-0.693,4.5-1.9c1.187,1.207,2.807,1.891,4.5,1.9h4
		c3.146,0.112,5.787-2.347,5.9-5.493c0-0.002,0-0.005,0-0.007v-33.8l19.8-5.9c1.004-0.335,1.924-0.881,2.7-1.6
		c1.377-0.596,2.532-1.611,3.3-2.9v48c0.038,0.962,0.838,1.717,1.8,1.7h11.6c2.805,0.023,5.389-1.52,6.7-4
		c1.279,2.51,3.884,4.065,6.7,4h11.6c0.943,0.05,1.748-0.674,1.798-1.618c0.001-0.027,0.002-0.055,0.002-0.082v-48
		c1.39,2.252,3.853,3.617,6.5,3.6h1.2c0.806-0.3,1.694-0.3,2.5,0l1.5,0.2l-1.7,8.9v0.4c0.208,2.741,2.554,4.821,5.3,4.7h2.5v25.2
		c0.101,3.914,3.356,7.006,7.271,6.905c0.043-0.001,0.086-0.003,0.129-0.005h6.1c2.805,0.023,5.389-1.52,6.7-4
		c1.279,2.51,3.884,4.065,6.7,4h6.1c3.948,0.135,7.259-2.953,7.4-6.9v-25.2h2.6c1.226,0.035,2.427-0.353,3.4-1.1
		c1.424-1.068,2.122-2.849,1.8-4.6l-1.4-7.1l16.5,4.8l-2.8,14.2c-0.282,1.416,0.413,2.846,1.7,3.5c0.62,0.318,1.304,0.489,2,0.5h2.4
		v16c0.013,1.219,0.396,2.405,1.1,3.4c1.167,1.512,2.991,2.369,4.9,2.3h3.7c1.744,0,3.41-0.724,4.6-2c1.178,1.292,2.852,2.02,4.6,2
		h4.1c1.55,0.005,3.046-0.565,4.2-1.6c1.098-1.039,1.714-2.488,1.7-4v-16.1h1.6c0.696-0.011,1.38-0.182,2-0.5
		c1.296-0.697,1.985-2.157,1.7-3.6l-1-5.4c1.594-0.194,3.057-0.979,4.1-2.2c0.968-1.324,1.365-2.981,1.1-4.6L664.93,496.4z"/>
	<path class="st5" d="M593.23,31.5H650c6.627,0,12,5.373,12,12v56.8c0,6.627-5.373,12-12,12h-56.8c-6.627,0-12-5.373-12-12V43.5
		c0-6.627,5.373-12,12-12C593.21,31.5,593.22,31.5,593.23,31.5z"/>
	<rect x="666.53" y="40" class="st0" width="14" height="5"/>
	<rect x="666.53" y="51" class="st0" width="14" height="5"/>
	<rect x="666.53" y="62.9" class="st0" width="14" height="5"/>
	<rect x="666.53" y="74.9" class="st0" width="14" height="5"/>
	<rect x="666.53" y="85.9" class="st0" width="14" height="5"/>
	<rect x="666.53" y="97.9" class="st0" width="14" height="5"/>
	<rect x="648.63" y="117.8" class="st0" width="5" height="14"/>
	<rect x="637.63" y="117.8" class="st0" width="5" height="14"/>
	<rect x="625.63" y="117.8" class="st0" width="5" height="14"/>
	<rect x="613.73" y="117.8" class="st0" width="5" height="14"/>
	<rect x="602.73" y="117.8" class="st0" width="5" height="14"/>
	<rect x="590.73" y="117.8" class="st0" width="5" height="14"/>
	<rect x="560.83" y="98.9" class="st0" width="14" height="5"/>
	<rect x="560.83" y="87.9" class="st0" width="14" height="5"/>
	<rect x="560.83" y="75.9" class="st0" width="14" height="5"/>
	<rect x="560.83" y="63.9" class="st0" width="14" height="5"/>
	<rect x="560.83" y="53" class="st0" width="14" height="5"/>
	<rect x="560.83" y="41" class="st0" width="14" height="5"/>
	<g class="st2">
		<path d="M605.48,71.596l4.494,1.358c-0.301,1.261-0.777,2.314-1.426,3.159c-0.649,0.846-1.455,1.483-2.418,1.914
			s-2.188,0.646-3.674,0.646c-1.805,0-3.278-0.263-4.422-0.786c-1.145-0.524-2.131-1.447-2.961-2.767
			c-0.831-1.32-1.246-3.011-1.246-5.07c0-2.746,0.73-4.856,2.191-6.331s3.527-2.212,6.199-2.212c2.091,0,3.734,0.423,4.932,1.268
			c1.196,0.846,2.085,2.145,2.666,3.896l-4.529,1.008c-0.158-0.506-0.324-0.875-0.498-1.109c-0.287-0.393-0.638-0.694-1.053-0.906
			c-0.416-0.211-0.88-0.316-1.393-0.316c-1.163,0-2.054,0.467-2.673,1.402c-0.468,0.693-0.702,1.783-0.702,3.268
			c0,1.841,0.279,3.102,0.838,3.783c0.559,0.683,1.344,1.024,2.355,1.024c0.981,0,1.723-0.276,2.225-0.827
			S605.254,72.646,605.48,71.596z"/>
		<path d="M612.443,61.791h8.527c1.856,0,3.248,0.441,4.172,1.324c0.925,0.884,1.387,2.141,1.387,3.771
			c0,1.677-0.503,2.986-1.511,3.93s-2.546,1.415-4.614,1.415h-2.809v6.16h-5.152V61.791z M617.596,68.868h1.258
			c0.988,0,1.683-0.172,2.083-0.516c0.399-0.344,0.601-0.783,0.601-1.319c0-0.521-0.174-0.962-0.521-1.324s-1-0.544-1.959-0.544
			h-1.461V68.868z"/>
		<path d="M640.016,61.791h5.119v9.89c0,0.98-0.153,1.907-0.459,2.778c-0.307,0.871-0.785,1.633-1.438,2.285
			c-0.653,0.653-1.338,1.111-2.056,1.375c-0.996,0.37-2.192,0.555-3.589,0.555c-0.808,0-1.688-0.057-2.644-0.17
			s-1.754-0.338-2.395-0.673c-0.643-0.336-1.229-0.813-1.762-1.432c-0.531-0.618-0.896-1.256-1.092-1.912
			c-0.318-1.057-0.477-1.992-0.477-2.807v-9.89h5.119v10.125c0,0.905,0.25,1.612,0.752,2.121c0.502,0.51,1.199,0.764,2.09,0.764
			c0.883,0,1.575-0.25,2.078-0.752c0.502-0.502,0.752-1.213,0.752-2.133V61.791z"/>
	</g>
	<path class="st5" d="M762.73,18.5h56.8c6.627,0,12,5.373,12,12l0,0v56.8c0,6.627-5.373,12-12,12h-56.8c-6.627,0-12-5.373-12-12
		V30.5C750.73,23.873,756.103,18.5,762.73,18.5z"/>
	<rect x="836.03" y="26.9" class="st0" width="14" height="5"/>
	<rect x="836.03" y="37.9" class="st0" width="14" height="5"/>
	<rect x="836.03" y="49.9" class="st0" width="14" height="5"/>
	<rect x="836.03" y="61.9" class="st0" width="14" height="5"/>
	<rect x="836.03" y="72.9" class="st0" width="14" height="5"/>
	<rect x="836.03" y="84.8" class="st0" width="14" height="5"/>
	<rect x="818.03" y="104.8" class="st0" width="5" height="14"/>
	<rect x="807.13" y="104.8" class="st0" width="5" height="14"/>
	<rect x="795.13" y="104.8" class="st0" width="5" height="14"/>
	<rect x="783.13" y="104.8" class="st0" width="5" height="14"/>
	<rect x="772.13" y="104.8" class="st0" width="5" height="14"/>
	<rect x="760.23" y="104.8" class="st0" width="5" height="14"/>
	<rect x="730.23" y="85.8" class="st0" width="14" height="5"/>
	<rect x="730.23" y="74.9" class="st0" width="14" height="5"/>
	<rect x="730.23" y="62.9" class="st0" width="14" height="5"/>
	<rect x="730.23" y="50.9" class="st0" width="14" height="5"/>
	<rect x="730.23" y="39.9" class="st0" width="14" height="5"/>
	<rect x="730.23" y="27.9" class="st0" width="14" height="5"/>
	<path class="st6" d="M689.93,143.1h46.2c6.627,0,12,5.373,12,12v46.2c0,6.627-5.373,12-12,12h-46.2c-6.627,0-12-5.373-12-12v-46.2
		C677.93,148.473,683.303,143.1,689.93,143.1z"/>
	<path class="st7" d="M688,149.2h3.3c2.209,0,4,1.791,4,4v3.3c0,2.209-1.791,4-4,4H688c-2.209,0-4-1.791-4-4v-3.3
		C684,150.991,685.791,149.2,688,149.2z"/>
	<path class="st7" d="M703.63,149.2h3.3c2.209,0,4,1.791,4,4v3.3c0,2.209-1.791,4-4,4h-3.3c-2.209,0-4-1.791-4-4v-3.3
		C699.63,150.991,701.421,149.2,703.63,149.2z"/>
	<path class="st7" d="M719.23,149.2h3.3c2.209,0,4,1.791,4,4v3.3c0,2.209-1.791,4-4,4h-3.3c-2.209,0-4-1.791-4-4v-3.3
		C715.23,150.991,717.021,149.2,719.23,149.2z"/>
	<path class="st7" d="M734.73,149.2H738c2.209,0,4,1.791,4,4v3.3c0,2.209-1.791,4-4,4h-3.3c-2.209,0-4-1.791-4-4v-3.3
		c0-2.209,1.791-4,4-4C734.71,149.2,734.72,149.2,734.73,149.2z"/>
	<path class="st7" d="M688,164.8h3.3c2.209,0,4,1.791,4,4v3.3c0,2.209-1.791,4-4,4H688c-2.209,0-4-1.791-4-4v-3.3
		C684,166.591,685.791,164.8,688,164.8z"/>
	<path class="st7" d="M703.63,164.8h3.3c2.209,0,4,1.791,4,4v3.3c0,2.209-1.791,4-4,4h-3.3c-2.209,0-4-1.791-4-4v-3.3
		C699.63,166.591,701.421,164.8,703.63,164.8z"/>
	<path class="st7" d="M719.23,164.8h3.3c2.209,0,4,1.791,4,4v3.3c0,2.209-1.791,4-4,4h-3.3c-2.209,0-4-1.791-4-4v-3.3
		C715.23,166.591,717.021,164.8,719.23,164.8z"/>
	<path class="st7" d="M734.73,164.8H738c2.209,0,4,1.791,4,4v3.3c0,2.209-1.791,4-4,4h-3.3c-2.209,0-4-1.791-4-4v-3.3
		c0-2.209,1.791-4,4-4C734.71,164.8,734.72,164.8,734.73,164.8z"/>
	<path class="st7" d="M688,180.4h3.3c2.209,0,4,1.791,4,4v3.3c0,2.209-1.791,4-4,4H688c-2.209,0-4-1.791-4-4v-3.3
		C684,182.191,685.791,180.4,688,180.4z"/>
	<path class="st7" d="M703.63,180.4h3.3c2.209,0,4,1.791,4,4v3.3c0,2.209-1.791,4-4,4h-3.3c-2.209,0-4-1.791-4-4v-3.3
		C699.63,182.191,701.421,180.4,703.63,180.4z"/>
	<path class="st7" d="M719.23,180.4h3.3c2.209,0,4,1.791,4,4v3.3c0,2.209-1.791,4-4,4h-3.3c-2.209,0-4-1.791-4-4v-3.3
		C715.23,182.191,717.021,180.4,719.23,180.4z"/>
	<path class="st7" d="M734.73,180.4H738c2.209,0,4,1.791,4,4v3.3c0,2.209-1.791,4-4,4h-3.3c-2.209,0-4-1.791-4-4v-3.3
		c0-2.209,1.791-4,4-4C734.71,180.4,734.72,180.4,734.73,180.4z"/>
	<path class="st7" d="M688,196h3.3c2.209,0,4,1.791,4,4v3.3c0,2.209-1.791,4-4,4H688c-2.209,0-4-1.791-4-4V200
		C684,197.791,685.791,196,688,196z"/>
	<path class="st7" d="M703.63,196h3.3c2.209,0,4,1.791,4,4v3.3c0,2.209-1.791,4-4,4h-3.3c-2.209,0-4-1.791-4-4V200
		C699.63,197.791,701.421,196,703.63,196z"/>
	<path class="st7" d="M719.23,196h3.3c2.209,0,4,1.791,4,4v3.3c0,2.209-1.791,4-4,4h-3.3c-2.209,0-4-1.791-4-4V200
		c-0.062-2.148,1.629-3.938,3.777-4C719.081,195.998,719.156,195.998,719.23,196z"/>
	<path class="st7" d="M734.73,196H738c2.209,0,4,1.791,4,4v3.3c0,2.209-1.791,4-4,4h-3.3c-2.209,0-4-1.791-4-4V200
		c0-2.209,1.791-4,4-4C734.71,196,734.72,196,734.73,196z"/>
	<rect x="685.33" y="127.1" class="st0" width="4.3" height="12.1"/>
	<rect x="694.83" y="127.1" class="st0" width="4.3" height="12.1"/>
	<rect x="705.23" y="127.1" class="st0" width="4.3" height="12.1"/>
	<rect x="715.63" y="127.1" class="st0" width="4.3" height="12.1"/>
	<rect x="725.13" y="127.1" class="st0" width="4.3" height="12.1"/>
	<rect x="735.53" y="127.1" class="st0" width="4.3" height="12.1"/>
	<rect x="752.03" y="150.5" class="st0" width="12.1" height="4.3"/>
	<rect x="752.03" y="160" class="st0" width="12.1" height="4.3"/>
	<rect x="752.03" y="170.4" class="st0" width="12.1" height="4.3"/>
	<rect x="752.03" y="180.8" class="st0" width="12.1" height="4.3"/>
	<rect x="752.03" y="190.3" class="st0" width="12.1" height="4.3"/>
	<rect x="752.03" y="200.7" class="st0" width="12.1" height="4.3"/>
	<rect x="736.43" y="218" class="st0" width="4.3" height="12.1"/>
	<rect x="726.83" y="218" class="st0" width="4.3" height="12.1"/>
	<rect x="716.53" y="218" class="st0" width="4.3" height="12.1"/>
	<rect x="706.13" y="218" class="st0" width="4.3" height="12.1"/>
	<rect x="696.53" y="218" class="st0" width="4.3" height="12.1"/>
	<rect x="686.13" y="218" class="st0" width="4.3" height="12.1"/>
	<rect x="660.23" y="201.6" class="st0" width="12.1" height="4.3"/>
	<rect x="660.23" y="192.1" class="st0" width="12.1" height="4.3"/>
	<rect x="660.23" y="181.7" class="st0" width="12.1" height="4.3"/>
	<rect x="660.23" y="171.3" class="st0" width="12.1" height="4.3"/>
	<rect x="660.23" y="161.7" class="st0" width="12.1" height="4.3"/>
	<rect x="660.23" y="151.3" class="st0" width="12.1" height="4.3"/>
	<g class="st2">
		<path d="M678.533,234.407h2.478l0.955,3.566l0.949-3.566h2.476v5.862h-1.543v-4.471l-1.188,4.471h-1.396l-1.187-4.471v4.471
			h-1.543V234.407z"/>
		<path d="M691.134,240.27h-1.58v-0.688c-0.235,0.282-0.474,0.483-0.713,0.604c-0.24,0.12-0.535,0.18-0.884,0.18
			c-0.466,0-0.831-0.134-1.096-0.401c-0.266-0.269-0.397-0.681-0.397-1.238v-2.703h1.701v2.336c0,0.267,0.051,0.455,0.153,0.567
			s0.247,0.168,0.433,0.168c0.202,0,0.368-0.074,0.497-0.224s0.193-0.417,0.193-0.804v-2.044h1.692V240.27z"/>
		<path d="M692.22,234.407h1.697v5.862h-1.697V234.407z"/>
		<path d="M697.04,234.407v1.615h0.932v1.191h-0.932v1.505c0,0.181,0.018,0.301,0.054,0.359c0.056,0.091,0.152,0.136,0.291,0.136
			c0.125,0,0.3-0.034,0.524-0.104l0.125,1.123c-0.419,0.088-0.81,0.132-1.173,0.132c-0.422,0-0.732-0.052-0.932-0.155
			c-0.2-0.104-0.348-0.262-0.443-0.474s-0.144-0.555-0.144-1.028v-1.494h-0.624v-1.191h0.624v-0.779L697.04,234.407z"/>
		<path d="M698.841,234.407h1.692v1.107h-1.692V234.407z M698.841,236.022h1.692v4.247h-1.692V236.022z"/>
		<path d="M701.291,237.502h2.462v1.26h-2.462V237.502z"/>
		<path d="M708.622,237.87l1.651,0.479c-0.11,0.445-0.285,0.817-0.523,1.116c-0.239,0.299-0.535,0.523-0.889,0.676
			s-0.803,0.228-1.35,0.228c-0.662,0-1.204-0.092-1.624-0.277s-0.782-0.511-1.087-0.978c-0.306-0.466-0.458-1.062-0.458-1.79
			c0-0.97,0.269-1.715,0.805-2.236c0.537-0.521,1.296-0.781,2.277-0.781c0.768,0,1.372,0.149,1.812,0.448s0.766,0.757,0.979,1.376
			l-1.664,0.355c-0.059-0.179-0.119-0.31-0.183-0.392c-0.105-0.139-0.234-0.245-0.387-0.32c-0.153-0.074-0.323-0.111-0.512-0.111
			c-0.428,0-0.755,0.165-0.981,0.495c-0.172,0.245-0.258,0.63-0.258,1.154c0,0.649,0.103,1.095,0.308,1.336s0.493,0.361,0.865,0.361
			c0.36,0,0.633-0.098,0.816-0.292C708.405,238.523,708.539,238.24,708.622,237.87z"/>
		<path d="M710.869,238.158c0-0.648,0.228-1.182,0.682-1.602c0.455-0.42,1.069-0.63,1.843-0.63c0.885,0,1.553,0.246,2.005,0.739
			c0.363,0.397,0.545,0.887,0.545,1.468c0,0.653-0.226,1.188-0.676,1.605c-0.451,0.418-1.074,0.626-1.87,0.626
			c-0.71,0-1.283-0.173-1.722-0.52C711.138,239.416,710.869,238.854,710.869,238.158z M712.565,238.154
			c0,0.378,0.08,0.658,0.239,0.84c0.16,0.181,0.36,0.271,0.602,0.271c0.244,0,0.444-0.089,0.601-0.268
			c0.157-0.179,0.235-0.466,0.235-0.86c0-0.367-0.079-0.642-0.237-0.821s-0.354-0.271-0.586-0.271c-0.247,0-0.451,0.092-0.612,0.274
			C712.646,237.503,712.565,237.781,712.565,238.154z"/>
	</g>
	<text transform="matrix(1.04 0 0 1 716.0801 240.2695)" class="st8 st9">r</text>
	<g class="st2">
		<path d="M725.396,238.55h-3.394c0.03,0.262,0.104,0.456,0.22,0.584c0.164,0.184,0.378,0.276,0.641,0.276
			c0.167,0,0.325-0.04,0.475-0.12c0.092-0.051,0.189-0.141,0.295-0.269l1.668,0.148c-0.255,0.427-0.562,0.732-0.923,0.918
			c-0.361,0.185-0.878,0.277-1.552,0.277c-0.585,0-1.045-0.079-1.381-0.237c-0.335-0.159-0.613-0.411-0.834-0.756
			c-0.221-0.346-0.33-0.751-0.33-1.218c0-0.664,0.221-1.201,0.663-1.612c0.442-0.41,1.053-0.615,1.832-0.615
			c0.632,0,1.131,0.092,1.497,0.275c0.366,0.185,0.645,0.451,0.836,0.8c0.191,0.35,0.287,0.804,0.287,1.364V238.55z
			 M723.674,237.771c-0.033-0.314-0.121-0.54-0.265-0.676c-0.143-0.137-0.33-0.204-0.563-0.204c-0.269,0-0.483,0.103-0.645,0.308
			c-0.103,0.128-0.168,0.318-0.195,0.572H723.674z"/>
		<path d="M733.185,237.87l1.651,0.479c-0.11,0.445-0.285,0.817-0.523,1.116c-0.239,0.299-0.535,0.523-0.889,0.676
			s-0.803,0.228-1.35,0.228c-0.662,0-1.204-0.092-1.624-0.277s-0.782-0.511-1.087-0.978c-0.306-0.466-0.458-1.062-0.458-1.79
			c0-0.97,0.269-1.715,0.805-2.236c0.537-0.521,1.296-0.781,2.277-0.781c0.768,0,1.372,0.149,1.812,0.448s0.766,0.757,0.979,1.376
			l-1.664,0.355c-0.059-0.179-0.119-0.31-0.183-0.392c-0.105-0.139-0.234-0.245-0.387-0.32c-0.153-0.074-0.323-0.111-0.512-0.111
			c-0.428,0-0.755,0.165-0.981,0.495c-0.172,0.245-0.258,0.63-0.258,1.154c0,0.649,0.103,1.095,0.308,1.336s0.493,0.361,0.865,0.361
			c0.36,0,0.633-0.098,0.816-0.292C732.968,238.523,733.102,238.24,733.185,237.87z"/>
		<path d="M735.743,234.407h3.132c0.683,0,1.193,0.155,1.533,0.468c0.339,0.312,0.509,0.756,0.509,1.331
			c0,0.593-0.185,1.055-0.555,1.388c-0.37,0.334-0.936,0.5-1.695,0.5h-1.031v2.176h-1.893V234.407z M737.636,236.906h0.462
			c0.363,0,0.618-0.061,0.765-0.182c0.147-0.121,0.221-0.276,0.221-0.466c0-0.185-0.063-0.34-0.191-0.468
			c-0.127-0.128-0.367-0.192-0.72-0.192h-0.536V236.906z"/>
		<path d="M745.87,234.407h1.88v3.492c0,0.347-0.057,0.674-0.169,0.981s-0.288,0.577-0.528,0.808
			c-0.239,0.23-0.491,0.392-0.755,0.485c-0.365,0.131-0.805,0.195-1.318,0.195c-0.297,0-0.62-0.02-0.971-0.06
			s-0.645-0.119-0.88-0.238c-0.235-0.118-0.451-0.286-0.646-0.505s-0.329-0.443-0.401-0.676c-0.116-0.373-0.175-0.703-0.175-0.991
			v-3.492h1.88v3.576c0,0.319,0.092,0.569,0.276,0.749s0.44,0.27,0.768,0.27c0.324,0,0.579-0.089,0.764-0.266
			c0.184-0.178,0.276-0.429,0.276-0.753V234.407z"/>
	</g>
	<rect x="763.63" y="32.6" width="22.8" height="53"/>
	<rect x="793.83" y="32.6" width="22.8" height="53"/>
	<g class="st2">
		<path d="M863.84,18.879v3.319c0,0.654-0.102,1.183-0.306,1.586s-0.497,0.735-0.879,0.999s-0.826,0.454-1.332,0.572
			c-0.507,0.118-1.043,0.178-1.61,0.178c-0.888,0-1.577-0.088-2.066-0.264s-0.899-0.42-1.23-0.732
			c-0.33-0.312-0.551-0.647-0.66-1.006c-0.151-0.49-0.227-0.934-0.227-1.332v-3.319H863.84z M861.958,21.113h-4.541v0.548
			c0,0.467,0.06,0.799,0.179,0.996s0.327,0.352,0.623,0.463c0.297,0.112,0.778,0.168,1.443,0.168c0.881,0,1.483-0.125,1.809-0.375
			c0.324-0.25,0.487-0.664,0.487-1.243V21.113z"/>
		<path d="M855.529,32.092v-1.874h0.975c-0.4-0.28-0.686-0.562-0.855-0.846c-0.17-0.285-0.255-0.634-0.255-1.048
			c0-0.552,0.189-0.985,0.569-1.299c0.38-0.314,0.965-0.471,1.755-0.471h3.832v2.017h-3.311c-0.378,0-0.646,0.061-0.806,0.183
			c-0.158,0.122-0.237,0.292-0.237,0.513c0,0.24,0.105,0.437,0.317,0.589c0.211,0.153,0.591,0.229,1.14,0.229h2.896v2.007H855.529z"
			/>
		<path d="M859.6,35.14l0.232-1.918c0.386,0.072,0.688,0.176,0.91,0.313c0.221,0.136,0.412,0.333,0.575,0.589
			c0.117,0.184,0.208,0.437,0.272,0.76c0.063,0.322,0.096,0.67,0.096,1.045c0,0.602-0.038,1.085-0.116,1.45
			c-0.077,0.365-0.239,0.669-0.484,0.913c-0.17,0.171-0.411,0.306-0.723,0.404c-0.312,0.099-0.609,0.148-0.894,0.148h-2.658
			c-0.283,0-0.506,0.016-0.666,0.047c-0.161,0.031-0.366,0.1-0.615,0.205v-1.884c0.155-0.076,0.273-0.125,0.354-0.148
			s0.209-0.046,0.383-0.069c-0.291-0.263-0.499-0.525-0.624-0.784c-0.166-0.355-0.249-0.768-0.249-1.238
			c0-0.625,0.166-1.099,0.499-1.423c0.332-0.324,0.742-0.486,1.229-0.486c0.457,0,0.834,0.117,1.128,0.351
			c0.295,0.233,0.515,0.664,0.658,1.292c0.174,0.753,0.296,1.241,0.365,1.465c0.07,0.224,0.162,0.46,0.275,0.71
			c0.283,0,0.481-0.051,0.595-0.153s0.17-0.281,0.17-0.538c0-0.329-0.061-0.575-0.181-0.74
			C860.038,35.322,859.86,35.219,859.6,35.14z M858.387,36.881c-0.113-0.276-0.214-0.564-0.301-0.863
			c-0.125-0.408-0.247-0.666-0.368-0.774c-0.125-0.112-0.267-0.168-0.426-0.168c-0.181,0-0.329,0.055-0.444,0.166
			c-0.115,0.11-0.173,0.272-0.173,0.486c0,0.224,0.062,0.432,0.187,0.624c0.125,0.192,0.277,0.329,0.456,0.41
			c0.18,0.081,0.413,0.121,0.7,0.121H858.387z"/>
		<path d="M863.84,40.116v2.012h-8.311v-2.012H863.84z"/>
		<path d="M859.452,43.026v2.919h-1.786v-2.919H859.452z"/>
		<path d="M858.931,51.721l-0.681,1.958c-0.631-0.131-1.158-0.338-1.581-0.621c-0.424-0.283-0.743-0.634-0.958-1.053
			c-0.216-0.419-0.323-0.953-0.323-1.6c0-0.786,0.131-1.428,0.394-1.926s0.725-0.928,1.385-1.29
			c0.661-0.362,1.508-0.542,2.538-0.542c1.375,0,2.432,0.318,3.17,0.954s1.107,1.537,1.107,2.7c0,0.911-0.212,1.627-0.635,2.148
			s-1.073,0.908-1.95,1.162l-0.504-1.973c0.253-0.069,0.438-0.142,0.555-0.217c0.197-0.125,0.348-0.278,0.454-0.458
			c0.105-0.181,0.158-0.383,0.158-0.607c0-0.506-0.233-0.894-0.702-1.164c-0.347-0.204-0.893-0.306-1.636-0.306
			c-0.921,0-1.553,0.122-1.895,0.365s-0.512,0.585-0.512,1.026c0,0.427,0.138,0.75,0.413,0.969
			C858.005,51.464,858.405,51.623,858.931,51.721z"/>
		<path d="M858.522,54.384c0.918,0,1.675,0.27,2.271,0.809c0.595,0.539,0.893,1.268,0.893,2.185c0,1.049-0.35,1.841-1.049,2.377
			c-0.562,0.431-1.257,0.646-2.08,0.646c-0.926,0-1.685-0.267-2.276-0.801c-0.592-0.535-0.887-1.273-0.887-2.217
			c0-0.842,0.245-1.522,0.736-2.042C856.738,54.703,857.536,54.384,858.522,54.384z M858.528,56.396
			c-0.537,0-0.934,0.095-1.19,0.284s-0.386,0.427-0.386,0.713c0,0.289,0.127,0.527,0.38,0.712c0.253,0.186,0.659,0.279,1.219,0.279
			c0.521,0,0.91-0.094,1.165-0.281s0.383-0.419,0.383-0.695c0-0.292-0.13-0.534-0.389-0.725
			C859.451,56.492,859.058,56.396,858.528,56.396z"/>
	</g>
	<text transform="matrix(5.327214e-17 0.87 -1 6.123234e-17 855.5293 60.9297)" class="st8 st10">r</text>
	<g class="st2">
		<path d="M857.967,72.011v-4.024c-0.37,0.036-0.646,0.123-0.827,0.261c-0.261,0.194-0.392,0.447-0.392,0.76
			c0,0.197,0.057,0.385,0.17,0.562c0.072,0.108,0.198,0.225,0.38,0.35l-0.21,1.978c-0.604-0.303-1.038-0.667-1.301-1.095
			c-0.263-0.427-0.394-1.041-0.394-1.839c0-0.694,0.112-1.24,0.337-1.638c0.225-0.397,0.582-0.727,1.071-0.989
			c0.489-0.261,1.065-0.392,1.727-0.392c0.94,0,1.702,0.262,2.284,0.787s0.873,1.249,0.873,2.173c0,0.75-0.13,1.341-0.391,1.775
			s-0.639,0.765-1.134,0.991c-0.495,0.227-1.14,0.34-1.934,0.34H857.967z M859.072,69.969c0.446-0.039,0.766-0.144,0.958-0.313
			c0.193-0.169,0.289-0.392,0.289-0.668c0-0.319-0.146-0.574-0.437-0.764c-0.182-0.122-0.451-0.199-0.811-0.232V69.969z"/>
		<path d="M858.931,81.249l-0.681,1.958c-0.631-0.131-1.158-0.338-1.581-0.621c-0.424-0.283-0.743-0.634-0.958-1.053
			c-0.216-0.419-0.323-0.953-0.323-1.6c0-0.786,0.131-1.428,0.394-1.926s0.725-0.928,1.385-1.29
			c0.661-0.362,1.508-0.542,2.538-0.542c1.375,0,2.432,0.318,3.17,0.954s1.107,1.537,1.107,2.7c0,0.911-0.212,1.627-0.635,2.148
			s-1.073,0.908-1.95,1.162l-0.504-1.973c0.253-0.069,0.438-0.142,0.555-0.217c0.197-0.125,0.348-0.278,0.454-0.458
			c0.105-0.181,0.158-0.383,0.158-0.607c0-0.506-0.233-0.894-0.702-1.164c-0.347-0.204-0.893-0.306-1.636-0.306
			c-0.921,0-1.553,0.122-1.895,0.365s-0.512,0.585-0.512,1.026c0,0.427,0.138,0.75,0.413,0.969
			C858.005,80.991,858.405,81.15,858.931,81.249z"/>
		<path d="M863.84,84.282v3.714c0,0.809-0.221,1.415-0.663,1.817s-1.071,0.604-1.888,0.604c-0.839,0-1.495-0.219-1.967-0.658
			c-0.473-0.439-0.709-1.109-0.709-2.01v-1.223h-3.084v-2.244H863.84z M860.297,86.526v0.547c0,0.431,0.086,0.733,0.258,0.907
			s0.393,0.262,0.66,0.262c0.261,0,0.482-0.076,0.664-0.227c0.181-0.151,0.271-0.436,0.271-0.853v-0.636H860.297z"/>
		<path d="M863.84,96.292v2.229h-4.951c-0.491,0-0.955-0.067-1.391-0.2c-0.437-0.133-0.818-0.342-1.145-0.626
			c-0.327-0.285-0.557-0.583-0.688-0.895c-0.185-0.434-0.277-0.956-0.277-1.563c0-0.352,0.028-0.736,0.085-1.152
			s0.169-0.764,0.337-1.043c0.168-0.28,0.407-0.535,0.717-0.767s0.629-0.391,0.957-0.476c0.529-0.138,0.997-0.207,1.405-0.207h4.951
			v2.229h-5.069c-0.453,0-0.807,0.109-1.062,0.328c-0.255,0.219-0.383,0.522-0.383,0.91c0,0.385,0.126,0.687,0.377,0.905
			c0.251,0.219,0.606,0.328,1.067,0.328H863.84z"/>
	</g>
	<g class="st2">
		<path d="M62.545,164.94c-0.362,0.475-0.903,0.886-1.622,1.234s-1.646,0.523-2.78,0.523c-1.406,0-2.557-0.442-3.451-1.326
			s-1.342-2.032-1.342-3.443V159.5c0-1.406,0.434-2.553,1.302-3.439s1.984-1.33,3.347-1.33c1.422,0,2.511,0.337,3.267,1.011
			c0.756,0.674,1.121,1.572,1.095,2.696l-0.016,0.048h-2.197c0-0.618-0.179-1.099-0.535-1.442c-0.357-0.343-0.876-0.515-1.558-0.515
			c-0.714,0-1.289,0.275-1.726,0.826c-0.437,0.552-0.655,1.261-0.655,2.129v2.444c0,0.879,0.224,1.596,0.671,2.149
			c0.447,0.554,1.046,0.83,1.797,0.83c0.554,0,0.992-0.056,1.314-0.167c0.322-0.112,0.571-0.253,0.747-0.424v-2.253h-2.237v-1.613
			h4.577V164.94z"/>
		<path d="M73.25,162.679l0.016,0.048c0.021,1.241-0.357,2.213-1.134,2.916c-0.778,0.703-1.851,1.055-3.219,1.055
			c-1.396,0-2.522-0.449-3.379-1.347c-0.858-0.896-1.286-2.057-1.286-3.479v-2.309c0-1.417,0.418-2.576,1.254-3.479
			c0.836-0.903,1.933-1.354,3.291-1.354c1.417,0,2.524,0.347,3.323,1.039s1.188,1.666,1.167,2.923l-0.016,0.048h-2.269
			c0-0.745-0.18-1.3-0.539-1.665c-0.36-0.364-0.915-0.547-1.666-0.547c-0.697,0-1.242,0.28-1.633,0.843
			c-0.392,0.562-0.587,1.287-0.587,2.177v2.324c0,0.895,0.207,1.624,0.619,2.188s0.987,0.847,1.722,0.847
			c0.698,0,1.218-0.182,1.562-0.547c0.344-0.364,0.515-0.925,0.515-1.682H73.25z"/>
		<path d="M77.268,162.312v4.218h-2.333v-11.631h4.45c1.336,0,2.388,0.341,3.155,1.022s1.15,1.579,1.15,2.692
			c0,1.112-0.383,2.008-1.15,2.684c-0.767,0.677-1.819,1.015-3.155,1.015H77.268z M77.268,160.514h2.117
			c0.649,0,1.142-0.177,1.478-0.531c0.335-0.354,0.503-0.805,0.503-1.354c0-0.56-0.167-1.021-0.499-1.386
			c-0.333-0.365-0.827-0.548-1.482-0.548h-2.117V160.514z"/>
	</g>
	<rect x="376.03" y="71.8" class="st11" width="146" height="36.8"/>
	<polygon class="st12" points="457.73,108.5 489.83,99.3 522.03,90.1 489.83,80.9 457.73,71.8 457.73,81.1 426.43,81.1 426.43,99.2 
		457.73,99.2 	"/>
	<rect x="403.73" y="81.5" class="st12" width="16.7" height="17.3"/>
	<rect x="389.03" y="81.5" class="st12" width="9.5" height="17.3"/>
	<rect x="376.03" y="81.5" class="st12" width="6.4" height="17.3"/>
	
		<rect x="136.612" y="199.127" transform="matrix(0.6764 -0.7366 0.7366 0.6764 -138.4889 197.069)" class="st11" width="36.802" height="114.006"/>
	<polygon class="st12" points="162.43,238 137.73,227.8 113.03,217.6 125.33,241.3 137.63,265.1 143.93,258.2 161.93,274.7 
		174.13,261.4 156.13,244.9 	"/>
	
		<rect x="167.612" y="269.12" transform="matrix(0.6764 -0.7366 0.7366 0.6764 -145.9679 219.0283)" class="st12" width="17.301" height="13.001"/>
	
		<rect x="178.152" y="281.604" transform="matrix(0.6764 -0.7366 0.7366 0.6764 -149.6897 229.9255)" class="st12" width="17.301" height="7.4"/>
	
		<rect x="186.566" y="290.517" transform="matrix(0.6764 -0.7366 0.7366 0.6764 -152.6475 238.6196)" class="st12" width="17.301" height="5"/>
	
		<rect x="615.083" y="323.798" transform="matrix(0.3634 -0.9316 0.9316 0.3634 119.2227 858.8748)" class="st11" width="145.995" height="36.799"/>
	<polygon class="st12" points="667.73,343.5 664.63,376.8 661.53,410.1 681.73,383.5 702.03,356.9 693.23,353.5 704.63,324.4 
		687.83,317.8 676.43,346.9 	"/>
	
		<rect x="693.122" y="299.105" transform="matrix(0.3634 -0.9316 0.9316 0.3634 159.8357 849.4244)" class="st12" width="16.699" height="17.299"/>
	
		<rect x="703.366" y="282.132" transform="matrix(0.3634 -0.9316 0.9316 0.3634 179.878 844.8093)" class="st12" width="9.5" height="17.299"/>
	
		<rect x="710.181" y="268.544" transform="matrix(0.3634 -0.9316 0.9316 0.3634 195.8883 841.0645)" class="st12" width="6.4" height="17.299"/>
	<rect x="57.43" y="47.6" class="st11" width="83.7" height="27.9"/>
	<g class="st2">
		<path d="M64.563,56.761h-3.77L60.01,59.27h-2.437l3.922-11.631h2.389l3.906,11.631h-2.437L64.563,56.761z M61.368,54.932h2.628
			l-1.286-4.098h-0.048L61.368,54.932z"/>
		<path d="M71.202,57.481h5.336v1.789h-8.084v-1.214l5.176-8.62h-5.168v-1.797h7.94v1.166L71.202,57.481z"/>
		<path d="M87.418,47.639v7.612c0,1.311-0.434,2.336-1.302,3.076s-1.995,1.11-3.379,1.11c-1.379,0-2.499-0.37-3.359-1.11
			c-0.86-0.74-1.29-1.766-1.29-3.076v-7.612h2.341v7.612c0,0.778,0.208,1.372,0.623,1.782c0.415,0.41,0.977,0.614,1.686,0.614
			c0.719,0,1.289-0.204,1.709-0.614c0.42-0.41,0.631-1.004,0.631-1.782v-7.612H87.418z"/>
		<path d="M91.771,54.621v4.649h-2.333V47.639h4.026c1.326,0,2.363,0.302,3.111,0.906c0.748,0.604,1.122,1.447,1.122,2.528
			c0,0.597-0.158,1.112-0.475,1.546c-0.317,0.435-0.779,0.784-1.386,1.051c0.687,0.202,1.181,0.54,1.481,1.015
			c0.301,0.474,0.452,1.06,0.452,1.757v0.855c0,0.324,0.044,0.664,0.132,1.018c0.088,0.354,0.238,0.617,0.451,0.787v0.168H95.95
			c-0.213-0.17-0.351-0.452-0.412-0.847s-0.092-0.775-0.092-1.143v-0.822c0-0.581-0.159-1.032-0.475-1.354
			c-0.317-0.322-0.766-0.483-1.346-0.483H91.771z M91.771,52.824h1.654c0.655,0,1.142-0.139,1.462-0.416
			c0.319-0.276,0.479-0.687,0.479-1.229c0-0.533-0.161-0.956-0.483-1.271c-0.322-0.314-0.795-0.472-1.418-0.472h-1.694V52.824z"/>
		<path d="M106.51,54.158h-4.314v3.323h5.128v1.789h-7.461V47.639h7.445v1.797h-5.113v2.924h4.314V54.158z"/>
	</g>
	<g>
		<rect x="205.61" y="118.967" class="st11" width="81.886" height="25.884"/>
		<g class="st2">
			<path d="M236.22,128.919h-3.77l-0.783,2.509h-2.437l3.922-11.631h2.389l3.906,11.631h-2.437L236.22,128.919z M233.024,127.09
				h2.628l-1.286-4.098h-0.048L233.024,127.09z"/>
			<path d="M249.433,127.69h0.048l1.542-7.893h2.404l-2.716,11.631h-2.165l-2.141-7.661h-0.048l-2.133,7.661h-2.165l-2.716-11.631
				h2.405l1.549,7.885h0.048l2.093-7.885h1.885L249.433,127.69z"/>
			<path d="M260.728,128.393c0-0.447-0.156-0.808-0.467-1.079s-0.858-0.527-1.642-0.767c-1.342-0.404-2.36-0.881-3.055-1.43
				c-0.695-0.549-1.042-1.297-1.042-2.245c0-0.953,0.391-1.731,1.174-2.336c0.783-0.604,1.781-0.907,2.996-0.907
				c1.289,0,2.326,0.325,3.111,0.975s1.165,1.502,1.138,2.557l-0.016,0.048h-2.26c0-0.581-0.176-1.026-0.527-1.338
				s-0.844-0.468-1.478-0.468c-0.575,0-1.02,0.139-1.334,0.415c-0.314,0.277-0.471,0.632-0.471,1.062
				c0,0.395,0.17,0.718,0.511,0.971s0.929,0.521,1.765,0.803c1.278,0.362,2.253,0.835,2.924,1.418s1.007,1.352,1.007,2.305
				c0,0.996-0.389,1.781-1.167,2.356c-0.778,0.575-1.805,0.863-3.083,0.863c-1.251,0-2.326-0.312-3.223-0.935
				s-1.333-1.553-1.306-2.788l0.016-0.048h2.261c0,0.687,0.202,1.192,0.607,1.518s0.953,0.487,1.646,0.487
				c0.623,0,1.099-0.131,1.426-0.392C260.564,129.178,260.728,128.83,260.728,128.393z"/>
		</g>
	</g>
</g>
</svg>
