<svg xmlns="http://www.w3.org/2000/svg" viewBox="0 0 865.46292 543.02388"><title>features</title><g id="Layer_2" data-name="Layer 2"><g id="Layer_2-2" data-name="Layer 2"><path d="M163.6774,48.70261a24.99185,24.99185,0,0,0-32.336-31.78737,37.66744,37.66744,0,0,0-63.42777,7.95121A24.99469,24.99469,0,0,0,25.88317,50.88139c-.54681-.04055-1.09786-.06588-1.655-.06588a22.09656,22.09656,0,1,0,13.61937,39.49,36.56144,36.56144,0,0,0,57.11021-2.199,31.14407,31.14407,0,0,0,49.52584-.57246A21.73514,21.73514,0,1,0,163.6774,48.70261Z" style="fill:none;stroke:#a23814;stroke-miterlimit:10;stroke-width:4.263186178001942px"/><path d="M316.20484,122.105A24.3572,24.3572,0,0,0,284.69,91.12489a36.7109,36.7109,0,0,0-61.81706,7.74929,24.36,24.36,0,0,0-40.96313,25.35431c-.53292-.03952-1.07-.06421-1.613-.06421a21.53543,21.53543,0,1,0,13.27352,38.4872,35.633,35.633,0,0,0,55.65992-2.14314,30.35319,30.35319,0,0,0,48.26816-.55792A21.18319,21.18319,0,1,0,316.20484,122.105Z" style="fill:none;stroke:#a23814;stroke-miterlimit:10;stroke-width:4.263186178001942px"/><path d="M123.04041,158.10108a17.53372,17.53372,0,0,0-22.68621-22.30131,26.42663,26.42663,0,0,0-44.49951,5.57839A17.53573,17.53573,0,0,0,26.367,159.62967c-.38363-.02845-.77023-.04623-1.16112-.04623A15.50246,15.50246,0,1,0,34.761,187.28877,25.6507,25.6507,0,0,0,74.82822,185.746a21.85,21.85,0,0,0,34.74623-.40163,15.24889,15.24889,0,1,0,13.466-27.2433Z" style="fill:none;stroke:#a23814;stroke-miterlimit:10;stroke-width:4.263186178001942px"/><text transform="translate(222.73294 313.27051) scale(0.62029 1)" style="font-size:60.8691291809082px;fill:#222;font-family:Arial-Black, Arial Black">B<tspan x="47.34624" y="0" style="letter-spacing:-0.0170967306469013em">L</tspan><tspan x="86.90482" y="0">OODHOUND 2.0</tspan></text><path d="M418.14423,487.38275a3.01342,3.01342,0,0,1-2.07334,1.20164l-3.24417.397L407.09392,457.76a1.51861,1.51861,0,0,0-3.00938.26382,1.49289,1.49289,0,0,0,.02481.26939l8.18777,44.59469a.73146.73146,0,0,1-.16445.61331.75307.75307,0,0,1-.58232.2684h-6.55221a1.49522,1.49522,0,0,0-1.49522,1.49522v30.18047a2.99047,2.99047,0,0,1-2.99047,2.99046h-6.25417a2.99048,2.99048,0,0,1-2.99048-2.99048V505.99637a2.2268,2.2268,0,0,0-2.22681-2.22681h-4.57858a.33176.33176,0,0,0-.33176.33175v33.88887a.44552.44552,0,0,1-.44552.44553H372.34107a.44553.44553,0,0,1-.44553-.44553V503.99232a.22276.22276,0,0,0-.22277-.22276h-7.091a.75371.75371,0,0,1-.58181-.2684.73331.73331,0,0,1-.16395-.61331l2.197-11.967.00467-.024,5.98568-32.60369a1.498,1.498,0,0,0-1.22207-1.739,1.51445,1.51445,0,0,0-1.7625,1.20575l-5.7323,31.22142-1.68957-.20665a4.43053,4.43053,0,0,0-.196-1.70781l-.23871-.74955a.8287.8287,0,0,0-.06886-.15812,4.6972,4.6972,0,0,0-3.40928-2.42684l8.0066-42.69617a1.44787,1.44787,0,0,1,1.09338-1.14295l16.16465-3.77983a1.54348,1.54348,0,0,0,.75084-2.5664.25846.25846,0,0,0-.09473-.07336,10.558,10.558,0,0,1-5.33179-13.9603c.02735-.06533.05849-.13088.09185-.19337a10.84507,10.84507,0,0,1,10.44332-5.9323,10.66266,10.66266,0,0,1,9.868,9.51014,10.48557,10.48557,0,0,1-6.18965,10.57649.25863.25863,0,0,0-.09484.07347,1.54412,1.54412,0,0,0,.75238,2.56563l10.83206,2.5329a9.79051,9.79051,0,0,1,7.42029,7.69514l7.2636,38.72828a2.93391,2.93391,0,0,1-.53575,2.313Zm-59.574,1.75983a1.58556,1.58556,0,0,1-.88476.74177l-1.02721.323-19.42888,6.10937V485.12557a1.52979,1.52979,0,1,0-3.05878-.0686v51.88352a1.49522,1.49522,0,0,1-1.49522,1.49522H328.5282a1.49474,1.49474,0,0,1-1.49474-1.49474V518.35169a3.10709,3.10709,0,0,0-2.36514-3.06488,3.06107,3.06107,0,0,0-3.75242,2.96762v18.68606a1.49522,1.49522,0,0,1-1.49522,1.49522h-3.87731s-1.49521-.79729-1.25482-1.62214V498.20516q-.35982-.03441,0-.06984V484.93006a1.92336,1.92336,0,0,0-1.73563-1.49521c-.82536,0-1.83294,1.49521-1.83294,1.49521v11.38667l-18.94434-5.95711-1.51228-.47527a1.52092,1.52092,0,0,1-.33538-.159,1.46975,1.46975,0,0,1-.71347-1.33638,1.51879,1.51879,0,0,1,.06226-.39609l.07921-.251a1.49778,1.49778,0,0,1,1.54263-1.04829,1.51338,1.51338,0,0,1,.34877.06172l1.10954.34875,1.43718.45216,10.82886,3.40522a1.50814,1.50814,0,0,0,1.93615-1.16461l2.33532-12.62146a6.03678,6.03678,0,0,1,4.53945-4.773l7.60269-1.80158a.39878.39878,0,0,0,.16271-.08022,1.5577,1.5577,0,0,0-.17408-2.65764,6.6284,6.6284,0,1,1,8.94645-8.80879c.03435.06562.0663.13474.094.20344a6.65912,6.65912,0,0,1-3.42958,8.74074.385.385,0,0,0-.1495.11528,1.56119,1.56119,0,0,0,.7632,2.56716l10.2233,2.42258a1.36541,1.36541,0,0,1,1.02778,1.08019l2.88889,15.61331a1.50812,1.50812,0,0,0,1.93614,1.16461l11.47286-3.60791,1.43516-.45111,1.17082-.36834a.27788.27788,0,0,1,.35483.22261c.01541.08977.057.08184.09207.09991a1.50176,1.50176,0,0,1,.74175.88582l.06738.214.01133.036a1.49933,1.49933,0,0,1-.10185,1.15016Zm-69.57266-4.90891a4.45256,4.45256,0,0,0-2.19635,2.63107l-.07767.24825a4.47387,4.47387,0,0,0-.1945,1.10779A2.98566,2.98566,0,0,1,285.14727,486.2l-5.11884-28.36763a1.54923,1.54923,0,0,0-2.77612-.59566.73465.73465,0,0,0-.1789.49847v79.23a1.47056,1.47056,0,0,1-1.47056,1.47056h-7.2648a2.99,2.99,0,0,1-2.99-2.99V507.726a3.88259,3.88259,0,0,0-2.95817-3.83036,3.82593,3.82593,0,0,0-4.68878,3.70958v27.84a2.99046,2.99046,0,0,1-2.99046,2.99046h-7.7741a1.47055,1.47055,0,0,1-1.47055-1.47055V457.72329a.80277.80277,0,0,0-.24956-.57469,1.54624,1.54624,0,0,0-2.70546.68373L237.39218,486.2a2.99349,2.99349,0,0,1-3.278,2.43681l-.65414-.07682a1.50361,1.50361,0,0,1-.52164-.15131,3.084,3.084,0,0,1-1.72339-3.32313l7.12628-38.6614a9.70328,9.70328,0,0,1,7.2842-7.68721l10.63886-2.53165a1.53835,1.53835,0,0,0,.821-2.44958.75538.75538,0,0,0-.30366-.24721,10.53074,10.53074,0,0,1,4.48781-20.03458c.2478,0,.49919.0087.748.026a10.53257,10.53257,0,0,1,3.74064,20.00839.75713.75713,0,0,0-.30473.24822,1.53824,1.53824,0,0,0,.82218,2.44873l13.7449,3.27037a4.77993,4.77993,0,0,1,3.59431,3.78364l7.45877,40.46512a4.42742,4.42742,0,0,0-2.076.50929Zm133.38653.11808L415.234,445.62344a14.20945,14.20945,0,0,0-10.67671-11.24654l-4.87025-1.15672a15.04379,15.04379,0,0,0-10.7867-24.21208c-.35133-.02451-.70717-.03678-1.058-.03678a15.044,15.044,0,0,0-11.84466,24.24886l-4.86033,1.15437a14.20309,14.20309,0,0,0-10.685,11.24008L353.51913,483.169l-8.07056,2.54307-1.6974-9.19528a10.4686,10.4686,0,0,0-7.86488-8.286l-1.9158-.45516a11.07445,11.07445,0,0,0-9.54956-16.61492c-.23317,0-.46992.00718-.7036.022a11.04651,11.04651,0,0,0-8.82711,16.58837l-1.92789.458a10.46215,10.46215,0,0,0-7.87,8.27912l-1.6995,9.20391-7.31451-2.3053-6.97545-37.78334A14.21015,14.21015,0,0,0,278.4261,434.3769l-4.87075-1.15672a15.0438,15.0438,0,0,0-10.7862-24.21208c-.35129-.02451-.70768-.03678-1.058-.03678a14.93378,14.93378,0,0,0-11.94187,5.93425,14.7,14.7,0,0,0-2.85853,6.66336,15.08554,15.08554,0,0,0,2.95575,11.65125l-4.87227,1.15725a14.20772,14.20772,0,0,0-10.67521,11.246l-7.144,38.69617a7.48086,7.48086,0,0,0,6.47194,8.79323l.31871.03725a7.57438,7.57438,0,0,0,.87314.051,7.45568,7.45568,0,0,0,6.54879-3.89423v46.24138a7.47564,7.47564,0,0,0,7.47564,7.47564h5.43123a7.55067,7.55067,0,0,0,6.85063-4.35978,7.54936,7.54936,0,0,0,6.85011,4.35978h6.19115a7.47515,7.47515,0,0,0,7.47515-7.47516V489.35457a7.53358,7.53358,0,0,0,5.74869,3.83926,6.0488,6.0488,0,0,0,2.00138,1.07315l20.28873,6.32808v36.44842a5.9804,5.9804,0,0,0,5.9804,5.9804h3.84061a5.99593,5.99593,0,0,0,4.55509-2.092,5.99569,5.99569,0,0,0,4.55459,2.092h4.14726a5.98045,5.98045,0,0,0,5.98045-5.98045V500.55692l20.19455-6.33377a6.01069,6.01069,0,0,0,1.81508-.93377l.24862.03112-1.58925,8.74939a5.35091,5.35091,0,0,0,.33794,3.16953,5.26239,5.26239,0,0,0,4.80778,3.1183h2.73387v27.19052a7.47564,7.47564,0,0,0,7.47564,7.47564h6.199a7.47436,7.47436,0,0,0,6.78555-4.3637,7.47513,7.47513,0,0,0,6.78606,4.3637h6.06181a7.47566,7.47566,0,0,0,7.47565-7.47566v-27.1905l2.74818,0a5.35068,5.35068,0,0,0,3.05543-.89662,5.25283,5.25283,0,0,0,2.20893-5.27441l-1.60271-8.86621,1.46166-.18216a7.47954,7.47954,0,0,0,6.42154-8.78659Z" style="fill:#a23814"/><path d="M220.34332,487.38275a3.01342,3.01342,0,0,1-2.07385,1.20164l-3.2442.397L209.293,457.76a1.51859,1.51859,0,0,0-3.00935.26382,1.44562,1.44562,0,0,0,.02481.26939l8.18728,44.59469a.73331.73331,0,0,1-.16395.61331.753.753,0,0,1-.58232.2684h-6.043a1.49472,1.49472,0,0,0-1.49473,1.49472v30.181a2.99047,2.99047,0,0,1-2.99047,2.99046h-6.25466a2.99,2.99,0,0,1-2.99-2.99V505.99637a2.22681,2.22681,0,0,0-2.22682-2.22681h-5.08844a.33169.33169,0,0,0-.33169.33169v33.889a.44544.44544,0,0,1-.44544.44544H174.54a.4454.4454,0,0,1-.4454-.4454v-33.998a.22272.22272,0,0,0-.22273-.22272h-7.09111a.75214.75214,0,0,1-.582-.2684.73179.73179,0,0,1-.16442-.61331l2.19736-11.968.004-.02193,5.98633-32.60475a1.498,1.498,0,0,0-1.22212-1.739,1.51595,1.51595,0,0,0-1.76262,1.20575l-5.7325,31.22142-3.78585-.46325a.52957.52957,0,0,1-.157-.04412,3.10151,3.10151,0,0,1-1.91053-3.40423l7.26346-38.72828a9.79005,9.79005,0,0,1,7.42044-7.69514l10.8318-2.5329a1.54362,1.54362,0,0,0,.75122-2.56624.25841.25841,0,0,0-.09474-.07337,10.55757,10.55757,0,0,1-5.33391-13.95751c.02742-.06555.05866-.1313.09214-.194a10.84487,10.84487,0,0,1,10.44482-5.93464,10.66181,10.66181,0,0,1,9.86808,9.51014,10.485,10.485,0,0,1-6.18911,10.57643.25847.25847,0,0,0-.09483.07345,1.54413,1.54413,0,0,0,.75232,2.56571l10.83206,2.5329a9.79059,9.79059,0,0,1,7.42037,7.69514l7.26308,38.72828a2.93387,2.93387,0,0,1-.53525,2.313Zm4.28779-3.031-7.1757-38.737a14.20256,14.20256,0,0,0-10.6938-11.23381l-4.90432-1.16079a15.03141,15.03141,0,0,0-10.82243-24.21208c-.353-.02451-.71-.03678-1.06147-.03678a15.03365,15.03365,0,0,0-11.88458,24.24886l-4.904,1.16079a14.20285,14.20285,0,0,0-10.69379,11.234l-7.17573,38.73681a7.48329,7.48329,0,0,0,6.44333,8.78659l1.46639.18216-1.58687,8.75042a5.358,5.358,0,0,0,.33569,3.16407,5.25385,5.25385,0,0,0,4.80276,3.12273h2.72978v27.19052a7.47564,7.47564,0,0,0,7.47564,7.47564h6.10742a7.50155,7.50155,0,0,0,6.80884-4.3637,7.501,7.501,0,0,0,6.80884,4.3637h6.10735a7.47562,7.47562,0,0,0,7.47562-7.47563V508.35772l2.8,0a5.21917,5.21917,0,0,0,5.23889-6.171l-1.60759-8.86621,1.46611-.18216a7.483,7.483,0,0,0,6.44358-8.78659Z" style="fill:#a23814"/><path d="M660.29558,498.179a1.50183,1.50183,0,0,1-1.02583.55818l-1.73162.18924-3.68676-19.10068a1.48375,1.48375,0,0,0-1.73162-1.12593,1.40326,1.40326,0,0,0-1.19854,1.62453l5.388,27.94557h-3.92054a1.5475,1.5475,0,0,0-1.05662.40993,1.35552,1.35552,0,0,0-.43688.98819V528.602a1.43591,1.43591,0,0,1-1.48218,1.38467h-4.11058a1.43589,1.43589,0,0,1-1.48216-1.38464V511.08841a2.92279,2.92279,0,0,0-3.017-2.81847H638.4501a.67237.67237,0,0,0-.694.64838V529.6682a.33027.33027,0,0,1-.34091.31848H631.022a.33025.33025,0,0,1-.3409-.31848l.00056-20.00014a1.355,1.355,0,0,0-.43622-.98819,1.54082,1.54082,0,0,0-1.05327-.40993h-3.82739l5.3925-27.94557c.22616-1.17062-1.17138-2.26437-2.68647-1.2415a.34024.34024,0,0,0-.14224.215l-2.06155,10.6812L610.274,485.37626l-2.18209-.644-.48395-.14253a1.46483,1.46483,0,0,1-.87446-.6874,1.33737,1.33737,0,0,1-.13511-.38371,1.30428,1.30428,0,0,1,.03506-.68168l.14076-.41874a.41008.41008,0,0,1,.05364-.10669,1.584,1.584,0,0,1,1.75105-.62145l1.12988.33369,1.4412.42518,1.42848.42187,9.20576,2.71709a1.56927,1.56927,0,0,0,1.21418-.13538,1.40416,1.40416,0,0,0,.69723-.94387l2.26079-11.47229a6.12415,6.12415,0,0,1,4.76436-4.70012l6.90074-1.53537a1.41941,1.41941,0,0,0,.75269-2.38006.38244.38244,0,0,0-.15078-.10848,6.15154,6.15154,0,0,1-3.922-5.77383,6.36,6.36,0,0,1,6.11409-5.97046,6.695,6.695,0,0,1,6.34138,3.45008,2.08957,2.08957,0,0,1,.09255.18787,6.03175,6.03175,0,0,1-3.36728,8.09506.38223.38223,0,0,0-.14856.10774,1.41843,1.41843,0,0,0,.75445,2.3773l6.96523,1.55015a6.12424,6.12424,0,0,1,4.76842,4.70012l4.73792,24.05773a1.31284,1.31284,0,0,1-.264,1.08493Zm-55.64816-16.0645-5.275-26.8386a1.49746,1.49746,0,0,0-1.74772-1.1166,1.42241,1.42241,0,0,0-1.23554,1.36091,1.2533,1.2533,0,0,0,.02459.24947L604.53,497.06716a.6478.6478,0,0,1-.163.568.76509.76509,0,0,1-.57677.24855H597.7994a1.43592,1.43592,0,0,0-1.48219,1.38467v27.949a2.87185,2.87185,0,0,1-2.96439,2.76935h-6.19965a2.87186,2.87186,0,0,1-2.9644-2.76936V499.94584a2.13849,2.13849,0,0,0-2.2074-2.06216h-5.04561a.317.317,0,0,0-.32727.30574v31.38667a.4258.4258,0,0,1-.43952.41059H564.91948a.42573.42573,0,0,1-.43944-.41052V498.089a.2129.2129,0,0,0-.21976-.2053h-7.03106a.766.766,0,0,1-.57677-.24855.6478.6478,0,0,1-.16306-.568l2.17839-11.08312.0041-.0203,5.93427-30.194a1.39871,1.39871,0,0,0-1.21148-1.61038,1.49653,1.49653,0,0,0-1.74719,1.1166l-5.68306,28.913-2.09994-.24a5.19882,5.19882,0,0,0,.80031-3.91628l-2.19785-10.94752,5.88218-29.30047a1.37882,1.37882,0,0,1,1.07865-1.05335l16.02869-3.50131a1.40243,1.40243,0,0,0,.74889-2.3746.25219.25219,0,0,0-.09368-.068c-5.12129-2.168-7.66275-7.63793-5.29039-12.92984.02695-.06012.05763-.12044.09047-.17794a10.91452,10.91452,0,0,1,10.35285-5.49507c5.11092.32511,9.31643,4.11145,9.78246,8.807a9.63666,9.63666,0,0,1-6.13322,9.79351.247.247,0,0,0-.09029.06511,1.39988,1.39988,0,0,0,.7399,2.37984l10.73757,2.34562a9.37248,9.37248,0,0,1,7.35643,7.12618l7.00165,34.87718-.3845-.11153a4.603,4.603,0,0,0-5.62718,2.64715Zm-53.35184.61418a4.72957,4.72957,0,0,1-.48845.50235,1.61582,1.61582,0,0,1-.536.33449,4.03388,4.03388,0,0,1-1.00723.26976l-.31564.03447a3.30243,3.30243,0,0,1-.34734.0189,3.15937,3.15937,0,0,1-.52555-.04392,2.86451,2.86451,0,0,1-2.376-2.23162L540.62511,455.343a1.57277,1.57277,0,0,0-2.74553-.56534.64983.64983,0,0,0-.18319.466v73.38627a1.407,1.407,0,0,1-1.4523,1.35674h-7.20638a2.87186,2.87186,0,0,1-2.96441-2.76936V501.54869a3.64957,3.64957,0,0,0-2.931-3.54782,3.7364,3.7364,0,0,0-4.64925,3.4349v25.782a2.87135,2.87135,0,0,1-2.96388,2.76887h-7.71226a1.407,1.407,0,0,1-1.4523-1.35674V455.2333a.71546.71546,0,0,0-.251-.53283,1.56956,1.56956,0,0,0-2.67777.64249l-5.07423,26.27018a2.57921,2.57921,0,0,1-.09866.35733,4.54333,4.54333,0,0,0-4.393-2.68321,2.3644,2.3644,0,0,0-.65368.10554l-.78971.23372,6.87537-34.84828a9.27755,9.27755,0,0,1,7.22119-7.11883l10.54564-2.34447a1.397,1.397,0,0,0,.81322-2.26913.73853.73853,0,0,0-.29986-.228,9.67639,9.67639,0,0,1-5.94351-8.80742c0-5.37392,4.662-9.74611,10.39159-9.74611.24567,0,.49534.008.74151.0241a10.15573,10.15573,0,0,1,9.60576,8.79907,9.63134,9.63134,0,0,1-5.90077,9.7313.723.723,0,0,0-.29.21926,1.396,1.396,0,0,0,.806,2.27692l10.54309,2.34351a9.27965,9.27965,0,0,1,7.22321,7.11979l4.80692,24.36145.75058,3.80514.75054,3.80564.75611,3.83062a2.6104,2.6104,0,0,1-.52758,2.14762Zm-55.49645,1.151a1.31662,1.31662,0,0,1-.15372.46549,1.46448,1.46448,0,0,1-.876.68079l-.42195.12274-2.2167.64676-17.60335,5.13413V480.61821a1.43242,1.43242,0,0,0-1.03026-1.37927,1.50327,1.50327,0,0,0-2.00185,1.31573V528.602a1.43592,1.43592,0,0,1-1.48219,1.38467h-4.11052a1.436,1.436,0,0,1-1.48222-1.38469V511.3876a2.91966,2.91966,0,0,0-2.34454-2.83824,2.98945,2.98945,0,0,0-3.71968,2.74821V528.602a1.43592,1.43592,0,0,1-1.48219,1.38467h-5.26154a.32085.32085,0,0,1-.3312-.3094V480.06843a.32765.32765,0,0,0-.08348-.218,1.61379,1.61379,0,0,0-2.87843.45733l-3.44288,17.63066a1.48507,1.48507,0,0,1-1.64255,1.1288l-.49044-.05307a.42047.42047,0,0,1-.12282-.03194,1.41682,1.41682,0,0,1-.92953-1.56924l4.7541-23.82937a6.10238,6.10238,0,0,1,4.77495-4.655l7.28688-1.60176a.39915.39915,0,0,0,.15743-.072,1.37949,1.37949,0,0,0-.17117-2.4401,5.93056,5.93056,0,0,1-3.09845-7.92294,1.97782,1.97782,0,0,1,.09207-.18287,6.74054,6.74054,0,0,1,6.34848-3.397,6.34039,6.34039,0,0,1,6.12789,5.90788,6.09291,6.09291,0,0,1-3.9188,5.719.37337.37337,0,0,0-.14637.10451,1.40085,1.40085,0,0,0,.75463,2.35757l6.95042,1.5277a6.10163,6.10163,0,0,1,4.77445,4.655l2.26712,11.36206a1.38967,1.38967,0,0,0,.69836.93479,1.59525,1.59525,0,0,0,1.21752.13408l9.23788-2.69431,1.43387-.41827,1.44555-.42158,1.11829-.32621a1.59775,1.59775,0,0,1,1.75465.61481.39962.39962,0,0,1,.053.104l.14231.41659a1.28262,1.28262,0,0,1,.05294.59013ZM664.90287,496.3865l-4.72465-24.05818a10.43049,10.43049,0,0,0-8.09871-8.01828l-1.70982-.38184a9.82234,9.82234,0,0,0,1.472-5.17964c0-5.69731-4.91888-10.33213-10.96482-10.33213-.23168,0-.46692.00714-.69913.02053-5.61594.33077-10.1236,4.74681-10.2617,10.05372a9.85523,9.85523,0,0,0,1.49733,5.45277l-1.654.36948a10.36484,10.36484,0,0,0-8.07024,7.952l-1.65552,8.42967-5.52085-1.636-7.03236-35.81511a13.66342,13.66342,0,0,0-10.60824-10.50659l-4.8395-1.08061a13.45876,13.45876,0,0,0,3.06092-9.93315c-.6571-6.76364-6.58013-12.21784-13.77791-12.68594-.349-.0229-.70314-.03436-1.05116-.03436h0a15.147,15.147,0,0,0-12.7196,6.69787,12.48519,12.48519,0,0,0-1.71384,3.79127,13.51007,13.51007,0,0,0,2.66476,12.16431l-4.856,1.0844a13.58093,13.58093,0,0,0-10.57553,10.4201L551.086,453.23715l-1.96219-9.99367a13.66282,13.66282,0,0,0-10.60825-10.50659l-4.8395-1.08112a13.45662,13.45662,0,0,0,3.06093-9.93264c-.65711-6.76364-6.58016-12.21784-13.77792-12.68594-.349-.0229-.70314-.03436-1.05116-.03436a15.14762,15.14762,0,0,0-12.71358,6.68871,12.48546,12.48546,0,0,0-1.71693,3.79123,13.51193,13.51193,0,0,0,2.66183,12.17351l-4.8415,1.0811a13.66109,13.66109,0,0,0-10.60624,10.5061l-7.03285,35.817-5.51384,1.63406-1.65543-8.42967a10.36411,10.36411,0,0,0-8.06953-7.95146l-1.69869-.3795a9.85385,9.85385,0,0,0,1.49125-5.45231c-.14316-5.30217-4.6503-9.71432-10.26223-10.04465-.23168-.01339-.46639-.02053-.69808-.02053a11.15239,11.15239,0,0,0-9.33521,4.88719,9.29709,9.29709,0,0,0-1.33024,2.99312,9.91723,9.91723,0,0,0,1.17617,7.64145l-1.66529.37185a10.42807,10.42807,0,0,0-8.09618,8.01828l-4.72416,24.06055a5.36168,5.36168,0,0,0,1.05978,4.33734,6.03856,6.03856,0,0,0,4.08477,2.23424l.24635.02717a6.37984,6.37984,0,0,0,.69351.03813,6.16875,6.16875,0,0,0,3.3715-.99008v26.66172a5.7432,5.7432,0,0,0,5.92826,5.53822h4.486A6.04545,6.04545,0,0,0,461.6211,532.3a6.0456,6.0456,0,0,0,4.47429,1.93561h4.01978a5.74324,5.74324,0,0,0,5.9283-5.53825V494.9439l19.83634-5.8602a5.91426,5.91426,0,0,0,2.66278-1.63349,7.17113,7.17113,0,0,0,3.27382-2.9157V532.5217a1.77735,1.77735,0,0,0,1.83461,1.71391H515.281a7.482,7.482,0,0,0,6.74953-4.041,7.48061,7.48061,0,0,0,6.749,4.041h11.63046a1.77734,1.77734,0,0,0,1.83462-1.71391V484.49032a7.51068,7.51068,0,0,0,6.513,3.60631,8.08992,8.08992,0,0,0,.86842-.04724l.316-.03449a3.3453,3.3453,0,0,1,2.537.02361l1.45379.1687-1.72068,8.86263a1.25613,1.25613,0,0,0-.02.35447,5.16989,5.16989,0,0,0,5.26108,4.7083h2.47879v25.1801a7.17914,7.17914,0,0,0,7.41046,6.9229h6.0541a7.482,7.482,0,0,0,6.74953-4.041,7.48137,7.48137,0,0,0,6.74949,4.041h6.05412a7.17912,7.17912,0,0,0,7.41045-6.92289V502.13261h2.63a5.56889,5.56889,0,0,0,3.37508-1.056,4.6,4.6,0,0,0,1.81232-4.55646l-1.376-7.098,16.49313,4.84536-2.762,14.2427a3.32865,3.32865,0,0,0,1.6661,3.50461,3.938,3.938,0,0,0,2.00938.504h2.43025l-.00053,16.01093a5.45433,5.45433,0,0,0,1.1052,3.35679,6.117,6.117,0,0,0,4.88111,2.349h3.69913a6.07434,6.07434,0,0,0,4.55366-2.0097,6.0751,6.0751,0,0,0,4.55367,2.0097h4.07924a6.08652,6.08652,0,0,0,4.19854-1.63785,5.40651,5.40651,0,0,0,1.735-3.9541V512.51887h1.63047a4.02933,4.02933,0,0,0,2.03271-.50557,3.42779,3.42779,0,0,0,1.72423-3.612l-1.04715-5.44611a6.03582,6.03582,0,0,0,4.057-2.2299,5.38259,5.38259,0,0,0,1.06228-4.3388Z" style="fill:#a23814"/><rect x="581.21799" y="31.49916" width="80.84072" height="80.84072" rx="12" ry="12" style="fill:none;stroke:#a23814;stroke-miterlimit:10;stroke-width:2.9941006487584803px"/><rect x="589.70128" y="13.03554" width="4.99017" height="13.97247" style="fill:#363636"/><rect x="600.67965" y="13.03554" width="4.99017" height="13.97247" style="fill:#363636"/><rect x="612.65605" y="13.03554" width="4.99017" height="13.97247" style="fill:#363636"/><rect x="624.63245" y="13.03554" width="4.99017" height="13.97247" style="fill:#363636"/><rect x="635.61082" y="13.03554" width="4.99017" height="13.97247" style="fill:#363636"/><rect x="647.58722" y="13.03554" width="4.99017" height="13.97247" style="fill:#363636"/><rect x="671.04101" y="35.49129" width="4.99017" height="13.97247" transform="translate(716.01362 -631.05856) rotate(90)" style="fill:#363636"/><rect x="671.04101" y="46.46966" width="4.99017" height="13.97247" transform="translate(726.99199 -620.0802) rotate(90)" style="fill:#363636"/><rect x="671.04101" y="58.44607" width="4.99017" height="13.97247" transform="translate(738.96839 -608.10379) rotate(90)" style="fill:#363636"/><rect x="671.04101" y="70.42247" width="4.99017" height="13.97247" transform="translate(750.94479 -596.12739) rotate(90)" style="fill:#363636"/><rect x="671.04101" y="81.40084" width="4.99017" height="13.97247" transform="translate(761.92316 -585.14902) rotate(90)" style="fill:#363636"/><rect x="671.04101" y="93.37724" width="4.99017" height="13.97247" transform="translate(773.89957 -573.17262) rotate(90)" style="fill:#363636"/><rect x="648.58525" y="117.82906" width="4.99017" height="13.97247" transform="translate(1302.16068 249.63059) rotate(180)" style="fill:#363636"/><rect x="637.60689" y="117.82906" width="4.99017" height="13.97247" transform="translate(1280.20394 249.63059) rotate(180)" style="fill:#363636"/><rect x="625.63048" y="117.82906" width="4.99017" height="13.97247" transform="translate(1256.25114 249.63059) rotate(180)" style="fill:#363636"/><rect x="613.65408" y="117.82906" width="4.99017" height="13.97247" transform="translate(1232.29833 249.63059) rotate(180)" style="fill:#363636"/><rect x="602.67571" y="117.82906" width="4.99017" height="13.97247" transform="translate(1210.34159 249.63059) rotate(180)" style="fill:#363636"/><rect x="590.69931" y="117.82906" width="4.99017" height="13.97247" transform="translate(1186.38879 249.63059) rotate(180)" style="fill:#363636"/><rect x="565.24946" y="94.37527" width="4.99017" height="13.97247" transform="translate(466.38303 669.10605) rotate(-90)" style="fill:#363636"/><rect x="565.24946" y="83.3969" width="4.99017" height="13.97247" transform="translate(477.3614 658.12768) rotate(-90)" style="fill:#363636"/><rect x="565.24946" y="71.4205" width="4.99017" height="13.97247" transform="translate(489.3378 646.15128) rotate(-90)" style="fill:#363636"/><rect x="565.24946" y="59.4441" width="4.99017" height="13.97247" transform="translate(501.31421 634.17487) rotate(-90)" style="fill:#363636"/><rect x="565.24946" y="48.46573" width="4.99017" height="13.97247" transform="translate(512.29257 623.1965) rotate(-90)" style="fill:#363636"/><rect x="565.24946" y="36.48933" width="4.99017" height="13.97247" transform="translate(524.26898 611.2201) rotate(-90)" style="fill:#363636"/><text transform="translate(592.69534 78.38672)" style="font-size:23.18830108642578px;font-family:Arial-Black, Arial Black">CPU</text><rect x="750.68001" y="18.46362" width="80.84072" height="80.84072" rx="12" ry="12" style="fill:none;stroke:#a23814;stroke-miterlimit:10;stroke-width:2.9941006487584803px"/><rect x="759.1633" width="4.99017" height="13.97247" style="fill:#363636"/><rect x="770.14166" width="4.99017" height="13.97247" style="fill:#363636"/><rect x="782.11807" width="4.99017" height="13.97247" style="fill:#363636"/><rect x="794.09447" width="4.99017" height="13.97247" style="fill:#363636"/><rect x="805.07284" width="4.99017" height="13.97247" style="fill:#363636"/><rect x="817.04924" width="4.99017" height="13.97247" style="fill:#363636"/><rect x="840.50303" y="22.45575" width="4.99017" height="13.97247" transform="translate(872.4401 -813.55612) rotate(90)" style="fill:#363636"/><rect x="840.50303" y="33.43412" width="4.99017" height="13.97247" transform="translate(883.41847 -802.57775) rotate(90)" style="fill:#363636"/><rect x="840.50303" y="45.41053" width="4.99017" height="13.97247" transform="translate(895.39487 -790.60135) rotate(90)" style="fill:#363636"/><rect x="840.50303" y="57.38693" width="4.99017" height="13.97247" transform="translate(907.37127 -778.62495) rotate(90)" style="fill:#363636"/><rect x="840.50303" y="68.3653" width="4.99017" height="13.97247" transform="translate(918.34964 -767.64658) rotate(90)" style="fill:#363636"/><rect x="840.50303" y="80.3417" width="4.99017" height="13.97247" transform="translate(930.32604 -755.67018) rotate(90)" style="fill:#363636"/><rect x="818.04727" y="104.79352" width="4.99017" height="13.97247" transform="translate(1641.08471 223.55951) rotate(180)" style="fill:#363636"/><rect x="807.0689" y="104.79352" width="4.99017" height="13.97247" transform="translate(1619.12798 223.55951) rotate(180)" style="fill:#363636"/><rect x="795.0925" y="104.79352" width="4.99017" height="13.97247" transform="translate(1595.17517 223.55951) rotate(180)" style="fill:#363636"/><rect x="783.1161" y="104.79352" width="4.99017" height="13.97247" transform="translate(1571.22237 223.55951) rotate(180)" style="fill:#363636"/><rect x="772.13773" y="104.79352" width="4.99017" height="13.97247" transform="translate(1549.26563 223.55951) rotate(180)" style="fill:#363636"/><rect x="760.16133" y="104.79352" width="4.99017" height="13.97247" transform="translate(1525.31283 223.55951) rotate(180)" style="fill:#363636"/><rect x="734.71147" y="81.33973" width="4.99017" height="13.97247" transform="translate(648.88059 825.53252) rotate(-90)" style="fill:#363636"/><rect x="734.71147" y="70.36136" width="4.99017" height="13.97247" transform="translate(659.85896 814.55416) rotate(-90)" style="fill:#363636"/><rect x="734.71147" y="58.38496" width="4.99017" height="13.97247" transform="translate(671.83536 802.57775) rotate(-90)" style="fill:#363636"/><rect x="734.71147" y="46.40856" width="4.99017" height="13.97247" transform="translate(683.81176 790.60135) rotate(-90)" style="fill:#363636"/><rect x="734.71147" y="35.43019" width="4.99017" height="13.97247" transform="translate(694.79013 779.62298) rotate(-90)" style="fill:#363636"/><rect x="734.71147" y="23.45379" width="4.99017" height="13.97247" transform="translate(706.76654 767.64658) rotate(-90)" style="fill:#363636"/><rect x="677.91092" y="143.12078" width="70.16031" height="70.16031" rx="12" ry="12" style="fill:none;stroke:#a23814;stroke-miterlimit:10;stroke-width:2.598529870713959px"/><rect x="683.97415" y="149.18402" width="11.2603" height="11.2603" rx="4" ry="4" style="fill:none;stroke:#363636;stroke-miterlimit:10;stroke-width:2.598529870713959px"/><rect x="699.56533" y="149.18402" width="11.2603" height="11.2603" rx="4" ry="4" style="fill:none;stroke:#363636;stroke-miterlimit:10;stroke-width:2.598529870713959px"/><rect x="715.15651" y="149.18402" width="11.2603" height="11.2603" rx="4" ry="4" style="fill:none;stroke:#363636;stroke-miterlimit:10;stroke-width:2.598529870713959px"/><rect x="730.74769" y="149.18402" width="11.2603" height="11.2603" rx="4" ry="4" style="fill:none;stroke:#363636;stroke-miterlimit:10;stroke-width:2.598529870713959px"/><rect x="683.97415" y="164.7752" width="11.2603" height="11.2603" rx="4" ry="4" style="fill:none;stroke:#363636;stroke-miterlimit:10;stroke-width:2.598529870713959px"/><rect x="699.56533" y="164.7752" width="11.2603" height="11.2603" rx="4" ry="4" style="fill:none;stroke:#363636;stroke-miterlimit:10;stroke-width:2.598529870713959px"/><rect x="715.15651" y="164.7752" width="11.2603" height="11.2603" rx="4" ry="4" style="fill:none;stroke:#363636;stroke-miterlimit:10;stroke-width:2.598529870713959px"/><rect x="730.74769" y="164.7752" width="11.2603" height="11.2603" rx="4" ry="4" style="fill:none;stroke:#363636;stroke-miterlimit:10;stroke-width:2.598529870713959px"/><rect x="683.97415" y="180.36638" width="11.2603" height="11.2603" rx="4" ry="4" style="fill:none;stroke:#363636;stroke-miterlimit:10;stroke-width:2.598529870713959px"/><rect x="699.56533" y="180.36638" width="11.2603" height="11.2603" rx="4" ry="4" style="fill:none;stroke:#363636;stroke-miterlimit:10;stroke-width:2.598529870713959px"/><rect x="715.15651" y="180.36638" width="11.2603" height="11.2603" rx="4" ry="4" style="fill:none;stroke:#363636;stroke-miterlimit:10;stroke-width:2.598529870713959px"/><rect x="730.74769" y="180.36638" width="11.2603" height="11.2603" rx="4" ry="4" style="fill:none;stroke:#363636;stroke-miterlimit:10;stroke-width:2.598529870713959px"/><rect x="683.97415" y="195.95756" width="11.2603" height="11.2603" rx="4" ry="4" style="fill:none;stroke:#363636;stroke-miterlimit:10;stroke-width:2.598529870713959px"/><rect x="699.56533" y="195.95756" width="11.2603" height="11.2603" rx="4" ry="4" style="fill:none;stroke:#363636;stroke-miterlimit:10;stroke-width:2.598529870713959px"/><rect x="715.15651" y="195.95756" width="11.2603" height="11.2603" rx="4" ry="4" style="fill:none;stroke:#363636;stroke-miterlimit:10;stroke-width:2.598529870713959px"/><rect x="730.74769" y="195.95756" width="11.2603" height="11.2603" rx="4" ry="4" style="fill:none;stroke:#363636;stroke-miterlimit:10;stroke-width:2.598529870713959px"/><rect x="685.27342" y="127.09651" width="4.33088" height="12.12647" style="fill:#363636"/><rect x="694.80136" y="127.09651" width="4.33088" height="12.12647" style="fill:#363636"/><rect x="705.19548" y="127.09651" width="4.33088" height="12.12647" style="fill:#363636"/><rect x="715.5896" y="127.09651" width="4.33088" height="12.12647" style="fill:#363636"/><rect x="725.11754" y="127.09651" width="4.33088" height="12.12647" style="fill:#363636"/><rect x="735.51166" y="127.09651" width="4.33088" height="12.12647" style="fill:#363636"/><rect x="755.86681" y="146.58549" width="4.33088" height="12.12647" transform="translate(910.68098 -605.38353) rotate(90)" style="fill:#363636"/><rect x="755.86681" y="156.11343" width="4.33088" height="12.12647" transform="translate(920.20892 -595.85559) rotate(90)" style="fill:#363636"/><rect x="755.86681" y="166.50755" width="4.33088" height="12.12647" transform="translate(930.60304 -585.46147) rotate(90)" style="fill:#363636"/><rect x="755.86681" y="176.90167" width="4.33088" height="12.12647" transform="translate(940.99716 -575.06735) rotate(90)" style="fill:#363636"/><rect x="755.86681" y="186.42961" width="4.33088" height="12.12647" transform="translate(950.52511 -565.53941) rotate(90)" style="fill:#363636"/><rect x="755.86681" y="196.82373" width="4.33088" height="12.12647" transform="translate(960.91922 -555.14529) rotate(90)" style="fill:#363636"/><rect x="736.37784" y="218.04506" width="4.33088" height="12.12647" transform="translate(1477.08656 448.21659) rotate(180)" style="fill:#363636"/><rect x="726.8499" y="218.04506" width="4.33088" height="12.12647" transform="translate(1458.03068 448.21659) rotate(180)" style="fill:#363636"/><rect x="716.45578" y="218.04506" width="4.33088" height="12.12647" transform="translate(1437.24244 448.21659) rotate(180)" style="fill:#363636"/><rect x="706.06166" y="218.04506" width="4.33088" height="12.12647" transform="translate(1416.4542 448.21659) rotate(180)" style="fill:#363636"/><rect x="696.53371" y="218.04506" width="4.33088" height="12.12647" transform="translate(1397.39831 448.21659) rotate(180)" style="fill:#363636"/><rect x="686.1396" y="218.04506" width="4.33088" height="12.12647" transform="translate(1376.61007 448.21659) rotate(180)" style="fill:#363636"/><rect x="664.05209" y="197.68991" width="4.33088" height="12.12647" transform="translate(462.46439 869.97068) rotate(-90)" style="fill:#363636"/><rect x="664.05209" y="188.16197" width="4.33088" height="12.12647" transform="translate(471.99233 860.44274) rotate(-90)" style="fill:#363636"/><rect x="664.05209" y="177.76785" width="4.33088" height="12.12647" transform="translate(482.38645 850.04862) rotate(-90)" style="fill:#363636"/><rect x="664.05209" y="167.37373" width="4.33088" height="12.12647" transform="translate(492.78057 839.6545) rotate(-90)" style="fill:#363636"/><rect x="664.05209" y="157.84578" width="4.33088" height="12.12647" transform="translate(502.30851 830.12655) rotate(-90)" style="fill:#363636"/><rect x="664.05209" y="147.45166" width="4.33088" height="12.12647" transform="translate(512.70263 819.73243) rotate(-90)" style="fill:#363636"/><text transform="translate(677.90237 240.27441) scale(1.03513 1)" style="font-size:8.19139289855957px;font-family:Arial-Black, Arial Black">Multi-Co<tspan x="36.84921" y="0" style="letter-spacing:0.016124169944645887em">r</tspan><tspan x="40.61725" y="0">e CPU</tspan></text><rect x="763.62389" y="32.58885" width="22.81219" height="52.95688"/><rect x="793.76858" y="32.58885" width="22.81219" height="52.95688"/><text transform="matrix(0, 0.87312, -1, 0, 855.49807, 18.10742)" style="font-size:11.614325523376465px;font-family:Arial-Black, Arial Black">Dual-Co<tspan x="49.0434" y="0" style="letter-spacing:0.016082305663736987em">r</tspan><tspan x="54.38523" y="0">e CPU</tspan></text><text transform="translate(216.47268 134.2168)" style="font-size:21.540451049804688px;font-family:Arial-Black, Arial Black;letter-spacing:0.007820496927408929em">A<tspan x="16.92334" y="0" style="letter-spacing:-0.00002266810703596791em">WS</tspan></text><text transform="translate(57.35061 60.42285)" style="font-size:21.674278259277344px;font-family:Arial-Black, Arial Black">Azu<tspan x="43.36963" y="0" style="letter-spacing:0.016107622573340547em">r</tspan><tspan x="53.33887" y="0">e</tspan></text><text transform="translate(52.52932 166.5332)" style="font-size:16.361751556396484px;font-family:Arial-Black, Arial Black">GCP</text><rect x="375.99905" y="71.75608" width="146" height="36.7539" style="fill:none"/><polygon points="457.682 108.51 489.84 99.32 521.999 90.133 489.84 80.944 457.682 71.756 457.682 81.115 426.399 81.115 426.399 99.153 457.682 99.153 457.682 108.51" style="fill:#231f20"/><rect x="403.73058" y="81.48658" width="16.67274" height="17.29" style="fill:#231f20"/><rect x="389.04103" y="81.48658" width="9.52659" height="17.29" style="fill:#231f20"/><rect x="375.99905" y="81.52168" width="6.42077" height="17.2891" style="fill:#231f20"/><rect x="136.6221" y="199.13303" width="36.7539" height="114" transform="translate(-138.49935 197.0778) rotate(-47.44309)" style="fill:none"/><polygon points="162.434 238.011 137.723 227.798 113.012 217.583 125.294 241.335 137.576 265.084 143.906 258.19 161.899 274.71 174.098 261.424 156.105 244.904 162.434 238.011" style="fill:#231f20"/><rect x="167.59486" y="269.12824" width="17.29" height="13.01844" transform="translate(-145.99126 219.03706) rotate(-47.44309)" style="fill:#231f20"/><rect x="178.09876" y="281.56244" width="17.29" height="7.43857" transform="translate(-149.6954 229.89592) rotate(-47.44309)" style="fill:#231f20"/><rect x="186.51701" y="290.45684" width="17.2891" height="5.01348" transform="translate(-152.62924 238.58297) rotate(-47.44309)" style="fill:#231f20"/><rect x="614.99905" y="323.75608" width="146" height="36.7539" transform="translate(119.24974 858.7779) rotate(-68.69219)" style="fill:none"/><polygon points="667.723 343.545 664.599 376.843 661.472 410.143 681.72 383.521 701.964 356.9 693.245 353.499 704.613 324.355 687.808 317.8 676.441 346.945 667.723 343.545" style="fill:#231f20"/><rect x="693.08435" y="299.08107" width="16.67274" height="17.29" transform="translate(159.84922 849.37788) rotate(-68.69219)" style="fill:#231f20"/><rect x="703.29367" y="282.06685" width="9.52659" height="17.29" transform="translate(179.92516 844.72885) rotate(-68.69219)" style="fill:#231f20"/><rect x="710.11777" y="268.4575" width="6.42077" height="17.2891" transform="translate(195.96037 840.97541) rotate(-68.69219)" style="fill:#231f20"/></g></g></svg>