<svg xmlns="http://www.w3.org/2000/svg" xmlns:xlink="http://www.w3.org/1999/xlink" viewBox="0 0 681.74 351.29"><defs><style>.cls-1,.cls-19,.cls-2,.cls-20,.cls-21,.cls-38,.cls-39,.cls-40,.cls-41,.cls-44,.cls-46{fill:none;}.cls-1{clip-rule:evenodd;}.cls-3{font-size:12px;}.cls-22,.cls-24,.cls-25,.cls-26,.cls-3,.cls-45,.cls-47,.cls-50,.cls-51{font-family:Calibri, Calibri;}.cls-4{letter-spacing:-0.01em;}.cls-5{letter-spacing:0em;}.cls-6{letter-spacing:-0.01em;}.cls-7{letter-spacing:0em;}.cls-8{letter-spacing:0.02em;}.cls-9{letter-spacing:-0.01em;}.cls-10{letter-spacing:-0.01em;}.cls-11{letter-spacing:0em;}.cls-12{letter-spacing:0em;}.cls-13{letter-spacing:-0.01em;}.cls-14{letter-spacing:-0.01em;}.cls-15{letter-spacing:0.02em;}.cls-16{letter-spacing:-0.01em;}.cls-17{fill:#d4d6d5;}.cls-17,.cls-18{fill-rule:evenodd;}.cls-18,.cls-50{fill:#fff;}.cls-19{stroke:#fff;}.cls-19,.cls-20,.cls-21{stroke-miterlimit:3;stroke-width:0.88px;}.cls-20{stroke:#999c9d;}.cls-21{stroke:#b4b6b6;}.cls-22,.cls-24,.cls-25,.cls-26{font-size:7.8px;}.cls-23{clip-path:url(#clip-path);}.cls-24{fill:#231f20;}.cls-25,.cls-55{fill:#d1d3d4;}.cls-26{fill:#e6e7e8;}.cls-27{clip-path:url(#clip-path-2);}.cls-28{clip-path:url(#clip-path-3);}.cls-29{clip-path:url(#clip-path-4);}.cls-30{clip-path:url(#clip-path-5);}.cls-31{letter-spacing:-0.01em;}.cls-32{letter-spacing:0em;}.cls-33{letter-spacing:-0.01em;}.cls-34{letter-spacing:0em;}.cls-35{letter-spacing:0.03em;}.cls-36{letter-spacing:0.01em;}.cls-37{letter-spacing:-0.01em;}.cls-38,.cls-39,.cls-40,.cls-41{stroke:#1b75bc;}.cls-38,.cls-39,.cls-40,.cls-41,.cls-55{stroke-miterlimit:10;}.cls-39,.cls-40,.cls-41{stroke-width:0.5px;}.cls-40{stroke-dasharray:4.13 4.13;}.cls-41{stroke-dasharray:4.22 4.22;}.cls-42{fill:#e2d2d0;}.cls-43{clip-path:url(#clip-path-6);}.cls-44{stroke:#640c13;}.cls-44,.cls-46{stroke-linecap:square;stroke-width:1.42px;}.cls-45,.cls-47,.cls-50,.cls-51{isolation:isolate;font-size:6.71px;}.cls-45{fill:#640c13;}.cls-46{stroke:#010101;}.cls-47{fill:#010101;}.cls-48{clip-path:url(#clip-path-7);}.cls-49,.cls-51{fill:#6da5bb;}.cls-52{clip-path:url(#clip-path-8);}.cls-53{clip-path:url(#clip-path-9);}.cls-54{clip-path:url(#clip-path-10);}.cls-55{stroke:#d1d3d4;opacity:0.5;}</style><clipPath id="clip-path"><polygon id="_Clipping_Path_" data-name="&lt;Clipping Path&gt;" class="cls-1" points="308.43 292.31 380.22 292.31 380.22 279 308.43 279 308.43 292.31 308.43 292.31"/></clipPath><clipPath id="clip-path-2"><polygon id="_Clipping_Path_2" data-name="&lt;Clipping Path&gt;" class="cls-1" points="382.54 292.31 454.33 292.31 454.33 279 382.54 279 382.54 292.31 382.54 292.31"/></clipPath><clipPath id="clip-path-3"><polygon id="_Clipping_Path_3" data-name="&lt;Clipping Path&gt;" class="cls-1" points="456.65 292.31 528.44 292.31 528.44 279 456.65 279 456.65 292.31 456.65 292.31"/></clipPath><clipPath id="clip-path-4"><polygon id="_Clipping_Path_4" data-name="&lt;Clipping Path&gt;" class="cls-1" points="530.76 292.31 602.56 292.31 602.56 279 530.76 279 530.76 292.31 530.76 292.31"/></clipPath><clipPath id="clip-path-5"><polygon id="_Clipping_Path_5" data-name="&lt;Clipping Path&gt;" class="cls-1" points="604.87 292.31 676.67 292.31 676.67 279 604.87 279 604.87 292.31 604.87 292.31"/></clipPath><clipPath id="clip-path-6"><rect id="_Clipping_Path_6" data-name="&lt;Clipping Path&gt;" class="cls-2" x="180.63" y="48.39" width="12.68" height="12.68"/></clipPath><clipPath id="clip-path-7"><rect id="_Clipping_Path_7" data-name="&lt;Clipping Path&gt;" class="cls-2" x="205.99" y="111.9" width="12.68" height="12.68"/></clipPath><clipPath id="clip-path-8"><rect id="_Clipping_Path_8" data-name="&lt;Clipping Path&gt;" class="cls-2" x="155.27" y="175.41" width="12.68" height="12.68"/></clipPath><clipPath id="clip-path-9"><rect id="_Clipping_Path_9" data-name="&lt;Clipping Path&gt;" class="cls-2" x="3.12" y="175.41" width="12.68" height="12.68"/></clipPath><clipPath id="clip-path-10"><rect id="_Clipping_Path_10" data-name="&lt;Clipping Path&gt;" class="cls-2" x="3.12" y="238.92" width="12.68" height="12.68"/></clipPath></defs><title>LearnAndSolve</title><g id="Layer_2" data-name="Layer 2"><g id="Scores_incorrect"><text class="cls-3" transform="translate(338.69 10.04)"><tspan class="cls-4">C</tspan><tspan class="cls-5" x="6.83" y="0">onfiden</tspan><tspan class="cls-6" x="45.79" y="0">c</tspan><tspan x="51.1" y="0">e i</tspan><tspan class="cls-7" x="62.46" y="0">n</tspan><tspan class="cls-6" x="69.07" y="0">t</tspan><tspan x="72.97" y="0">e</tspan><tspan class="cls-8" x="78.98" y="0">r</tspan><tspan class="cls-7" x="83.21" y="0">v</tspan><tspan x="88.93" y="0">al imp</tspan><tspan class="cls-9" x="119.73" y="0">r</tspan><tspan class="cls-10" x="123.54" y="0">o</tspan><tspan class="cls-9" x="130.04" y="0">v</tspan><tspan class="cls-11" x="135.69" y="0">eme</tspan><tspan class="cls-12" x="157.73" y="0">n</tspan><tspan class="cls-5" x="164.34" y="0">t as family members a</tspan><tspan class="cls-13" x="272.94" y="0">r</tspan><tspan x="276.74" y="0">e </tspan><tspan class="cls-14" x="285.3" y="0">f</tspan><tspan class="cls-5" x="288.64" y="0">ound</tspan></text><text class="cls-3" transform="translate(462.49 25.37)">Un<tspan class="cls-15" x="14.42" y="0">k</tspan><tspan x="20.26" y="0">n</tspan><tspan class="cls-16" x="26.92" y="0">o</tspan><tspan x="33.42" y="0">wn ID</tspan></text><polygon id="_Path_" data-name="&lt;Path&gt;" class="cls-17" points="384.85 41.88 385.43 41.88 385.43 52.87 384.85 52.87 384.85 41.88 384.85 41.88"/><polygon id="_Path_2" data-name="&lt;Path&gt;" class="cls-17" points="458.96 41.88 459.54 41.88 459.54 52.87 458.96 52.87 458.96 41.88 458.96 41.88"/><polygon id="_Path_3" data-name="&lt;Path&gt;" class="cls-17" points="533.08 41.88 533.65 41.88 533.65 52.87 533.08 52.87 533.08 41.88 533.08 41.88"/><polygon id="_Path_4" data-name="&lt;Path&gt;" class="cls-17" points="607.19 41.88 607.77 41.88 607.77 52.87 607.19 52.87 607.19 41.88 607.19 41.88"/><polygon id="_Path_5" data-name="&lt;Path&gt;" class="cls-18" points="311.32 41.88 384.85 41.88 384.85 52.87 311.32 52.87 311.32 41.88 311.32 41.88"/><polygon id="_Path_6" data-name="&lt;Path&gt;" class="cls-19" points="311.32 41.88 384.27 41.88 384.27 52.29 311.32 52.29 311.32 41.88 311.32 41.88"/><polygon id="_Path_7" data-name="&lt;Path&gt;" class="cls-18" points="385.43 41.88 458.96 41.88 458.96 52.87 385.43 52.87 385.43 41.88 385.43 41.88"/><polygon id="_Path_8" data-name="&lt;Path&gt;" class="cls-19" points="385.43 41.88 458.39 41.88 458.39 52.29 385.43 52.29 385.43 41.88 385.43 41.88"/><polygon id="_Path_9" data-name="&lt;Path&gt;" class="cls-18" points="459.54 41.88 533.08 41.88 533.08 52.87 459.54 52.87 459.54 41.88 459.54 41.88"/><polygon id="_Path_10" data-name="&lt;Path&gt;" class="cls-19" points="459.54 41.88 532.5 41.88 532.5 52.29 459.54 52.29 459.54 41.88 459.54 41.88"/><polygon id="_Path_11" data-name="&lt;Path&gt;" class="cls-18" points="533.65 41.88 607.19 41.88 607.19 52.87 533.65 52.87 533.65 41.88 533.65 41.88"/><polygon id="_Path_12" data-name="&lt;Path&gt;" class="cls-19" points="533.65 41.88 606.61 41.88 606.61 52.29 533.65 52.29 533.65 41.88 533.65 41.88"/><polygon id="_Path_13" data-name="&lt;Path&gt;" class="cls-18" points="607.77 41.88 681.3 41.88 681.3 52.87 607.77 52.87 607.77 41.88 607.77 41.88"/><polygon id="_Path_14" data-name="&lt;Path&gt;" class="cls-19" points="607.77 41.88 680.72 41.88 680.72 52.29 607.77 52.29 607.77 41.88 607.77 41.88"/><line id="_Path_15" data-name="&lt;Path&gt;" class="cls-20" x1="309.58" y1="279.58" x2="311.32" y2="279.58"/><line id="_Path_16" data-name="&lt;Path&gt;" class="cls-20" x1="309.58" y1="252.98" x2="311.32" y2="252.98"/><line id="_Path_17" data-name="&lt;Path&gt;" class="cls-20" x1="309.58" y1="226.37" x2="311.32" y2="226.37"/><line id="_Path_18" data-name="&lt;Path&gt;" class="cls-20" x1="309.58" y1="199.77" x2="311.32" y2="199.77"/><line id="_Path_19" data-name="&lt;Path&gt;" class="cls-20" x1="309.58" y1="173.17" x2="311.32" y2="173.17"/><line id="_Path_20" data-name="&lt;Path&gt;" class="cls-20" x1="309.58" y1="145.98" x2="311.32" y2="145.98"/><line id="_Path_21" data-name="&lt;Path&gt;" class="cls-20" x1="309.58" y1="119.38" x2="311.32" y2="119.38"/><line id="_Path_22" data-name="&lt;Path&gt;" class="cls-20" x1="309.58" y1="92.78" x2="311.32" y2="92.78"/><line id="_Path_23" data-name="&lt;Path&gt;" class="cls-20" x1="309.58" y1="66.17" x2="311.32" y2="66.17"/><line id="_Path_24" data-name="&lt;Path&gt;" class="cls-20" x1="307.85" y1="266.28" x2="311.32" y2="266.28"/><line id="_Path_25" data-name="&lt;Path&gt;" class="cls-20" x1="307.85" y1="239.68" x2="311.32" y2="239.68"/><line id="_Path_26" data-name="&lt;Path&gt;" class="cls-20" x1="307.85" y1="213.07" x2="311.32" y2="213.07"/><line id="_Path_27" data-name="&lt;Path&gt;" class="cls-20" x1="307.85" y1="186.47" x2="311.32" y2="186.47"/><line id="_Path_28" data-name="&lt;Path&gt;" class="cls-20" x1="307.85" y1="159.29" x2="311.32" y2="159.29"/><line id="_Path_29" data-name="&lt;Path&gt;" class="cls-20" x1="307.85" y1="132.68" x2="311.32" y2="132.68"/><line id="_Path_30" data-name="&lt;Path&gt;" class="cls-20" x1="307.85" y1="106.08" x2="311.32" y2="106.08"/><line id="_Path_31" data-name="&lt;Path&gt;" class="cls-20" x1="307.85" y1="79.47" x2="311.32" y2="79.47"/><line id="_Path_32" data-name="&lt;Path&gt;" class="cls-20" x1="307.85" y1="52.87" x2="311.32" y2="52.87"/><line id="_Path_33" data-name="&lt;Path&gt;" class="cls-21" x1="307.85" y1="199.77" x2="311.32" y2="199.77"/><line id="_Path_34" data-name="&lt;Path&gt;" class="cls-21" x1="307.85" y1="159.29" x2="311.32" y2="159.29"/><text class="cls-22" transform="translate(299.79 268.06)">-2</text><text class="cls-22" transform="translate(302.08 241.56)">0</text><text class="cls-22" transform="translate(302.2 214.92)">2</text><text class="cls-22" transform="translate(302.83 188.29)">4</text><text class="cls-22" transform="translate(302.13 161.17)">6</text><text class="cls-22" transform="translate(302.09 134.57)">8</text><text class="cls-22" transform="translate(299.28 107.94)">10</text><text class="cls-22" transform="translate(299.28 81.34)">12</text><text class="cls-22" transform="translate(299.28 54.74)">14</text><path id="_Compound_Path_" data-name="&lt;Compound Path&gt;" class="cls-20" d="M311.32,279.58V52.87m73.53,226.71H311.32"/><line id="_Path_35" data-name="&lt;Path&gt;" class="cls-20" x1="458.97" y1="279.58" x2="385.43" y2="279.58"/><line id="_Path_36" data-name="&lt;Path&gt;" class="cls-20" x1="533.08" y1="279.58" x2="459.54" y2="279.58"/><line id="_Path_37" data-name="&lt;Path&gt;" class="cls-20" x1="607.19" y1="279.58" x2="533.66" y2="279.58"/><polyline id="_Path_38" data-name="&lt;Path&gt;" class="cls-20" points="681.3 52.87 681.3 279.58 607.77 279.58"/><g id="_Clip_Group_" data-name="&lt;Clip Group&gt;"><g class="cls-23"><line id="_Path_39" data-name="&lt;Path&gt;" class="cls-20" x1="311.32" y1="279.58" x2="311.32" y2="281.32"/><line id="_Path_40" data-name="&lt;Path&gt;" class="cls-20" x1="329.85" y1="279.58" x2="329.85" y2="281.32"/><line id="_Path_41" data-name="&lt;Path&gt;" class="cls-20" x1="348.38" y1="279.58" x2="348.38" y2="281.32"/><line id="_Path_42" data-name="&lt;Path&gt;" class="cls-20" x1="366.33" y1="279.58" x2="366.33" y2="281.32"/><line id="_Path_43" data-name="&lt;Path&gt;" class="cls-20" x1="384.85" y1="279.58" x2="384.85" y2="281.32"/><line id="_Path_44" data-name="&lt;Path&gt;" class="cls-20" x1="320.59" y1="279.58" x2="320.59" y2="283.05"/><line id="_Path_45" data-name="&lt;Path&gt;" class="cls-20" x1="339.11" y1="279.58" x2="339.11" y2="283.05"/><line id="_Path_46" data-name="&lt;Path&gt;" class="cls-20" x1="357.06" y1="279.58" x2="357.06" y2="283.05"/><line id="_Path_47" data-name="&lt;Path&gt;" class="cls-20" x1="375.59" y1="279.58" x2="375.59" y2="283.05"/><text class="cls-24" transform="translate(318.98 289.02)">1</text><text class="cls-25" transform="translate(355.03 289.06)">3</text><text class="cls-26" transform="translate(373.32 288.94)">4</text><text class="cls-26" transform="translate(337.18 289)">2</text></g></g><g id="_Clip_Group_2" data-name="&lt;Clip Group&gt;"><g class="cls-27"><line id="_Path_48" data-name="&lt;Path&gt;" class="cls-20" x1="385.43" y1="279.58" x2="385.43" y2="281.32"/><line id="_Path_49" data-name="&lt;Path&gt;" class="cls-20" x1="403.96" y1="279.58" x2="403.96" y2="281.32"/><line id="_Path_50" data-name="&lt;Path&gt;" class="cls-20" x1="422.49" y1="279.58" x2="422.49" y2="281.32"/><line id="_Path_51" data-name="&lt;Path&gt;" class="cls-20" x1="440.44" y1="279.58" x2="440.44" y2="281.32"/><line id="_Path_52" data-name="&lt;Path&gt;" class="cls-20" x1="458.97" y1="279.58" x2="458.97" y2="281.32"/><line id="_Path_53" data-name="&lt;Path&gt;" class="cls-20" x1="394.7" y1="279.58" x2="394.7" y2="283.05"/><line id="_Path_54" data-name="&lt;Path&gt;" class="cls-20" x1="413.22" y1="279.58" x2="413.22" y2="283.05"/><line id="_Path_55" data-name="&lt;Path&gt;" class="cls-20" x1="431.17" y1="279.58" x2="431.17" y2="283.05"/><line id="_Path_56" data-name="&lt;Path&gt;" class="cls-20" x1="449.7" y1="279.58" x2="449.7" y2="283.05"/><text class="cls-24" transform="translate(392.59 289.02)">1</text><text class="cls-26" transform="translate(411.12 289)">2</text><text class="cls-26" transform="translate(447.43 288.94)">4</text><text class="cls-26" transform="translate(429.23 289.06)">3</text></g></g><g id="_Clip_Group_3" data-name="&lt;Clip Group&gt;"><g class="cls-28"><line id="_Path_57" data-name="&lt;Path&gt;" class="cls-20" x1="459.54" y1="279.58" x2="459.54" y2="281.32"/><line id="_Path_58" data-name="&lt;Path&gt;" class="cls-20" x1="478.07" y1="279.58" x2="478.07" y2="281.32"/><line id="_Path_59" data-name="&lt;Path&gt;" class="cls-20" x1="496.6" y1="279.58" x2="496.6" y2="281.32"/><line id="_Path_60" data-name="&lt;Path&gt;" class="cls-20" x1="514.55" y1="279.58" x2="514.55" y2="281.32"/><line id="_Path_61" data-name="&lt;Path&gt;" class="cls-20" x1="533.08" y1="279.58" x2="533.08" y2="281.32"/><line id="_Path_62" data-name="&lt;Path&gt;" class="cls-20" x1="468.81" y1="279.58" x2="468.81" y2="283.05"/><line id="_Path_63" data-name="&lt;Path&gt;" class="cls-20" x1="487.34" y1="279.58" x2="487.34" y2="283.05"/><line id="_Path_64" data-name="&lt;Path&gt;" class="cls-20" x1="505.28" y1="279.58" x2="505.28" y2="283.05"/><line id="_Path_65" data-name="&lt;Path&gt;" class="cls-20" x1="523.81" y1="279.58" x2="523.81" y2="283.05"/><text class="cls-26" transform="translate(467.2 289.02)">1</text><text class="cls-24" transform="translate(485.23 289)">2</text><text class="cls-26" transform="translate(503.25 289.06)">3</text><text class="cls-26" transform="translate(521.54 288.94)">4</text></g></g><g id="_Clip_Group_4" data-name="&lt;Clip Group&gt;"><g class="cls-29"><line id="_Path_66" data-name="&lt;Path&gt;" class="cls-20" x1="533.66" y1="279.58" x2="533.66" y2="281.32"/><line id="_Path_67" data-name="&lt;Path&gt;" class="cls-20" x1="552.18" y1="279.58" x2="552.18" y2="281.32"/><line id="_Path_68" data-name="&lt;Path&gt;" class="cls-20" x1="570.71" y1="279.58" x2="570.71" y2="281.32"/><line id="_Path_69" data-name="&lt;Path&gt;" class="cls-20" x1="588.66" y1="279.58" x2="588.66" y2="281.32"/><line id="_Path_70" data-name="&lt;Path&gt;" class="cls-20" x1="607.19" y1="279.58" x2="607.19" y2="281.32"/><line id="_Path_71" data-name="&lt;Path&gt;" class="cls-20" x1="542.92" y1="279.58" x2="542.92" y2="283.05"/><line id="_Path_72" data-name="&lt;Path&gt;" class="cls-20" x1="561.45" y1="279.58" x2="561.45" y2="283.05"/><line id="_Path_73" data-name="&lt;Path&gt;" class="cls-20" x1="579.4" y1="279.58" x2="579.4" y2="283.05"/><line id="_Path_74" data-name="&lt;Path&gt;" class="cls-20" x1="597.92" y1="279.58" x2="597.92" y2="283.05"/><text class="cls-26" transform="translate(540.9 289.1)">1</text><text class="cls-26" transform="translate(559.34 289)">2</text><text class="cls-22" transform="translate(577.36 289.06)">3</text><text class="cls-26" transform="translate(595.65 288.94)">4</text></g></g><g id="_Clip_Group_5" data-name="&lt;Clip Group&gt;"><g class="cls-30"><line id="_Path_75" data-name="&lt;Path&gt;" class="cls-20" x1="607.77" y1="279.58" x2="607.77" y2="281.32"/><line id="_Path_76" data-name="&lt;Path&gt;" class="cls-20" x1="626.29" y1="279.58" x2="626.29" y2="281.32"/><line id="_Path_77" data-name="&lt;Path&gt;" class="cls-20" x1="644.82" y1="279.58" x2="644.82" y2="281.32"/><line id="_Path_78" data-name="&lt;Path&gt;" class="cls-20" x1="662.77" y1="279.58" x2="662.77" y2="281.32"/><line id="_Path_79" data-name="&lt;Path&gt;" class="cls-20" x1="681.3" y1="279.58" x2="681.3" y2="281.32"/><line id="_Path_80" data-name="&lt;Path&gt;" class="cls-20" x1="617.03" y1="279.58" x2="617.03" y2="283.05"/><line id="_Path_81" data-name="&lt;Path&gt;" class="cls-20" x1="635.56" y1="279.58" x2="635.56" y2="283.05"/><line id="_Path_82" data-name="&lt;Path&gt;" class="cls-20" x1="653.51" y1="279.58" x2="653.51" y2="283.05"/><line id="_Path_83" data-name="&lt;Path&gt;" class="cls-20" x1="672.03" y1="279.58" x2="672.03" y2="283.05"/><text class="cls-26" transform="translate(615.13 289.06)">1</text><text class="cls-26" transform="translate(633.45 289)">2</text><text class="cls-26" transform="translate(651.47 289.06)">3</text><text class="cls-22" transform="translate(669.76 288.94)">4</text></g></g><text></text><text class="cls-3" transform="translate(289.82 215.88) rotate(-90)"><tspan class="cls-31">C</tspan><tspan class="cls-32" x="6.83" y="0">onfiden</tspan><tspan class="cls-33" x="45.79" y="0">c</tspan><tspan x="51.1" y="0">e i</tspan><tspan class="cls-34" x="62.46" y="0">n</tspan><tspan class="cls-6" x="69.07" y="0">t</tspan><tspan x="72.97" y="0">e</tspan><tspan class="cls-35" x="78.98" y="0">r</tspan><tspan class="cls-34" x="83.21" y="0">v</tspan><tspan x="88.93" y="0">als</tspan></text><text class="cls-3" transform="translate(448.92 311.01)"><tspan class="cls-36">S</tspan><tspan x="5.99" y="0">olution i</tspan><tspan class="cls-6" x="47.4" y="0">t</tspan><tspan x="51.3" y="0">e</tspan><tspan class="cls-37" x="57.31" y="0">r</tspan><tspan class="cls-12" x="61.17" y="0">a</tspan><tspan class="cls-5" x="66.91" y="0">tion </tspan></text><circle id="_Path_84" data-name="&lt;Path&gt;" class="cls-38" cx="320.9" cy="286.52" r="5.53"/><circle id="_Path_85" data-name="&lt;Path&gt;" class="cls-38" cx="394.76" cy="286.52" r="5.53"/><g id="_Line_" data-name="&lt;Line&gt;"><line class="cls-39" x1="212.43" y1="273.72" x2="212.43" y2="271.72"/><line class="cls-40" x1="212.43" y1="267.59" x2="212.43" y2="220.08"/><line class="cls-39" x1="212.43" y1="218.02" x2="212.43" y2="216.02"/></g><g id="_Line_2" data-name="&lt;Line&gt;"><line class="cls-39" x1="191.54" y1="276.16" x2="189.79" y2="275.19"/><line class="cls-41" x1="186.11" y1="273.13" x2="151.15" y2="253.6"/><line class="cls-39" x1="149.31" y1="252.57" x2="147.56" y2="251.6"/></g><text class="cls-24" transform="translate(210.57 288.71)">1</text><circle id="_Path_86" data-name="&lt;Path&gt;" class="cls-38" cx="212.61" cy="286.52" r="5.53"/><circle id="_Path_87" data-name="&lt;Path&gt;" class="cls-38" cx="111.39" cy="286.52" r="5.53"/><text class="cls-24" transform="translate(109.38 288.51)">2</text><circle id="_Path_88" data-name="&lt;Path&gt;" class="cls-38" cx="59.92" cy="286.52" r="5.53"/><text class="cls-24" transform="translate(57.92 288.51)">4</text><circle id="_Path_89" data-name="&lt;Path&gt;" class="cls-38" cx="11.29" cy="286.52" r="5.53"/><text class="cls-24" transform="translate(9.57 288.51)">3</text><g id="_Group_" data-name="&lt;Group&gt;"><rect id="_4" data-name="4" class="cls-42" x="180.63" y="48.39" width="12.68" height="12.68"/><line id="_Path_90" data-name="&lt;Path&gt;" class="cls-44" x1="178.52" y1="63.18" x2="195.42" y2="46.28"/><text class="cls-45" transform="translate(185.11 78.54)">4</text><line id="_Path_91" data-name="&lt;Path&gt;" class="cls-46" x1="193.31" y1="54.73" x2="231.35" y2="54.73"/><circle id="_5" data-name="5" class="cls-42" cx="237.69" cy="54.73" r="6.34"/><line id="_Path_92" data-name="&lt;Path&gt;" class="cls-44" x1="229.24" y1="63.18" x2="246.14" y2="46.28"/><text class="cls-45" transform="translate(235.83 78.54)">5</text><line id="_5:4" data-name="5:4" class="cls-46" x1="212.33" y1="54.73" x2="212.33" y2="96.05"/><line id="_Path_93" data-name="&lt;Path&gt;" class="cls-46" x1="161.61" y1="96.05" x2="161.61" y2="111.9"/><circle id="_3" data-name="3" class="cls-46" cx="161.61" cy="118.24" r="6.34"/><text class="cls-47" transform="translate(159.75 142.05)">3</text><line id="_Path_94" data-name="&lt;Path&gt;" class="cls-46" x1="167.95" y1="118.24" x2="205.99" y2="118.24"/><rect id="_2" data-name="2" class="cls-42" x="205.99" y="111.9" width="12.68" height="12.68"/><line id="_Path_95" data-name="&lt;Path&gt;" class="cls-44" x1="203.88" y1="126.69" x2="220.78" y2="109.79"/><text class="cls-45" transform="translate(210.47 142.05)">2</text><line id="_3:2" data-name="3:2" class="cls-46" x1="186.97" y1="118.24" x2="186.97" y2="159.56"/><line id="_Path_96" data-name="&lt;Path&gt;" class="cls-46" x1="110.89" y1="159.56" x2="110.89" y2="175.41"/><circle id="_1" data-name="1" class="cls-49" cx="110.89" cy="181.75" r="6.34"/><g id="_Group_6" data-name="&lt;Group&gt;"><text class="cls-50" transform="translate(108.47 184.19)">U</text></g><text class="cls-51" transform="translate(109.03 205.56)">1</text><line id="_Path_97" data-name="&lt;Path&gt;" class="cls-46" x1="117.91" y1="181.75" x2="155.27" y2="181.75"/><rect id="_11" data-name="11" class="cls-46" x="155.27" y="175.41" width="12.68" height="12.68"/><text class="cls-47" transform="translate(157.88 205.56)">11</text><line id="_1:11" data-name="1:11" class="cls-46" x1="136.25" y1="181.75" x2="136.25" y2="223.07"/><line id="_Path_98" data-name="&lt;Path&gt;" class="cls-46" x1="136.25" y1="223.07" x2="136.25" y2="238.92"/><circle id="_12" data-name="12" class="cls-49" cx="136.25" cy="245.26" r="6.34"/><g id="_Group_8" data-name="&lt;Group&gt;"><text class="cls-50" transform="translate(133.83 247.69)">U</text></g><text class="cls-51" transform="translate(132.52 269.06)">12</text><rect id="_7" data-name="7" class="cls-42" x="3.12" y="175.41" width="12.68" height="12.68"/><line id="_Path_99" data-name="&lt;Path&gt;" class="cls-44" x1="1" y1="190.2" x2="17.91" y2="173.3"/><text class="cls-45" transform="translate(7.59 205.56)">7</text><line id="_Path_100" data-name="&lt;Path&gt;" class="cls-46" x1="15.8" y1="181.75" x2="53.83" y2="181.75"/><line id="_1:7" data-name="1:7" class="cls-46" x1="34.81" y1="181.75" x2="34.81" y2="223.07"/><line id="_Path_101" data-name="&lt;Path&gt;" class="cls-46" x1="9.46" y1="223.07" x2="9.46" y2="238.92"/><rect id="_8" data-name="8" class="cls-49" x="3.12" y="238.92" width="12.68" height="12.68"/><g id="_Clip_Group_11" data-name="&lt;Clip Group&gt;"><g class="cls-54"><g id="_Group_10" data-name="&lt;Group&gt;"><text class="cls-50" transform="translate(7.03 247.69)">U</text></g></g></g><text class="cls-51" transform="translate(7.59 269.06)">8</text><line id="_Path_102" data-name="&lt;Path&gt;" class="cls-46" x1="60.17" y1="223.07" x2="60.17" y2="238.92"/><circle id="_9" data-name="9" class="cls-49" cx="60.17" cy="245.26" r="6.34"/><g id="_Group_11" data-name="&lt;Group&gt;"><text class="cls-50" transform="translate(57.75 247.69)">U</text></g><text class="cls-51" transform="translate(58.31 269.06)">9</text><line id="_Path_103" data-name="&lt;Path&gt;" class="cls-46" x1="9.46" y1="223.07" x2="60.17" y2="223.07"/><line id="_Path_104" data-name="&lt;Path&gt;" class="cls-46" x1="103.99" y1="181.75" x2="53.83" y2="181.75"/><line id="_Path_105" data-name="&lt;Path&gt;" class="cls-46" x1="212.33" y1="159.56" x2="212.33" y2="175.41"/><circle id="_10" data-name="10" class="cls-49" cx="212.33" cy="181.75" r="6.34"/><g id="_Group_12" data-name="&lt;Group&gt;"><text class="cls-50" transform="translate(209.91 184.19)">U</text></g><text class="cls-51" transform="translate(208.6 205.56)">10</text><line id="_Path_106" data-name="&lt;Path&gt;" class="cls-46" x1="110.89" y1="159.56" x2="212.33" y2="159.56"/><line id="_Path_107" data-name="&lt;Path&gt;" class="cls-46" x1="263.05" y1="96.05" x2="263.05" y2="111.9"/><circle id="_6" data-name="6" class="cls-46" cx="263.05" cy="118.24" r="6.34"/><text class="cls-47" transform="translate(261.18 142.05)">6</text><line id="_Path_108" data-name="&lt;Path&gt;" class="cls-46" x1="161.61" y1="96.05" x2="263.05" y2="96.05"/></g><text class="cls-22" transform="translate(495.45 49.24)">1</text><text class="cls-22" transform="translate(569.02 49.26)">8</text><text class="cls-22" transform="translate(643.15 49.26)">9</text><text class="cls-22" transform="translate(345.84 49.24)">10</text><text class="cls-22" transform="translate(419.95 49.24)">12</text><circle id="_Path_109" data-name="&lt;Path&gt;" class="cls-38" cx="487.02" cy="286.52" r="5.53"/><circle id="_Path_110" data-name="&lt;Path&gt;" class="cls-38" cx="579.31" cy="286.52" r="5.53"/><circle id="_Path_111" data-name="&lt;Path&gt;" class="cls-38" cx="671.81" cy="286.52" r="5.53"/><circle class="cls-55" cx="468.76" cy="176.35" r="3.94"/><circle class="cls-55" cx="488.09" cy="161.17" r="3.94"/><circle class="cls-55" cx="543.43" cy="196.68" r="3.94"/><circle class="cls-55" cx="562.11" cy="192.74" r="3.94"/><circle class="cls-55" cx="562.11" cy="181.79" r="3.94"/><circle class="cls-55" cx="562.11" cy="169.23" r="3.94"/><circle class="cls-55" cx="617.45" cy="197.45" r="3.94"/><circle class="cls-55" cx="636.23" cy="201.43" r="3.94"/><circle class="cls-55" cx="636.23" cy="192.79" r="3.94"/><circle class="cls-55" cx="636.23" cy="181.84" r="3.94"/><circle class="cls-55" cx="636.23" cy="169.27" r="3.94"/><circle class="cls-55" cx="653.9" cy="175.23" r="3.94"/></g></g></svg>