<svg xmlns="http://www.w3.org/2000/svg" viewBox="0 0 27.11 36.83"><title>logo2</title><g id="Layer_4" data-name="Layer 4"><rect x="15.04" y="0.65" width="11.43" height="29.57" rx="4" ry="4" style="fill:#9d360e"/><path d="M516.32,630.78h-3.43a4.65,4.65,0,0,1-4.65-4.65V604.56a4.65,4.65,0,0,1,4.65-4.65h3.43a4.65,4.65,0,0,1,4.64,4.65v21.57A4.65,4.65,0,0,1,516.32,630.78Zm-3.43-29.57a3.36,3.36,0,0,0-3.36,3.35v21.57a3.36,3.36,0,0,0,3.36,3.35h3.43a3.35,3.35,0,0,0,3.35-3.35V604.56a3.35,3.35,0,0,0-3.35-3.35Z" transform="translate(-493.85 -599.91)" style="fill:#9d360e"/><rect x="0.65" y="6.61" width="11.43" height="29.57" rx="4" ry="4" style="fill:#9d360e"/><path d="M501.92,636.74h-3.43a4.65,4.65,0,0,1-4.64-4.65V610.52a4.64,4.64,0,0,1,4.64-4.64h3.43a4.65,4.65,0,0,1,4.65,4.64v21.57A4.65,4.65,0,0,1,501.92,636.74Zm-3.43-29.57a3.35,3.35,0,0,0-3.35,3.35v21.57a3.36,3.36,0,0,0,3.35,3.36h3.43a3.37,3.37,0,0,0,3.36-3.36V610.52a3.36,3.36,0,0,0-3.36-3.35Z" transform="translate(-493.85 -599.91)" style="fill:#9d360e"/><path d="M495.07,624.72V610.87a3.64,3.64,0,0,1,3.15-3.72h4.31a3.69,3.69,0,0,1,2.77,3.62s-7.46,11.41-9.69,14.7C495.24,626,495.07,625,495.07,624.72Z" transform="translate(-493.85 -599.91)" style="fill:#fff"/><path d="M519.72,618.76V604.92a3.66,3.66,0,0,0-3.15-3.73h-4.31a3.7,3.7,0,0,0-2.77,3.62s7.46,11.41,9.69,14.71C519.55,620.07,519.72,619,519.72,618.76Z" transform="translate(-493.85 -599.91)" style="fill:#fff"/><path d="M519.72,622.92V609.08a3.66,3.66,0,0,0-3.15-3.73l-7.07-.83c0,2,0,2.85,0,4.46,0,0,7.46,11.41,9.69,14.7C519.55,624.23,519.72,623.18,519.72,622.92Z" transform="translate(-493.85 -599.91)" style="fill:#fff"/></g></svg>