<svg xmlns="http://www.w3.org/2000/svg" viewBox="0 0 202.4 37.37"><title>logo</title><g id="Layer_4" data-name="Layer 4"><text transform="translate(33.77 23.07)" style="font-size:22px;font-family:AvenirLTStd-Black, Avenir LT Std">ANANOMOUSE</text><rect x="15.13" y="0.65" width="11.5" height="29.75" rx="4" ry="4" style="fill:#9d360e;stroke:#9d360e;stroke-miterlimit:10;stroke-width:1.29999995231628px"/><rect x="0.65" y="6.65" width="11.5" height="29.75" rx="4" ry="4" style="fill:#9d360e;stroke:#9d360e;stroke-miterlimit:10;stroke-width:1.29999995231628px"/><text transform="translate(33.42 33.91) scale(0.89 1)" style="opacity:0.7;font-size:12px;font-family:AvenirLTStd-Book, Avenir LT Std">Solutions for Resea<tspan x="102.23" y="0" style="letter-spacing:-0.01800806210892495em">r</tspan><tspan x="105.99" y="0">ch</tspan></text><path d="M492.15,513.43V499.51a3.67,3.67,0,0,1,3.16-3.75h4.34a3.73,3.73,0,0,1,2.79,3.64s-7.52,11.48-9.75,14.79C492.31,514.75,492.15,513.69,492.15,513.43Z" transform="translate(-490.91 -488.48)" style="fill:#fff"/><path d="M516.94,507.44V493.51a3.67,3.67,0,0,0-3.17-3.75h-4.33a3.72,3.72,0,0,0-2.79,3.65s7.51,11.48,9.75,14.79C516.77,508.76,516.94,507.7,516.94,507.44Z" transform="translate(-490.91 -488.48)" style="fill:#fff"/><path d="M516.94,511.63V497.7a3.67,3.67,0,0,0-3.17-3.75l-7.11-.83c0,2,0,2.86,0,4.48,0,0,7.51,11.48,9.75,14.79C516.77,512.94,516.94,511.88,516.94,511.63Z" transform="translate(-490.91 -488.48)" style="fill:#fff"/></g></svg>