<svg xmlns="http://www.w3.org/2000/svg" viewBox="0 0 201.18 38.44"><title>logo</title><g id="Layer_4" data-name="Layer 4"><text transform="translate(33.57 35)" style="font-size:11.92762565612793px;font-family:AvenirLTStd-Book, Avenir LT Std;letter-spacing:-0.0500250179459187em;opacity:0.699999988079071">Solutions for Resea<tspan x="90.28" y="0" style="letter-spacing:-0.0679963623634787em">r</tspan><tspan x="93.43" y="0" style="letter-spacing:-0.049984080942689635em">ch</tspan></text><text transform="translate(33.57 22.93)" style="font-size:21.867313385009766px;font-family:AvenirLTStd-Black, Avenir LT Std">ANANOMOUSE</text><rect x="15.04" y="0.65" width="11.43" height="29.57" rx="4" ry="4" style="fill:#9d360e;stroke:#9d360e;stroke-miterlimit:10;stroke-width:1.29215938121312px"/><rect x="0.65" y="6.61" width="11.43" height="29.57" rx="4" ry="4" style="fill:#9d360e;stroke:#9d360e;stroke-miterlimit:10;stroke-width:1.29215938121312px"/><path d="M476.26,624.16V610.31a3.64,3.64,0,0,1,3.15-3.72h4.31a3.69,3.69,0,0,1,2.77,3.62s-7.46,11.41-9.69,14.7C476.43,625.46,476.26,624.41,476.26,624.16Z" transform="translate(-475.04 -599.35)" style="fill:#fff"/><path d="M500.91,618.2V604.36a3.66,3.66,0,0,0-3.15-3.73h-4.31a3.7,3.7,0,0,0-2.77,3.62s7.46,11.41,9.69,14.71C500.74,619.51,500.91,618.46,500.91,618.2Z" transform="translate(-475.04 -599.35)" style="fill:#fff"/><path d="M500.91,622.36V608.52a3.66,3.66,0,0,0-3.15-3.73l-7.07-.83c0,2,0,2.85,0,4.46,0,0,7.46,11.41,9.69,14.7C500.74,623.67,500.91,622.62,500.91,622.36Z" transform="translate(-475.04 -599.35)" style="fill:#fff"/></g></svg>