<svg xmlns="http://www.w3.org/2000/svg" viewBox="0 0 394 292"><defs><style>.cls-1,.cls-8{fill:#fff;}.cls-10,.cls-2,.cls-5,.cls-8,.cls-9{isolation:isolate;}.cls-2{font-size:14.6px;font-family:Calibri-Bold, Calibri;font-weight:700;}.cls-3{fill:#e1d1d0;}.cls-4,.cls-6{fill:none;stroke-linecap:square;stroke-width:1.15px;}.cls-4{stroke:#650810;}.cls-10,.cls-5,.cls-9{font-size:9.73px;}.cls-5{fill:#650810;}.cls-10,.cls-5,.cls-8,.cls-9{font-family:Calibri, Calibri;}.cls-6{stroke:#000;}.cls-7,.cls-9{fill:#6ca5bb;}.cls-8{font-size:11.35px;}</style></defs><title>ped_5660_card</title><g id="Layer_2" data-name="Layer 2"><g id="Layer_1-2" data-name="Layer 1"><rect class="cls-1" width="394" height="292"/><g id="Layer_2-2" data-name="Layer 2"><g id="svgDC"><text class="cls-2" transform="translate(185.17 25.98)">5660</text><rect id="_2" data-name=" 2" class="cls-3" x="154.87" y="33.04" width="19.08" height="19.08"/><line class="cls-4" x1="152.34" y1="54.48" x2="176.88" y2="29.94"/><text class="cls-5" transform="translate(161.9 76.76)">2</text><line class="cls-6" x1="173.16" y1="41.79" x2="228.82" y2="41.79"/><circle id="_3" data-name=" 3" class="cls-3" cx="238.22" cy="42.2" r="9.21"/><line class="cls-4" x1="225.94" y1="54.48" x2="250.48" y2="29.94"/><text class="cls-5" transform="translate(235.52 76.76)">3</text><line id="_3:2" data-name=" 3:2" class="cls-6" x1="201.79" y1="41.79" x2="201.79" y2="102.22"/><line class="cls-6" x1="127.04" y1="102.22" x2="127.04" y2="124.49"/><circle id="_1" data-name=" 1" class="cls-7" cx="127.8" cy="134.38" r="9.21"/><text class="cls-8" transform="translate(124.29 137.91)">U</text><text class="cls-9" transform="translate(125.1 168.94)">1</text><line class="cls-6" x1="136.58" y1="134.03" x2="192.25" y2="134.03"/><rect id="_5" data-name=" 5" class="cls-3" x="191.45" y="125.28" width="19.08" height="19.08"/><line class="cls-4" x1="189.14" y1="146.64" x2="213.68" y2="122.12"/><text class="cls-5" transform="translate(198.7 168.94)">5</text><line id="_1:5" data-name=" 1:5" class="cls-6" x1="165.21" y1="134.03" x2="165.21" y2="194.46"/><line class="cls-6" x1="127.04" y1="194.46" x2="127.04" y2="216.72"/><rect id="_6" data-name=" 6" class="cls-6" x="117.5" y="216.72" width="19.08" height="19.08"/><text class="cls-10" transform="translate(125.1 261.11)">6</text><line class="cls-6" x1="201.79" y1="194.46" x2="201.79" y2="216.72"/><circle id="_7" data-name=" 7" class="cls-7" cx="201.41" cy="226.55" r="9.21"/><text class="cls-8" transform="translate(197.89 230.09)">U</text><text class="cls-9" transform="translate(198.7 261.11)">7</text><line class="cls-6" x1="127.04" y1="194.46" x2="201.79" y2="194.46"/><line class="cls-6" x1="274.94" y1="102.22" x2="274.94" y2="124.49"/><circle id="_4" data-name=" 4" class="cls-6" cx="275.02" cy="134.38" r="9.21"/><text class="cls-10" transform="translate(272.32 168.94)">4</text><line class="cls-6" x1="127.04" y1="102.22" x2="274.94" y2="102.22"/></g></g></g></g></svg>