<svg xmlns="http://www.w3.org/2000/svg" viewBox="0 0 22.41 33.46"><defs><style>.cls-1,.cls-4,.cls-7,.cls-8,.cls-9{isolation:isolate;}.cls-1{font-size:1.96px;font-family:Calibri-Bold, Calibri;font-weight:700;}.cls-2{fill:#e1d1d0;}.cls-3,.cls-5{fill:none;stroke-linecap:square;stroke-width:0.15px;}.cls-3{stroke:#650810;}.cls-4,.cls-8,.cls-9{font-size:1.31px;}.cls-4{fill:#650810;}.cls-4,.cls-7,.cls-8,.cls-9{font-family:Calibri, Calibri;}.cls-5{stroke:#000;}.cls-6,.cls-8{fill:#6ca5bb;}.cls-7{font-size:1.53px;fill:#fff;}</style></defs><title>ped_5660_1_1</title><g id="Layer_2" data-name="Layer 2"><g id="svgDC"><text class="cls-1" transform="translate(9.02 1.6)">5660</text><rect id="_2" data-name="2" class="cls-2" x="5.02" y="2.55" width="2.47" height="2.47"/><line class="cls-3" x1="4.61" y1="5.43" x2="7.91" y2="2.13"/><text class="cls-4" transform="translate(5.9 8.43)">2</text><line class="cls-5" x1="7.5" y1="3.78" x2="14.92" y2="3.78"/><circle id="_3" data-name="3" class="cls-2" cx="16.15" cy="3.78" r="1.24"/><line class="cls-3" x1="14.5" y1="5.43" x2="17.8" y2="2.13"/><text class="cls-4" transform="translate(15.79 8.43)">3</text><line id="_3:2" data-name="3:2" class="cls-5" x1="11.21" y1="3.78" x2="11.21" y2="11.84"/><line class="cls-5" x1="1.31" y1="11.84" x2="1.31" y2="14.93"/><circle id="_1" data-name="1" class="cls-6" cx="1.31" cy="16.17" r="1.24"/><text class="cls-7" transform="translate(0.84 16.65)">U</text><text class="cls-8" transform="translate(0.95 20.81)">1</text><line class="cls-5" x1="2.55" y1="16.17" x2="9.97" y2="16.17"/><rect id="_5" data-name="5" class="cls-2" x="9.97" y="14.93" width="2.47" height="2.47"/><line class="cls-3" x1="9.56" y1="17.82" x2="12.86" y2="14.52"/><text class="cls-4" transform="translate(10.84 20.81)">5</text><line id="_1:5" data-name="1:5" class="cls-5" x1="6.26" y1="16.17" x2="6.26" y2="24.23"/><line class="cls-5" x1="1.31" y1="24.23" x2="1.31" y2="27.32"/><rect id="_6" data-name="6" class="cls-5" x="0.08" y="27.32" width="2.47" height="2.47"/><text class="cls-9" transform="translate(0.95 33.2)">6</text><line class="cls-5" x1="11.21" y1="24.23" x2="11.21" y2="27.32"/><circle id="_7" data-name="7" class="cls-6" cx="11.21" cy="28.56" r="1.24"/><text class="cls-7" transform="translate(10.73 29.03)">U</text><text class="cls-8" transform="translate(10.84 33.2)">7</text><line class="cls-5" x1="1.31" y1="24.23" x2="11.21" y2="24.23"/><line class="cls-5" x1="21.1" y1="11.84" x2="21.1" y2="14.93"/><circle id="_4" data-name="4" class="cls-5" cx="21.1" cy="16.17" r="1.24"/><text class="cls-9" transform="translate(20.74 20.81)">4</text><line class="cls-5" x1="1.31" y1="11.84" x2="21.1" y2="11.84"/></g></g></svg>