<svg xmlns="http://www.w3.org/2000/svg" viewBox="0 0 205.54 306.79"><defs><style>.cls-1,.cls-4,.cls-7,.cls-8,.cls-9{isolation:isolate;}.cls-1{font-size:18px;font-family:Calibri-Bold, Calibri;font-weight:700;}.cls-2{fill:#e1d1d0;}.cls-3,.cls-5{fill:none;stroke-linecap:square;stroke-width:1.42px;}.cls-3{stroke:#650810;}.cls-4,.cls-8,.cls-9{font-size:12px;}.cls-4{fill:#650810;}.cls-4,.cls-7,.cls-8,.cls-9{font-family:Calibri, Calibri;}.cls-5{stroke:#000;}.cls-6,.cls-8{fill:#6ca5bb;}.cls-7{font-size:14px;fill:#fff;}</style></defs><title>ped_5660</title><g id="Layer_2" data-name="Layer 2"><g id="svgDC"><text class="cls-1" transform="translate(82.75 14.69)">5660</text><rect id="_2" data-name="2" class="cls-2" x="46.07" y="23.35" width="22.68" height="22.68"/><line class="cls-3" x1="42.29" y1="49.81" x2="72.53" y2="19.57"/><text class="cls-4" transform="translate(54.07 77.27)">2</text><line class="cls-5" x1="68.75" y1="34.69" x2="136.79" y2="34.69"/><circle id="_3" data-name="3" class="cls-2" cx="148.13" cy="34.69" r="11.34"/><line class="cls-3" x1="133.01" y1="49.81" x2="163.25" y2="19.57"/><text class="cls-4" transform="translate(144.79 77.27)">3</text><line id="_3:2" data-name="3:2" class="cls-5" x1="102.77" y1="34.69" x2="102.77" y2="108.59"/><line class="cls-5" x1="12.05" y1="108.59" x2="12.05" y2="136.94"/><circle id="_1" data-name="1" class="cls-6" cx="12.05" cy="148.28" r="11.34"/><text class="cls-7" transform="translate(7.72 152.64)">U</text><text class="cls-8" transform="translate(8.71 190.87)">1</text><line class="cls-5" x1="23.39" y1="148.28" x2="91.43" y2="148.28"/><rect id="_5" data-name="5" class="cls-2" x="91.43" y="136.94" width="22.68" height="22.68"/><line class="cls-3" x1="87.65" y1="163.4" x2="117.89" y2="133.16"/><text class="cls-4" transform="translate(99.43 190.87)">5</text><line id="_1:5" data-name="1:5" class="cls-5" x1="57.41" y1="148.28" x2="57.41" y2="222.19"/><line class="cls-5" x1="12.05" y1="222.19" x2="12.05" y2="250.54"/><rect id="_6" data-name="6" class="cls-5" x="0.71" y="250.54" width="22.68" height="22.68"/><text class="cls-9" transform="translate(8.71 304.46)">6</text><line class="cls-5" x1="102.77" y1="222.19" x2="102.77" y2="250.54"/><circle id="_7" data-name="7" class="cls-6" cx="102.77" cy="261.88" r="11.34"/><text class="cls-7" transform="translate(98.44 266.24)">U</text><text class="cls-8" transform="translate(99.43 304.46)">7</text><line class="cls-5" x1="12.05" y1="222.19" x2="102.77" y2="222.19"/><line class="cls-5" x1="193.49" y1="108.59" x2="193.49" y2="136.94"/><circle id="_4" data-name="4" class="cls-5" cx="193.49" cy="148.28" r="11.34"/><text class="cls-9" transform="translate(190.15 190.87)">4</text><line class="cls-5" x1="12.05" y1="108.59" x2="193.49" y2="108.59"/></g></g></svg>