<svg xmlns="http://www.w3.org/2000/svg" viewBox="0 0 104.87 157.07"><defs><style>.cls-1,.cls-4,.cls-7,.cls-8,.cls-9{isolation:isolate;}.cls-1{font-size:9.18px;font-family:Calibri-Bold, Calibri Bold;font-weight:700;}.cls-2{fill:#e1d1d0;}.cls-3,.cls-5{fill:none;stroke-linecap:square;stroke-width:0.72px;}.cls-3{stroke:#650810;}.cls-4,.cls-8,.cls-9{font-size:6.12px;}.cls-4{fill:#650810;}.cls-4,.cls-7,.cls-8,.cls-9{font-family:Calibri, Calibri;}.cls-5{stroke:#000;}.cls-6,.cls-8{fill:#6ca5bb;}.cls-7{font-size:7.14px;fill:#fff;}</style></defs><title>ped_5660_2_1</title><g id="Layer_2" data-name="Layer 2"><g id="svgDC"><text class="cls-1" transform="translate(42.22 7.69)">5660</text><rect id="_2" data-name="2" class="cls-2" x="23.5" y="12.11" width="11.57" height="11.57"/><line class="cls-3" x1="21.58" y1="25.61" x2="37.01" y2="10.18"/><text class="cls-4" transform="translate(27.59 39.62)">2</text><line class="cls-5" x1="35.08" y1="17.89" x2="69.79" y2="17.89"/><circle id="_3" data-name="3" class="cls-2" cx="75.58" cy="17.89" r="5.79"/><line class="cls-3" x1="67.86" y1="25.61" x2="83.29" y2="10.18"/><text class="cls-4" transform="translate(73.88 39.62)">3</text><line id="_3:2" data-name="3:2" class="cls-5" x1="52.43" y1="17.89" x2="52.43" y2="55.6"/><line class="cls-5" x1="6.15" y1="55.6" x2="6.15" y2="70.06"/><circle id="_1" data-name="1" class="cls-6" cx="6.15" cy="75.85" r="5.79"/><text class="cls-7" transform="translate(3.94 78.07)">U</text><text class="cls-8" transform="translate(4.45 97.58)">1</text><line class="cls-5" x1="11.93" y1="75.85" x2="46.65" y2="75.85"/><rect id="_5" data-name="5" class="cls-2" x="46.65" y="70.06" width="11.57" height="11.57"/><line class="cls-3" x1="44.72" y1="83.56" x2="60.15" y2="68.14"/><text class="cls-4" transform="translate(50.73 97.58)">5</text><line id="_1:5" data-name="1:5" class="cls-5" x1="29.29" y1="75.85" x2="29.29" y2="113.56"/><line class="cls-5" x1="6.15" y1="113.56" x2="6.15" y2="128.02"/><rect id="_6" data-name="6" class="cls-5" x="0.36" y="128.02" width="11.57" height="11.57"/><text class="cls-9" transform="translate(4.45 155.54)">6</text><line class="cls-5" x1="52.43" y1="113.56" x2="52.43" y2="128.02"/><circle id="_7" data-name="7" class="cls-6" cx="52.43" cy="133.81" r="5.79"/><text class="cls-7" transform="translate(50.22 136.03)">U</text><text class="cls-8" transform="translate(50.73 155.54)">7</text><line class="cls-5" x1="6.15" y1="113.56" x2="52.43" y2="113.56"/><line class="cls-5" x1="98.72" y1="55.6" x2="98.72" y2="70.06"/><circle id="_4" data-name="4" class="cls-5" cx="98.72" cy="75.85" r="5.79"/><text class="cls-9" transform="translate(97.02 97.58)">4</text><line class="cls-5" x1="6.15" y1="55.6" x2="98.72" y2="55.6"/></g></g></svg>