<svg xmlns="http://www.w3.org/2000/svg" viewBox="0 0 395 294"><defs><style>.cls-1,.cls-8{fill:#fff;}.cls-10,.cls-2,.cls-5,.cls-8,.cls-9{isolation:isolate;}.cls-2{font-size:16.68px;font-family:Arial-BoldMT, Arial;font-weight:700;}.cls-3{fill:#e1d1d0;}.cls-4,.cls-6{fill:none;stroke-linecap:square;stroke-width:1.37px;}.cls-4{stroke:#650810;}.cls-10,.cls-5,.cls-9{font-size:11.12px;}.cls-5{fill:#650810;}.cls-10,.cls-5,.cls-8,.cls-9{font-family:ArialMT, Arial;}.cls-6{stroke:#000;}.cls-7,.cls-9{fill:#6ca5bb;}.cls-8{font-size:12.97px;}</style></defs><title>ped_5660</title><g id="Layer_2" data-name="Layer 2"><g id="Layer_1-2" data-name="Layer 1"><rect class="cls-1" width="395" height="294"/><g id="Layer_2-2" data-name="Layer 2"><g id="svgDC"><text class="cls-2" transform="translate(176.34 17.86) scale(1.08 1)">5660</text><rect id="_2" data-name=" 2" class="cls-3" x="140" y="25.28" width="23" height="21.31"/><line class="cls-4" x1="135.89" y1="50.4" x2="166.13" y2="22.38"/><text class="cls-5" transform="translate(147.67 75.85) scale(1.08 1)">2</text><line class="cls-6" x1="162.5" y1="35.94" x2="230.5" y2="35.94"/><ellipse id="_3" data-name=" 3" class="cls-3" cx="241.73" cy="36.39" rx="11.34" ry="10.51"/><line class="cls-4" x1="226.61" y1="50.4" x2="256.85" y2="22.38"/><text class="cls-5" transform="translate(238.38 75.85) scale(1.08 1)">3</text><line id="_3:2" data-name=" 3:2" class="cls-6" x1="196.5" y1="35.94" x2="196.5" y2="104.52"/><line class="cls-6" x1="105.5" y1="104.52" x2="105.5" y2="131.39"/><ellipse id="_1" data-name=" 1" class="cls-7" cx="105.65" cy="141.66" rx="11.34" ry="10.51"/><text class="cls-8" transform="translate(101.31 145.7) scale(1.08 1)">U</text><text class="cls-9" transform="translate(102.31 181.12) scale(1.08 1)">1</text><line class="cls-6" x1="116.5" y1="141.58" x2="185.5" y2="141.58"/><rect id="_5" data-name=" 5" class="cls-3" x="185" y="130.93" width="23" height="21.31"/><line class="cls-4" x1="181.25" y1="155.67" x2="211.49" y2="127.64"/><text class="cls-5" transform="translate(193.03 181.12) scale(1.08 1)">5</text><line id="_1:5" data-name=" 1:5" class="cls-6" x1="151.5" y1="141.58" x2="151.5" y2="210.16"/><line class="cls-6" x1="105.5" y1="210.16" x2="105.5" y2="236.11"/><rect id="_6" data-name=" 6" class="cls-6" x="94.5" y="236.11" width="23" height="21.31"/><text class="cls-10" transform="translate(102.31 286.39) scale(1.08 1)">6</text><line class="cls-6" x1="196.5" y1="210.16" x2="196.5" y2="236.11"/><ellipse id="_7" data-name=" 7" class="cls-7" cx="196.37" cy="246.93" rx="11.34" ry="10.51"/><text class="cls-8" transform="translate(192.04 250.97) scale(1.08 1)">U</text><text class="cls-9" transform="translate(193.03 286.39) scale(1.08 1)">7</text><line class="cls-6" x1="105.5" y1="210.16" x2="196.5" y2="210.16"/><line class="cls-6" x1="287.5" y1="104.52" x2="287.5" y2="131.39"/><ellipse id="_4" data-name=" 4" class="cls-6" cx="287.09" cy="141.66" rx="11.34" ry="10.51"/><text class="cls-10" transform="translate(283.75 181.12) scale(1.08 1)">4</text><line class="cls-6" x1="105.5" y1="104.52" x2="287.5" y2="104.52"/></g></g></g></g></svg>