<svg xmlns="http://www.w3.org/2000/svg" xmlns:xlink="http://www.w3.org/1999/xlink" viewBox="0 0 365.24 389.53"><defs><style>.cls-1,.cls-10,.cls-12,.cls-14,.cls-16,.cls-20,.cls-21,.cls-26,.cls-27,.cls-29,.cls-3,.cls-30,.cls-31,.cls-32,.cls-33,.cls-34,.cls-6,.cls-8{fill:none;}.cls-2{fill:#37b44a;}.cls-11,.cls-13,.cls-15,.cls-2,.cls-28,.cls-5,.cls-7,.cls-9{fill-rule:evenodd;}.cls-3{stroke:#37b44a;}.cls-10,.cls-12,.cls-14,.cls-16,.cls-3,.cls-6,.cls-8{stroke-miterlimit:3;stroke-width:0.39px;}.cls-4{font-size:9.93px;}.cls-17,.cls-4{fill:#010101;}.cls-22,.cls-23,.cls-4{font-family:SegoeUI, SegoeUI;}.cls-5{fill:#5bba47;}.cls-6{stroke:#5bba47;}.cls-7{fill:#93c83e;}.cls-8{stroke:#93c83e;}.cls-9{fill:#dad124;}.cls-10{stroke:#dad124;}.cls-11{fill:#e89724;}.cls-12{stroke:#e89724;}.cls-13{fill:#f15623;}.cls-14{stroke:#f15623;}.cls-15{fill:#ed2224;}.cls-16{stroke:#ed2224;}.cls-17{font-size:12.42px;font-family:SegoeUI-Bold, SegoeUI Bold;font-weight:700;}.cls-18{fill:#dedede;}.cls-19{clip-path:url(#clip-path);}.cls-20{stroke:#a6a6a6;}.cls-20,.cls-21,.cls-26,.cls-27,.cls-29,.cls-30,.cls-31,.cls-32,.cls-33,.cls-34{stroke-miterlimit:10;stroke-width:1.23px;}.cls-21,.cls-26{stroke:#bfbfbf;}.cls-22,.cls-23{font-size:8.14px;fill:#231f20;}.cls-23{letter-spacing:2.8em;}.cls-24{fill:#fff;}.cls-25{clip-path:url(#clip-path-2);}.cls-26{stroke-dasharray:2.47 2.47;}.cls-27{stroke:#05765a;}.cls-29{stroke:#1ea149;}.cls-30{stroke:#87c540;}.cls-31{stroke:#d1d033;}.cls-32{stroke:#e77924;}.cls-33{stroke:#ef4351;}.cls-34{stroke:#e6e6e6;opacity:0.05;}</style><clipPath id="clip-path"><rect class="cls-1" x="91.67" y="355.82" width="279.21" height="13.77"/></clipPath><clipPath id="clip-path-2"><rect class="cls-1" x="97.93" y="29.04" width="266.69" height="326.79"/></clipPath></defs><title>Structures_LR</title><g id="Layer_2" data-name="Layer 2"><g id="Layer_1-2" data-name="Layer 1"><polygon class="cls-2" points="1.05 58 1.05 67.11 18.42 67.11 18.42 58 1.05 58 1.05 58"/><rect class="cls-3" x="1.46" y="58.41" width="16.54" height="8.28"/><text class="cls-4" transform="translate(20.52 66.69)">Two parents</text><polygon class="cls-5" points="1.05 102.07 1.05 111.17 18.42 111.17 18.42 102.07 1.05 102.07 1.05 102.07"/><rect class="cls-6" x="1.46" y="102.48" width="16.54" height="8.28"/><text class="cls-4" transform="translate(20.52 110.75)">Child and spouse</text><polygon class="cls-7" points="1.05 143.59 1.05 152.7 18.42 152.7 18.42 143.59 1.05 143.59 1.05 143.59"/><rect class="cls-8" x="1.46" y="144.01" width="16.54" height="8.28"/><text class="cls-4" transform="translate(20.52 152.29)">Two siblings</text><polygon class="cls-9" points="1.05 185.77 1.05 194.87 18.42 194.87 18.42 185.77 1.05 185.77 1.05 185.77"/><rect class="cls-10" x="1.46" y="186.18" width="16.54" height="8.28"/><text class="cls-4" transform="translate(20.52 194.46)">One sibling</text><polygon class="cls-11" points="1.46 229.21 1.46 238.31 18.84 238.31 18.84 229.21 1.46 229.21 1.46 229.21"/><rect class="cls-12" x="1.88" y="229.62" width="16.54" height="8.28"/><text class="cls-4" transform="translate(20.93 237.9)">One child</text><polygon class="cls-13" points="0 268.38 0 277.48 17.37 277.48 17.37 268.38 0 268.38 0 268.38"/><rect class="cls-14" x="0.42" y="268.79" width="16.54" height="8.28"/><text class="cls-4" transform="translate(19.47 277.08)">One parent</text><polygon class="cls-15" points="1.05 308.57 1.05 317.68 18.42 317.68 18.42 308.57 1.05 308.57 1.05 308.57"/><rect class="cls-16" x="1.46" y="308.98" width="16.54" height="8.28"/><text class="cls-4" transform="translate(20.52 317.27)">Half-sibling</text><text class="cls-17" transform="translate(114.7 10.39)">Score distribution by pedigree structure</text><rect class="cls-18" x="97.93" y="29.04" width="266.69" height="326.79"/><g class="cls-19"><path class="cls-20" d="M118,355.82v1.88m26.92-1.88v1.88m26.29-1.88v1.88m26.92-1.88v1.88m26.29-1.88v1.88m26.92-1.88v1.88m26.92-1.88v1.88m26.29-1.88v1.88m26.92-1.88v1.88m26.3-1.88v1.88m-252.92-1.88v3.76m26.29-3.76v3.76M158,355.82v3.76m26.3-3.76v3.76m26.92-3.76v3.76m26.92-3.76v3.76m26.29-3.76v3.76m26.92-3.76v3.76m26.29-3.76v3.76m26.92-3.76v3.76"/><path class="cls-21" d="M171.18,355.82v3.76m40.07-3.76v3.76"/></g><text class="cls-22" transform="translate(101.48 365.84)">-2</text><text class="cls-23" transform="translate(129.02 365.84)">02</text><text class="cls-23" transform="translate(182.24 365.84)">468</text><text class="cls-22" transform="translate(260.28 365.84)">10</text><text class="cls-22" transform="translate(287.2 365.84)">12</text><text class="cls-22" transform="translate(313.49 365.84)">14</text><text class="cls-22" transform="translate(340.41 365.84)">16</text><rect class="cls-24" x="97.93" y="29.04" width="266.69" height="326.79"/><g class="cls-25"><path class="cls-26" d="M211.25,355.82V29M171.18,355.82V29"/></g><path class="cls-27" d="M288.87,54.7V84.75H250.06v-30h38.81m56.35,15H288.87m-81.38,0h42.57m-42.57-15V84.75m137.73-30V84.75m-74.5-30V84.75"/><path class="cls-28" d="M361.35,69.88a1.66,1.66,0,1,1-3.31,0,1.66,1.66,0,0,1,2.48-1.43,1.64,1.64,0,0,1,.83,1.43Z"/><path class="cls-28" d="M189.85,69.88a1.65,1.65,0,0,1-2.47,1.44,1.66,1.66,0,0,1,0-2.87,1.67,1.67,0,0,1,1.65,0,1.65,1.65,0,0,1,.82,1.43Z"/><path class="cls-29" d="M226.9,95.4v30H206.24v-30H226.9m26.92,15H226.9m-48.21,0h27.55m-27.55-15v30m75.13-30v30m-36.94-30v30"/><path class="cls-28" d="M267.28,110.73a1.66,1.66,0,0,1-2.48,1.44,1.66,1.66,0,0,1,0-2.87,1.67,1.67,0,0,1,1.65,0,1.65,1.65,0,0,1,.83,1.43Z"/><path class="cls-30" d="M229.4,136.71v30H193.09v-30H229.4m47.58,15H229.4m-84.51,0h48.2m-48.2-15v30m132.09-30v30m-67-30v30"/><path class="cls-28" d="M289.31,151.58a1.69,1.69,0,0,1-.83,1.44,1.67,1.67,0,0,1-1.65,0,1.66,1.66,0,0,1,0-2.87,1.63,1.63,0,0,1,1.65,0,1.65,1.65,0,0,1,.83,1.43Z"/><path class="cls-28" d="M286.63,151.58a1.65,1.65,0,0,1-2.48,1.44,1.66,1.66,0,1,1,2.48-1.44Z"/><path class="cls-28" d="M285.8,151.58a1.66,1.66,0,1,1-2.48-1.43,1.66,1.66,0,0,1,2.48,1.43Z"/><path class="cls-28" d="M138.19,151.58a1.66,1.66,0,1,1-2.48-1.43,1.66,1.66,0,0,1,2.48,1.43Z"/><path class="cls-28" d="M128,151.58a1.69,1.69,0,0,1-.83,1.44,1.67,1.67,0,0,1-1.65,0,1.66,1.66,0,0,1,0-2.87,1.63,1.63,0,0,1,1.65,0,1.65,1.65,0,0,1,.83,1.43Z"/><path class="cls-31" d="M194.34,177.41v30h-33.8v-30h33.8m50.09,15H194.34m-78.25,0h44.45m-44.45-15v30m128.34-30v30m-67-30v30"/><path class="cls-32" d="M200,218.1v30.05h-20V218.1h20m27.54,15H200m-47.58,0h27.54m-27.54-15v30.05m75.12-30.05v30.05M190.59,218.1v30.05"/><path class="cls-28" d="M150.56,233.28a1.64,1.64,0,0,1-.83,1.43,1.63,1.63,0,0,1-1.65,0,1.65,1.65,0,0,1-.83-1.43,1.69,1.69,0,0,1,.83-1.44,1.67,1.67,0,0,1,1.65,0,1.65,1.65,0,0,1,.83,1.44Z"/><path class="cls-28" d="M149.59,233.28a1.65,1.65,0,0,1-.82,1.43,1.66,1.66,0,0,1-2.48-1.43,1.65,1.65,0,1,1,3.3,0Z"/><path class="cls-28" d="M148.12,233.28a1.66,1.66,0,0,1-.83,1.43,1.66,1.66,0,0,1-2.48-1.43,1.66,1.66,0,1,1,3.31,0Z"/><path class="cls-32" d="M200.6,258.79v30H179.94v-30H200.6m25,15h-25m-50.71,0h30.05m-30.05-15v30m75.75-30v30m-36.93-30v30"/><path class="cls-33" d="M155.53,300.11v30.05H136.12V300.11h19.41m28.8,15h-28.8m-46.95,0h27.54m-27.54-15v30.05m75.75-30.05v30.05m-37.57-30.05v30.05"/><polyline class="cls-34" points="97.93 355.82 97.93 29.04 364.62 29.04 364.62 355.82 97.93 355.82"/><text class="cls-4" transform="translate(184.34 387.05)">Likelihood ratio score</text></g></g></svg>