<svg xmlns="http://www.w3.org/2000/svg" xmlns:xlink="http://www.w3.org/1999/xlink" viewBox="0 0 441.83 316.13"><defs><style>.cls-1,.cls-2,.cls-27,.cls-33,.cls-35,.cls-37,.cls-39,.cls-41,.cls-43,.cls-45,.cls-69,.cls-70,.cls-71,.cls-72,.cls-73,.cls-74,.cls-75{fill:none;}.cls-1{clip-rule:evenodd;}.cls-2,.cls-25,.cls-3,.cls-31,.cls-34,.cls-36,.cls-38,.cls-40,.cls-42,.cls-44{fill-rule:evenodd;}.cls-3{fill:#fff;}.cls-4{font-size:10.07px;font-family:SegoeUI-Bold, Segoe UI;font-weight:700;}.cls-25,.cls-28,.cls-4,.cls-47,.cls-49{fill:#010101;}.cls-5{letter-spacing:-0.02em;}.cls-6{letter-spacing:0em;}.cls-7{letter-spacing:0.02em;}.cls-8{letter-spacing:-0.02em;}.cls-9{letter-spacing:0.01em;}.cls-10{letter-spacing:-0.01em;}.cls-11{letter-spacing:-0.01em;}.cls-12{letter-spacing:-0.07em;}.cls-13{letter-spacing:-0.02em;}.cls-14{letter-spacing:0em;}.cls-15{letter-spacing:-0.01em;}.cls-16{letter-spacing:0.01em;}.cls-17{letter-spacing:0.02em;}.cls-18{letter-spacing:-0.01em;}.cls-19{letter-spacing:0.03em;}.cls-20{letter-spacing:0.07em;}.cls-21{letter-spacing:-0.02em;}.cls-22{letter-spacing:0em;}.cls-23{letter-spacing:-0.01em;}.cls-24{letter-spacing:-0.01em;}.cls-26{clip-path:url(#clip-path);}.cls-27{stroke:#a5a5a5;}.cls-27,.cls-33,.cls-35,.cls-37,.cls-39,.cls-41,.cls-43,.cls-45,.cls-69,.cls-70,.cls-71,.cls-72,.cls-73,.cls-74,.cls-75{stroke-miterlimit:3;}.cls-27,.cls-69,.cls-70,.cls-71,.cls-72,.cls-73,.cls-74,.cls-75{stroke-width:0.32px;}.cls-28,.cls-47,.cls-49{font-size:8.06px;font-family:SegoeUI, Segoe UI;}.cls-29,.cls-47{letter-spacing:0.04em;}.cls-30{letter-spacing:-0.05em;}.cls-31{fill:#37b44a;}.cls-32{clip-path:url(#clip-path-12);}.cls-33,.cls-69{stroke:#37b44a;}.cls-33,.cls-35,.cls-37,.cls-39,.cls-41,.cls-43,.cls-45{stroke-width:0.64px;}.cls-34{fill:#5bba47;}.cls-35,.cls-70{stroke:#5bba47;}.cls-36{fill:#93c83e;}.cls-37,.cls-71{stroke:#93c83e;}.cls-38{fill:#dad124;}.cls-39,.cls-72{stroke:#dad124;}.cls-40{fill:#e89724;}.cls-41,.cls-73{stroke:#e89724;}.cls-42{fill:#f15623;}.cls-43,.cls-74{stroke:#f15623;}.cls-44{fill:#ed2224;}.cls-45,.cls-75{stroke:#ed2224;}.cls-46{clip-path:url(#clip-path-21);}.cls-48{letter-spacing:0em;}.cls-49{letter-spacing:-0.11em;}.cls-50{letter-spacing:-0.01em;}.cls-51{letter-spacing:0.02em;}.cls-52{letter-spacing:-0.02em;}.cls-53{letter-spacing:-0.02em;}.cls-54{letter-spacing:-0.03em;}.cls-55{letter-spacing:-0.01em;}.cls-56{letter-spacing:0em;}.cls-57{letter-spacing:0.04em;}.cls-58{letter-spacing:-0.01em;}.cls-59{letter-spacing:0em;}.cls-60{letter-spacing:0.03em;}.cls-61{letter-spacing:-0.01em;}.cls-62{letter-spacing:-0.01em;}.cls-63{letter-spacing:0.01em;}.cls-64{letter-spacing:0em;}.cls-65{letter-spacing:0em;}.cls-66{letter-spacing:0.03em;}.cls-67{letter-spacing:0em;}.cls-68{letter-spacing:0em;}</style><clipPath id="clip-path"><polygon class="cls-1" points="12.08 16.3 35.56 16.3 35.56 294.32 12.08 294.32 12.08 16.3 12.08 16.3"/></clipPath><clipPath id="clip-path-12"><polygon class="cls-1" points="34.89 23.01 359.01 23.01 359.01 287.61 34.89 287.61 34.89 23.01 34.89 23.01"/></clipPath><clipPath id="clip-path-21"><polygon class="cls-1" points="31.18 286.94 368.72 286.94 368.72 302.38 31.18 302.38 31.18 286.94 31.18 286.94"/></clipPath></defs><title>Structures_LRndProb</title><g id="Layer_2" data-name="Layer 2"><g id="Layer_1-2" data-name="Layer 1"><polygon class="cls-3" points="0 10.25 0 10.93 0.67 10.93 0.67 10.25 0 10.25 0 10.25"/><polygon class="cls-3" points="0 10.25 0 10.93 0.67 10.93 0.67 10.25 0 10.25 0 10.25"/><text class="cls-4" transform="translate(69.12 8.56)"><tspan class="cls-5">C</tspan><tspan class="cls-6" x="6.04" y="0">u</tspan><tspan class="cls-7" x="12.1" y="0">m</tspan><tspan class="cls-6" x="21.5" y="0">u</tspan><tspan class="cls-8" x="27.55" y="0">l</tspan><tspan class="cls-6" x="30.24" y="0">a</tspan><tspan class="cls-9" x="35.62" y="0">t</tspan><tspan class="cls-8" x="39.64" y="0">i</tspan><tspan class="cls-10" x="42.33" y="0">v</tspan><tspan class="cls-11" x="47.71" y="0">e</tspan><tspan class="cls-12" x="53.09" y="0"> </tspan><tspan class="cls-13" x="55.12" y="0">p</tspan><tspan class="cls-14" x="61.16" y="0">r</tspan><tspan class="cls-15" x="65.19" y="0">o</tspan><tspan class="cls-13" x="71.24" y="0">b</tspan><tspan class="cls-6" x="77.28" y="0">a</tspan><tspan class="cls-13" x="82.66" y="0">b</tspan><tspan class="cls-8" x="88.71" y="0">ili</tspan><tspan class="cls-16" x="96.78" y="0">t</tspan><tspan class="cls-6" x="100.8" y="0">y</tspan><tspan class="cls-12" x="106.18" y="0"> </tspan><tspan class="cls-15" x="108.21" y="0">o</tspan><tspan class="cls-17" x="114.25" y="0">f</tspan><tspan class="cls-12" x="118.28" y="0"> </tspan><tspan class="cls-18" x="120.3" y="0">o</tspan><tspan class="cls-13" x="126.35" y="0">b</tspan><tspan class="cls-19" x="132.39" y="0">s</tspan><tspan class="cls-11" x="137.09" y="0">e</tspan><tspan class="cls-20" x="142.47" y="0">r</tspan><tspan class="cls-10" x="147.16" y="0">v</tspan><tspan class="cls-8" x="152.54" y="0">i</tspan><tspan class="cls-6" x="155.23" y="0">n</tspan><tspan class="cls-21" x="161.28" y="0">g</tspan><tspan class="cls-12" x="167.33" y="0"> </tspan><tspan class="cls-16" x="169.35" y="0">t</tspan><tspan class="cls-22" x="173.37" y="0">r</tspan><tspan class="cls-6" x="177.4" y="0">u</tspan><tspan class="cls-23" x="183.46" y="0">e</tspan><tspan class="cls-12" x="188.84" y="0"> </tspan><tspan class="cls-7" x="190.86" y="0">m</tspan><tspan class="cls-6" x="200.26" y="0">a</tspan><tspan class="cls-9" x="205.64" y="0">t</tspan><tspan class="cls-24" x="209.66" y="0">c</tspan><tspan x="214.36" y="0">h</tspan></text><path class="cls-25" d="M8.47,190.61a3.38,3.38,0,0,1,.34,1.55,2.4,2.4,0,0,1-.8,1.93,2.66,2.66,0,0,1-2,.72,2.93,2.93,0,0,1-2.18-.8A2.78,2.78,0,0,1,3,192a3.8,3.8,0,0,1,.21-1.34H3.9A2.9,2.9,0,0,0,3.56,192a1.88,1.88,0,0,0,.68,1.55,2.3,2.3,0,0,0,1.72.63,2.34,2.34,0,0,0,1.63-.58,1.85,1.85,0,0,0,.63-1.47,2.85,2.85,0,0,0-.38-1.47Zm.25-4.33v.63H8.05V187a1.27,1.27,0,0,1,.76,1.21c0,1-.59,1.47-1.72,1.47H4.7V189H7c.84,0,1.26-.29,1.26-1a1,1,0,0,0-.33-.76,1.39,1.39,0,0,0-.93-.34H4.7v-.63Zm0-7v.63H6.42a2,2,0,0,0-1,.21.85.85,0,0,0-.29.71.8.8,0,0,0,.37.67,1.45,1.45,0,0,0,.93.29h2.3v.68H6.33c-.79,0-1.21.29-1.21.88a.82.82,0,0,0,.37.71,1.52,1.52,0,0,0,.93.29h2.3V185h-4v-.63h.63v0a1.33,1.33,0,0,1-.76-1.26,1.22,1.22,0,0,1,.84-1.13,1.43,1.43,0,0,1-.84-1.34c0-.88.55-1.3,1.64-1.3Zm0-4.5v.63H8.05v.05a1.27,1.27,0,0,1,.76,1.21c0,1-.59,1.47-1.72,1.47H4.7v-.67H7c.84,0,1.26-.29,1.26-1a1,1,0,0,0-.33-.76,1.39,1.39,0,0,0-.93-.34H4.7v-.63Zm0-1.93v.63h-6v-.63Zm0-4.19v.63H8.09v0a1.3,1.3,0,0,1,.72,1.22,1.4,1.4,0,0,1-.34,1,1.1,1.1,0,0,1-.84.34c-.75,0-1.17-.46-1.3-1.35l-.16-1.21c-.72,0-1,.29-1,.83a1.91,1.91,0,0,0,.5,1.31H5a2.43,2.43,0,0,1-.38-1.35c0-1,.51-1.42,1.51-1.42Zm-2.05.63.12,1a1.23,1.23,0,0,0,.26.67.57.57,0,0,0,.54.26.7.7,0,0,0,.5-.21,1,1,0,0,0,.17-.55,1.07,1.07,0,0,0-.33-.8,1.18,1.18,0,0,0-.84-.33Zm2-3.74a1.34,1.34,0,0,1,.13.63c0,.67-.42,1-1.18,1H5.24v.67H4.7v-.67h-1l-.21-.67H4.7v-1h.54v1H7.51a1,1,0,0,0,.58-.13.63.63,0,0,0,.17-.46.74.74,0,0,0-.12-.42Zm-5-1.17a.36.36,0,0,1-.13.29.32.32,0,0,1-.29.13.38.38,0,0,1-.29-.13.36.36,0,0,1-.13-.29.38.38,0,0,1,.13-.3.37.37,0,0,1,.29-.12.37.37,0,0,1,.29.12.38.38,0,0,1,.13.3ZM8.72,164v.67h-4V164Zm-4-4.45,4,1.6v.63l-4,1.55v-.72l2.89-1a1.71,1.71,0,0,1,.59-.13h0l-.55-.13L4.7,160.26Zm2.14-4v2.86a1.38,1.38,0,0,0,1-.38,1.14,1.14,0,0,0,.38-.92,2.06,2.06,0,0,0-.46-1.26h.63a2.28,2.28,0,0,1,.38,1.38,1.67,1.67,0,0,1-.55,1.35,2.26,2.26,0,0,1-1.55.5,2,2,0,0,1-1.51-.55,1.61,1.61,0,0,1-.63-1.3,1.5,1.5,0,0,1,.55-1.26,2.24,2.24,0,0,1,1.38-.42Zm-.55.68a1.33,1.33,0,0,0-.84.25,1,1,0,0,0-.33.75,1,1,0,0,0,.33.76,1.47,1.47,0,0,0,.84.42Zm1.85-4.49h2.43v.63H4.7v-.63h.71a1.61,1.61,0,0,1-.84-1.43,1.6,1.6,0,0,1,.55-1.22,2.26,2.26,0,0,1,1.46-.42,2.33,2.33,0,0,1,1.6.51,1.58,1.58,0,0,1,.63,1.34,1.39,1.39,0,0,1-.67,1.22Zm-1.64,0h.55a1.36,1.36,0,0,0,.88-.34,1.14,1.14,0,0,0,.33-.8,1.06,1.06,0,0,0-.46-.92,1.83,1.83,0,0,0-1.22-.34,1.7,1.7,0,0,0-1.09.3,1.05,1.05,0,0,0-.37.84,1.12,1.12,0,0,0,.42.92,1.48,1.48,0,0,0,1,.34Zm-1.17-6.22a.88.88,0,0,0-.13.51.77.77,0,0,0,.38.67,1.76,1.76,0,0,0,1.09.29H8.72v.63h-4v-.63h.79a1.65,1.65,0,0,1-.62-.42,1,1,0,0,1-.26-.63,1,1,0,0,1,0-.42Zm3.48-2.35a1.93,1.93,0,0,1-.59,1.43,2.07,2.07,0,0,1-1.47.5,2.15,2.15,0,0,1-1.59-.54,2,2,0,0,1-.59-1.51,1.78,1.78,0,0,1,.59-1.39,2.13,2.13,0,0,1,1.51-.5,2.09,2.09,0,0,1,1.55.54,1.9,1.9,0,0,1,.59,1.47Zm-3.69-.08a1.4,1.4,0,0,0,.42,1,1.7,1.7,0,0,0,1.17.33,1.53,1.53,0,0,0,1.13-.33,1.23,1.23,0,0,0,.42-1,1.16,1.16,0,0,0-.42-1,1.73,1.73,0,0,0-1.13-.33,1.94,1.94,0,0,0-1.17.33,1.32,1.32,0,0,0-.42,1Zm3-3.65v0h.58v.63h-6v-.63H5.41v0a1.51,1.51,0,0,1-.84-1.39,1.56,1.56,0,0,1,.55-1.21,2.21,2.21,0,0,1,1.46-.42,2.33,2.33,0,0,1,1.6.5,1.53,1.53,0,0,1,.63,1.34,1.26,1.26,0,0,1-.67,1.18Zm-1.64,0h.55a1.36,1.36,0,0,0,.88-.34,1.16,1.16,0,0,0,.33-.84,1.05,1.05,0,0,0-.46-.88,1.83,1.83,0,0,0-1.22-.33,1.7,1.7,0,0,0-1.09.29,1.07,1.07,0,0,0-.37.84,1.1,1.1,0,0,0,.42.92,1.48,1.48,0,0,0,1,.34Zm2.22-7v.63H8.09a1.43,1.43,0,0,1,.72,1.26,1.32,1.32,0,0,1-.34.93,1,1,0,0,1-.84.33c-.75,0-1.17-.42-1.3-1.3l-.16-1.22c-.72,0-1,.3-1,.84a2,2,0,0,0,.5,1.3H5A2.46,2.46,0,0,1,4.57,134c0-.93.51-1.39,1.51-1.39Zm-2.05.63.12,1a1.3,1.3,0,0,0,.26.67.56.56,0,0,0,.54.25.66.66,0,0,0,.5-.21,1.14,1.14,0,0,0,.17-.59,1.13,1.13,0,0,0-.33-.79,1.16,1.16,0,0,0-.84-.3Zm1.47-2.52h.58v.68h-6v-.68H5.41a1.57,1.57,0,0,1-.84-1.38,1.52,1.52,0,0,1,.55-1.22,2.28,2.28,0,0,1,1.46-.46,2.38,2.38,0,0,1,1.6.5,1.66,1.66,0,0,1,.63,1.35,1.32,1.32,0,0,1-.67,1.21Zm-1.64,0h.55a1.17,1.17,0,0,0,.88-.33,1.07,1.07,0,0,0,.33-.8,1.11,1.11,0,0,0-.46-.92,2.08,2.08,0,0,0-1.22-.34,2,2,0,0,0-1.09.3,1.07,1.07,0,0,0-.37.88,1,1,0,0,0,.42.88,1.28,1.28,0,0,0,1,.33Zm-2.85-4.4a.36.36,0,0,1-.13.29.32.32,0,0,1-.29.13.38.38,0,0,1-.29-.13.36.36,0,0,1-.13-.29.38.38,0,0,1,.13-.3.37.37,0,0,1,.29-.12.37.37,0,0,1,.29.12.38.38,0,0,1,.13.3ZM8.72,126v.67h-4V126Zm0-1.93v.63h-6V124ZM3.65,122.4a.38.38,0,0,1-.13.3.32.32,0,0,1-.29.12.37.37,0,0,1-.29-.12.38.38,0,0,1-.13-.3.36.36,0,0,1,.13-.29.35.35,0,0,1,.29-.13.35.35,0,0,1,.29.13.36.36,0,0,1,.13.29Zm5.07-.33v.67h-4v-.67Zm0-3.15a1.05,1.05,0,0,1,.13.59c0,.71-.42,1-1.18,1H5.24v.71H4.7v-.71h-1l-.21-.63H4.7v-1h.54v1H7.51a1,1,0,0,0,.58-.13.75.75,0,0,0,.05-.88Zm-4-4.07,4.65,1.84c.84.34,1.26.8,1.26,1.39,0,.17,0,.29,0,.42H10a1.31,1.31,0,0,0,.09-.38.74.74,0,0,0-.59-.71l-.8-.34-4,1.56v-.72l3.1-1.09.29-.08h0a1.29,1.29,0,0,1-.29-.09l-3.1-1.13Z"/><g class="cls-26"><line class="cls-27" x1="33.55" y1="261.42" x2="35.57" y2="261.42"/></g><g class="cls-26"><line class="cls-27" x1="33.55" y1="208.36" x2="35.57" y2="208.36"/></g><g class="cls-26"><line class="cls-27" x1="33.55" y1="155.31" x2="35.57" y2="155.31"/></g><g class="cls-26"><line class="cls-27" x1="33.55" y1="102.93" x2="35.57" y2="102.93"/></g><g class="cls-26"><line class="cls-27" x1="33.55" y1="49.88" x2="35.57" y2="49.88"/></g><g class="cls-26"><line class="cls-27" x1="31.54" y1="287.61" x2="35.57" y2="287.61"/></g><g class="cls-26"><line class="cls-27" x1="31.54" y1="234.55" x2="35.57" y2="234.55"/></g><g class="cls-26"><line class="cls-27" x1="31.54" y1="182.17" x2="35.57" y2="182.17"/></g><g class="cls-26"><line class="cls-27" x1="31.54" y1="129.12" x2="35.57" y2="129.12"/></g><g class="cls-26"><line class="cls-27" x1="31.54" y1="76.74" x2="35.57" y2="76.74"/></g><g class="cls-26"><line class="cls-27" x1="31.54" y1="23.68" x2="35.57" y2="23.68"/></g><text class="cls-28" transform="translate(25.5 290.97)">0</text><text class="cls-28" transform="translate(19.47 237.92)"><tspan class="cls-29">0</tspan><tspan class="cls-30" x="4.7" y="0">.</tspan><tspan x="6.04" y="0">2</tspan></text><text class="cls-28" transform="translate(19.47 185.53)"><tspan class="cls-29">0</tspan><tspan class="cls-30" x="4.7" y="0">.</tspan><tspan x="6.04" y="0">4</tspan></text><text class="cls-28" transform="translate(19.47 132.47)"><tspan class="cls-29">0</tspan><tspan class="cls-30" x="4.7" y="0">.</tspan><tspan x="6.04" y="0">6</tspan></text><text class="cls-28" transform="translate(19.47 80.07)"><tspan class="cls-29">0</tspan><tspan class="cls-30" x="4.7" y="0">.</tspan><tspan x="6.04" y="0">8</tspan></text><text class="cls-28" transform="translate(25.5 27.02)">1</text><polygon class="cls-3" points="35.23 23.35 35.23 287.27 358.67 287.27 358.67 23.35 35.23 23.35 35.23 23.35"/><polygon class="cls-31" points="35.23 27.84 56.83 26.12 78.39 25.74 99.94 25.66 121.5 25.66 143.06 25.66 164.62 25.66 186.17 25.66 207.77 25.66 229.33 25.66 250.89 25.66 272.44 25.66 294 25.66 315.56 25.66 337.11 25.66 358.67 25.66 358.67 287.27 35.23 287.27 35.23 27.84"/><g class="cls-32"><polyline class="cls-33" points="35.23 27.84 56.83 26.12 78.39 25.74 99.94 25.66 121.5 25.66 143.06 25.66 164.62 25.66 186.17 25.66 207.77 25.66 229.33 25.66 250.89 25.66 272.44 25.66 294 25.66 315.56 25.66 337.11 25.66 358.67 25.66"/></g><g class="cls-32"><polygon class="cls-34" points="35.23 72.58 56.83 64.61 78.39 63.1 99.94 62.76 121.5 62.68 143.06 62.63 164.62 62.63 186.17 62.63 207.77 62.63 229.33 62.63 250.89 62.63 272.44 62.63 294 62.63 315.56 62.63 337.11 62.63 358.67 62.63 358.67 287.27 35.23 287.27 35.23 72.58"/></g><g class="cls-32"><polyline class="cls-35" points="35.23 72.58 56.83 64.61 78.39 63.1 99.94 62.76 121.5 62.68 143.06 62.63 164.62 62.63 186.17 62.63 207.77 62.63 229.33 62.63 250.89 62.63 272.44 62.63 294 62.63 315.56 62.63 337.11 62.63 358.67 62.63"/></g><polygon class="cls-36" points="35.23 85.05 56.83 78.17 78.39 76.95 99.94 76.74 121.5 76.69 143.06 76.69 164.62 76.69 186.17 76.69 207.77 76.69 229.33 76.69 250.89 76.69 272.44 76.69 294 76.69 315.56 76.69 337.11 76.69 358.67 76.69 358.67 287.27 35.23 287.27 35.23 85.05"/><g class="cls-32"><polyline class="cls-37" points="35.23 85.05 56.83 78.17 78.39 76.95 99.94 76.74 121.5 76.69 143.06 76.69 164.62 76.69 186.17 76.69 207.77 76.69 229.33 76.69 250.89 76.69 272.44 76.69 294 76.69 315.56 76.69 337.11 76.69 358.67 76.69"/></g><polygon class="cls-38" points="35.23 148.09 56.83 138.69 78.39 137.18 99.94 136.93 121.5 136.84 143.06 136.84 164.62 136.84 186.17 136.84 207.77 136.84 229.33 136.84 250.89 136.84 272.44 136.84 294 136.84 315.56 136.84 337.11 136.84 358.67 136.84 358.67 287.27 35.23 287.27 35.23 148.09"/><g class="cls-32"><polyline class="cls-39" points="35.23 148.09 56.83 138.69 78.39 137.18 99.94 136.93 121.5 136.84 143.06 136.84 164.62 136.84 186.17 136.84 207.77 136.84 229.33 136.84 250.89 136.84 272.44 136.84 294 136.84 315.56 136.84 337.11 136.84 358.67 136.84"/></g><polygon class="cls-40" points="35.23 188.3 56.83 175.37 78.39 171.55 99.94 170.46 121.5 170.08 143.06 169.96 164.62 169.91 186.17 169.91 207.77 169.91 229.33 169.91 250.89 169.91 272.44 169.91 294 169.91 315.56 169.91 337.11 169.91 358.67 169.91 358.67 287.27 35.23 287.27 35.23 188.3"/><g class="cls-32"><polyline class="cls-41" points="35.23 188.3 56.83 175.37 78.39 171.55 99.94 170.46 121.5 170.08 143.06 169.96 164.62 169.91 186.17 169.91 207.77 169.91 229.33 169.91 250.89 169.91 272.44 169.91 294 169.91 315.56 169.91 337.11 169.91 358.67 169.91"/></g><g class="cls-32"><polygon class="cls-42" points="35.23 190.02 56.83 176.93 78.39 173.4 99.94 172.31 121.5 171.89 143.06 171.76 164.62 171.72 186.17 171.68 207.77 171.68 229.33 171.68 250.89 171.68 272.44 171.68 294 171.68 315.56 171.68 337.11 171.68 358.67 171.68 358.67 287.27 35.23 287.27 35.23 190.02"/></g><g class="cls-32"><polyline class="cls-43" points="35.23 190.02 56.83 176.93 78.39 173.4 99.94 172.31 121.5 171.89 143.06 171.76 164.62 171.72 186.17 171.68 207.77 171.68 229.33 171.68 250.89 171.68 272.44 171.68 294 171.68 315.56 171.68 337.11 171.68 358.67 171.68"/></g><polygon class="cls-44" points="35.23 276.99 56.83 275.18 78.39 274.85 99.94 274.81 121.5 274.76 143.06 274.76 164.62 274.76 186.17 274.76 207.77 274.76 229.33 274.76 250.89 274.76 272.44 274.76 294 274.76 315.56 274.76 337.11 274.76 358.67 274.76 358.67 287.27 35.23 287.27 35.23 276.99"/><g class="cls-32"><polyline class="cls-45" points="35.23 276.99 56.83 275.18 78.39 274.85 99.94 274.81 121.5 274.76 143.06 274.76 164.62 274.76 186.17 274.76 207.77 274.76 229.33 274.76 250.89 274.76 272.44 274.76 294 274.76 315.56 274.76 337.11 274.76 358.67 274.76"/></g><polyline class="cls-27" points="35.56 287.61 35.56 23.68 359.01 23.68 359.01 287.61 35.56 287.61"/><g class="cls-46"><line class="cls-27" x1="49.3" y1="287.61" x2="49.3" y2="289.62"/></g><g class="cls-46"><line class="cls-27" x1="70.78" y1="287.61" x2="70.78" y2="289.62"/></g><g class="cls-46"><line class="cls-27" x1="92.25" y1="287.61" x2="92.25" y2="289.62"/></g><g class="cls-46"><line class="cls-27" x1="113.72" y1="287.61" x2="113.72" y2="289.62"/></g><g class="cls-46"><line class="cls-27" x1="135.87" y1="287.61" x2="135.87" y2="289.62"/></g><g class="cls-46"><line class="cls-27" x1="157.34" y1="287.61" x2="157.34" y2="289.62"/></g><g class="cls-46"><line class="cls-27" x1="178.81" y1="287.61" x2="178.81" y2="289.62"/></g><g class="cls-46"><line class="cls-27" x1="200.29" y1="287.61" x2="200.29" y2="289.62"/></g><g class="cls-46"><line class="cls-27" x1="221.76" y1="287.61" x2="221.76" y2="289.62"/></g><g class="cls-46"><line class="cls-27" x1="243.23" y1="287.61" x2="243.23" y2="289.62"/></g><g class="cls-46"><line class="cls-27" x1="264.71" y1="287.61" x2="264.71" y2="289.62"/></g><g class="cls-46"><line class="cls-27" x1="286.85" y1="287.61" x2="286.85" y2="289.62"/></g><g class="cls-46"><line class="cls-27" x1="308.32" y1="287.61" x2="308.32" y2="289.62"/></g><g class="cls-46"><line class="cls-27" x1="329.8" y1="287.61" x2="329.8" y2="289.62"/></g><g class="cls-46"><line class="cls-27" x1="351.27" y1="287.61" x2="351.27" y2="289.62"/></g><g class="cls-46"><line class="cls-27" x1="38.57" y1="287.61" x2="38.57" y2="291.64"/></g><g class="cls-46"><line class="cls-27" x1="60.04" y1="287.61" x2="60.04" y2="291.64"/></g><g class="cls-46"><line class="cls-27" x1="81.51" y1="287.61" x2="81.51" y2="291.64"/></g><g class="cls-46"><line class="cls-27" x1="102.99" y1="287.61" x2="102.99" y2="291.64"/></g><g class="cls-46"><line class="cls-27" x1="125.13" y1="287.61" x2="125.13" y2="291.64"/></g><g class="cls-46"><line class="cls-27" x1="146.6" y1="287.61" x2="146.6" y2="291.64"/></g><g class="cls-46"><line class="cls-27" x1="168.08" y1="287.61" x2="168.08" y2="291.64"/></g><g class="cls-46"><line class="cls-27" x1="189.55" y1="287.61" x2="189.55" y2="291.64"/></g><g class="cls-46"><line class="cls-27" x1="211.02" y1="287.61" x2="211.02" y2="291.64"/></g><g class="cls-46"><line class="cls-27" x1="232.5" y1="287.61" x2="232.5" y2="291.64"/></g><g class="cls-46"><line class="cls-27" x1="253.97" y1="287.61" x2="253.97" y2="291.64"/></g><g class="cls-46"><line class="cls-27" x1="275.44" y1="287.61" x2="275.44" y2="291.64"/></g><g class="cls-46"><line class="cls-27" x1="297.59" y1="287.61" x2="297.59" y2="291.64"/></g><g class="cls-46"><line class="cls-27" x1="319.06" y1="287.61" x2="319.06" y2="291.64"/></g><g class="cls-46"><line class="cls-27" x1="340.53" y1="287.61" x2="340.53" y2="291.64"/></g><g class="cls-46"><line class="cls-27" x1="362.01" y1="287.61" x2="362.01" y2="291.64"/></g><text class="cls-28" transform="translate(33.57 300.37)">1</text><text class="cls-28" transform="translate(55.04 300.37)">2</text><text class="cls-28" transform="translate(76.49 300.37)">3</text><text class="cls-28" transform="translate(97.98 300.37)">4</text><text class="cls-28" transform="translate(120.11 300.37)">5</text><text class="cls-28" transform="translate(141.58 300.37)">6</text><text class="cls-28" transform="translate(163.08 300.37)">7</text><text class="cls-28" transform="translate(184.55 300.37)">8</text><text class="cls-28" transform="translate(206.02 300.37)">9</text><text class="cls-47" transform="translate(224.14 300.37)">1<tspan class="cls-48" x="4.7" y="0">0</tspan></text><text class="cls-47" transform="translate(245.61 300.37)">1<tspan class="cls-48" x="4.7" y="0">1</tspan></text><text class="cls-47" transform="translate(267.08 300.37)">1<tspan class="cls-48" x="4.7" y="0">2</tspan></text><text class="cls-47" transform="translate(289.24 300.37)">1<tspan class="cls-48" x="4.7" y="0">3</tspan></text><text class="cls-47" transform="translate(310.71 300.37)">1<tspan class="cls-48" x="4.7" y="0">4</tspan></text><text class="cls-28" transform="translate(332.16 300.37)"><tspan class="cls-29">1</tspan><tspan x="4.7" y="0">5</tspan></text><text class="cls-28" transform="translate(356.65 300.37)"><tspan class="cls-29">1</tspan><tspan x="4.7" y="0">6</tspan></text><text class="cls-49" transform="translate(115.44 314.11)">T<tspan class="cls-50" x="3.36" y="0">r</tspan><tspan class="cls-51" x="6.05" y="0">u</tspan><tspan class="cls-52" x="10.75" y="0">e</tspan><tspan class="cls-53" x="14.78" y="0"> </tspan><tspan class="cls-54" x="16.81" y="0">m</tspan><tspan class="cls-55" x="23.53" y="0">a</tspan><tspan class="cls-56" x="27.56" y="0">t</tspan><tspan class="cls-57" x="30.26" y="0">c</tspan><tspan class="cls-51" x="34.28" y="0">h</tspan><tspan class="cls-53" x="38.98" y="0"> </tspan><tspan class="cls-58" x="41" y="0">r</tspan><tspan class="cls-55" x="43.69" y="0">a</tspan><tspan class="cls-51" x="47.73" y="0">n</tspan><tspan class="cls-59" x="52.43" y="0">k</tspan><tspan class="cls-53" x="56.45" y="0"> </tspan><tspan class="cls-60" x="58.47" y="0">(</tspan><tspan class="cls-61" x="61.15" y="0">s</tspan><tspan class="cls-52" x="64.51" y="0">e</tspan><tspan class="cls-62" x="68.55" y="0">a</tspan><tspan class="cls-58" x="72.59" y="0">r</tspan><tspan class="cls-57" x="75.28" y="0">c</tspan><tspan class="cls-51" x="79.3" y="0">h</tspan><tspan class="cls-63" x="84" y="0">i</tspan><tspan class="cls-51" x="86.01" y="0">n</tspan><tspan class="cls-56" x="90.71" y="0">g</tspan><tspan class="cls-53" x="95.41" y="0"> </tspan><tspan class="cls-51" x="97.43" y="0">un</tspan><tspan class="cls-64" x="106.83" y="0">k</tspan><tspan class="cls-51" x="110.85" y="0">n</tspan><tspan class="cls-65" x="115.55" y="0">o</tspan><tspan class="cls-66" x="120.26" y="0">w</tspan><tspan class="cls-51" x="126.3" y="0">n</tspan><tspan class="cls-53" x="130.99" y="0"> </tspan><tspan class="cls-67" x="133.02" y="0">p</tspan><tspan class="cls-52" x="137.72" y="0">e</tspan><tspan class="cls-50" x="141.76" y="0">r</tspan><tspan class="cls-61" x="144.45" y="0">s</tspan><tspan class="cls-65" x="147.81" y="0">o</tspan><tspan class="cls-51" x="152.52" y="0">n</tspan><tspan class="cls-61" x="157.21" y="0">s</tspan><tspan class="cls-68" x="160.58" y="0">)</tspan></text><polygon class="cls-31" points="364.99 25.18 364.99 32.57 379.09 32.57 379.09 25.18 364.99 25.18 364.99 25.18"/><rect class="cls-69" x="365.33" y="25.52" width="13.42" height="6.72"/><text class="cls-28" transform="translate(380.79 32.23)">Two parents</text><polygon class="cls-34" points="364.99 61.93 364.99 69.32 379.09 69.32 379.09 61.93 364.99 61.93 364.99 61.93"/><rect class="cls-70" x="365.33" y="62.26" width="13.42" height="6.71"/><text class="cls-28" transform="translate(380.79 68.98)">Child and spouse</text><polygon class="cls-36" points="364.99 77.62 364.99 85 379.09 85 379.09 77.62 364.99 77.62 364.99 77.62"/><rect class="cls-71" x="365.33" y="77.95" width="13.42" height="6.71"/><text class="cls-28" transform="translate(380.79 84.67)">Two siblings</text><polygon class="cls-38" points="364.99 136.83 364.99 144.21 379.09 144.21 379.09 136.83 364.99 136.83 364.99 136.83"/><rect class="cls-72" x="365.33" y="137.16" width="13.42" height="6.71"/><text class="cls-28" transform="translate(380.79 143.88)">One sibling</text><polygon class="cls-40" points="364.99 170.06 364.99 177.45 379.09 177.45 379.09 170.06 364.99 170.06 364.99 170.06"/><rect class="cls-73" x="365.33" y="170.4" width="13.42" height="6.72"/><text class="cls-28" transform="translate(380.79 177.12)">One child</text><polygon class="cls-42" points="364.99 180.84 364.99 188.23 379.09 188.23 379.09 180.84 364.99 180.84 364.99 180.84"/><rect class="cls-74" x="365.33" y="181.18" width="13.42" height="6.72"/><text class="cls-28" transform="translate(380.79 187.9)">One parent</text><polygon class="cls-44" points="364.99 274.45 364.99 281.83 379.09 281.83 379.09 274.45 364.99 274.45 364.99 274.45"/><rect class="cls-75" x="365.33" y="274.78" width="13.42" height="6.72"/><text class="cls-28" transform="translate(380.79 281.5)">Half-sibling</text></g></g></svg>