<?xml version="1.0" encoding="utf-8"?>
<!-- Generator: Adobe Illustrator 22.1.0, SVG Export Plug-In . SVG Version: 6.00 Build 0)  -->
<svg version="1.1" id="Layer_1" xmlns="http://www.w3.org/2000/svg" xmlns:xlink="http://www.w3.org/1999/xlink" x="0px" y="0px"
	 viewBox="0 0 296.29 316.13" style="enable-background:new 0 0 296.29 316.13;" xml:space="preserve">
<style type="text/css">
	.st0{fill:#37B44A;}
	.st1{enable-background:new    ;}
	.st2{fill:#010101;}
	.st3{fill:#5BBA47;}
	.st4{fill:#93C83E;}
	.st5{fill:#DAD124;}
	.st6{fill:#E89724;}
	.st7{fill:#F15623;}
	.st8{fill:#ED2224;}
	.st9{fill:#DEDEDE;}
	.st10{clip-path:url(#SVGID_2_);}
	.st11{fill:#A6A6A6;}
	.st12{fill:#BFBFBF;}
	.st13{fill:#231F20;}
	.st14{fill:#FFFFFF;}
	.st15{clip-path:url(#SVGID_4_);}
	.st16{fill:#05765A;}
	.st17{fill:#1EA149;}
	.st18{fill:#87C540;}
	.st19{fill:#D1D033;}
	.st20{fill:#E77924;}
	.st21{fill:#EF4351;}
	.st22{opacity:0.05;enable-background:new    ;}
	.st23{fill:#E6E6E6;}
</style>
<title>structures</title>
<g>
	<g>
		<polygon class="st0" points="0.85,47.18 0.85,54.57 14.94,54.57 14.94,47.18 0.85,47.18 		"/>
	</g>
	<g>
		<path class="st0" d="M14.77,54.4H1.03V47.36h13.74V54.4z M1.35,54.08h13.1v-6.4H1.35V54.08z"/>
	</g>
	<g class="st1">
		<g>
			<path class="st2" d="M20.717,49.185h-1.629v5.045h-0.661v-5.045h-1.625v-0.599h3.916V49.185z"/>
		</g>
	</g>
	<g class="st1">
		<g>
			<path class="st2" d="M26.15,50.2l-1.208,4.03h-0.669l-0.831-2.885c-0.031-0.11-0.052-0.234-0.063-0.374h-0.016
				c-0.008,0.095-0.036,0.217-0.083,0.366L22.38,54.23h-0.646l-1.22-4.03h0.677l0.834,3.03c0.026,0.092,0.045,0.213,0.055,0.362
				h0.032c0.008-0.115,0.031-0.238,0.071-0.37l0.929-3.022h0.59l0.834,3.038c0.026,0.098,0.046,0.218,0.059,0.362h0.031
				c0.005-0.103,0.028-0.223,0.067-0.362l0.819-3.038H26.15z"/>
		</g>
	</g>
	<g class="st1">
		<g>
			<path class="st2" d="M28.558,54.325c-0.596,0-1.071-0.188-1.427-0.565c-0.355-0.376-0.533-0.875-0.533-1.497
				c0-0.677,0.185-1.206,0.555-1.586c0.37-0.381,0.87-0.57,1.5-0.57c0.601,0,1.07,0.185,1.407,0.555
				c0.337,0.37,0.505,0.883,0.505,1.539c0,0.643-0.182,1.157-0.545,1.544C29.657,54.131,29.169,54.325,28.558,54.325z
				 M28.605,50.649c-0.415,0-0.742,0.141-0.984,0.423c-0.241,0.282-0.362,0.671-0.362,1.167c0,0.478,0.122,0.854,0.366,1.129
				c0.244,0.276,0.571,0.414,0.98,0.414c0.417,0,0.738-0.136,0.962-0.406c0.224-0.27,0.336-0.654,0.336-1.152
				c0-0.504-0.112-0.893-0.336-1.165C29.343,50.785,29.022,50.649,28.605,50.649z"/>
		</g>
	</g>
	<g class="st1">
		<g>
			<path class="st2" d="M34.464,53.648h-0.016v2.436h-0.646V50.2h0.646v0.709h0.016c0.317-0.535,0.782-0.803,1.393-0.803
				c0.52,0,0.925,0.18,1.216,0.541c0.291,0.36,0.437,0.844,0.437,1.45c0,0.674-0.164,1.214-0.492,1.619s-0.777,0.608-1.346,0.608
				C35.15,54.325,34.748,54.099,34.464,53.648z M34.449,52.022v0.562c0,0.334,0.108,0.616,0.325,0.849
				c0.216,0.232,0.491,0.349,0.824,0.349c0.391,0,0.697-0.15,0.919-0.449s0.333-0.715,0.333-1.247c0-0.449-0.104-0.801-0.311-1.055
				c-0.208-0.255-0.488-0.382-0.842-0.382c-0.375,0-0.677,0.13-0.905,0.392C34.563,51.301,34.449,51.628,34.449,52.022z"/>
		</g>
	</g>
	<g class="st1">
		<g>
			<path class="st2" d="M41.318,54.23h-0.646V53.6h-0.016c-0.281,0.483-0.694,0.725-1.24,0.725c-0.401,0-0.716-0.106-0.942-0.319
				c-0.227-0.212-0.341-0.494-0.341-0.846c0-0.753,0.443-1.191,1.331-1.314l1.208-0.169c0-0.686-0.277-1.027-0.831-1.027
				c-0.485,0-0.923,0.165-1.314,0.495v-0.661c0.396-0.251,0.853-0.377,1.37-0.377c0.947,0,1.421,0.501,1.421,1.503V54.23z
				 M40.672,52.191L39.7,52.325c-0.299,0.042-0.524,0.116-0.677,0.223s-0.229,0.295-0.229,0.564c0,0.197,0.07,0.358,0.211,0.482
				c0.14,0.125,0.327,0.188,0.561,0.188c0.32,0,0.584-0.112,0.793-0.337c0.209-0.225,0.313-0.508,0.313-0.852V52.191z"/>
		</g>
	</g>
	<g class="st1">
		<g>
			<path class="st2" d="M44.635,50.853c-0.113-0.086-0.275-0.13-0.488-0.13c-0.276,0-0.506,0.13-0.691,0.39
				s-0.277,0.614-0.277,1.062v2.055h-0.646V50.2h0.646v0.831h0.016c0.092-0.284,0.232-0.505,0.421-0.663
				c0.189-0.159,0.4-0.238,0.634-0.238c0.168,0,0.296,0.019,0.386,0.055V50.853z"/>
		</g>
	</g>
	<g class="st1">
		<g>
			<path class="st2" d="M48.472,52.376h-2.845c0.01,0.448,0.131,0.795,0.362,1.039c0.231,0.244,0.548,0.366,0.953,0.366
				c0.454,0,0.871-0.15,1.251-0.449v0.606c-0.354,0.257-0.822,0.386-1.405,0.386c-0.569,0-1.017-0.184-1.342-0.549
				c-0.325-0.366-0.488-0.881-0.488-1.545c0-0.627,0.178-1.139,0.533-1.533s0.797-0.592,1.324-0.592s0.936,0.17,1.224,0.511
				c0.289,0.342,0.433,0.815,0.433,1.421V52.376z M47.811,51.83c-0.002-0.373-0.092-0.663-0.27-0.87s-0.423-0.311-0.738-0.311
				c-0.304,0-0.563,0.108-0.775,0.326s-0.344,0.503-0.394,0.854H47.811z"/>
		</g>
		<g>
			<path class="st2" d="M52.793,54.23h-0.646v-2.299c0-0.854-0.312-1.282-0.937-1.282c-0.323,0-0.59,0.121-0.801,0.363
				c-0.211,0.243-0.317,0.55-0.317,0.919v2.299h-0.646V50.2h0.646v0.669h0.016c0.304-0.509,0.745-0.763,1.322-0.763
				c0.441,0,0.778,0.142,1.012,0.427c0.233,0.284,0.35,0.695,0.35,1.233V54.23z"/>
		</g>
		<g>
			<path class="st2" d="M55.879,54.191c-0.152,0.084-0.353,0.126-0.602,0.126c-0.706,0-1.059-0.394-1.059-1.181V50.75h-0.692V50.2
				h0.692v-0.983l0.646-0.209V50.2h1.015v0.551h-1.015v2.271c0,0.271,0.046,0.463,0.138,0.578s0.244,0.174,0.457,0.174
				c0.163,0,0.303-0.045,0.421-0.135V54.191z"/>
		</g>
		<g>
			<path class="st2" d="M56.497,54.084v-0.692c0.352,0.26,0.739,0.39,1.161,0.39c0.567,0,0.85-0.189,0.85-0.567
				c0-0.107-0.024-0.198-0.073-0.273c-0.049-0.074-0.114-0.141-0.197-0.198s-0.18-0.109-0.292-0.156
				c-0.111-0.045-0.231-0.094-0.36-0.144c-0.179-0.07-0.335-0.142-0.47-0.214c-0.135-0.072-0.248-0.153-0.338-0.244
				c-0.091-0.091-0.159-0.193-0.205-0.309c-0.046-0.116-0.069-0.251-0.069-0.406c0-0.188,0.043-0.355,0.13-0.501
				c0.087-0.146,0.202-0.268,0.347-0.366c0.144-0.099,0.309-0.173,0.494-0.223s0.376-0.074,0.573-0.074
				c0.349,0,0.661,0.06,0.937,0.181v0.653c-0.296-0.194-0.638-0.291-1.023-0.291c-0.121,0-0.23,0.014-0.327,0.041
				c-0.097,0.027-0.181,0.066-0.25,0.116c-0.07,0.05-0.124,0.109-0.162,0.179s-0.057,0.146-0.057,0.23
				c0,0.105,0.019,0.192,0.057,0.264s0.094,0.134,0.167,0.188c0.073,0.056,0.163,0.105,0.268,0.15
				c0.105,0.044,0.224,0.093,0.358,0.146c0.179,0.068,0.339,0.138,0.48,0.21s0.262,0.153,0.362,0.244s0.177,0.195,0.23,0.313
				c0.054,0.117,0.081,0.258,0.081,0.421c0,0.199-0.044,0.372-0.132,0.52c-0.088,0.146-0.206,0.269-0.352,0.366
				c-0.147,0.097-0.316,0.169-0.508,0.216c-0.191,0.048-0.392,0.071-0.602,0.071C57.161,54.325,56.801,54.245,56.497,54.084z"/>
		</g>
	</g>
	<g>
		<polygon class="st3" points="0.85,82.93 0.85,90.32 14.94,90.32 14.94,82.93 0.85,82.93 		"/>
	</g>
	<g>
		<path class="st3" d="M14.77,90.13H1.03V83.1h13.74V90.13z M1.35,89.81h13.1v-6.39H1.35V89.81z"/>
	</g>
	<g class="st1">
		<g>
			<path class="st2" d="M21.221,89.744c-0.417,0.221-0.937,0.331-1.559,0.331c-0.803,0-1.446-0.259-1.928-0.775
				c-0.483-0.517-0.724-1.195-0.724-2.035c0-0.902,0.271-1.632,0.814-2.188c0.543-0.557,1.232-0.835,2.066-0.835
				c0.535,0,0.979,0.078,1.33,0.232v0.704c-0.404-0.226-0.85-0.338-1.338-0.338c-0.648,0-1.173,0.216-1.576,0.649
				c-0.402,0.433-0.604,1.011-0.604,1.735c0,0.688,0.188,1.235,0.565,1.644c0.376,0.407,0.87,0.611,1.481,0.611
				c0.567,0,1.058-0.126,1.472-0.378V89.744z"/>
		</g>
		<g>
			<path class="st2" d="M25.629,89.98h-0.646v-2.322c0-0.839-0.312-1.259-0.937-1.259c-0.315,0-0.58,0.121-0.795,0.363
				c-0.215,0.243-0.323,0.555-0.323,0.936v2.282h-0.646v-5.966h0.646v2.604h0.016c0.31-0.509,0.75-0.763,1.322-0.763
				c0.908,0,1.362,0.547,1.362,1.641V89.98z"/>
		</g>
		<g>
			<path class="st2" d="M27.176,84.926c-0.116,0-0.214-0.039-0.295-0.117c-0.082-0.079-0.122-0.179-0.122-0.3
				c0-0.12,0.041-0.221,0.122-0.301c0.081-0.08,0.179-0.12,0.295-0.12c0.118,0,0.218,0.04,0.301,0.12
				c0.083,0.08,0.124,0.181,0.124,0.301c0,0.116-0.041,0.214-0.124,0.296C27.394,84.886,27.294,84.926,27.176,84.926z M27.491,89.98
				h-0.646v-4.03h0.646V89.98z"/>
		</g>
		<g>
			<path class="st2" d="M29.442,89.98h-0.646v-5.966h0.646V89.98z"/>
		</g>
		<g>
			<path class="st2" d="M34.188,89.98h-0.645v-0.685h-0.016c-0.299,0.52-0.761,0.779-1.385,0.779c-0.506,0-0.911-0.181-1.214-0.541
				c-0.303-0.361-0.455-0.853-0.455-1.475c0-0.666,0.168-1.2,0.503-1.602c0.336-0.401,0.783-0.602,1.342-0.602
				c0.554,0,0.956,0.218,1.208,0.653h0.016v-2.495h0.645V89.98z M33.543,88.158v-0.594c0-0.326-0.108-0.602-0.323-0.827
				c-0.215-0.226-0.488-0.338-0.819-0.338c-0.394,0-0.703,0.144-0.929,0.433s-0.338,0.688-0.338,1.196
				c0,0.465,0.108,0.831,0.325,1.101c0.216,0.269,0.507,0.403,0.872,0.403c0.359,0,0.651-0.13,0.875-0.39
				C33.431,88.882,33.543,88.554,33.543,88.158z"/>
		</g>
		<g>
			<path class="st2" d="M40.588,89.98h-0.646v-0.63h-0.016c-0.281,0.483-0.694,0.725-1.24,0.725c-0.401,0-0.716-0.106-0.942-0.319
				c-0.227-0.212-0.341-0.494-0.341-0.846c0-0.753,0.443-1.191,1.331-1.314l1.208-0.169c0-0.686-0.277-1.027-0.831-1.027
				c-0.485,0-0.923,0.165-1.314,0.495v-0.661c0.396-0.251,0.853-0.377,1.37-0.377c0.947,0,1.421,0.501,1.421,1.503V89.98z
				 M39.942,87.941l-0.972,0.134c-0.299,0.042-0.524,0.116-0.677,0.223s-0.229,0.295-0.229,0.564c0,0.197,0.07,0.358,0.211,0.482
				c0.14,0.125,0.327,0.188,0.561,0.188c0.32,0,0.584-0.112,0.793-0.337c0.209-0.225,0.313-0.508,0.313-0.852V87.941z"/>
		</g>
		<g>
			<path class="st2" d="M45.149,89.98h-0.646v-2.299c0-0.854-0.312-1.282-0.937-1.282c-0.323,0-0.59,0.121-0.801,0.363
				c-0.211,0.243-0.317,0.55-0.317,0.919v2.299h-0.646v-4.03h0.646v0.669h0.016c0.304-0.509,0.745-0.763,1.322-0.763
				c0.441,0,0.778,0.142,1.012,0.427c0.233,0.284,0.35,0.695,0.35,1.233V89.98z"/>
		</g>
		<g>
			<path class="st2" d="M49.805,89.98H49.16v-0.685h-0.016c-0.299,0.52-0.761,0.779-1.385,0.779c-0.506,0-0.911-0.181-1.214-0.541
				c-0.303-0.361-0.455-0.853-0.455-1.475c0-0.666,0.168-1.2,0.503-1.602c0.336-0.401,0.783-0.602,1.342-0.602
				c0.554,0,0.956,0.218,1.208,0.653h0.016v-2.495h0.645V89.98z M49.16,88.158v-0.594c0-0.326-0.108-0.602-0.323-0.827
				c-0.215-0.226-0.488-0.338-0.819-0.338c-0.394,0-0.703,0.144-0.929,0.433s-0.338,0.688-0.338,1.196
				c0,0.465,0.108,0.831,0.325,1.101c0.216,0.269,0.507,0.403,0.872,0.403c0.359,0,0.651-0.13,0.875-0.39
				C49.047,88.882,49.16,88.554,49.16,88.158z"/>
		</g>
		<g>
			<path class="st2" d="M53.075,89.834v-0.692c0.352,0.26,0.739,0.39,1.161,0.39c0.567,0,0.85-0.189,0.85-0.567
				c0-0.107-0.024-0.198-0.073-0.273c-0.049-0.074-0.114-0.141-0.197-0.198s-0.18-0.109-0.292-0.156
				c-0.111-0.045-0.231-0.094-0.36-0.144c-0.179-0.07-0.335-0.142-0.47-0.214c-0.135-0.072-0.248-0.153-0.338-0.244
				c-0.091-0.091-0.159-0.193-0.205-0.309c-0.046-0.116-0.069-0.251-0.069-0.406c0-0.188,0.043-0.355,0.13-0.501
				c0.087-0.146,0.202-0.268,0.347-0.366c0.144-0.099,0.309-0.173,0.494-0.223s0.376-0.074,0.573-0.074
				c0.349,0,0.661,0.06,0.937,0.181v0.653c-0.296-0.194-0.638-0.291-1.023-0.291c-0.121,0-0.23,0.014-0.327,0.041
				c-0.097,0.027-0.181,0.066-0.25,0.116c-0.07,0.05-0.124,0.109-0.162,0.179s-0.057,0.146-0.057,0.23
				c0,0.105,0.019,0.192,0.057,0.264s0.094,0.134,0.167,0.188c0.073,0.056,0.163,0.105,0.268,0.15
				c0.105,0.044,0.224,0.093,0.358,0.146c0.179,0.068,0.339,0.138,0.48,0.21s0.262,0.153,0.362,0.244s0.177,0.195,0.23,0.313
				c0.054,0.117,0.081,0.258,0.081,0.421c0,0.199-0.044,0.372-0.132,0.52c-0.088,0.146-0.206,0.269-0.352,0.366
				c-0.147,0.097-0.316,0.169-0.508,0.216c-0.191,0.048-0.392,0.071-0.602,0.071C53.739,90.075,53.38,89.995,53.075,89.834z"/>
		</g>
		<g>
			<path class="st2" d="M57.4,89.398h-0.016v2.436h-0.646V85.95h0.646v0.709H57.4c0.317-0.535,0.782-0.803,1.393-0.803
				c0.52,0,0.925,0.18,1.216,0.541c0.291,0.36,0.437,0.844,0.437,1.45c0,0.674-0.164,1.214-0.492,1.619s-0.777,0.608-1.346,0.608
				C58.086,90.075,57.684,89.849,57.4,89.398z M57.385,87.772v0.562c0,0.334,0.108,0.616,0.325,0.849
				c0.216,0.232,0.491,0.349,0.824,0.349c0.391,0,0.697-0.15,0.919-0.449s0.333-0.715,0.333-1.247c0-0.449-0.104-0.801-0.311-1.055
				c-0.208-0.255-0.488-0.382-0.842-0.382c-0.375,0-0.677,0.13-0.905,0.392C57.499,87.051,57.385,87.378,57.385,87.772z"/>
		</g>
		<g>
			<path class="st2" d="M63.162,90.075c-0.596,0-1.071-0.188-1.427-0.565c-0.355-0.376-0.533-0.875-0.533-1.497
				c0-0.677,0.185-1.206,0.555-1.586c0.37-0.381,0.87-0.57,1.5-0.57c0.601,0,1.07,0.185,1.407,0.555
				c0.337,0.37,0.505,0.883,0.505,1.539c0,0.643-0.182,1.157-0.545,1.544C64.261,89.881,63.773,90.075,63.162,90.075z
				 M63.209,86.399c-0.415,0-0.742,0.141-0.984,0.423c-0.241,0.282-0.362,0.671-0.362,1.167c0,0.478,0.122,0.854,0.366,1.129
				c0.244,0.276,0.571,0.414,0.98,0.414c0.417,0,0.738-0.136,0.962-0.406c0.224-0.27,0.336-0.654,0.336-1.152
				c0-0.504-0.112-0.893-0.336-1.165C63.947,86.535,63.626,86.399,63.209,86.399z"/>
		</g>
		<g>
			<path class="st2" d="M69.459,89.98h-0.646v-0.638h-0.016c-0.268,0.488-0.683,0.732-1.244,0.732c-0.96,0-1.44-0.572-1.44-1.716
				V85.95h0.641v2.307c0,0.85,0.326,1.275,0.976,1.275c0.315,0,0.574-0.116,0.777-0.349s0.305-0.536,0.305-0.911V85.95h0.646V89.98z
				"/>
		</g>
		<g>
			<path class="st2" d="M70.518,89.834v-0.692c0.352,0.26,0.739,0.39,1.161,0.39c0.567,0,0.85-0.189,0.85-0.567
				c0-0.107-0.024-0.198-0.073-0.273c-0.049-0.074-0.114-0.141-0.197-0.198s-0.18-0.109-0.292-0.156
				c-0.111-0.045-0.231-0.094-0.36-0.144c-0.179-0.07-0.335-0.142-0.47-0.214c-0.135-0.072-0.248-0.153-0.338-0.244
				c-0.091-0.091-0.159-0.193-0.205-0.309c-0.046-0.116-0.069-0.251-0.069-0.406c0-0.188,0.043-0.355,0.13-0.501
				c0.087-0.146,0.202-0.268,0.347-0.366c0.144-0.099,0.309-0.173,0.494-0.223s0.376-0.074,0.573-0.074
				c0.349,0,0.661,0.06,0.937,0.181v0.653c-0.296-0.194-0.638-0.291-1.023-0.291c-0.121,0-0.23,0.014-0.327,0.041
				c-0.097,0.027-0.181,0.066-0.25,0.116c-0.07,0.05-0.124,0.109-0.162,0.179s-0.057,0.146-0.057,0.23
				c0,0.105,0.019,0.192,0.057,0.264s0.094,0.134,0.167,0.188c0.073,0.056,0.163,0.105,0.268,0.15
				c0.105,0.044,0.224,0.093,0.358,0.146c0.179,0.068,0.339,0.138,0.48,0.21s0.262,0.153,0.362,0.244s0.177,0.195,0.23,0.313
				c0.054,0.117,0.081,0.258,0.081,0.421c0,0.199-0.044,0.372-0.132,0.52c-0.088,0.146-0.206,0.269-0.352,0.366
				c-0.147,0.097-0.316,0.169-0.508,0.216c-0.191,0.048-0.392,0.071-0.602,0.071C71.182,90.075,70.822,89.995,70.518,89.834z"/>
		</g>
		<g>
			<path class="st2" d="M77.42,88.126h-2.845c0.01,0.448,0.131,0.795,0.362,1.039c0.231,0.244,0.548,0.366,0.953,0.366
				c0.454,0,0.871-0.15,1.251-0.449v0.606c-0.354,0.257-0.822,0.386-1.405,0.386c-0.569,0-1.017-0.184-1.342-0.549
				c-0.325-0.366-0.488-0.881-0.488-1.545c0-0.627,0.178-1.139,0.533-1.533s0.797-0.592,1.324-0.592s0.936,0.17,1.224,0.511
				c0.289,0.342,0.433,0.815,0.433,1.421V88.126z M76.759,87.58c-0.002-0.373-0.092-0.663-0.27-0.87s-0.423-0.311-0.738-0.311
				c-0.304,0-0.563,0.108-0.775,0.326s-0.344,0.503-0.394,0.854H76.759z"/>
		</g>
	</g>
	<g>
		<polygon class="st4" points="0.85,116.62 0.85,124 14.94,124 14.94,116.62 0.85,116.62 		"/>
	</g>
	<g>
		<path class="st4" d="M14.77,123.82H1.03v-7.03h13.74V123.82z M1.35,123.5h13.1v-6.39H1.35V123.5z"/>
	</g>
	<g class="st1">
		<g>
			<path class="st2" d="M20.717,118.625h-1.629v5.045h-0.661v-5.045h-1.625v-0.599h3.916V118.625z"/>
		</g>
	</g>
	<g class="st1">
		<g>
			<path class="st2" d="M26.15,119.64l-1.208,4.03h-0.669l-0.831-2.885c-0.031-0.11-0.052-0.234-0.063-0.374h-0.016
				c-0.008,0.095-0.036,0.217-0.083,0.366l-0.901,2.893h-0.646l-1.22-4.03h0.677l0.834,3.03c0.026,0.092,0.045,0.213,0.055,0.362
				h0.032c0.008-0.115,0.031-0.238,0.071-0.37l0.929-3.022h0.59l0.834,3.038c0.026,0.098,0.046,0.218,0.059,0.362h0.031
				c0.005-0.103,0.028-0.223,0.067-0.362l0.819-3.038H26.15z"/>
		</g>
	</g>
	<g class="st1">
		<g>
			<path class="st2" d="M28.558,123.765c-0.596,0-1.071-0.188-1.427-0.565c-0.355-0.376-0.533-0.875-0.533-1.497
				c0-0.677,0.185-1.206,0.555-1.586c0.37-0.381,0.87-0.57,1.5-0.57c0.601,0,1.07,0.185,1.407,0.555
				c0.337,0.37,0.505,0.883,0.505,1.539c0,0.643-0.182,1.157-0.545,1.544C29.657,123.571,29.169,123.765,28.558,123.765z
				 M28.605,120.089c-0.415,0-0.742,0.141-0.984,0.423c-0.241,0.282-0.362,0.671-0.362,1.167c0,0.478,0.122,0.854,0.366,1.129
				c0.244,0.276,0.571,0.414,0.98,0.414c0.417,0,0.738-0.136,0.962-0.406c0.224-0.27,0.336-0.654,0.336-1.152
				c0-0.504-0.112-0.893-0.336-1.165C29.343,120.225,29.022,120.089,28.605,120.089z"/>
		</g>
		<g>
			<path class="st2" d="M33.56,123.524v-0.692c0.352,0.26,0.739,0.39,1.161,0.39c0.567,0,0.85-0.189,0.85-0.567
				c0-0.107-0.024-0.198-0.073-0.273c-0.049-0.074-0.114-0.141-0.197-0.198s-0.18-0.109-0.292-0.156
				c-0.111-0.045-0.231-0.094-0.36-0.144c-0.179-0.07-0.335-0.142-0.47-0.214c-0.135-0.072-0.248-0.153-0.338-0.244
				c-0.091-0.091-0.159-0.193-0.205-0.309c-0.046-0.116-0.069-0.251-0.069-0.406c0-0.188,0.043-0.355,0.13-0.501
				c0.087-0.146,0.202-0.268,0.347-0.366c0.144-0.099,0.309-0.173,0.494-0.223s0.376-0.074,0.573-0.074
				c0.349,0,0.661,0.06,0.937,0.181v0.653c-0.296-0.194-0.638-0.291-1.023-0.291c-0.121,0-0.23,0.014-0.327,0.041
				c-0.097,0.027-0.181,0.066-0.25,0.116c-0.07,0.05-0.124,0.109-0.162,0.179s-0.057,0.146-0.057,0.23
				c0,0.105,0.019,0.192,0.057,0.264s0.094,0.134,0.167,0.188c0.073,0.056,0.163,0.105,0.268,0.15
				c0.105,0.044,0.224,0.093,0.358,0.146c0.179,0.068,0.339,0.138,0.48,0.21s0.262,0.153,0.362,0.244s0.177,0.195,0.23,0.313
				c0.054,0.117,0.081,0.258,0.081,0.421c0,0.199-0.044,0.372-0.132,0.52c-0.088,0.146-0.206,0.269-0.352,0.366
				c-0.147,0.097-0.316,0.169-0.508,0.216c-0.191,0.048-0.392,0.071-0.602,0.071C34.224,123.765,33.865,123.685,33.56,123.524z"/>
		</g>
		<g>
			<path class="st2" d="M37.555,118.616c-0.116,0-0.214-0.039-0.295-0.117c-0.082-0.079-0.122-0.179-0.122-0.3
				c0-0.12,0.041-0.221,0.122-0.301c0.081-0.08,0.179-0.12,0.295-0.12c0.118,0,0.218,0.04,0.301,0.12
				c0.083,0.08,0.124,0.181,0.124,0.301c0,0.116-0.041,0.214-0.124,0.296C37.773,118.576,37.673,118.616,37.555,118.616z
				 M37.87,123.67h-0.646v-4.03h0.646V123.67z"/>
		</g>
		<g>
			<path class="st2" d="M39.837,123.088h-0.016v0.582h-0.646v-5.966h0.646v2.645h0.016c0.317-0.535,0.782-0.803,1.393-0.803
				c0.517,0,0.922,0.18,1.214,0.541c0.292,0.36,0.438,0.844,0.438,1.45c0,0.674-0.164,1.214-0.492,1.619s-0.777,0.608-1.346,0.608
				C40.513,123.765,40.11,123.539,39.837,123.088z M39.822,121.462v0.562c0,0.334,0.108,0.616,0.325,0.849
				c0.216,0.232,0.491,0.349,0.824,0.349c0.391,0,0.697-0.15,0.919-0.449s0.333-0.715,0.333-1.247c0-0.449-0.104-0.801-0.311-1.055
				c-0.208-0.255-0.488-0.382-0.842-0.382c-0.375,0-0.677,0.13-0.905,0.392C39.936,120.741,39.822,121.068,39.822,121.462z"/>
		</g>
		<g>
			<path class="st2" d="M44.56,123.67h-0.646v-5.966h0.646V123.67z"/>
		</g>
		<g>
			<path class="st2" d="M46.197,118.616c-0.116,0-0.214-0.039-0.295-0.117c-0.082-0.079-0.122-0.179-0.122-0.3
				c0-0.12,0.041-0.221,0.122-0.301c0.081-0.08,0.179-0.12,0.295-0.12c0.118,0,0.218,0.04,0.301,0.12
				c0.083,0.08,0.124,0.181,0.124,0.301c0,0.116-0.041,0.214-0.124,0.296C46.415,118.576,46.315,118.616,46.197,118.616z
				 M46.512,123.67h-0.646v-4.03h0.646V123.67z"/>
		</g>
		<g>
			<path class="st2" d="M51.164,123.67h-0.646v-2.299c0-0.854-0.312-1.282-0.937-1.282c-0.323,0-0.59,0.121-0.801,0.363
				c-0.211,0.243-0.317,0.55-0.317,0.919v2.299h-0.646v-4.03h0.646v0.669h0.016c0.304-0.509,0.745-0.763,1.322-0.763
				c0.441,0,0.778,0.142,1.012,0.427c0.233,0.284,0.35,0.695,0.35,1.233V123.67z"/>
		</g>
		<g>
			<path class="st2" d="M55.819,123.348c0,1.479-0.708,2.219-2.125,2.219c-0.499,0-0.934-0.094-1.307-0.283v-0.646
				c0.454,0.252,0.887,0.378,1.299,0.378c0.992,0,1.488-0.527,1.488-1.582v-0.44h-0.016c-0.307,0.514-0.769,0.771-1.385,0.771
				c-0.501,0-0.904-0.18-1.21-0.537c-0.306-0.358-0.458-0.839-0.458-1.442c0-0.686,0.165-1.229,0.494-1.634
				c0.33-0.404,0.78-0.605,1.352-0.605c0.543,0,0.946,0.218,1.208,0.653h0.016v-0.56h0.645V123.348z M55.174,121.848v-0.594
				c0-0.32-0.108-0.595-0.325-0.823c-0.217-0.228-0.486-0.342-0.809-0.342c-0.399,0-0.711,0.145-0.937,0.435
				s-0.338,0.696-0.338,1.218c0,0.449,0.108,0.808,0.325,1.077c0.216,0.269,0.503,0.403,0.86,0.403c0.362,0,0.657-0.129,0.883-0.386
				C55.061,122.578,55.174,122.249,55.174,121.848z"/>
		</g>
		<g>
			<path class="st2" d="M56.882,123.524v-0.692c0.352,0.26,0.739,0.39,1.161,0.39c0.567,0,0.85-0.189,0.85-0.567
				c0-0.107-0.024-0.198-0.073-0.273c-0.049-0.074-0.114-0.141-0.197-0.198s-0.18-0.109-0.292-0.156
				c-0.111-0.045-0.231-0.094-0.36-0.144c-0.179-0.07-0.335-0.142-0.47-0.214c-0.135-0.072-0.248-0.153-0.338-0.244
				c-0.091-0.091-0.159-0.193-0.205-0.309c-0.046-0.116-0.069-0.251-0.069-0.406c0-0.188,0.043-0.355,0.13-0.501
				c0.087-0.146,0.202-0.268,0.347-0.366c0.144-0.099,0.309-0.173,0.494-0.223s0.376-0.074,0.573-0.074
				c0.349,0,0.661,0.06,0.937,0.181v0.653c-0.296-0.194-0.638-0.291-1.023-0.291c-0.121,0-0.23,0.014-0.327,0.041
				c-0.097,0.027-0.181,0.066-0.25,0.116c-0.07,0.05-0.124,0.109-0.162,0.179s-0.057,0.146-0.057,0.23
				c0,0.105,0.019,0.192,0.057,0.264s0.094,0.134,0.167,0.188c0.073,0.056,0.163,0.105,0.268,0.15
				c0.105,0.044,0.224,0.093,0.358,0.146c0.179,0.068,0.339,0.138,0.48,0.21s0.262,0.153,0.362,0.244s0.177,0.195,0.23,0.313
				c0.054,0.117,0.081,0.258,0.081,0.421c0,0.199-0.044,0.372-0.132,0.52c-0.088,0.146-0.206,0.269-0.352,0.366
				c-0.147,0.097-0.316,0.169-0.508,0.216c-0.191,0.048-0.392,0.071-0.602,0.071C57.546,123.765,57.187,123.685,56.882,123.524z"/>
		</g>
	</g>
	<g>
		<polygon class="st5" points="0.85,150.83 0.85,158.21 14.94,158.21 14.94,150.83 0.85,150.83 		"/>
	</g>
	<g>
		<path class="st5" d="M14.77,158.03H1.03V151h13.74V158.03z M1.35,157.71h13.1v-6.39H1.35V157.71z"/>
	</g>
	<g class="st1">
		<g>
			<path class="st2" d="M19.655,157.975c-0.8,0-1.441-0.264-1.922-0.791s-0.722-1.214-0.722-2.059c0-0.908,0.245-1.632,0.736-2.173
				c0.491-0.54,1.158-0.811,2.003-0.811c0.779,0,1.407,0.263,1.883,0.787c0.476,0.525,0.714,1.211,0.714,2.059
				c0,0.921-0.244,1.649-0.732,2.185C21.126,157.707,20.473,157.975,19.655,157.975z M19.702,152.74
				c-0.593,0-1.075,0.214-1.444,0.642c-0.37,0.428-0.555,0.989-0.555,1.685s0.181,1.254,0.541,1.678
				c0.361,0.424,0.831,0.636,1.411,0.636c0.619,0,1.107-0.202,1.464-0.605c0.357-0.404,0.535-0.97,0.535-1.696
				c0-0.745-0.173-1.321-0.519-1.729C20.788,152.943,20.311,152.74,19.702,152.74z"/>
		</g>
		<g>
			<path class="st2" d="M26.715,157.88H26.07v-2.299c0-0.854-0.312-1.282-0.937-1.282c-0.323,0-0.59,0.121-0.801,0.363
				c-0.211,0.243-0.317,0.55-0.317,0.919v2.299H23.37v-4.03h0.646v0.669h0.016c0.304-0.509,0.745-0.763,1.322-0.763
				c0.441,0,0.778,0.142,1.012,0.427c0.233,0.284,0.35,0.695,0.35,1.233V157.88z"/>
		</g>
		<g>
			<path class="st2" d="M31.17,156.026h-2.845c0.01,0.448,0.131,0.795,0.362,1.039c0.231,0.244,0.548,0.366,0.953,0.366
				c0.454,0,0.871-0.15,1.251-0.449v0.606c-0.354,0.257-0.822,0.386-1.405,0.386c-0.569,0-1.017-0.184-1.342-0.549
				c-0.325-0.366-0.488-0.881-0.488-1.545c0-0.627,0.178-1.139,0.533-1.533s0.797-0.592,1.324-0.592s0.936,0.17,1.224,0.511
				c0.289,0.342,0.433,0.815,0.433,1.421V156.026z M30.509,155.479c-0.002-0.373-0.092-0.663-0.27-0.87s-0.423-0.311-0.738-0.311
				c-0.304,0-0.563,0.108-0.775,0.326s-0.344,0.503-0.394,0.854H30.509z"/>
		</g>
		<g>
			<path class="st2" d="M34.11,157.734v-0.692c0.352,0.26,0.739,0.39,1.161,0.39c0.567,0,0.85-0.189,0.85-0.567
				c0-0.107-0.024-0.198-0.073-0.273c-0.049-0.074-0.114-0.141-0.197-0.198s-0.18-0.109-0.292-0.156
				c-0.111-0.045-0.231-0.094-0.36-0.144c-0.179-0.07-0.335-0.142-0.47-0.214c-0.135-0.072-0.248-0.153-0.338-0.244
				c-0.091-0.091-0.159-0.193-0.205-0.309c-0.046-0.116-0.069-0.251-0.069-0.406c0-0.188,0.043-0.355,0.13-0.501
				c0.087-0.146,0.202-0.268,0.347-0.366c0.144-0.099,0.309-0.173,0.494-0.223s0.376-0.074,0.573-0.074
				c0.349,0,0.661,0.06,0.937,0.181v0.653c-0.296-0.194-0.638-0.291-1.023-0.291c-0.121,0-0.23,0.014-0.327,0.041
				c-0.097,0.027-0.181,0.066-0.25,0.116c-0.07,0.05-0.124,0.109-0.162,0.179s-0.057,0.146-0.057,0.23
				c0,0.105,0.019,0.192,0.057,0.264s0.094,0.134,0.167,0.188c0.073,0.056,0.163,0.105,0.268,0.15
				c0.105,0.044,0.224,0.093,0.358,0.146c0.179,0.068,0.339,0.138,0.48,0.21s0.262,0.153,0.362,0.244s0.177,0.195,0.23,0.313
				c0.054,0.117,0.081,0.258,0.081,0.421c0,0.199-0.044,0.372-0.132,0.52c-0.088,0.146-0.206,0.269-0.352,0.366
				c-0.147,0.097-0.316,0.169-0.508,0.216c-0.191,0.048-0.392,0.071-0.602,0.071C34.774,157.975,34.415,157.895,34.11,157.734z"/>
		</g>
		<g>
			<path class="st2" d="M38.104,152.826c-0.116,0-0.214-0.039-0.295-0.117c-0.082-0.079-0.122-0.179-0.122-0.3
				c0-0.12,0.041-0.221,0.122-0.301c0.081-0.08,0.179-0.12,0.295-0.12c0.118,0,0.218,0.04,0.301,0.12
				c0.083,0.08,0.124,0.181,0.124,0.301c0,0.116-0.041,0.214-0.124,0.296C38.323,152.786,38.223,152.826,38.104,152.826z
				 M38.419,157.88h-0.646v-4.03h0.646V157.88z"/>
		</g>
		<g>
			<path class="st2" d="M40.387,157.298h-0.016v0.582h-0.646v-5.966h0.646v2.645h0.016c0.317-0.535,0.782-0.803,1.393-0.803
				c0.517,0,0.922,0.18,1.214,0.541c0.292,0.36,0.438,0.844,0.438,1.45c0,0.674-0.164,1.214-0.492,1.619s-0.777,0.608-1.346,0.608
				C41.063,157.975,40.66,157.749,40.387,157.298z M40.372,155.672v0.562c0,0.334,0.108,0.616,0.325,0.849
				c0.216,0.232,0.491,0.349,0.824,0.349c0.391,0,0.697-0.15,0.919-0.449s0.333-0.715,0.333-1.247c0-0.449-0.104-0.801-0.311-1.055
				c-0.208-0.255-0.488-0.382-0.842-0.382c-0.375,0-0.677,0.13-0.905,0.392C40.486,154.951,40.372,155.278,40.372,155.672z"/>
		</g>
		<g>
			<path class="st2" d="M45.11,157.88h-0.646v-5.966h0.646V157.88z"/>
		</g>
		<g>
			<path class="st2" d="M46.747,152.826c-0.116,0-0.214-0.039-0.295-0.117c-0.082-0.079-0.122-0.179-0.122-0.3
				c0-0.12,0.041-0.221,0.122-0.301c0.081-0.08,0.179-0.12,0.295-0.12c0.118,0,0.218,0.04,0.301,0.12
				c0.083,0.08,0.124,0.181,0.124,0.301c0,0.116-0.041,0.214-0.124,0.296C46.965,152.786,46.865,152.826,46.747,152.826z
				 M47.062,157.88h-0.646v-4.03h0.646V157.88z"/>
		</g>
		<g>
			<path class="st2" d="M51.714,157.88h-0.646v-2.299c0-0.854-0.312-1.282-0.937-1.282c-0.323,0-0.59,0.121-0.801,0.363
				c-0.211,0.243-0.317,0.55-0.317,0.919v2.299h-0.646v-4.03h0.646v0.669h0.016c0.304-0.509,0.745-0.763,1.322-0.763
				c0.441,0,0.778,0.142,1.012,0.427c0.233,0.284,0.35,0.695,0.35,1.233V157.88z"/>
		</g>
		<g>
			<path class="st2" d="M56.369,157.558c0,1.479-0.708,2.219-2.125,2.219c-0.499,0-0.934-0.094-1.307-0.283v-0.646
				c0.454,0.252,0.887,0.378,1.299,0.378c0.992,0,1.488-0.527,1.488-1.582v-0.44h-0.016c-0.307,0.514-0.769,0.771-1.385,0.771
				c-0.501,0-0.904-0.18-1.21-0.537c-0.306-0.358-0.458-0.839-0.458-1.442c0-0.686,0.165-1.229,0.494-1.634
				c0.33-0.404,0.78-0.605,1.352-0.605c0.543,0,0.946,0.218,1.208,0.653h0.016v-0.56h0.645V157.558z M55.724,156.058v-0.594
				c0-0.32-0.108-0.595-0.325-0.823c-0.217-0.228-0.486-0.342-0.809-0.342c-0.399,0-0.711,0.145-0.937,0.435
				s-0.338,0.696-0.338,1.218c0,0.449,0.108,0.808,0.325,1.077c0.216,0.269,0.503,0.403,0.86,0.403c0.362,0,0.657-0.129,0.883-0.386
				C55.61,156.788,55.724,156.459,55.724,156.058z"/>
		</g>
	</g>
	<g>
		<polygon class="st6" points="1.19,186.06 1.19,193.45 15.28,193.45 15.28,186.06 1.19,186.06 		"/>
	</g>
	<g>
		<path class="st6" d="M15.11,193.28H1.37v-7.04H15.11V193.28z M1.69,192.96h13.1v-6.399H1.69V192.96z"/>
	</g>
	<g class="st1">
		<g>
			<path class="st2" d="M19.995,193.215c-0.8,0-1.441-0.264-1.922-0.791s-0.722-1.214-0.722-2.059c0-0.908,0.245-1.632,0.736-2.173
				c0.491-0.54,1.158-0.811,2.003-0.811c0.779,0,1.407,0.263,1.883,0.787c0.476,0.525,0.714,1.211,0.714,2.059
				c0,0.921-0.244,1.649-0.732,2.185C21.466,192.947,20.813,193.215,19.995,193.215z M20.042,187.98
				c-0.593,0-1.075,0.214-1.444,0.642c-0.37,0.428-0.555,0.989-0.555,1.685s0.181,1.254,0.541,1.678
				c0.361,0.424,0.831,0.636,1.411,0.636c0.619,0,1.107-0.202,1.464-0.605c0.357-0.404,0.535-0.97,0.535-1.696
				c0-0.745-0.173-1.321-0.519-1.729C21.128,188.184,20.65,187.98,20.042,187.98z"/>
		</g>
		<g>
			<path class="st2" d="M27.055,193.12H26.41v-2.299c0-0.854-0.312-1.282-0.937-1.282c-0.323,0-0.59,0.121-0.801,0.363
				c-0.211,0.243-0.317,0.55-0.317,0.919v2.299H23.71v-4.03h0.646v0.669h0.016c0.304-0.509,0.745-0.763,1.322-0.763
				c0.441,0,0.778,0.142,1.012,0.427c0.233,0.284,0.35,0.695,0.35,1.233V193.12z"/>
		</g>
		<g>
			<path class="st2" d="M31.51,191.267h-2.845c0.01,0.448,0.131,0.795,0.362,1.039c0.231,0.244,0.548,0.366,0.953,0.366
				c0.454,0,0.871-0.15,1.251-0.449v0.606c-0.354,0.257-0.822,0.386-1.405,0.386c-0.569,0-1.017-0.184-1.342-0.549
				c-0.325-0.366-0.488-0.881-0.488-1.545c0-0.627,0.178-1.139,0.533-1.533s0.797-0.592,1.324-0.592s0.936,0.17,1.224,0.511
				c0.289,0.342,0.433,0.815,0.433,1.421V191.267z M30.849,190.72c-0.002-0.373-0.092-0.663-0.27-0.87s-0.423-0.311-0.738-0.311
				c-0.304,0-0.563,0.108-0.775,0.326s-0.344,0.503-0.394,0.854H30.849z"/>
		</g>
		<g>
			<path class="st2" d="M37.441,192.936c-0.31,0.186-0.677,0.279-1.102,0.279c-0.575,0-1.039-0.188-1.391-0.562
				c-0.353-0.373-0.529-0.858-0.529-1.454c0-0.663,0.19-1.196,0.57-1.6c0.381-0.402,0.888-0.604,1.523-0.604
				c0.354,0,0.666,0.065,0.937,0.196v0.661c-0.299-0.21-0.619-0.314-0.96-0.314c-0.412,0-0.75,0.147-1.013,0.442
				s-0.396,0.683-0.396,1.163c0,0.473,0.124,0.845,0.372,1.117c0.248,0.273,0.58,0.41,0.998,0.41c0.352,0,0.682-0.117,0.992-0.351
				V192.936z"/>
		</g>
		<g>
			<path class="st2" d="M41.762,193.12h-0.646v-2.322c0-0.839-0.312-1.259-0.937-1.259c-0.315,0-0.58,0.121-0.795,0.363
				c-0.215,0.243-0.323,0.555-0.323,0.936v2.282h-0.646v-5.966h0.646v2.604h0.016c0.31-0.509,0.75-0.763,1.322-0.763
				c0.908,0,1.362,0.547,1.362,1.641V193.12z"/>
		</g>
		<g>
			<path class="st2" d="M43.309,188.066c-0.116,0-0.214-0.039-0.295-0.117c-0.082-0.079-0.122-0.179-0.122-0.3
				c0-0.12,0.041-0.221,0.122-0.301c0.081-0.08,0.179-0.12,0.295-0.12c0.118,0,0.218,0.04,0.301,0.12
				c0.083,0.08,0.124,0.181,0.124,0.301c0,0.116-0.041,0.214-0.124,0.296C43.527,188.026,43.427,188.066,43.309,188.066z
				 M43.624,193.12h-0.646v-4.03h0.646V193.12z"/>
		</g>
		<g>
			<path class="st2" d="M45.576,193.12H44.93v-5.966h0.646V193.12z"/>
		</g>
		<g>
			<path class="st2" d="M50.322,193.12h-0.645v-0.685h-0.016c-0.299,0.52-0.761,0.779-1.385,0.779c-0.506,0-0.911-0.181-1.214-0.541
				c-0.303-0.361-0.455-0.853-0.455-1.475c0-0.666,0.168-1.2,0.503-1.602c0.336-0.401,0.783-0.602,1.342-0.602
				c0.554,0,0.956,0.218,1.208,0.653h0.016v-2.495h0.645V193.12z M49.677,191.298v-0.594c0-0.326-0.108-0.602-0.323-0.827
				c-0.215-0.226-0.488-0.338-0.819-0.338c-0.394,0-0.703,0.144-0.929,0.433s-0.338,0.688-0.338,1.196
				c0,0.465,0.108,0.831,0.325,1.101c0.216,0.269,0.507,0.403,0.872,0.403c0.359,0,0.651-0.13,0.875-0.39
				C49.564,192.022,49.677,191.694,49.677,191.298z"/>
		</g>
	</g>
	<g>
		<polygon class="st7" points="0,217.84 0,225.23 14.09,225.23 14.09,217.84 0,217.84 		"/>
	</g>
	<g>
		<path class="st7" d="M13.92,225.061H0.18v-7.041h13.74V225.061z M0.5,224.74h13.1v-6.4H0.5V224.74z"/>
	</g>
	<g class="st1">
		<g>
			<path class="st2" d="M18.805,224.995c-0.8,0-1.441-0.264-1.922-0.791s-0.722-1.214-0.722-2.059c0-0.908,0.245-1.632,0.736-2.173
				c0.491-0.54,1.158-0.811,2.003-0.811c0.779,0,1.407,0.263,1.883,0.787c0.476,0.525,0.714,1.211,0.714,2.059
				c0,0.921-0.244,1.649-0.732,2.185C20.276,224.728,19.623,224.995,18.805,224.995z M18.852,219.761
				c-0.593,0-1.075,0.214-1.444,0.642c-0.37,0.428-0.555,0.989-0.555,1.685s0.181,1.254,0.541,1.678
				c0.361,0.424,0.831,0.636,1.411,0.636c0.619,0,1.107-0.202,1.464-0.605c0.357-0.404,0.535-0.97,0.535-1.696
				c0-0.745-0.173-1.321-0.519-1.729C19.938,219.964,19.46,219.761,18.852,219.761z"/>
		</g>
		<g>
			<path class="st2" d="M25.865,224.9H25.22v-2.299c0-0.854-0.312-1.282-0.937-1.282c-0.323,0-0.59,0.121-0.801,0.363
				c-0.211,0.243-0.317,0.55-0.317,0.919v2.299H22.52v-4.03h0.646v0.669h0.016c0.304-0.509,0.745-0.763,1.322-0.763
				c0.441,0,0.778,0.142,1.012,0.427c0.233,0.284,0.35,0.695,0.35,1.233V224.9z"/>
		</g>
		<g>
			<path class="st2" d="M30.32,223.047h-2.845c0.01,0.448,0.131,0.795,0.362,1.039c0.231,0.244,0.548,0.366,0.953,0.366
				c0.454,0,0.871-0.15,1.251-0.449v0.606c-0.354,0.257-0.822,0.386-1.405,0.386c-0.569,0-1.017-0.184-1.342-0.549
				c-0.325-0.366-0.488-0.881-0.488-1.545c0-0.627,0.178-1.139,0.533-1.533s0.797-0.592,1.324-0.592s0.936,0.17,1.224,0.511
				c0.289,0.342,0.433,0.815,0.433,1.421V223.047z M29.659,222.5c-0.002-0.373-0.092-0.663-0.27-0.87s-0.423-0.311-0.738-0.311
				c-0.304,0-0.563,0.108-0.775,0.326s-0.344,0.503-0.394,0.854H29.659z"/>
		</g>
	</g>
	<g class="st1">
		<g>
			<path class="st2" d="M34.165,224.318h-0.016v2.436h-0.646v-5.884h0.646v0.709h0.016c0.317-0.535,0.782-0.803,1.393-0.803
				c0.52,0,0.925,0.18,1.216,0.541c0.291,0.36,0.437,0.844,0.437,1.45c0,0.674-0.164,1.214-0.492,1.619s-0.777,0.608-1.346,0.608
				C34.851,224.995,34.448,224.77,34.165,224.318z M34.149,222.692v0.562c0,0.334,0.108,0.616,0.325,0.849
				c0.216,0.232,0.491,0.349,0.824,0.349c0.391,0,0.697-0.15,0.919-0.449s0.333-0.715,0.333-1.247c0-0.449-0.104-0.801-0.311-1.055
				c-0.208-0.255-0.488-0.382-0.842-0.382c-0.375,0-0.677,0.13-0.905,0.392C34.263,221.972,34.149,222.299,34.149,222.692z"/>
		</g>
	</g>
	<g class="st1">
		<g>
			<path class="st2" d="M41.018,224.9h-0.646v-0.63h-0.016c-0.281,0.483-0.694,0.725-1.24,0.725c-0.401,0-0.716-0.106-0.942-0.319
				c-0.227-0.212-0.341-0.494-0.341-0.846c0-0.753,0.443-1.191,1.331-1.314l1.208-0.169c0-0.686-0.277-1.027-0.831-1.027
				c-0.485,0-0.923,0.165-1.314,0.495v-0.661c0.396-0.251,0.853-0.377,1.37-0.377c0.947,0,1.421,0.501,1.421,1.503V224.9z
				 M40.373,222.861l-0.972,0.134c-0.299,0.042-0.524,0.116-0.677,0.223s-0.229,0.295-0.229,0.564c0,0.197,0.07,0.358,0.211,0.482
				c0.14,0.125,0.327,0.188,0.561,0.188c0.32,0,0.584-0.112,0.793-0.337c0.209-0.225,0.313-0.508,0.313-0.852V222.861z"/>
		</g>
	</g>
	<g class="st1">
		<g>
			<path class="st2" d="M44.335,221.523c-0.113-0.086-0.275-0.13-0.488-0.13c-0.276,0-0.506,0.13-0.691,0.39
				s-0.277,0.614-0.277,1.062v2.055h-0.646v-4.03h0.646v0.831h0.016c0.092-0.284,0.232-0.505,0.421-0.663
				c0.189-0.159,0.4-0.238,0.634-0.238c0.168,0,0.296,0.019,0.386,0.055V221.523z"/>
		</g>
	</g>
	<g class="st1">
		<g>
			<path class="st2" d="M48.172,223.047h-2.845c0.01,0.448,0.131,0.795,0.362,1.039c0.231,0.244,0.548,0.366,0.953,0.366
				c0.454,0,0.871-0.15,1.251-0.449v0.606c-0.354,0.257-0.822,0.386-1.405,0.386c-0.569,0-1.017-0.184-1.342-0.549
				c-0.325-0.366-0.488-0.881-0.488-1.545c0-0.627,0.178-1.139,0.533-1.533s0.797-0.592,1.324-0.592s0.936,0.17,1.224,0.511
				c0.289,0.342,0.433,0.815,0.433,1.421V223.047z M47.511,222.5c-0.002-0.373-0.092-0.663-0.27-0.87s-0.423-0.311-0.738-0.311
				c-0.304,0-0.563,0.108-0.775,0.326s-0.344,0.503-0.394,0.854H47.511z"/>
		</g>
		<g>
			<path class="st2" d="M52.493,224.9h-0.646v-2.299c0-0.854-0.312-1.282-0.937-1.282c-0.323,0-0.59,0.121-0.801,0.363
				c-0.211,0.243-0.317,0.55-0.317,0.919v2.299h-0.646v-4.03h0.646v0.669h0.016c0.304-0.509,0.745-0.763,1.322-0.763
				c0.441,0,0.778,0.142,1.012,0.427c0.233,0.284,0.35,0.695,0.35,1.233V224.9z"/>
		</g>
		<g>
			<path class="st2" d="M55.579,224.861c-0.152,0.084-0.353,0.126-0.602,0.126c-0.706,0-1.059-0.394-1.059-1.181v-2.386h-0.692
				v-0.551h0.692v-0.983l0.646-0.209v1.192h1.015v0.551h-1.015v2.271c0,0.271,0.046,0.463,0.138,0.578s0.244,0.174,0.457,0.174
				c0.163,0,0.303-0.045,0.421-0.135V224.861z"/>
		</g>
	</g>
	<g>
		<polygon class="st8" points="0.85,250.45 0.85,257.83 14.94,257.83 14.94,250.45 0.85,250.45 		"/>
	</g>
	<g>
		<path class="st8" d="M14.77,257.66H1.03v-7.04h13.74V257.66z M1.35,257.34h13.1v-6.399H1.35V257.34z"/>
	</g>
	<g class="st1">
		<g>
			<path class="st2" d="M21.623,257.5h-0.661v-2.574h-2.92v2.574H17.38v-5.644h0.661v2.476h2.92v-2.476h0.661V257.5z"/>
		</g>
		<g>
			<path class="st2" d="M25.9,257.5h-0.646v-0.63h-0.016c-0.281,0.483-0.694,0.725-1.24,0.725c-0.401,0-0.716-0.106-0.942-0.319
				c-0.227-0.212-0.341-0.494-0.341-0.846c0-0.753,0.443-1.191,1.331-1.314l1.208-0.169c0-0.686-0.277-1.027-0.831-1.027
				c-0.485,0-0.923,0.165-1.314,0.495v-0.661c0.396-0.251,0.853-0.377,1.37-0.377c0.947,0,1.421,0.501,1.421,1.503V257.5z
				 M25.255,255.461l-0.972,0.134c-0.299,0.042-0.524,0.116-0.677,0.223s-0.229,0.295-0.229,0.564c0,0.197,0.07,0.358,0.211,0.482
				c0.14,0.125,0.327,0.188,0.561,0.188c0.32,0,0.584-0.112,0.793-0.337c0.209-0.225,0.313-0.508,0.313-0.852V255.461z"/>
		</g>
		<g>
			<path class="st2" d="M27.762,257.5h-0.646v-5.966h0.646V257.5z"/>
		</g>
	</g>
	<g class="st1">
		<g>
			<path class="st2" d="M31.055,252.101c-0.126-0.071-0.269-0.106-0.429-0.106c-0.451,0-0.677,0.285-0.677,0.854v0.621h0.945v0.551
				h-0.945v3.479h-0.641v-3.479h-0.689v-0.551h0.689v-0.653c0-0.422,0.122-0.756,0.366-1.001c0.244-0.246,0.548-0.368,0.913-0.368
				c0.197,0,0.353,0.023,0.468,0.07V252.101z"/>
		</g>
	</g>
	<g class="st1">
		<g>
			<path class="st2" d="M33.255,255.509h-2.148v-0.508h2.148V255.509z"/>
		</g>
		<g>
			<path class="st2" d="M34.172,257.354v-0.692c0.352,0.26,0.739,0.39,1.161,0.39c0.567,0,0.85-0.189,0.85-0.567
				c0-0.107-0.024-0.198-0.073-0.273c-0.049-0.074-0.114-0.141-0.197-0.198s-0.18-0.109-0.292-0.156
				c-0.111-0.045-0.231-0.094-0.36-0.144c-0.179-0.07-0.335-0.142-0.47-0.214c-0.135-0.072-0.248-0.153-0.338-0.244
				c-0.091-0.091-0.159-0.193-0.205-0.309c-0.046-0.116-0.069-0.251-0.069-0.406c0-0.188,0.043-0.355,0.13-0.501
				c0.087-0.146,0.202-0.268,0.347-0.366c0.144-0.099,0.309-0.173,0.494-0.223s0.376-0.074,0.573-0.074
				c0.349,0,0.661,0.06,0.937,0.181v0.653c-0.296-0.194-0.638-0.291-1.023-0.291c-0.121,0-0.23,0.014-0.327,0.041
				c-0.097,0.027-0.181,0.066-0.25,0.116c-0.07,0.05-0.124,0.109-0.162,0.179s-0.057,0.146-0.057,0.23
				c0,0.105,0.019,0.192,0.057,0.264s0.094,0.134,0.167,0.188c0.073,0.056,0.163,0.105,0.268,0.15
				c0.105,0.044,0.224,0.093,0.358,0.146c0.179,0.068,0.339,0.138,0.48,0.21s0.262,0.153,0.362,0.244s0.177,0.195,0.23,0.313
				c0.054,0.117,0.081,0.258,0.081,0.421c0,0.199-0.044,0.372-0.132,0.52c-0.088,0.146-0.206,0.269-0.352,0.366
				c-0.147,0.097-0.316,0.169-0.508,0.216c-0.191,0.048-0.392,0.071-0.602,0.071C34.836,257.595,34.477,257.515,34.172,257.354z"/>
		</g>
		<g>
			<path class="st2" d="M38.167,252.446c-0.116,0-0.214-0.039-0.295-0.117c-0.082-0.079-0.122-0.179-0.122-0.3
				c0-0.12,0.041-0.221,0.122-0.301c0.081-0.08,0.179-0.12,0.295-0.12c0.118,0,0.218,0.04,0.301,0.12
				c0.083,0.08,0.124,0.181,0.124,0.301c0,0.116-0.041,0.214-0.124,0.296C38.385,252.406,38.285,252.446,38.167,252.446z
				 M38.482,257.5h-0.646v-4.03h0.646V257.5z"/>
		</g>
		<g>
			<path class="st2" d="M40.45,256.918h-0.016v0.582h-0.646v-5.966h0.646v2.645h0.016c0.317-0.535,0.782-0.803,1.393-0.803
				c0.517,0,0.922,0.18,1.214,0.541c0.292,0.36,0.438,0.844,0.438,1.45c0,0.674-0.164,1.214-0.492,1.619s-0.777,0.608-1.346,0.608
				C41.125,257.595,40.723,257.369,40.45,256.918z M40.434,255.292v0.562c0,0.334,0.108,0.616,0.325,0.849
				c0.216,0.232,0.491,0.349,0.824,0.349c0.391,0,0.697-0.15,0.919-0.449s0.333-0.715,0.333-1.247c0-0.449-0.104-0.801-0.311-1.055
				c-0.208-0.255-0.488-0.382-0.842-0.382c-0.375,0-0.677,0.13-0.905,0.392C40.548,254.571,40.434,254.898,40.434,255.292z"/>
		</g>
		<g>
			<path class="st2" d="M45.172,257.5h-0.646v-5.966h0.646V257.5z"/>
		</g>
		<g>
			<path class="st2" d="M46.81,252.446c-0.116,0-0.214-0.039-0.295-0.117c-0.082-0.079-0.122-0.179-0.122-0.3
				c0-0.12,0.041-0.221,0.122-0.301c0.081-0.08,0.179-0.12,0.295-0.12c0.118,0,0.218,0.04,0.301,0.12
				c0.083,0.08,0.124,0.181,0.124,0.301c0,0.116-0.041,0.214-0.124,0.296C47.028,252.406,46.928,252.446,46.81,252.446z
				 M47.125,257.5h-0.646v-4.03h0.646V257.5z"/>
		</g>
		<g>
			<path class="st2" d="M51.776,257.5h-0.646v-2.299c0-0.854-0.312-1.282-0.937-1.282c-0.323,0-0.59,0.121-0.801,0.363
				c-0.211,0.243-0.317,0.55-0.317,0.919v2.299h-0.646v-4.03h0.646v0.669h0.016c0.304-0.509,0.745-0.763,1.322-0.763
				c0.441,0,0.778,0.142,1.012,0.427c0.233,0.284,0.35,0.695,0.35,1.233V257.5z"/>
		</g>
		<g>
			<path class="st2" d="M56.432,257.178c0,1.479-0.708,2.219-2.125,2.219c-0.499,0-0.934-0.094-1.307-0.283v-0.646
				c0.454,0.252,0.887,0.378,1.299,0.378c0.992,0,1.488-0.527,1.488-1.582v-0.44h-0.016c-0.307,0.514-0.769,0.771-1.385,0.771
				c-0.501,0-0.904-0.18-1.21-0.537c-0.306-0.358-0.458-0.839-0.458-1.442c0-0.686,0.165-1.229,0.494-1.634
				c0.33-0.404,0.78-0.605,1.352-0.605c0.543,0,0.946,0.218,1.208,0.653h0.016v-0.56h0.645V257.178z M55.787,255.678v-0.594
				c0-0.32-0.108-0.595-0.325-0.823c-0.217-0.228-0.486-0.342-0.809-0.342c-0.399,0-0.711,0.145-0.937,0.435
				s-0.338,0.696-0.338,1.218c0,0.449,0.108,0.808,0.325,1.077c0.216,0.269,0.503,0.403,0.86,0.403c0.362,0,0.657-0.129,0.883-0.386
				C55.673,256.408,55.787,256.079,55.787,255.678z"/>
		</g>
	</g>
	<g>
		<g>
			<path d="M92.364,10.314V8.741c0.564,0.479,1.185,0.718,1.864,0.718c0.325,0,0.577-0.066,0.757-0.199
				c0.18-0.133,0.271-0.306,0.271-0.519c0-0.184-0.076-0.356-0.227-0.519c-0.151-0.162-0.511-0.377-1.082-0.646
				c-1.075-0.508-1.613-1.196-1.613-2.065c0-0.633,0.233-1.14,0.701-1.522s1.091-0.573,1.871-0.573c0.688,0,1.259,0.09,1.711,0.271
				v1.47c-0.472-0.328-1.013-0.492-1.623-0.492c-0.305,0-0.546,0.065-0.723,0.197c-0.177,0.131-0.266,0.303-0.266,0.516
				c0,0.21,0.069,0.388,0.209,0.536c0.139,0.147,0.434,0.328,0.882,0.541c0.695,0.331,1.174,0.661,1.436,0.988
				c0.262,0.328,0.393,0.715,0.393,1.161c0,0.649-0.233,1.162-0.701,1.539c-0.467,0.377-1.146,0.565-2.038,0.565
				C93.458,10.708,92.85,10.577,92.364,10.314z"/>
		</g>
		<g>
			<path d="M101.712,10.403c-0.351,0.204-0.857,0.305-1.52,0.305c-0.773,0-1.4-0.234-1.878-0.703s-0.718-1.074-0.718-1.814
				c0-0.855,0.256-1.53,0.77-2.023c0.513-0.493,1.199-0.74,2.058-0.74c0.593,0,1.023,0.079,1.289,0.236v1.318
				c-0.325-0.243-0.687-0.364-1.087-0.364c-0.446,0-0.799,0.13-1.06,0.391s-0.391,0.621-0.391,1.079c0,0.446,0.125,0.796,0.374,1.05
				c0.249,0.254,0.592,0.381,1.027,0.381c0.387,0,0.766-0.121,1.136-0.364V10.403z"/>
		</g>
		<g>
			<path d="M105.129,10.708c-0.839,0-1.499-0.235-1.979-0.706c-0.48-0.471-0.72-1.109-0.72-1.916c0-0.833,0.249-1.484,0.748-1.954
				c0.498-0.471,1.172-0.706,2.021-0.706c0.836,0,1.492,0.235,1.967,0.706c0.476,0.47,0.713,1.092,0.713,1.866
				c0,0.836-0.245,1.497-0.735,1.981C106.652,10.465,105.981,10.708,105.129,10.708z M105.168,6.617
				c-0.367,0-0.652,0.126-0.855,0.378s-0.305,0.61-0.305,1.072c0,0.967,0.39,1.451,1.17,1.451c0.744,0,1.116-0.497,1.116-1.49
				C106.294,7.087,105.919,6.617,105.168,6.617z"/>
		</g>
		<g>
			<path d="M112.17,6.951c-0.187-0.102-0.405-0.152-0.654-0.152c-0.338,0-0.602,0.124-0.792,0.371
				c-0.19,0.248-0.285,0.584-0.285,1.011v2.404h-1.554V5.55h1.554v0.935h0.02c0.246-0.682,0.688-1.023,1.328-1.023
				c0.164,0,0.292,0.02,0.383,0.059V6.951z"/>
		</g>
		<g>
			<path d="M117.377,8.51h-3.285c0.052,0.731,0.513,1.097,1.382,1.097c0.554,0,1.041-0.131,1.46-0.394v1.121
				c-0.465,0.25-1.07,0.374-1.814,0.374c-0.813,0-1.444-0.226-1.893-0.676c-0.449-0.451-0.674-1.079-0.674-1.886
				c0-0.836,0.243-1.498,0.728-1.986c0.485-0.488,1.082-0.732,1.79-0.732c0.734,0,1.302,0.218,1.704,0.654s0.603,1.028,0.603,1.775
				V8.51z M115.937,7.556c0-0.721-0.292-1.082-0.875-1.082c-0.25,0-0.465,0.104-0.646,0.31c-0.182,0.207-0.293,0.464-0.332,0.772
				H115.937z"/>
		</g>
		<g>
			<path d="M126.007,10.585h-1.554V9.892h-0.02c-0.354,0.544-0.874,0.816-1.559,0.816c-0.629,0-1.136-0.222-1.52-0.667
				c-0.383-0.444-0.575-1.064-0.575-1.861c0-0.833,0.211-1.5,0.634-2.001s0.977-0.752,1.662-0.752c0.649,0,1.101,0.232,1.357,0.698
				h0.02V3.131h1.554V10.585z M124.483,8.136V7.758c0-0.328-0.095-0.6-0.285-0.816c-0.19-0.216-0.438-0.324-0.743-0.324
				c-0.344,0-0.613,0.135-0.806,0.405c-0.194,0.271-0.29,0.642-0.29,1.114c0,0.442,0.093,0.784,0.28,1.023
				c0.187,0.239,0.445,0.359,0.777,0.359c0.314,0,0.571-0.126,0.77-0.379C124.384,8.887,124.483,8.553,124.483,8.136z"/>
		</g>
		<g>
			<path d="M128.102,4.753c-0.263,0-0.477-0.078-0.645-0.233c-0.167-0.156-0.25-0.347-0.25-0.573c0-0.233,0.083-0.423,0.25-0.571
				c0.167-0.147,0.382-0.221,0.645-0.221c0.265,0,0.481,0.074,0.646,0.221s0.248,0.338,0.248,0.571c0,0.236-0.083,0.429-0.248,0.58
				S128.367,4.753,128.102,4.753z M128.869,10.585h-1.554V5.55h1.554V10.585z"/>
		</g>
		<g>
			<path d="M129.985,10.452V9.193c0.511,0.305,0.991,0.458,1.44,0.458c0.492,0,0.738-0.152,0.738-0.458
				c0-0.134-0.059-0.244-0.177-0.329c-0.118-0.085-0.375-0.204-0.772-0.354c-0.459-0.173-0.778-0.376-0.959-0.607
				c-0.18-0.231-0.27-0.522-0.27-0.873c0-0.485,0.191-0.874,0.575-1.165c0.383-0.292,0.896-0.438,1.539-0.438
				c0.416,0,0.833,0.067,1.249,0.201v1.2c-0.39-0.229-0.8-0.344-1.229-0.344c-0.41,0-0.615,0.141-0.615,0.423
				c0,0.141,0.049,0.255,0.147,0.344c0.099,0.088,0.312,0.19,0.639,0.305c0.502,0.177,0.854,0.383,1.057,0.617
				c0.204,0.234,0.305,0.525,0.305,0.873c0,0.508-0.194,0.912-0.583,1.212c-0.389,0.3-0.93,0.45-1.625,0.45
				C130.924,10.708,130.438,10.623,129.985,10.452z"/>
		</g>
		<g>
			<path d="M137.651,10.526c-0.229,0.121-0.576,0.182-1.038,0.182c-1.095,0-1.643-0.569-1.643-1.707V6.696h-0.816V5.55h0.816V4.463
				l1.549-0.442V5.55h1.131v1.146h-1.131v2.036c0,0.524,0.208,0.787,0.624,0.787c0.164,0,0.333-0.047,0.507-0.143V10.526z"/>
		</g>
		<g>
			<path d="M141.811,6.951c-0.187-0.102-0.405-0.152-0.654-0.152c-0.338,0-0.602,0.124-0.792,0.371
				c-0.19,0.248-0.285,0.584-0.285,1.011v2.404h-1.554V5.55h1.554v0.935h0.02c0.246-0.682,0.688-1.023,1.328-1.023
				c0.164,0,0.292,0.02,0.383,0.059V6.951z"/>
		</g>
		<g>
			<path d="M143.36,4.753c-0.263,0-0.477-0.078-0.645-0.233c-0.167-0.156-0.25-0.347-0.25-0.573c0-0.233,0.083-0.423,0.25-0.571
				c0.167-0.147,0.382-0.221,0.645-0.221c0.265,0,0.481,0.074,0.646,0.221s0.248,0.338,0.248,0.571c0,0.236-0.083,0.429-0.248,0.58
				S143.625,4.753,143.36,4.753z M144.126,10.585h-1.554V5.55h1.554V10.585z"/>
		</g>
		<g>
			<path d="M147.008,10h-0.02v0.585h-1.554V3.131h1.554v3.176h0.02c0.383-0.587,0.929-0.88,1.637-0.88
				c0.649,0,1.149,0.223,1.499,0.668c0.352,0.446,0.527,1.056,0.527,1.829c0,0.839-0.205,1.513-0.615,2.021
				s-0.957,0.762-1.642,0.762C147.795,10.708,147.326,10.472,147.008,10z M146.964,7.875v0.517c0,0.324,0.093,0.593,0.28,0.806
				c0.187,0.213,0.426,0.32,0.718,0.32c0.354,0,0.629-0.137,0.824-0.411c0.195-0.273,0.292-0.661,0.292-1.163
				c0-0.416-0.089-0.741-0.268-0.976s-0.434-0.352-0.765-0.352c-0.311,0-0.569,0.116-0.774,0.349
				C147.066,7.199,146.964,7.502,146.964,7.875z"/>
		</g>
		<g>
			<path d="M156.464,10.585h-1.549V9.818h-0.024c-0.384,0.593-0.897,0.89-1.539,0.89c-1.167,0-1.751-0.707-1.751-2.119V5.55h1.549
				v2.901c0,0.711,0.282,1.067,0.846,1.067c0.278,0,0.502-0.098,0.669-0.292c0.167-0.195,0.251-0.46,0.251-0.794V5.55h1.549V10.585z
				"/>
		</g>
		<g>
			<path d="M160.814,10.526c-0.229,0.121-0.575,0.182-1.037,0.182c-1.095,0-1.643-0.569-1.643-1.707V6.696h-0.816V5.55h0.816V4.463
				l1.549-0.442V5.55h1.131v1.146h-1.131v2.036c0,0.524,0.208,0.787,0.625,0.787c0.164,0,0.332-0.047,0.506-0.143V10.526z"/>
		</g>
		<g>
			<path d="M162.477,4.753c-0.262,0-0.477-0.078-0.644-0.233c-0.168-0.156-0.251-0.347-0.251-0.573c0-0.233,0.083-0.423,0.251-0.571
				c0.167-0.147,0.382-0.221,0.644-0.221c0.266,0,0.481,0.074,0.646,0.221c0.166,0.147,0.249,0.338,0.249,0.571
				c0,0.236-0.083,0.429-0.249,0.58C162.958,4.678,162.742,4.753,162.477,4.753z M163.244,10.585h-1.554V5.55h1.554V10.585z"/>
		</g>
		<g>
			<path d="M166.951,10.708c-0.84,0-1.499-0.235-1.979-0.706c-0.48-0.471-0.72-1.109-0.72-1.916c0-0.833,0.249-1.484,0.747-1.954
				c0.498-0.471,1.172-0.706,2.021-0.706c0.836,0,1.491,0.235,1.967,0.706c0.476,0.47,0.713,1.092,0.713,1.866
				c0,0.836-0.245,1.497-0.734,1.981C168.475,10.465,167.803,10.708,166.951,10.708z M166.99,6.617
				c-0.367,0-0.652,0.126-0.855,0.378s-0.305,0.61-0.305,1.072c0,0.967,0.39,1.451,1.17,1.451c0.744,0,1.116-0.497,1.116-1.49
				C168.116,7.087,167.741,6.617,166.99,6.617z"/>
		</g>
		<g>
			<path d="M175.57,10.585h-1.549V7.787c0-0.78-0.278-1.17-0.836-1.17c-0.269,0-0.49,0.103-0.663,0.31
				c-0.174,0.207-0.261,0.469-0.261,0.787v2.872h-1.554V5.55h1.554v0.797h0.02c0.37-0.613,0.909-0.919,1.617-0.919
				c1.115,0,1.672,0.691,1.672,2.075V10.585z"/>
		</g>
		<g>
			<path d="M181.151,10h-0.02v0.585h-1.554V3.131h1.554v3.176h0.02c0.384-0.587,0.929-0.88,1.638-0.88
				c0.648,0,1.148,0.223,1.499,0.668s0.526,1.056,0.526,1.829c0,0.839-0.205,1.513-0.614,2.021c-0.41,0.508-0.958,0.762-1.643,0.762
				C181.938,10.708,181.469,10.472,181.151,10z M181.107,7.875v0.517c0,0.324,0.093,0.593,0.28,0.806
				c0.187,0.213,0.426,0.32,0.718,0.32c0.354,0,0.628-0.137,0.823-0.411c0.195-0.273,0.293-0.661,0.293-1.163
				c0-0.416-0.09-0.741-0.269-0.976s-0.434-0.352-0.765-0.352c-0.312,0-0.569,0.116-0.774,0.349
				C181.209,7.199,181.107,7.502,181.107,7.875z"/>
		</g>
		<g>
			<path d="M190.616,5.55l-2.046,5.438c-0.491,1.308-1.232,1.962-2.223,1.962c-0.377,0-0.687-0.043-0.929-0.128v-1.239
				c0.206,0.121,0.431,0.182,0.674,0.182c0.399,0,0.678-0.188,0.836-0.565l0.265-0.625l-2.045-5.025h1.721l0.939,3.063
				c0.059,0.19,0.104,0.415,0.138,0.674h0.02c0.029-0.19,0.084-0.412,0.162-0.664l0.949-3.073H190.616z"/>
		</g>
		<g>
			<path d="M195.593,10h-0.02v2.901h-1.554V5.55h1.554v0.757h0.02c0.384-0.587,0.923-0.88,1.617-0.88
				c0.652,0,1.156,0.224,1.513,0.671c0.355,0.447,0.533,1.057,0.533,1.827c0,0.839-0.207,1.513-0.622,2.021
				s-0.966,0.762-1.654,0.762C196.373,10.708,195.91,10.472,195.593,10z M195.549,7.935v0.403c0,0.348,0.091,0.631,0.275,0.851
				c0.183,0.22,0.424,0.33,0.723,0.33c0.354,0,0.628-0.137,0.823-0.411c0.195-0.273,0.293-0.661,0.293-1.163
				c0-0.885-0.345-1.327-1.033-1.327c-0.317,0-0.577,0.12-0.779,0.361C195.649,7.219,195.549,7.538,195.549,7.935z"/>
		</g>
		<g>
			<path d="M204.787,8.51h-3.285c0.053,0.731,0.514,1.097,1.382,1.097c0.555,0,1.041-0.131,1.461-0.394v1.121
				c-0.466,0.25-1.07,0.374-1.814,0.374c-0.813,0-1.444-0.226-1.894-0.676s-0.673-1.079-0.673-1.886
				c0-0.836,0.242-1.498,0.728-1.986c0.484-0.488,1.081-0.732,1.789-0.732c0.734,0,1.303,0.218,1.704,0.654s0.603,1.028,0.603,1.775
				V8.51z M203.347,7.556c0-0.721-0.292-1.082-0.876-1.082c-0.249,0-0.464,0.104-0.646,0.31c-0.182,0.207-0.292,0.464-0.332,0.772
				H203.347z"/>
		</g>
		<g>
			<path d="M210.639,10.585h-1.554V9.892h-0.02c-0.354,0.544-0.874,0.816-1.56,0.816c-0.629,0-1.136-0.222-1.519-0.667
				c-0.384-0.444-0.575-1.064-0.575-1.861c0-0.833,0.211-1.5,0.634-2.001s0.977-0.752,1.662-0.752c0.648,0,1.102,0.232,1.357,0.698
				h0.02V3.131h1.554V10.585z M209.114,8.136V7.758c0-0.328-0.096-0.6-0.285-0.816c-0.19-0.216-0.438-0.324-0.742-0.324
				c-0.345,0-0.613,0.135-0.807,0.405s-0.29,0.642-0.29,1.114c0,0.442,0.093,0.784,0.28,1.023c0.187,0.239,0.445,0.359,0.776,0.359
				c0.315,0,0.571-0.126,0.77-0.379C209.015,8.887,209.114,8.553,209.114,8.136z"/>
		</g>
		<g>
			<path d="M212.732,4.753c-0.262,0-0.477-0.078-0.644-0.233c-0.168-0.156-0.251-0.347-0.251-0.573c0-0.233,0.083-0.423,0.251-0.571
				c0.167-0.147,0.382-0.221,0.644-0.221c0.266,0,0.481,0.074,0.646,0.221c0.166,0.147,0.249,0.338,0.249,0.571
				c0,0.236-0.083,0.429-0.249,0.58C213.214,4.678,212.998,4.753,212.732,4.753z M213.5,10.585h-1.554V5.55h1.554V10.585z"/>
		</g>
		<g>
			<path d="M219.744,10.01c0,0.934-0.271,1.658-0.812,2.171c-0.541,0.513-1.324,0.77-2.351,0.77c-0.679,0-1.216-0.097-1.612-0.29
				v-1.308c0.518,0.301,1.04,0.452,1.568,0.452c0.524,0,0.931-0.138,1.22-0.416c0.288-0.277,0.433-0.653,0.433-1.128V9.862h-0.02
				c-0.354,0.563-0.877,0.846-1.569,0.846c-0.643,0-1.151-0.226-1.528-0.679c-0.377-0.452-0.565-1.059-0.565-1.819
				c0-0.852,0.209-1.529,0.629-2.031s0.972-0.752,1.657-0.752c0.612,0,1.071,0.236,1.377,0.708h0.02V5.55h1.554V10.01z
				 M218.21,8.166V7.768c0-0.318-0.095-0.589-0.283-0.814c-0.188-0.224-0.434-0.336-0.734-0.336c-0.345,0-0.615,0.134-0.812,0.403
				c-0.197,0.269-0.295,0.647-0.295,1.136c0,0.42,0.093,0.752,0.28,0.996c0.187,0.244,0.442,0.366,0.767,0.366
				c0.321,0,0.581-0.124,0.779-0.371C218.11,8.899,218.21,8.572,218.21,8.166z"/>
		</g>
		<g>
			<path d="M224.326,6.951c-0.187-0.102-0.405-0.152-0.654-0.152c-0.337,0-0.602,0.124-0.791,0.371
				c-0.19,0.248-0.285,0.584-0.285,1.011v2.404h-1.554V5.55h1.554v0.935h0.02c0.246-0.682,0.688-1.023,1.327-1.023
				c0.164,0,0.292,0.02,0.384,0.059V6.951z"/>
		</g>
		<g>
			<path d="M229.534,8.51h-3.285c0.053,0.731,0.514,1.097,1.382,1.097c0.555,0,1.041-0.131,1.461-0.394v1.121
				c-0.466,0.25-1.07,0.374-1.814,0.374c-0.813,0-1.444-0.226-1.894-0.676s-0.673-1.079-0.673-1.886
				c0-0.836,0.242-1.498,0.728-1.986c0.484-0.488,1.081-0.732,1.789-0.732c0.734,0,1.303,0.218,1.704,0.654s0.603,1.028,0.603,1.775
				V8.51z M228.094,7.556c0-0.721-0.292-1.082-0.876-1.082c-0.249,0-0.464,0.104-0.646,0.31c-0.182,0.207-0.292,0.464-0.332,0.772
				H228.094z"/>
		</g>
		<g>
			<path d="M234.982,8.51h-3.285c0.053,0.731,0.514,1.097,1.382,1.097c0.555,0,1.041-0.131,1.461-0.394v1.121
				c-0.466,0.25-1.07,0.374-1.814,0.374c-0.813,0-1.444-0.226-1.894-0.676s-0.673-1.079-0.673-1.886
				c0-0.836,0.242-1.498,0.728-1.986c0.484-0.488,1.081-0.732,1.789-0.732c0.734,0,1.303,0.218,1.704,0.654s0.603,1.028,0.603,1.775
				V8.51z M233.542,7.556c0-0.721-0.292-1.082-0.876-1.082c-0.249,0-0.464,0.104-0.646,0.31c-0.182,0.207-0.292,0.464-0.332,0.772
				H233.542z"/>
		</g>
		<g>
			<path d="M238.493,10.452V9.193c0.512,0.305,0.992,0.458,1.441,0.458c0.491,0,0.737-0.152,0.737-0.458
				c0-0.134-0.06-0.244-0.177-0.329c-0.118-0.085-0.376-0.204-0.772-0.354c-0.459-0.173-0.778-0.376-0.959-0.607
				c-0.18-0.231-0.271-0.522-0.271-0.873c0-0.485,0.192-0.874,0.575-1.165c0.384-0.292,0.896-0.438,1.539-0.438
				c0.417,0,0.833,0.067,1.249,0.201v1.2c-0.39-0.229-0.8-0.344-1.229-0.344c-0.409,0-0.614,0.141-0.614,0.423
				c0,0.141,0.049,0.255,0.147,0.344c0.099,0.088,0.312,0.19,0.64,0.305c0.501,0.177,0.854,0.383,1.057,0.617
				s0.305,0.525,0.305,0.873c0,0.508-0.193,0.912-0.582,1.212c-0.389,0.3-0.931,0.45-1.625,0.45
				C239.433,10.708,238.946,10.623,238.493,10.452z"/>
		</g>
		<g>
			<path d="M246.159,10.526c-0.229,0.121-0.575,0.182-1.037,0.182c-1.095,0-1.643-0.569-1.643-1.707V6.696h-0.816V5.55h0.816V4.463
				l1.549-0.442V5.55h1.131v1.146h-1.131v2.036c0,0.524,0.208,0.787,0.625,0.787c0.164,0,0.332-0.047,0.506-0.143V10.526z"/>
		</g>
		<g>
			<path d="M251.819,10.585h-1.549V9.818h-0.024c-0.384,0.593-0.897,0.89-1.539,0.89c-1.167,0-1.751-0.707-1.751-2.119V5.55h1.549
				v2.901c0,0.711,0.282,1.067,0.846,1.067c0.278,0,0.502-0.098,0.669-0.292c0.167-0.195,0.251-0.46,0.251-0.794V5.55h1.549V10.585z
				"/>
		</g>
		<g>
			<path d="M256.942,10.403c-0.351,0.204-0.857,0.305-1.52,0.305c-0.773,0-1.399-0.234-1.878-0.703s-0.718-1.074-0.718-1.814
				c0-0.855,0.256-1.53,0.769-2.023c0.514-0.493,1.199-0.74,2.059-0.74c0.593,0,1.022,0.079,1.288,0.236v1.318
				c-0.324-0.243-0.687-0.364-1.087-0.364c-0.445,0-0.799,0.13-1.06,0.391s-0.391,0.621-0.391,1.079c0,0.446,0.124,0.796,0.373,1.05
				c0.249,0.254,0.592,0.381,1.028,0.381c0.387,0,0.765-0.121,1.136-0.364V10.403z"/>
		</g>
		<g>
			<path d="M261.003,10.526c-0.229,0.121-0.575,0.182-1.037,0.182c-1.095,0-1.643-0.569-1.643-1.707V6.696h-0.816V5.55h0.816V4.463
				l1.549-0.442V5.55h1.131v1.146h-1.131v2.036c0,0.524,0.208,0.787,0.625,0.787c0.164,0,0.332-0.047,0.506-0.143V10.526z"/>
		</g>
		<g>
			<path d="M266.663,10.585h-1.549V9.818h-0.024c-0.384,0.593-0.897,0.89-1.539,0.89c-1.167,0-1.751-0.707-1.751-2.119V5.55h1.549
				v2.901c0,0.711,0.282,1.067,0.846,1.067c0.278,0,0.502-0.098,0.669-0.292c0.167-0.195,0.251-0.46,0.251-0.794V5.55h1.549V10.585z
				"/>
		</g>
		<g>
			<path d="M271.255,6.951c-0.187-0.102-0.405-0.152-0.654-0.152c-0.337,0-0.602,0.124-0.791,0.371
				c-0.19,0.248-0.285,0.584-0.285,1.011v2.404h-1.554V5.55h1.554v0.935h0.02c0.246-0.682,0.688-1.023,1.327-1.023
				c0.164,0,0.292,0.02,0.384,0.059V6.951z"/>
		</g>
		<g>
			<path d="M276.462,8.51h-3.285c0.053,0.731,0.514,1.097,1.382,1.097c0.555,0,1.041-0.131,1.461-0.394v1.121
				c-0.466,0.25-1.07,0.374-1.814,0.374c-0.813,0-1.444-0.226-1.894-0.676s-0.673-1.079-0.673-1.886
				c0-0.836,0.242-1.498,0.728-1.986c0.484-0.488,1.081-0.732,1.789-0.732c0.734,0,1.303,0.218,1.704,0.654s0.603,1.028,0.603,1.775
				V8.51z M275.021,7.556c0-0.721-0.292-1.082-0.876-1.082c-0.249,0-0.464,0.104-0.646,0.31c-0.182,0.207-0.292,0.464-0.332,0.772
				H275.021z"/>
		</g>
	</g>
	<g>
		<rect x="79.45" y="23.68" class="st9" width="216.34" height="265.1"/>
	</g>
	<g>
		<defs>
			<rect id="SVGID_1_" x="74.37" y="288.78" width="226.5" height="11.17"/>
		</defs>
		<clipPath id="SVGID_2_">
			<use xlink:href="#SVGID_1_"  style="overflow:visible;"/>
		</clipPath>
		<g class="st10">
			<g>
				<path class="st11" d="M280.01,291.83h-1v-3.05h1V291.83z M258.17,291.83h-1v-3.05h1V291.83z M236.84,291.83h-1v-3.05h1V291.83z
					 M215,291.83h-1v-3.05h1V291.83z M193.67,291.83h-1v-3.05h1V291.83z M171.84,291.83h-1v-3.05h1V291.83z M150,291.83h-1v-3.05h1
					V291.83z M128.67,291.83h-1v-3.05h1V291.83z M106.83,291.83h-1v-3.05h1V291.83z M85.5,291.83h-1v-3.05h1V291.83z M290.66,290.3
					h-1v-1.52h1V290.3z M269.33,290.3h-1v-1.52h1V290.3z M247.5,290.3h-1v-1.52h1V290.3z M226.18,290.3h-1v-1.52h1V290.3z
					 M204.34,290.3h-1v-1.52h1V290.3z M182.5,290.3h-1v-1.52h1V290.3z M161.2,290.3h-1v-1.52h1V290.3z M139.36,290.3h-1v-1.52h1
					V290.3z M118.03,290.3h-1v-1.52h1V290.3z M96.2,290.3h-1v-1.52h1V290.3z"/>
			</g>
			<g>
				<path class="st12" d="M171.87,291.83h-1v-3.05h1V291.83z M139.36,291.83h-1v-3.05h1V291.83z"/>
			</g>
		</g>
	</g>
	<g class="st1">
		<g>
			<path class="st13" d="M84.554,295.279h-1.76v-0.416h1.76V295.279z"/>
		</g>
		<g>
			<path class="st13" d="M88.063,296.91h-2.784v-0.471l1.347-1.35c0.344-0.344,0.589-0.631,0.736-0.859
				c0.147-0.229,0.221-0.473,0.221-0.733c0-0.266-0.077-0.473-0.229-0.618c-0.152-0.146-0.37-0.22-0.651-0.22
				c-0.413,0-0.808,0.177-1.186,0.528v-0.554c0.361-0.281,0.781-0.422,1.26-0.422c0.412,0,0.737,0.111,0.973,0.335
				s0.354,0.523,0.354,0.898c0,0.297-0.082,0.587-0.245,0.869c-0.163,0.282-0.457,0.633-0.88,1.052l-1.066,1.054v0.014h2.149V296.91
				z"/>
		</g>
	</g>
	<g class="st1">
		<g>
			<path class="st13" d="M106.404,296.987c-0.458,0-0.815-0.196-1.072-0.59c-0.257-0.393-0.385-0.961-0.385-1.704
				c0-0.816,0.134-1.435,0.401-1.854c0.268-0.419,0.654-0.628,1.159-0.628c0.967,0,1.45,0.789,1.45,2.368
				c0,0.782-0.136,1.379-0.409,1.79C107.275,296.782,106.894,296.987,106.404,296.987z M106.478,292.659
				c-0.66,0-0.99,0.67-0.99,2.008c0,1.251,0.324,1.876,0.97,1.876c0.638,0,0.957-0.636,0.957-1.908
				C107.416,293.318,107.103,292.659,106.478,292.659z"/>
		</g>
		<g>
			<path class="st13" d="M129.801,296.91h-2.784v-0.471l1.347-1.35c0.344-0.344,0.589-0.631,0.736-0.859
				c0.147-0.229,0.221-0.473,0.221-0.733c0-0.266-0.077-0.473-0.229-0.618c-0.152-0.146-0.37-0.22-0.651-0.22
				c-0.413,0-0.808,0.177-1.186,0.528v-0.554c0.361-0.281,0.781-0.422,1.26-0.422c0.412,0,0.737,0.111,0.973,0.335
				s0.354,0.523,0.354,0.898c0,0.297-0.082,0.587-0.245,0.869c-0.163,0.282-0.457,0.633-0.88,1.052l-1.066,1.054v0.014h2.149V296.91
				z"/>
		</g>
	</g>
	<g class="st1">
		<g>
			<path class="st13" d="M151.162,295.683h-0.593v1.228h-0.522v-1.228h-2.172v-0.345l2.056-3.049h0.639v2.965h0.593V295.683z
				 M150.047,295.254v-1.998c0-0.142,0.005-0.301,0.013-0.478h-0.013c-0.03,0.078-0.089,0.196-0.177,0.354l-1.421,2.121H150.047z"/>
		</g>
		<g>
			<path class="st13" d="M172.877,292.344v0.499c-0.238-0.122-0.489-0.184-0.754-0.184c-0.41,0-0.738,0.183-0.984,0.548
				s-0.369,0.854-0.369,1.467h0.013c0.215-0.437,0.567-0.654,1.058-0.654c0.403,0,0.725,0.129,0.964,0.389
				c0.238,0.259,0.357,0.604,0.357,1.039c0,0.453-0.137,0.823-0.409,1.11c-0.273,0.286-0.62,0.43-1.041,0.43
				c-0.464,0-0.828-0.185-1.093-0.554c-0.264-0.37-0.396-0.889-0.396-1.557c0-0.811,0.173-1.457,0.52-1.94
				c0.346-0.483,0.802-0.725,1.369-0.725C172.433,292.212,172.688,292.256,172.877,292.344z M171.724,294.468
				c-0.272,0-0.494,0.092-0.664,0.276c-0.17,0.186-0.254,0.403-0.254,0.654c0,0.316,0.084,0.586,0.253,0.81
				c0.168,0.223,0.393,0.335,0.672,0.335c0.266,0,0.48-0.098,0.645-0.292c0.163-0.194,0.244-0.44,0.244-0.739
				c0-0.327-0.078-0.582-0.234-0.768C172.228,294.56,172.007,294.468,171.724,294.468z"/>
		</g>
		<g>
			<path class="st13" d="M193.227,294.486v-0.013c-0.554-0.258-0.831-0.632-0.831-1.121c0-0.333,0.127-0.606,0.38-0.82
				c0.254-0.214,0.58-0.32,0.979-0.32c0.361,0,0.658,0.1,0.89,0.3c0.232,0.199,0.349,0.456,0.349,0.77
				c0,0.512-0.286,0.909-0.857,1.192v0.013c0.675,0.241,1.012,0.658,1.012,1.251c0,0.382-0.138,0.687-0.412,0.912
				c-0.275,0.226-0.658,0.338-1.147,0.338c-0.396,0-0.721-0.111-0.977-0.335s-0.384-0.514-0.384-0.87
				C192.228,295.189,192.561,294.758,193.227,294.486z M193.652,294.738c-0.589,0.234-0.883,0.573-0.883,1.019
				c0,0.229,0.085,0.418,0.256,0.565c0.171,0.146,0.396,0.221,0.675,0.221c0.267,0,0.484-0.072,0.653-0.218
				c0.168-0.145,0.253-0.328,0.253-0.55C194.606,295.312,194.288,294.966,193.652,294.738z M194.451,293.346
				c0-0.213-0.066-0.38-0.199-0.503c-0.134-0.122-0.315-0.184-0.545-0.184c-0.215,0-0.397,0.064-0.546,0.192
				c-0.149,0.128-0.225,0.29-0.225,0.488c0,0.401,0.251,0.704,0.751,0.908C194.197,294.038,194.451,293.737,194.451,293.346z"/>
		</g>
	</g>
	<g class="st1">
		<g>
			<path class="st13" d="M214.32,296.91h-2.613v-0.464h1.044v-3.59l-1.069,0.318v-0.503l1.598-0.486v4.261h1.041V296.91z"/>
		</g>
		<g>
			<path class="st13" d="M216.432,296.987c-0.458,0-0.815-0.196-1.072-0.59c-0.257-0.393-0.385-0.961-0.385-1.704
				c0-0.816,0.134-1.435,0.401-1.854s0.653-0.628,1.158-0.628c0.967,0,1.45,0.789,1.45,2.368c0,0.782-0.136,1.379-0.409,1.79
				C217.303,296.782,216.921,296.987,216.432,296.987z M216.506,292.659c-0.66,0-0.99,0.67-0.99,2.008
				c0,1.251,0.324,1.876,0.971,1.876c0.638,0,0.957-0.636,0.957-1.908C217.443,293.318,217.131,292.659,216.506,292.659z"/>
		</g>
	</g>
	<g class="st1">
		<g>
			<path class="st13" d="M236.16,296.91h-2.613v-0.464h1.045v-3.59l-1.07,0.318v-0.503l1.598-0.486v4.261h1.041V296.91z"/>
		</g>
		<g>
			<path class="st13" d="M239.631,296.91h-2.783v-0.471l1.346-1.35c0.344-0.344,0.59-0.631,0.736-0.859
				c0.148-0.229,0.222-0.473,0.222-0.733c0-0.266-0.077-0.473-0.229-0.618c-0.152-0.146-0.369-0.22-0.65-0.22
				c-0.412,0-0.809,0.177-1.186,0.528v-0.554c0.36-0.281,0.78-0.422,1.26-0.422c0.412,0,0.736,0.111,0.973,0.335
				s0.355,0.523,0.355,0.898c0,0.297-0.082,0.587-0.246,0.869c-0.162,0.282-0.456,0.633-0.879,1.052l-1.066,1.054v0.014h2.148
				V296.91z"/>
		</g>
	</g>
	<g class="st1">
		<g>
			<path class="st13" d="M257.49,296.91h-2.613v-0.464h1.044v-3.59l-1.069,0.318v-0.503l1.598-0.486v4.261h1.041V296.91z"/>
		</g>
		<g>
			<path class="st13" d="M261.199,295.683h-0.593v1.228h-0.521v-1.228h-2.173v-0.345l2.057-3.049h0.638v2.965h0.593V295.683z
				 M260.085,295.254v-1.998c0-0.142,0.004-0.301,0.013-0.478h-0.013c-0.03,0.078-0.09,0.196-0.178,0.354l-1.421,2.121H260.085z"/>
		</g>
	</g>
	<g class="st1">
		<g>
			<path class="st13" d="M279.331,296.91h-2.613v-0.464h1.044v-3.59l-1.07,0.318v-0.503l1.599-0.486v4.261h1.041V296.91z"/>
		</g>
		<g>
			<path class="st13" d="M282.718,292.344v0.499c-0.238-0.122-0.49-0.184-0.754-0.184c-0.41,0-0.739,0.183-0.984,0.548
				c-0.246,0.365-0.369,0.854-0.369,1.467h0.013c0.215-0.437,0.567-0.654,1.057-0.654c0.404,0,0.726,0.129,0.964,0.389
				c0.238,0.259,0.357,0.604,0.357,1.039c0,0.453-0.136,0.823-0.409,1.11c-0.272,0.286-0.619,0.43-1.041,0.43
				c-0.464,0-0.828-0.185-1.092-0.554c-0.265-0.37-0.396-0.889-0.396-1.557c0-0.811,0.173-1.457,0.519-1.94s0.803-0.725,1.37-0.725
				C282.273,292.212,282.528,292.256,282.718,292.344z M281.564,294.468c-0.273,0-0.494,0.092-0.664,0.276
				c-0.17,0.186-0.255,0.403-0.255,0.654c0,0.316,0.084,0.586,0.253,0.81c0.169,0.223,0.393,0.335,0.672,0.335
				c0.267,0,0.481-0.098,0.645-0.292s0.245-0.44,0.245-0.739c0-0.327-0.078-0.582-0.235-0.768
				C282.067,294.56,281.848,294.468,281.564,294.468z"/>
		</g>
	</g>
	<g>
		<rect x="79.45" y="23.68" class="st14" width="216.34" height="265.1"/>
	</g>
	<g>
		<defs>
			<rect id="SVGID_3_" x="79.45" y="23.68" width="216.34" height="265.1"/>
		</defs>
		<clipPath id="SVGID_4_">
			<use xlink:href="#SVGID_3_"  style="overflow:visible;"/>
		</clipPath>
		<g class="st15">
			<g>
				<path class="st12" d="M171.87,288.78h-1v-2h1V288.78z M139.36,288.78h-1v-2h1V288.78z M171.87,284.78h-1v-2h1V284.78z
					 M139.36,284.78h-1v-2h1V284.78z M171.87,280.78h-1v-2h1V280.78z M139.36,280.78h-1v-2h1V280.78z M171.87,276.78h-1v-2h1V276.78
					z M139.36,276.78h-1v-2h1V276.78z M171.87,272.78h-1v-2h1V272.78z M139.36,272.78h-1v-2h1V272.78z M171.87,268.78h-1v-2h1
					V268.78z M139.36,268.78h-1v-2h1V268.78z M171.87,264.78h-1v-2h1V264.78z M139.36,264.78h-1v-2h1V264.78z M171.87,260.78h-1v-2
					h1V260.78z M139.36,260.78h-1v-2h1V260.78z M171.87,256.78h-1v-2h1V256.78z M139.36,256.78h-1v-2h1V256.78z M171.87,252.78h-1
					v-2h1V252.78z M139.36,252.78h-1v-2h1V252.78z M171.87,248.78h-1v-2h1V248.78z M139.36,248.78h-1v-2h1V248.78z M171.87,244.78
					h-1v-2h1V244.78z M139.36,244.78h-1v-2h1V244.78z M171.87,240.78h-1v-2h1V240.78z M139.36,240.78h-1v-2h1V240.78z
					 M171.87,236.78h-1v-2h1V236.78z M139.36,236.78h-1v-2h1V236.78z M171.87,232.78h-1v-2h1V232.78z M139.36,232.78h-1v-2h1V232.78
					z M171.87,228.78h-1v-2h1V228.78z M139.36,228.78h-1v-2h1V228.78z M171.87,224.78h-1v-2h1V224.78z M139.36,224.78h-1v-2h1
					V224.78z M171.87,220.78h-1v-2h1V220.78z M139.36,220.78h-1v-2h1V220.78z M171.87,216.78h-1v-2h1V216.78z M139.36,216.78h-1v-2
					h1V216.78z M171.87,212.78h-1v-2h1V212.78z M139.36,212.78h-1v-2h1V212.78z M171.87,208.78h-1v-2h1V208.78z M139.36,208.78h-1
					v-2h1V208.78z M171.87,204.78h-1v-2h1V204.78z M139.36,204.78h-1v-2h1V204.78z M171.87,200.78h-1v-2h1V200.78z M139.36,200.78
					h-1v-2h1V200.78z M171.87,196.78h-1v-2h1V196.78z M139.36,196.78h-1v-2h1V196.78z M171.87,192.78h-1v-2h1V192.78z
					 M139.36,192.78h-1v-2h1V192.78z M171.87,188.78h-1v-2h1V188.78z M139.36,188.78h-1v-2h1V188.78z M171.87,184.78h-1v-2h1V184.78
					z M139.36,184.78h-1v-2h1V184.78z M171.87,180.78h-1v-2h1V180.78z M139.36,180.78h-1v-2h1V180.78z M171.87,176.78h-1v-2h1
					V176.78z M139.36,176.78h-1v-2h1V176.78z M171.87,172.78h-1v-2h1V172.78z M139.36,172.78h-1v-2h1V172.78z M171.87,168.78h-1v-2
					h1V168.78z M139.36,168.78h-1v-2h1V168.78z M171.87,164.78h-1v-2h1V164.78z M139.36,164.78h-1v-2h1V164.78z M171.87,160.78h-1
					v-2h1V160.78z M139.36,160.78h-1v-2h1V160.78z M171.87,156.78h-1v-2h1V156.78z M139.36,156.78h-1v-2h1V156.78z M171.87,152.78
					h-1v-2h1V152.78z M139.36,152.78h-1v-2h1V152.78z M171.87,148.78h-1v-2h1V148.78z M139.36,148.78h-1v-2h1V148.78z
					 M171.87,144.78h-1v-2h1V144.78z M139.36,144.78h-1v-2h1V144.78z M171.87,140.78h-1v-2h1V140.78z M139.36,140.78h-1v-2h1V140.78
					z M171.87,136.78h-1v-2h1V136.78z M139.36,136.78h-1v-2h1V136.78z M171.87,132.78h-1v-2h1V132.78z M139.36,132.78h-1v-2h1
					V132.78z M171.87,128.78h-1v-2h1V128.78z M139.36,128.78h-1v-2h1V128.78z M171.87,124.78h-1v-2h1V124.78z M139.36,124.78h-1v-2
					h1V124.78z M171.87,120.78h-1v-2h1V120.78z M139.36,120.78h-1v-2h1V120.78z M171.87,116.78h-1v-2h1V116.78z M139.36,116.78h-1
					v-2h1V116.78z M171.87,112.78h-1v-2h1V112.78z M139.36,112.78h-1v-2h1V112.78z M171.87,108.78h-1v-2h1V108.78z M139.36,108.78
					h-1v-2h1V108.78z M171.87,104.78h-1v-2h1V104.78z M139.36,104.78h-1v-2h1V104.78z M171.87,100.78h-1v-2h1V100.78z
					 M139.36,100.78h-1v-2h1V100.78z M171.87,96.78h-1v-2h1V96.78z M139.36,96.78h-1v-2h1V96.78z M171.87,92.78h-1v-2h1V92.78z
					 M139.36,92.78h-1v-2h1V92.78z M171.87,88.78h-1v-2h1V88.78z M139.36,88.78h-1v-2h1V88.78z M171.87,84.78h-1v-2h1V84.78z
					 M139.36,84.78h-1v-2h1V84.78z M171.87,80.78h-1v-2h1V80.78z M139.36,80.78h-1v-2h1V80.78z M171.87,76.78h-1v-2h1V76.78z
					 M139.36,76.78h-1v-2h1V76.78z M171.87,72.78h-1v-2h1V72.78z M139.36,72.78h-1v-2h1V72.78z M171.87,68.78h-1v-2h1V68.78z
					 M139.36,68.78h-1v-2h1V68.78z M171.87,64.78h-1v-2h1V64.78z M139.36,64.78h-1v-2h1V64.78z M171.87,60.78h-1v-2h1V60.78z
					 M139.36,60.78h-1v-2h1V60.78z M171.87,56.78h-1v-2h1V56.78z M139.36,56.78h-1v-2h1V56.78z M171.87,52.78h-1v-2h1V52.78z
					 M139.36,52.78h-1v-2h1V52.78z M171.87,48.78h-1v-2h1V48.78z M139.36,48.78h-1v-2h1V48.78z M171.87,44.78h-1v-2h1V44.78z
					 M139.36,44.78h-1v-2h1V44.78z M171.87,40.78h-1v-2h1V40.78z M139.36,40.78h-1v-2h1V40.78z M171.87,36.78h-1v-2h1V36.78z
					 M139.36,36.78h-1v-2h1V36.78z M171.87,32.78h-1v-2h1V32.78z M139.36,32.78h-1v-2h1V32.78z M171.87,28.78h-1v-2h1V28.78z
					 M139.36,28.78h-1v-2h1V28.78z M171.87,24.78h-1v-1.1h1V24.78z M139.36,24.78h-1v-1.1h1V24.78z"/>
			</g>
		</g>
	</g>
	<g>
		<path class="st16" d="M234.84,69.38h-32.49V57.19H168.82v11.69h-1V44.51h1v11.68h33.529V44.01h32.49v12.18h44.71V44.51h1v24.37h-1
			V57.19h-44.71V69.38z M220.11,68.38h13.729V45.01H220.11V68.38z M203.35,68.38h15.761V45.01H203.35V68.38z"/>
	</g>
	<g>
		<path d="M293.13,56.82c-0.002,0.74-0.603,1.339-1.343,1.337c-0.738-0.002-1.335-0.599-1.337-1.337
			c0.005-0.742,0.608-1.34,1.35-1.34c0.229-0.001,0.454,0.062,0.65,0.18c0.416,0.238,0.672,0.681,0.67,1.16H293.13z"/>
	</g>
	<g>
		<path d="M154,56.82c-0.002,0.74-0.603,1.339-1.343,1.337c-0.738-0.002-1.335-0.599-1.337-1.337c0.005-0.742,0.608-1.34,1.35-1.34
			c0.229-0.001,0.454,0.062,0.65,0.18c0.416,0.238,0.672,0.681,0.67,1.16H154z"/>
	</g>
	<g>
		<path class="st17" d="M184.56,102.39H166.8V90.2h-21.3v11.69h-1V77.52h1V89.2h21.3V77.02h17.76V89.2H205.4V77.52h1v24.37h-1V90.2
			H184.56V102.39z M176.4,101.39h7.159V78.02H176.4V101.39z M167.8,101.39h7.601V78.02H167.8V101.39z"/>
	</g>
	<g>
		<path d="M216.82,90c0,0.74-0.6,1.34-1.34,1.34s-1.34-0.6-1.34-1.34c0-0.74,0.6-1.34,1.34-1.34l0,0
			C216.22,88.66,216.82,89.26,216.82,90z"/>
	</g>
	<g>
		<path class="st18" d="M186.59,135.88h-30.45v-12.19h-38.11v11.69h-1V111h1v11.69h38.11V110.5h30.45v12.19h37.601V111h1v24.38h-1
			v-11.69H186.59V135.88z M170.85,134.88h14.74V111.5h-14.74V134.88z M157.14,134.88h12.71V111.5h-12.71V134.88z"/>
	</g>
	<g>
		<path d="M234.69,123.1c-0.064,0.737-0.713,1.283-1.451,1.219c-0.649-0.056-1.163-0.571-1.219-1.219
			c0.001-0.481,0.255-0.926,0.67-1.17c0.642-0.368,1.461-0.145,1.829,0.498c0,0.001,0.001,0.002,0.001,0.002
			C234.631,122.636,234.689,122.866,234.69,123.1z"/>
	</g>
	<g>
		<path d="M232.52,123.1c-0.064,0.737-0.713,1.283-1.451,1.219c-0.649-0.056-1.163-0.571-1.219-1.219
			c0.001-0.481,0.255-0.926,0.67-1.17c0.642-0.368,1.461-0.145,1.829,0.498c0,0.001,0.001,0.002,0.001,0.002
			C232.461,122.636,232.519,122.866,232.52,123.1z"/>
	</g>
	<g>
		<path d="M231.85,123.1c-0.012,0.475-0.264,0.912-0.67,1.16c-0.648,0.358-1.463,0.124-1.821-0.524
			c-0.003-0.005-0.006-0.011-0.009-0.016c-0.111-0.188-0.169-0.402-0.17-0.62c-0.064-0.743,0.486-1.397,1.229-1.461
			c0.743-0.064,1.397,0.486,1.461,1.229c0.007,0.077,0.007,0.155,0,0.232H231.85z"/>
	</g>
	<g>
		<path d="M112.1,123.1c-0.064,0.737-0.713,1.283-1.451,1.219c-0.649-0.056-1.163-0.571-1.219-1.219
			c0.001-0.481,0.255-0.926,0.67-1.17c0.642-0.368,1.461-0.145,1.829,0.498c0,0.001,0.001,0.002,0.001,0.002
			C112.041,122.636,112.099,122.866,112.1,123.1z"/>
	</g>
	<g>
		<path d="M103.81,123.1c-0.012,0.475-0.264,0.912-0.67,1.16c-0.644,0.365-1.462,0.138-1.826-0.506
			c-0.113-0.199-0.173-0.425-0.174-0.654c0.001-0.481,0.255-0.926,0.67-1.17c0.644-0.365,1.462-0.138,1.826,0.506
			C103.751,122.639,103.811,122.867,103.81,123.1z"/>
	</g>
	<g>
		<path class="st19" d="M158.15,168.88h-28.42v-12.19H94.67v11.69h-1V144h1v11.69h35.06V143.5h28.42v12.19h39.63V144h1v24.38h-1
			v-11.69h-39.63V168.88z M144.44,167.88h12.71V144.5h-12.71V167.88z M130.73,167.88h12.71V144.5h-12.71V167.88z"/>
	</g>
	<g>
		<path class="st20" d="M162.73,201.93H145.5V189.74h-21.34v11.689h-1v-24.38h1v11.69h21.34v-12.19h16.76v0.5h0.471v11.69H184.1
			v-11.69h1v24.38h-1V189.74H162.73V201.93z M155.1,200.93h6.631v-23.38H155.1V200.93z M146.5,200.93h7.6v-23.38h-7.6V200.93z"/>
	</g>
	<g>
		<path d="M122.14,189.37c0,0.746-0.604,1.35-1.35,1.35c-0.746,0-1.35-0.604-1.35-1.35c0-0.742,0.598-1.344,1.34-1.35
			c0.243,0.002,0.48,0.068,0.69,0.19C121.883,188.451,122.138,188.892,122.14,189.37z"/>
	</g>
	<g>
		<path d="M121.35,189.37c-0.012,0.723-0.609,1.3-1.332,1.287c-0.723-0.012-1.3-0.609-1.287-1.332
			c0.012-0.723,0.609-1.3,1.332-1.287c0.22,0.004,0.436,0.063,0.627,0.172C121.101,188.452,121.352,188.893,121.35,189.37z"/>
	</g>
	<g>
		<path d="M120.16,189.37c0.007,0.746-0.592,1.355-1.338,1.362c-0.746,0.007-1.355-0.592-1.362-1.338
			c-0.007-0.746,0.592-1.355,1.338-1.362c0.239-0.002,0.474,0.059,0.682,0.178C119.901,188.444,120.162,188.888,120.16,189.37z"/>
	</g>
	<g>
		<path class="st20" d="M163.23,234.94H145.5v-12.19h-23.4v11.69h-1V210.06h1v11.69h23.4v-12.19h17.26v0.5h0.471v11.69h19.319
			v-11.69h1v24.381h-1v-11.69H163.23V234.94z M153.55,233.94h8.681V210.56h-8.681V233.94z M146.5,233.94h6.05V210.56h-6.05V233.94z"
			/>
	</g>
	<g>
		<path class="st21" d="M126.67,268.5h-16.75v-12.23H88.58V268h-1v-24.42h1v11.689h21.34V243.08h16.75v12.189h22.36V243.62h1V268h-1
			v-11.73h-22.36V268.5z M119.56,267.5h6.11v-23.42h-6.11V267.5z M110.92,267.5h7.64v-23.42h-7.64V267.5z"/>
	</g>
	<g class="st22">
		<path class="st23" d="M296.29,289.28H78.95V23.18h217.34V289.28z M79.95,288.28h215.34V24.18H79.95V288.28z"/>
	</g>
	<g>
		<g>
			<path d="M151.111,312.863h-2.906v-5.602h0.656v5.008h2.25V312.863z"/>
		</g>
		<g>
			<path d="M152.213,307.847c-0.114,0-0.212-0.039-0.293-0.117s-0.121-0.177-0.121-0.297s0.04-0.22,0.121-0.299
				s0.179-0.119,0.293-0.119c0.117,0,0.217,0.04,0.299,0.119s0.123,0.179,0.123,0.299c0,0.114-0.041,0.212-0.123,0.293
				S152.33,307.847,152.213,307.847z M152.525,312.863h-0.641v-4h0.641V312.863z"/>
		</g>
		<g>
			<path d="M157.143,312.863h-0.898l-1.766-1.922h-0.016v1.922h-0.641v-5.922h0.641v3.754h0.016l1.68-1.832h0.84l-1.855,1.93
				L157.143,312.863z"/>
		</g>
		<g>
			<path d="M160.854,311.023h-2.824c0.011,0.445,0.13,0.789,0.359,1.031s0.544,0.363,0.945,0.363c0.45,0,0.864-0.148,1.242-0.445
				v0.602c-0.352,0.255-0.816,0.383-1.395,0.383c-0.565,0-1.009-0.182-1.332-0.545s-0.484-0.874-0.484-1.533
				c0-0.622,0.177-1.13,0.529-1.521s0.791-0.588,1.314-0.588s0.929,0.169,1.215,0.508s0.43,0.809,0.43,1.41V311.023z
				 M160.197,310.48c-0.003-0.37-0.092-0.657-0.268-0.863s-0.42-0.309-0.732-0.309c-0.302,0-0.559,0.108-0.77,0.324
				s-0.341,0.499-0.391,0.848H160.197z"/>
		</g>
		<g>
			<path d="M162.463,312.863h-0.641v-5.922h0.641V312.863z"/>
		</g>
		<g>
			<path d="M164.088,307.847c-0.114,0-0.212-0.039-0.293-0.117s-0.121-0.177-0.121-0.297s0.04-0.22,0.121-0.299
				s0.179-0.119,0.293-0.119c0.117,0,0.217,0.04,0.299,0.119s0.123,0.179,0.123,0.299c0,0.114-0.041,0.212-0.123,0.293
				S164.205,307.847,164.088,307.847z M164.4,312.863h-0.641v-4h0.641V312.863z"/>
		</g>
		<g>
			<path d="M169.018,312.863h-0.641v-2.305c0-0.833-0.31-1.25-0.93-1.25c-0.312,0-0.575,0.12-0.789,0.361s-0.32,0.55-0.32,0.928
				v2.266h-0.641v-5.922h0.641v2.586h0.016c0.308-0.505,0.745-0.758,1.312-0.758c0.901,0,1.352,0.543,1.352,1.629V312.863z"/>
		</g>
		<g>
			<path d="M171.896,312.957c-0.591,0-1.063-0.187-1.416-0.561s-0.529-0.869-0.529-1.486c0-0.672,0.184-1.196,0.551-1.574
				s0.863-0.566,1.488-0.566c0.597,0,1.062,0.184,1.396,0.551s0.502,0.876,0.502,1.527c0,0.638-0.181,1.149-0.541,1.533
				S172.503,312.957,171.896,312.957z M171.943,309.308c-0.411,0-0.737,0.14-0.977,0.42s-0.359,0.666-0.359,1.158
				c0,0.474,0.121,0.848,0.363,1.121s0.566,0.41,0.973,0.41c0.414,0,0.732-0.134,0.955-0.402s0.334-0.649,0.334-1.145
				c0-0.5-0.111-0.886-0.334-1.156S172.357,309.308,171.943,309.308z"/>
		</g>
		<g>
			<path d="M176.584,312.957c-0.591,0-1.063-0.187-1.416-0.561s-0.529-0.869-0.529-1.486c0-0.672,0.184-1.196,0.551-1.574
				s0.863-0.566,1.488-0.566c0.597,0,1.062,0.184,1.396,0.551s0.502,0.876,0.502,1.527c0,0.638-0.181,1.149-0.541,1.533
				S177.19,312.957,176.584,312.957z M176.631,309.308c-0.411,0-0.737,0.14-0.977,0.42s-0.359,0.666-0.359,1.158
				c0,0.474,0.121,0.848,0.363,1.121s0.566,0.41,0.973,0.41c0.414,0,0.732-0.134,0.955-0.402s0.334-0.649,0.334-1.145
				c0-0.5-0.111-0.886-0.334-1.156S177.045,309.308,176.631,309.308z"/>
		</g>
		<g>
			<path d="M183.014,312.863h-0.641v-0.68h-0.016c-0.297,0.516-0.755,0.773-1.375,0.773c-0.503,0-0.904-0.179-1.205-0.537
				s-0.451-0.846-0.451-1.463c0-0.661,0.167-1.191,0.5-1.59s0.777-0.598,1.332-0.598c0.55,0,0.949,0.216,1.199,0.648h0.016v-2.477
				h0.641V312.863z M182.373,311.054v-0.59c0-0.323-0.106-0.597-0.32-0.82s-0.484-0.336-0.812-0.336
				c-0.391,0-0.698,0.144-0.922,0.43s-0.336,0.683-0.336,1.188c0,0.461,0.107,0.825,0.322,1.092s0.503,0.4,0.865,0.4
				c0.356,0,0.646-0.129,0.869-0.387S182.373,311.448,182.373,311.054z"/>
		</g>
		<g>
			<path d="M188.588,309.511c-0.112-0.086-0.273-0.129-0.484-0.129c-0.273,0-0.502,0.129-0.686,0.387s-0.275,0.609-0.275,1.055
				v2.039h-0.641v-4h0.641v0.824h0.016c0.091-0.281,0.23-0.501,0.418-0.658s0.397-0.236,0.629-0.236
				c0.167,0,0.294,0.019,0.383,0.055V309.511z"/>
		</g>
		<g>
			<path d="M192.146,312.863h-0.641v-0.625h-0.016c-0.278,0.479-0.688,0.719-1.23,0.719c-0.398,0-0.71-0.105-0.936-0.316
				s-0.338-0.491-0.338-0.84c0-0.747,0.44-1.183,1.32-1.305l1.199-0.168c0-0.68-0.274-1.02-0.824-1.02
				c-0.481,0-0.917,0.164-1.305,0.492v-0.656c0.394-0.25,0.847-0.375,1.359-0.375c0.94,0,1.41,0.497,1.41,1.492V312.863z
				 M191.506,310.839l-0.965,0.133c-0.297,0.042-0.521,0.115-0.672,0.221s-0.227,0.292-0.227,0.561c0,0.195,0.069,0.354,0.209,0.479
				s0.325,0.186,0.557,0.186c0.317,0,0.58-0.111,0.787-0.334s0.311-0.505,0.311-0.846V310.839z"/>
		</g>
		<g>
			<path d="M195.209,312.824c-0.151,0.083-0.351,0.125-0.598,0.125c-0.7,0-1.051-0.391-1.051-1.172v-2.367h-0.688v-0.547h0.688
				v-0.977l0.641-0.207v1.184h1.008v0.547h-1.008v2.254c0,0.269,0.046,0.46,0.137,0.574s0.242,0.172,0.453,0.172
				c0.161,0,0.301-0.044,0.418-0.133V312.824z"/>
		</g>
		<g>
			<path d="M196.393,307.847c-0.114,0-0.212-0.039-0.293-0.117s-0.121-0.177-0.121-0.297s0.04-0.22,0.121-0.299
				s0.179-0.119,0.293-0.119c0.117,0,0.217,0.04,0.299,0.119s0.123,0.179,0.123,0.299c0,0.114-0.041,0.212-0.123,0.293
				S196.51,307.847,196.393,307.847z M196.705,312.863h-0.641v-4h0.641V312.863z"/>
		</g>
		<g>
			<path d="M199.674,312.957c-0.591,0-1.063-0.187-1.416-0.561s-0.529-0.869-0.529-1.486c0-0.672,0.184-1.196,0.551-1.574
				s0.863-0.566,1.488-0.566c0.597,0,1.062,0.184,1.396,0.551s0.502,0.876,0.502,1.527c0,0.638-0.181,1.149-0.541,1.533
				S200.28,312.957,199.674,312.957z M199.721,309.308c-0.411,0-0.737,0.14-0.977,0.42s-0.359,0.666-0.359,1.158
				c0,0.474,0.121,0.848,0.363,1.121s0.566,0.41,0.973,0.41c0.414,0,0.732-0.134,0.955-0.402s0.334-0.649,0.334-1.145
				c0-0.5-0.111-0.886-0.334-1.156S200.135,309.308,199.721,309.308z"/>
		</g>
		<g>
			<path d="M204.639,312.718v-0.688c0.349,0.258,0.733,0.387,1.152,0.387c0.562,0,0.844-0.188,0.844-0.562
				c0-0.106-0.024-0.197-0.072-0.271s-0.113-0.14-0.195-0.197s-0.179-0.108-0.289-0.154s-0.229-0.093-0.357-0.143
				c-0.177-0.07-0.333-0.142-0.467-0.213s-0.246-0.152-0.336-0.242s-0.157-0.192-0.203-0.307s-0.068-0.249-0.068-0.402
				c0-0.188,0.043-0.354,0.129-0.498s0.2-0.266,0.344-0.363s0.307-0.171,0.49-0.221s0.373-0.074,0.568-0.074
				c0.347,0,0.656,0.06,0.93,0.18v0.648c-0.294-0.192-0.633-0.289-1.016-0.289c-0.12,0-0.228,0.014-0.324,0.041
				s-0.179,0.065-0.248,0.115s-0.122,0.108-0.16,0.178s-0.057,0.146-0.057,0.229c0,0.104,0.019,0.191,0.057,0.262
				s0.093,0.133,0.166,0.188s0.161,0.104,0.266,0.148s0.223,0.093,0.355,0.145c0.177,0.067,0.336,0.138,0.477,0.209
				s0.261,0.152,0.359,0.242s0.175,0.193,0.229,0.311s0.08,0.257,0.08,0.418c0,0.198-0.044,0.37-0.131,0.516
				s-0.204,0.267-0.35,0.363s-0.313,0.168-0.504,0.215s-0.39,0.07-0.598,0.07C205.298,312.957,204.94,312.877,204.639,312.718z"/>
		</g>
		<g>
			<path d="M211.002,312.679c-0.308,0.185-0.672,0.277-1.094,0.277c-0.57,0-1.03-0.186-1.381-0.557s-0.525-0.853-0.525-1.443
				c0-0.659,0.188-1.188,0.566-1.588s0.882-0.6,1.512-0.6c0.352,0,0.661,0.065,0.93,0.195v0.656
				c-0.297-0.208-0.614-0.312-0.953-0.312c-0.409,0-0.744,0.146-1.006,0.439s-0.393,0.678-0.393,1.154
				c0,0.469,0.123,0.839,0.369,1.109s0.576,0.406,0.99,0.406c0.349,0,0.677-0.116,0.984-0.348V312.679z"/>
		</g>
		<g>
			<path d="M213.643,312.957c-0.591,0-1.063-0.187-1.416-0.561s-0.529-0.869-0.529-1.486c0-0.672,0.184-1.196,0.551-1.574
				s0.863-0.566,1.488-0.566c0.597,0,1.062,0.184,1.396,0.551s0.502,0.876,0.502,1.527c0,0.638-0.181,1.149-0.541,1.533
				S214.249,312.957,213.643,312.957z M213.689,309.308c-0.411,0-0.737,0.14-0.977,0.42s-0.359,0.666-0.359,1.158
				c0,0.474,0.121,0.848,0.363,1.121s0.566,0.41,0.973,0.41c0.414,0,0.732-0.134,0.955-0.402s0.334-0.649,0.334-1.145
				c0-0.5-0.111-0.886-0.334-1.156S214.104,309.308,213.689,309.308z"/>
		</g>
		<g>
			<path d="M218.744,309.511c-0.112-0.086-0.273-0.129-0.484-0.129c-0.273,0-0.502,0.129-0.686,0.387s-0.275,0.609-0.275,1.055
				v2.039h-0.641v-4h0.641v0.824h0.016c0.091-0.281,0.23-0.501,0.418-0.658s0.397-0.236,0.629-0.236
				c0.167,0,0.294,0.019,0.383,0.055V309.511z"/>
		</g>
		<g>
			<path d="M222.549,311.023h-2.824c0.011,0.445,0.13,0.789,0.359,1.031s0.544,0.363,0.945,0.363c0.45,0,0.864-0.148,1.242-0.445
				v0.602c-0.352,0.255-0.816,0.383-1.395,0.383c-0.565,0-1.009-0.182-1.332-0.545s-0.484-0.874-0.484-1.533
				c0-0.622,0.177-1.13,0.529-1.521s0.791-0.588,1.314-0.588s0.929,0.169,1.215,0.508s0.43,0.809,0.43,1.41V311.023z
				 M221.893,310.48c-0.003-0.37-0.092-0.657-0.268-0.863s-0.42-0.309-0.732-0.309c-0.302,0-0.559,0.108-0.77,0.324
				s-0.341,0.499-0.391,0.848H221.893z"/>
		</g>
	</g>
</g>
</svg>
