<?xml version="1.0" encoding="utf-8"?>
<!-- Generator: Adobe Illustrator 22.1.0, SVG Export Plug-In . SVG Version: 6.00 Build 0)  -->
<svg version="1.1" id="Layer_1" xmlns="http://www.w3.org/2000/svg" xmlns:xlink="http://www.w3.org/1999/xlink" x="0px" y="0px"
	 viewBox="0 0 296.29 316.13" style="enable-background:new 0 0 296.29 316.13;" xml:space="preserve">
<style type="text/css">
	.st0{fill:#37B44A;}
	.st1{fill:none;stroke:#37B44A;stroke-width:0.32;stroke-miterlimit:3;}
	.st2{fill:#010101;}
	.st3{font-family:'SegoeUI';}
	.st4{font-size:8.06px;}
	.st5{fill:#5BBA47;}
	.st6{fill:none;stroke:#5BBA47;stroke-width:0.32;stroke-miterlimit:3;}
	.st7{fill:#93C83E;}
	.st8{fill:none;stroke:#93C83E;stroke-width:0.32;stroke-miterlimit:3;}
	.st9{fill:#DAD124;}
	.st10{fill:none;stroke:#DAD124;stroke-width:0.32;stroke-miterlimit:3;}
	.st11{fill:#E89724;}
	.st12{fill:none;stroke:#E89724;stroke-width:0.32;stroke-miterlimit:3;}
	.st13{fill:#F15623;}
	.st14{fill:none;stroke:#F15623;stroke-width:0.32;stroke-miterlimit:3;}
	.st15{fill:#ED2224;}
	.st16{fill:none;stroke:#ED2224;stroke-width:0.32;stroke-miterlimit:3;}
	.st17{fill:#DEDEDE;}
	.st18{clip-path:url(#SVGID_2_);}
	.st19{fill:none;stroke:#A6A6A6;stroke-miterlimit:10;}
	.st20{fill:none;stroke:#BFBFBF;stroke-miterlimit:10;}
	.st21{enable-background:new    ;}
	.st22{fill:#231F20;}
	.st23{font-size:6.6px;}
	.st24{fill:#FFFFFF;}
	.st25{clip-path:url(#SVGID_4_);}
	.st26{fill:none;stroke:#BFBFBF;stroke-miterlimit:10;stroke-dasharray:2,2;}
	.st27{fill:none;stroke:#05765A;stroke-miterlimit:10;}
	.st28{fill:none;stroke:#1EA149;stroke-miterlimit:10;}
	.st29{fill:none;stroke:#87C540;stroke-miterlimit:10;}
	.st30{fill:none;stroke:#D1D033;stroke-miterlimit:10;}
	.st31{fill:none;stroke:#E77924;stroke-miterlimit:10;}
	.st32{fill:none;stroke:#EF4351;stroke-miterlimit:10;}
	.st33{opacity:0.05;fill:none;stroke:#E6E6E6;stroke-miterlimit:10;enable-background:new    ;}
</style>
<title>structures</title>
<g>
	<polygon class="st0" points="0.85,47.18 0.85,54.57 14.94,54.57 14.94,47.18 0.85,47.18 	"/>
	<rect x="1.19" y="47.52" class="st1" width="13.42" height="6.72"/>
	<text transform="matrix(1 0 0 1 16.64 54.23)" class="st2 st3 st4">T</text>
	<text transform="matrix(1 0 0 1 20.42 54.23)" class="st2 st3 st4">w</text>
	<text transform="matrix(1 0 0 1 26.22 54.23)" class="st2 st3 st4">o </text>
	<text transform="matrix(1 0 0 1 33.15 54.23)" class="st2 st3 st4">p</text>
	<text transform="matrix(1 0 0 1 37.78 54.23)" class="st2 st3 st4">a</text>
	<text transform="matrix(1 0 0 1 41.88 54.23)" class="st2 st3 st4">r</text>
	<text transform="matrix(1 0 0 1 44.58 54.23)" class="st2 st3 st4">ents</text>
	<polygon class="st5" points="0.85,82.93 0.85,90.32 14.94,90.32 14.94,82.93 0.85,82.93 	"/>
	<rect x="1.19" y="83.26" class="st6" width="13.42" height="6.71"/>
	<text transform="matrix(1 0 0 1 16.64 89.98)" class="st2 st3 st4">Child and spouse</text>
	<polygon class="st7" points="0.85,116.62 0.85,124 14.94,124 14.94,116.62 0.85,116.62 	"/>
	<rect x="1.19" y="116.95" class="st8" width="13.42" height="6.71"/>
	<text transform="matrix(1 0 0 1 16.64 123.67)" class="st2 st3 st4">T</text>
	<text transform="matrix(1 0 0 1 20.42 123.67)" class="st2 st3 st4">w</text>
	<text transform="matrix(1 0 0 1 26.22 123.67)" class="st2 st3 st4">o siblings</text>
	<polygon class="st9" points="0.85,150.83 0.85,158.21 14.94,158.21 14.94,150.83 0.85,150.83 	"/>
	<rect x="1.19" y="151.16" class="st10" width="13.42" height="6.71"/>
	<text transform="matrix(1 0 0 1 16.64 157.88)" class="st2 st3 st4">One sibling</text>
	<polygon class="st11" points="1.19,186.06 1.19,193.45 15.28,193.45 15.28,186.06 1.19,186.06 	"/>
	<rect x="1.53" y="186.4" class="st12" width="13.42" height="6.72"/>
	<text transform="matrix(1 0 0 1 16.98 193.12)" class="st2 st3 st4">One child</text>
	<polygon class="st13" points="0,217.84 0,225.23 14.09,225.23 14.09,217.84 0,217.84 	"/>
	<rect x="0.34" y="218.18" class="st14" width="13.42" height="6.72"/>
	<text transform="matrix(1 0 0 1 15.79 224.9)" class="st2 st3 st4">One </text>
	<text transform="matrix(1 0 0 1 32.85 224.9)" class="st2 st3 st4">p</text>
	<text transform="matrix(1 0 0 1 37.48 224.9)" class="st2 st3 st4">a</text>
	<text transform="matrix(1 0 0 1 41.58 224.9)" class="st2 st3 st4">r</text>
	<text transform="matrix(1 0 0 1 44.28 224.9)" class="st2 st3 st4">ent</text>
	<polygon class="st15" points="0.85,250.45 0.85,257.83 14.94,257.83 14.94,250.45 0.85,250.45 	"/>
	<rect x="1.19" y="250.78" class="st16" width="13.42" height="6.72"/>
	<text transform="matrix(1 0 0 1 16.64 257.5)" class="st2 st3 st4">Hal</text>
	<text transform="matrix(1 0 0 1 28.41 257.5)" class="st2 st3 st4">f</text>
	<text transform="matrix(1 0 0 1 30.54 257.5)" class="st2 st3 st4">-sibling</text>
	<g>
		<path d="M92.364,10.314V8.741c0.564,0.479,1.185,0.718,1.864,0.718c0.325,0,0.577-0.066,0.757-0.199
			c0.18-0.133,0.271-0.306,0.271-0.519c0-0.184-0.076-0.356-0.227-0.519c-0.151-0.162-0.511-0.377-1.082-0.646
			c-1.075-0.508-1.613-1.196-1.613-2.065c0-0.633,0.233-1.14,0.701-1.522s1.091-0.573,1.871-0.573c0.688,0,1.259,0.09,1.711,0.271
			v1.47c-0.472-0.328-1.013-0.492-1.623-0.492c-0.305,0-0.546,0.065-0.723,0.197c-0.177,0.131-0.266,0.303-0.266,0.516
			c0,0.21,0.069,0.388,0.209,0.536c0.139,0.147,0.434,0.328,0.882,0.541c0.695,0.331,1.174,0.661,1.436,0.988
			c0.262,0.328,0.393,0.715,0.393,1.161c0,0.649-0.233,1.162-0.701,1.539c-0.467,0.377-1.146,0.565-2.038,0.565
			C93.458,10.708,92.85,10.577,92.364,10.314z"/>
		<path d="M101.712,10.403c-0.351,0.204-0.857,0.305-1.52,0.305c-0.773,0-1.4-0.234-1.878-0.703s-0.718-1.074-0.718-1.814
			c0-0.855,0.256-1.53,0.77-2.023c0.513-0.493,1.199-0.74,2.058-0.74c0.593,0,1.023,0.079,1.289,0.236v1.318
			c-0.325-0.243-0.687-0.364-1.087-0.364c-0.446,0-0.799,0.13-1.06,0.391s-0.391,0.621-0.391,1.079c0,0.446,0.125,0.796,0.374,1.05
			c0.249,0.254,0.592,0.381,1.027,0.381c0.387,0,0.766-0.121,1.136-0.364V10.403z"/>
		<path d="M105.129,10.708c-0.839,0-1.499-0.235-1.979-0.706c-0.48-0.471-0.72-1.109-0.72-1.916c0-0.833,0.249-1.484,0.748-1.954
			c0.498-0.471,1.172-0.706,2.021-0.706c0.836,0,1.492,0.235,1.967,0.706c0.476,0.47,0.713,1.092,0.713,1.866
			c0,0.836-0.245,1.497-0.735,1.981C106.652,10.465,105.981,10.708,105.129,10.708z M105.168,6.617
			c-0.367,0-0.652,0.126-0.855,0.378s-0.305,0.61-0.305,1.072c0,0.967,0.39,1.451,1.17,1.451c0.744,0,1.116-0.497,1.116-1.49
			C106.294,7.087,105.919,6.617,105.168,6.617z"/>
		<path d="M112.17,6.951c-0.187-0.102-0.405-0.152-0.654-0.152c-0.338,0-0.602,0.124-0.792,0.371
			c-0.19,0.248-0.285,0.584-0.285,1.011v2.404h-1.554V5.55h1.554v0.935h0.02c0.246-0.682,0.688-1.023,1.328-1.023
			c0.164,0,0.292,0.02,0.383,0.059V6.951z"/>
		<path d="M117.377,8.51h-3.285c0.052,0.731,0.513,1.097,1.382,1.097c0.554,0,1.041-0.131,1.46-0.394v1.121
			c-0.465,0.25-1.07,0.374-1.814,0.374c-0.813,0-1.444-0.226-1.893-0.676c-0.449-0.451-0.674-1.079-0.674-1.886
			c0-0.836,0.243-1.498,0.728-1.986c0.485-0.488,1.082-0.732,1.79-0.732c0.734,0,1.302,0.218,1.704,0.654s0.603,1.028,0.603,1.775
			V8.51z M115.937,7.556c0-0.721-0.292-1.082-0.875-1.082c-0.25,0-0.465,0.104-0.646,0.31c-0.182,0.207-0.293,0.464-0.332,0.772
			H115.937z"/>
		<path d="M126.007,10.585h-1.554V9.892h-0.02c-0.354,0.544-0.874,0.816-1.559,0.816c-0.629,0-1.136-0.222-1.52-0.667
			c-0.383-0.444-0.575-1.064-0.575-1.861c0-0.833,0.211-1.5,0.634-2.001s0.977-0.752,1.662-0.752c0.649,0,1.101,0.232,1.357,0.698
			h0.02V3.131h1.554V10.585z M124.483,8.136V7.758c0-0.328-0.095-0.6-0.285-0.816c-0.19-0.216-0.438-0.324-0.743-0.324
			c-0.344,0-0.613,0.135-0.806,0.405c-0.194,0.271-0.29,0.642-0.29,1.114c0,0.442,0.093,0.784,0.28,1.023
			c0.187,0.239,0.445,0.359,0.777,0.359c0.314,0,0.571-0.126,0.77-0.379C124.384,8.887,124.483,8.553,124.483,8.136z"/>
		<path d="M128.102,4.753c-0.263,0-0.477-0.078-0.645-0.233c-0.167-0.156-0.25-0.347-0.25-0.573c0-0.233,0.083-0.423,0.25-0.571
			c0.167-0.147,0.382-0.221,0.645-0.221c0.265,0,0.481,0.074,0.646,0.221s0.248,0.338,0.248,0.571c0,0.236-0.083,0.429-0.248,0.58
			S128.367,4.753,128.102,4.753z M128.869,10.585h-1.554V5.55h1.554V10.585z"/>
		<path d="M129.985,10.452V9.193c0.511,0.305,0.991,0.458,1.44,0.458c0.492,0,0.738-0.152,0.738-0.458
			c0-0.134-0.059-0.244-0.177-0.329c-0.118-0.085-0.375-0.204-0.772-0.354c-0.459-0.173-0.778-0.376-0.959-0.607
			c-0.18-0.231-0.27-0.522-0.27-0.873c0-0.485,0.191-0.874,0.575-1.165c0.383-0.292,0.896-0.438,1.539-0.438
			c0.416,0,0.833,0.067,1.249,0.201v1.2c-0.39-0.229-0.8-0.344-1.229-0.344c-0.41,0-0.615,0.141-0.615,0.423
			c0,0.141,0.049,0.255,0.147,0.344c0.099,0.088,0.312,0.19,0.639,0.305c0.502,0.177,0.854,0.383,1.057,0.617
			c0.204,0.234,0.305,0.525,0.305,0.873c0,0.508-0.194,0.912-0.583,1.212c-0.389,0.3-0.93,0.45-1.625,0.45
			C130.924,10.708,130.438,10.623,129.985,10.452z"/>
		<path d="M137.651,10.526c-0.229,0.121-0.576,0.182-1.038,0.182c-1.095,0-1.643-0.569-1.643-1.707V6.696h-0.816V5.55h0.816V4.463
			l1.549-0.442V5.55h1.131v1.146h-1.131v2.036c0,0.524,0.208,0.787,0.624,0.787c0.164,0,0.333-0.047,0.507-0.143V10.526z"/>
		<path d="M141.811,6.951c-0.187-0.102-0.405-0.152-0.654-0.152c-0.338,0-0.602,0.124-0.792,0.371
			c-0.19,0.248-0.285,0.584-0.285,1.011v2.404h-1.554V5.55h1.554v0.935h0.02c0.246-0.682,0.688-1.023,1.328-1.023
			c0.164,0,0.292,0.02,0.383,0.059V6.951z"/>
		<path d="M143.36,4.753c-0.263,0-0.477-0.078-0.645-0.233c-0.167-0.156-0.25-0.347-0.25-0.573c0-0.233,0.083-0.423,0.25-0.571
			c0.167-0.147,0.382-0.221,0.645-0.221c0.265,0,0.481,0.074,0.646,0.221s0.248,0.338,0.248,0.571c0,0.236-0.083,0.429-0.248,0.58
			S143.625,4.753,143.36,4.753z M144.126,10.585h-1.554V5.55h1.554V10.585z"/>
		<path d="M147.008,10h-0.02v0.585h-1.554V3.131h1.554v3.176h0.02c0.383-0.587,0.929-0.88,1.637-0.88
			c0.649,0,1.149,0.223,1.499,0.668c0.352,0.446,0.527,1.056,0.527,1.829c0,0.839-0.205,1.513-0.615,2.021s-0.957,0.762-1.642,0.762
			C147.795,10.708,147.326,10.472,147.008,10z M146.964,7.875v0.517c0,0.324,0.093,0.593,0.28,0.806
			c0.187,0.213,0.426,0.32,0.718,0.32c0.354,0,0.629-0.137,0.824-0.411c0.195-0.273,0.292-0.661,0.292-1.163
			c0-0.416-0.089-0.741-0.268-0.976s-0.434-0.352-0.765-0.352c-0.311,0-0.569,0.116-0.774,0.349
			C147.066,7.199,146.964,7.502,146.964,7.875z"/>
		<path d="M156.464,10.585h-1.549V9.818h-0.024c-0.384,0.593-0.897,0.89-1.539,0.89c-1.167,0-1.751-0.707-1.751-2.119V5.55h1.549
			v2.901c0,0.711,0.282,1.067,0.846,1.067c0.278,0,0.502-0.098,0.669-0.292c0.167-0.195,0.251-0.46,0.251-0.794V5.55h1.549V10.585z"
			/>
		<path d="M160.814,10.526c-0.229,0.121-0.575,0.182-1.037,0.182c-1.095,0-1.643-0.569-1.643-1.707V6.696h-0.816V5.55h0.816V4.463
			l1.549-0.442V5.55h1.131v1.146h-1.131v2.036c0,0.524,0.208,0.787,0.625,0.787c0.164,0,0.332-0.047,0.506-0.143V10.526z"/>
		<path d="M162.477,4.753c-0.262,0-0.477-0.078-0.644-0.233c-0.168-0.156-0.251-0.347-0.251-0.573c0-0.233,0.083-0.423,0.251-0.571
			c0.167-0.147,0.382-0.221,0.644-0.221c0.266,0,0.481,0.074,0.646,0.221c0.166,0.147,0.249,0.338,0.249,0.571
			c0,0.236-0.083,0.429-0.249,0.58C162.958,4.678,162.742,4.753,162.477,4.753z M163.244,10.585h-1.554V5.55h1.554V10.585z"/>
		<path d="M166.951,10.708c-0.84,0-1.499-0.235-1.979-0.706c-0.48-0.471-0.72-1.109-0.72-1.916c0-0.833,0.249-1.484,0.747-1.954
			c0.498-0.471,1.172-0.706,2.021-0.706c0.836,0,1.491,0.235,1.967,0.706c0.476,0.47,0.713,1.092,0.713,1.866
			c0,0.836-0.245,1.497-0.734,1.981C168.475,10.465,167.803,10.708,166.951,10.708z M166.99,6.617c-0.367,0-0.652,0.126-0.855,0.378
			s-0.305,0.61-0.305,1.072c0,0.967,0.39,1.451,1.17,1.451c0.744,0,1.116-0.497,1.116-1.49
			C168.116,7.087,167.741,6.617,166.99,6.617z"/>
		<path d="M175.57,10.585h-1.549V7.787c0-0.78-0.278-1.17-0.836-1.17c-0.269,0-0.49,0.103-0.663,0.31
			c-0.174,0.207-0.261,0.469-0.261,0.787v2.872h-1.554V5.55h1.554v0.797h0.02c0.37-0.613,0.909-0.919,1.617-0.919
			c1.115,0,1.672,0.691,1.672,2.075V10.585z"/>
		<path d="M181.151,10h-0.02v0.585h-1.554V3.131h1.554v3.176h0.02c0.384-0.587,0.929-0.88,1.638-0.88
			c0.648,0,1.148,0.223,1.499,0.668s0.526,1.056,0.526,1.829c0,0.839-0.205,1.513-0.614,2.021c-0.41,0.508-0.958,0.762-1.643,0.762
			C181.938,10.708,181.469,10.472,181.151,10z M181.107,7.875v0.517c0,0.324,0.093,0.593,0.28,0.806
			c0.187,0.213,0.426,0.32,0.718,0.32c0.354,0,0.628-0.137,0.823-0.411c0.195-0.273,0.293-0.661,0.293-1.163
			c0-0.416-0.09-0.741-0.269-0.976s-0.434-0.352-0.765-0.352c-0.312,0-0.569,0.116-0.774,0.349
			C181.209,7.199,181.107,7.502,181.107,7.875z"/>
		<path d="M190.616,5.55l-2.046,5.438c-0.491,1.308-1.232,1.962-2.223,1.962c-0.377,0-0.687-0.043-0.929-0.128v-1.239
			c0.206,0.121,0.431,0.182,0.674,0.182c0.399,0,0.678-0.188,0.836-0.565l0.265-0.625l-2.045-5.025h1.721l0.939,3.063
			c0.059,0.19,0.104,0.415,0.138,0.674h0.02c0.029-0.19,0.084-0.412,0.162-0.664l0.949-3.073H190.616z"/>
		<path d="M195.593,10h-0.02v2.901h-1.554V5.55h1.554v0.757h0.02c0.384-0.587,0.923-0.88,1.617-0.88
			c0.652,0,1.156,0.224,1.513,0.671c0.355,0.447,0.533,1.057,0.533,1.827c0,0.839-0.207,1.513-0.622,2.021s-0.966,0.762-1.654,0.762
			C196.373,10.708,195.91,10.472,195.593,10z M195.549,7.935v0.403c0,0.348,0.091,0.631,0.275,0.851
			c0.183,0.22,0.424,0.33,0.723,0.33c0.354,0,0.628-0.137,0.823-0.411c0.195-0.273,0.293-0.661,0.293-1.163
			c0-0.885-0.345-1.327-1.033-1.327c-0.317,0-0.577,0.12-0.779,0.361C195.649,7.219,195.549,7.538,195.549,7.935z"/>
		<path d="M204.787,8.51h-3.285c0.053,0.731,0.514,1.097,1.382,1.097c0.555,0,1.041-0.131,1.461-0.394v1.121
			c-0.466,0.25-1.07,0.374-1.814,0.374c-0.813,0-1.444-0.226-1.894-0.676s-0.673-1.079-0.673-1.886c0-0.836,0.242-1.498,0.728-1.986
			c0.484-0.488,1.081-0.732,1.789-0.732c0.734,0,1.303,0.218,1.704,0.654s0.603,1.028,0.603,1.775V8.51z M203.347,7.556
			c0-0.721-0.292-1.082-0.876-1.082c-0.249,0-0.464,0.104-0.646,0.31c-0.182,0.207-0.292,0.464-0.332,0.772H203.347z"/>
		<path d="M210.639,10.585h-1.554V9.892h-0.02c-0.354,0.544-0.874,0.816-1.56,0.816c-0.629,0-1.136-0.222-1.519-0.667
			c-0.384-0.444-0.575-1.064-0.575-1.861c0-0.833,0.211-1.5,0.634-2.001s0.977-0.752,1.662-0.752c0.648,0,1.102,0.232,1.357,0.698
			h0.02V3.131h1.554V10.585z M209.114,8.136V7.758c0-0.328-0.096-0.6-0.285-0.816c-0.19-0.216-0.438-0.324-0.742-0.324
			c-0.345,0-0.613,0.135-0.807,0.405s-0.29,0.642-0.29,1.114c0,0.442,0.093,0.784,0.28,1.023c0.187,0.239,0.445,0.359,0.776,0.359
			c0.315,0,0.571-0.126,0.77-0.379C209.015,8.887,209.114,8.553,209.114,8.136z"/>
		<path d="M212.732,4.753c-0.262,0-0.477-0.078-0.644-0.233c-0.168-0.156-0.251-0.347-0.251-0.573c0-0.233,0.083-0.423,0.251-0.571
			c0.167-0.147,0.382-0.221,0.644-0.221c0.266,0,0.481,0.074,0.646,0.221c0.166,0.147,0.249,0.338,0.249,0.571
			c0,0.236-0.083,0.429-0.249,0.58C213.214,4.678,212.998,4.753,212.732,4.753z M213.5,10.585h-1.554V5.55h1.554V10.585z"/>
		<path d="M219.744,10.01c0,0.934-0.271,1.658-0.812,2.171c-0.541,0.513-1.324,0.77-2.351,0.77c-0.679,0-1.216-0.097-1.612-0.29
			v-1.308c0.518,0.301,1.04,0.452,1.568,0.452c0.524,0,0.931-0.138,1.22-0.416c0.288-0.277,0.433-0.653,0.433-1.128V9.862h-0.02
			c-0.354,0.563-0.877,0.846-1.569,0.846c-0.643,0-1.151-0.226-1.528-0.679c-0.377-0.452-0.565-1.059-0.565-1.819
			c0-0.852,0.209-1.529,0.629-2.031s0.972-0.752,1.657-0.752c0.612,0,1.071,0.236,1.377,0.708h0.02V5.55h1.554V10.01z M218.21,8.166
			V7.768c0-0.318-0.095-0.589-0.283-0.814c-0.188-0.224-0.434-0.336-0.734-0.336c-0.345,0-0.615,0.134-0.812,0.403
			c-0.197,0.269-0.295,0.647-0.295,1.136c0,0.42,0.093,0.752,0.28,0.996c0.187,0.244,0.442,0.366,0.767,0.366
			c0.321,0,0.581-0.124,0.779-0.371C218.11,8.899,218.21,8.572,218.21,8.166z"/>
		<path d="M224.326,6.951c-0.187-0.102-0.405-0.152-0.654-0.152c-0.337,0-0.602,0.124-0.791,0.371
			c-0.19,0.248-0.285,0.584-0.285,1.011v2.404h-1.554V5.55h1.554v0.935h0.02c0.246-0.682,0.688-1.023,1.327-1.023
			c0.164,0,0.292,0.02,0.384,0.059V6.951z"/>
		<path d="M229.534,8.51h-3.285c0.053,0.731,0.514,1.097,1.382,1.097c0.555,0,1.041-0.131,1.461-0.394v1.121
			c-0.466,0.25-1.07,0.374-1.814,0.374c-0.813,0-1.444-0.226-1.894-0.676s-0.673-1.079-0.673-1.886c0-0.836,0.242-1.498,0.728-1.986
			c0.484-0.488,1.081-0.732,1.789-0.732c0.734,0,1.303,0.218,1.704,0.654s0.603,1.028,0.603,1.775V8.51z M228.094,7.556
			c0-0.721-0.292-1.082-0.876-1.082c-0.249,0-0.464,0.104-0.646,0.31c-0.182,0.207-0.292,0.464-0.332,0.772H228.094z"/>
		<path d="M234.982,8.51h-3.285c0.053,0.731,0.514,1.097,1.382,1.097c0.555,0,1.041-0.131,1.461-0.394v1.121
			c-0.466,0.25-1.07,0.374-1.814,0.374c-0.813,0-1.444-0.226-1.894-0.676s-0.673-1.079-0.673-1.886c0-0.836,0.242-1.498,0.728-1.986
			c0.484-0.488,1.081-0.732,1.789-0.732c0.734,0,1.303,0.218,1.704,0.654s0.603,1.028,0.603,1.775V8.51z M233.542,7.556
			c0-0.721-0.292-1.082-0.876-1.082c-0.249,0-0.464,0.104-0.646,0.31c-0.182,0.207-0.292,0.464-0.332,0.772H233.542z"/>
		<path d="M238.493,10.452V9.193c0.512,0.305,0.992,0.458,1.441,0.458c0.491,0,0.737-0.152,0.737-0.458
			c0-0.134-0.06-0.244-0.177-0.329c-0.118-0.085-0.376-0.204-0.772-0.354c-0.459-0.173-0.778-0.376-0.959-0.607
			c-0.18-0.231-0.271-0.522-0.271-0.873c0-0.485,0.192-0.874,0.575-1.165c0.384-0.292,0.896-0.438,1.539-0.438
			c0.417,0,0.833,0.067,1.249,0.201v1.2c-0.39-0.229-0.8-0.344-1.229-0.344c-0.409,0-0.614,0.141-0.614,0.423
			c0,0.141,0.049,0.255,0.147,0.344c0.099,0.088,0.312,0.19,0.64,0.305c0.501,0.177,0.854,0.383,1.057,0.617
			s0.305,0.525,0.305,0.873c0,0.508-0.193,0.912-0.582,1.212c-0.389,0.3-0.931,0.45-1.625,0.45
			C239.433,10.708,238.946,10.623,238.493,10.452z"/>
		<path d="M246.159,10.526c-0.229,0.121-0.575,0.182-1.037,0.182c-1.095,0-1.643-0.569-1.643-1.707V6.696h-0.816V5.55h0.816V4.463
			l1.549-0.442V5.55h1.131v1.146h-1.131v2.036c0,0.524,0.208,0.787,0.625,0.787c0.164,0,0.332-0.047,0.506-0.143V10.526z"/>
		<path d="M251.819,10.585h-1.549V9.818h-0.024c-0.384,0.593-0.897,0.89-1.539,0.89c-1.167,0-1.751-0.707-1.751-2.119V5.55h1.549
			v2.901c0,0.711,0.282,1.067,0.846,1.067c0.278,0,0.502-0.098,0.669-0.292c0.167-0.195,0.251-0.46,0.251-0.794V5.55h1.549V10.585z"
			/>
		<path d="M256.942,10.403c-0.351,0.204-0.857,0.305-1.52,0.305c-0.773,0-1.399-0.234-1.878-0.703s-0.718-1.074-0.718-1.814
			c0-0.855,0.256-1.53,0.769-2.023c0.514-0.493,1.199-0.74,2.059-0.74c0.593,0,1.022,0.079,1.288,0.236v1.318
			c-0.324-0.243-0.687-0.364-1.087-0.364c-0.445,0-0.799,0.13-1.06,0.391s-0.391,0.621-0.391,1.079c0,0.446,0.124,0.796,0.373,1.05
			c0.249,0.254,0.592,0.381,1.028,0.381c0.387,0,0.765-0.121,1.136-0.364V10.403z"/>
		<path d="M261.003,10.526c-0.229,0.121-0.575,0.182-1.037,0.182c-1.095,0-1.643-0.569-1.643-1.707V6.696h-0.816V5.55h0.816V4.463
			l1.549-0.442V5.55h1.131v1.146h-1.131v2.036c0,0.524,0.208,0.787,0.625,0.787c0.164,0,0.332-0.047,0.506-0.143V10.526z"/>
		<path d="M266.663,10.585h-1.549V9.818h-0.024c-0.384,0.593-0.897,0.89-1.539,0.89c-1.167,0-1.751-0.707-1.751-2.119V5.55h1.549
			v2.901c0,0.711,0.282,1.067,0.846,1.067c0.278,0,0.502-0.098,0.669-0.292c0.167-0.195,0.251-0.46,0.251-0.794V5.55h1.549V10.585z"
			/>
		<path d="M271.255,6.951c-0.187-0.102-0.405-0.152-0.654-0.152c-0.337,0-0.602,0.124-0.791,0.371
			c-0.19,0.248-0.285,0.584-0.285,1.011v2.404h-1.554V5.55h1.554v0.935h0.02c0.246-0.682,0.688-1.023,1.327-1.023
			c0.164,0,0.292,0.02,0.384,0.059V6.951z"/>
		<path d="M276.462,8.51h-3.285c0.053,0.731,0.514,1.097,1.382,1.097c0.555,0,1.041-0.131,1.461-0.394v1.121
			c-0.466,0.25-1.07,0.374-1.814,0.374c-0.813,0-1.444-0.226-1.894-0.676s-0.673-1.079-0.673-1.886c0-0.836,0.242-1.498,0.728-1.986
			c0.484-0.488,1.081-0.732,1.789-0.732c0.734,0,1.303,0.218,1.704,0.654s0.603,1.028,0.603,1.775V8.51z M275.021,7.556
			c0-0.721-0.292-1.082-0.876-1.082c-0.249,0-0.464,0.104-0.646,0.31c-0.182,0.207-0.292,0.464-0.332,0.772H275.021z"/>
	</g>
	<rect x="79.45" y="23.68" class="st17" width="216.34" height="265.1"/>
	<g>
		<defs>
			<rect id="SVGID_1_" x="74.37" y="288.78" width="226.5" height="11.17"/>
		</defs>
		<clipPath id="SVGID_2_">
			<use xlink:href="#SVGID_1_"  style="overflow:visible;"/>
		</clipPath>
		<g class="st18">
			<path class="st19" d="M95.7,288.78v1.52 M117.53,288.78v1.52 M138.86,288.78v1.52 M160.7,288.78v1.52 M182,288.78v1.52
				 M203.84,288.78v1.52 M225.68,288.78v1.52 M247,288.78v1.52 M268.83,288.78v1.52 M290.16,288.78v1.52 M85,288.78v3.05
				 M106.33,288.78v3.05 M128.17,288.78v3.05 M149.5,288.78v3.05 M171.34,288.78v3.05 M193.17,288.78v3.05 M214.5,288.78v3.05
				 M236.34,288.78v3.05 M257.67,288.78v3.05 M279.51,288.78v3.05"/>
			<path class="st20" d="M138.86,288.78v3.05 M171.37,288.78v3.05"/>
		</g>
	</g>
	<g class="st21">
		<path class="st22" d="M84.554,295.279h-1.76v-0.416h1.76V295.279z"/>
		<path class="st22" d="M88.063,296.91h-2.784v-0.471l1.347-1.35c0.344-0.344,0.589-0.631,0.736-0.859
			c0.147-0.229,0.221-0.473,0.221-0.733c0-0.266-0.077-0.473-0.229-0.618c-0.152-0.146-0.37-0.22-0.651-0.22
			c-0.413,0-0.808,0.177-1.186,0.528v-0.554c0.361-0.281,0.781-0.422,1.26-0.422c0.412,0,0.737,0.111,0.973,0.335
			s0.354,0.523,0.354,0.898c0,0.297-0.082,0.587-0.245,0.869c-0.163,0.282-0.457,0.633-0.88,1.052l-1.066,1.054v0.014h2.149V296.91z
			"/>
	</g>
	<g class="st21">
		<path class="st22" d="M106.404,296.987c-0.458,0-0.815-0.196-1.072-0.59c-0.257-0.393-0.385-0.961-0.385-1.704
			c0-0.816,0.134-1.435,0.401-1.854c0.268-0.419,0.654-0.628,1.159-0.628c0.967,0,1.45,0.789,1.45,2.368
			c0,0.782-0.136,1.379-0.409,1.79C107.275,296.782,106.894,296.987,106.404,296.987z M106.478,292.659
			c-0.66,0-0.99,0.67-0.99,2.008c0,1.251,0.324,1.876,0.97,1.876c0.638,0,0.957-0.636,0.957-1.908
			C107.416,293.318,107.103,292.659,106.478,292.659z"/>
		<path class="st22" d="M129.801,296.91h-2.784v-0.471l1.347-1.35c0.344-0.344,0.589-0.631,0.736-0.859
			c0.147-0.229,0.221-0.473,0.221-0.733c0-0.266-0.077-0.473-0.229-0.618c-0.152-0.146-0.37-0.22-0.651-0.22
			c-0.413,0-0.808,0.177-1.186,0.528v-0.554c0.361-0.281,0.781-0.422,1.26-0.422c0.412,0,0.737,0.111,0.973,0.335
			s0.354,0.523,0.354,0.898c0,0.297-0.082,0.587-0.245,0.869c-0.163,0.282-0.457,0.633-0.88,1.052l-1.066,1.054v0.014h2.149V296.91z
			"/>
	</g>
	<g class="st21">
		<path class="st22" d="M151.162,295.683h-0.593v1.228h-0.522v-1.228h-2.172v-0.345l2.056-3.049h0.639v2.965h0.593V295.683z
			 M150.047,295.254v-1.998c0-0.142,0.005-0.301,0.013-0.478h-0.013c-0.03,0.078-0.089,0.196-0.177,0.354l-1.421,2.121H150.047z"/>
		<path class="st22" d="M172.877,292.344v0.499c-0.238-0.122-0.489-0.184-0.754-0.184c-0.41,0-0.738,0.183-0.984,0.548
			s-0.369,0.854-0.369,1.467h0.013c0.215-0.437,0.567-0.654,1.058-0.654c0.403,0,0.725,0.129,0.964,0.389
			c0.238,0.259,0.357,0.604,0.357,1.039c0,0.453-0.137,0.823-0.409,1.11c-0.273,0.286-0.62,0.43-1.041,0.43
			c-0.464,0-0.828-0.185-1.093-0.554c-0.264-0.37-0.396-0.889-0.396-1.557c0-0.811,0.173-1.457,0.52-1.94
			c0.346-0.483,0.802-0.725,1.369-0.725C172.433,292.212,172.688,292.256,172.877,292.344z M171.724,294.468
			c-0.272,0-0.494,0.092-0.664,0.276c-0.17,0.186-0.254,0.403-0.254,0.654c0,0.316,0.084,0.586,0.253,0.81
			c0.168,0.223,0.393,0.335,0.672,0.335c0.266,0,0.48-0.098,0.645-0.292c0.163-0.194,0.244-0.44,0.244-0.739
			c0-0.327-0.078-0.582-0.234-0.768C172.228,294.56,172.007,294.468,171.724,294.468z"/>
		<path class="st22" d="M193.227,294.486v-0.013c-0.554-0.258-0.831-0.632-0.831-1.121c0-0.333,0.127-0.606,0.38-0.82
			c0.254-0.214,0.58-0.32,0.979-0.32c0.361,0,0.658,0.1,0.89,0.3c0.232,0.199,0.349,0.456,0.349,0.77
			c0,0.512-0.286,0.909-0.857,1.192v0.013c0.675,0.241,1.012,0.658,1.012,1.251c0,0.382-0.138,0.687-0.412,0.912
			c-0.275,0.226-0.658,0.338-1.147,0.338c-0.396,0-0.721-0.111-0.977-0.335s-0.384-0.514-0.384-0.87
			C192.228,295.189,192.561,294.758,193.227,294.486z M193.652,294.738c-0.589,0.234-0.883,0.573-0.883,1.019
			c0,0.229,0.085,0.418,0.256,0.565c0.171,0.146,0.396,0.221,0.675,0.221c0.267,0,0.484-0.072,0.653-0.218
			c0.168-0.145,0.253-0.328,0.253-0.55C194.606,295.312,194.288,294.966,193.652,294.738z M194.451,293.346
			c0-0.213-0.066-0.38-0.199-0.503c-0.134-0.122-0.315-0.184-0.545-0.184c-0.215,0-0.397,0.064-0.546,0.192
			c-0.149,0.128-0.225,0.29-0.225,0.488c0,0.401,0.251,0.704,0.751,0.908C194.197,294.038,194.451,293.737,194.451,293.346z"/>
	</g>
	<text transform="matrix(1 0 0 1 211.14 296.91)" class="st22 st3 st23">10</text>
	<g class="st21">
		<path class="st22" d="M236.16,296.91h-2.613v-0.464h1.045v-3.59l-1.07,0.318v-0.503l1.598-0.486v4.261h1.041V296.91z"/>
		<path class="st22" d="M239.631,296.91h-2.783v-0.471l1.346-1.35c0.344-0.344,0.59-0.631,0.736-0.859
			c0.148-0.229,0.222-0.473,0.222-0.733c0-0.266-0.077-0.473-0.229-0.618c-0.152-0.146-0.369-0.22-0.65-0.22
			c-0.412,0-0.809,0.177-1.186,0.528v-0.554c0.36-0.281,0.78-0.422,1.26-0.422c0.412,0,0.736,0.111,0.973,0.335
			s0.355,0.523,0.355,0.898c0,0.297-0.082,0.587-0.246,0.869c-0.162,0.282-0.456,0.633-0.879,1.052l-1.066,1.054v0.014h2.148V296.91
			z"/>
	</g>
	<g class="st21">
		<path class="st22" d="M257.49,296.91h-2.613v-0.464h1.044v-3.59l-1.069,0.318v-0.503l1.598-0.486v4.261h1.041V296.91z"/>
		<path class="st22" d="M261.199,295.683h-0.593v1.228h-0.521v-1.228h-2.173v-0.345l2.057-3.049h0.638v2.965h0.593V295.683z
			 M260.085,295.254v-1.998c0-0.142,0.004-0.301,0.013-0.478h-0.013c-0.03,0.078-0.09,0.196-0.178,0.354l-1.421,2.121H260.085z"/>
	</g>
	<g class="st21">
		<path class="st22" d="M279.331,296.91h-2.613v-0.464h1.044v-3.59l-1.07,0.318v-0.503l1.599-0.486v4.261h1.041V296.91z"/>
		<path class="st22" d="M282.718,292.344v0.499c-0.238-0.122-0.49-0.184-0.754-0.184c-0.41,0-0.739,0.183-0.984,0.548
			c-0.246,0.365-0.369,0.854-0.369,1.467h0.013c0.215-0.437,0.567-0.654,1.057-0.654c0.404,0,0.726,0.129,0.964,0.389
			c0.238,0.259,0.357,0.604,0.357,1.039c0,0.453-0.136,0.823-0.409,1.11c-0.272,0.286-0.619,0.43-1.041,0.43
			c-0.464,0-0.828-0.185-1.092-0.554c-0.265-0.37-0.396-0.889-0.396-1.557c0-0.811,0.173-1.457,0.519-1.94s0.803-0.725,1.37-0.725
			C282.273,292.212,282.528,292.256,282.718,292.344z M281.564,294.468c-0.273,0-0.494,0.092-0.664,0.276
			c-0.17,0.186-0.255,0.403-0.255,0.654c0,0.316,0.084,0.586,0.253,0.81c0.169,0.223,0.393,0.335,0.672,0.335
			c0.267,0,0.481-0.098,0.645-0.292s0.245-0.44,0.245-0.739c0-0.327-0.078-0.582-0.235-0.768
			C282.067,294.56,281.848,294.468,281.564,294.468z"/>
	</g>
	<rect x="79.45" y="23.68" class="st24" width="216.34" height="265.1"/>
	<g>
		<defs>
			<rect id="SVGID_3_" x="79.45" y="23.68" width="216.34" height="265.1"/>
		</defs>
		<clipPath id="SVGID_4_">
			<use xlink:href="#SVGID_3_"  style="overflow:visible;"/>
		</clipPath>
		<g class="st25">
			<path class="st26" d="M171.37,288.78V23.68 M138.86,288.78V23.68"/>
		</g>
	</g>
	<path class="st27" d="M234.34,44.51v24.37h-31.49V44.51H234.34 M280.05,56.69h-45.71 M168.34,56.69h34.53 M168.32,44.51v24.37
		 M280.05,44.51v24.37 M219.61,44.51v24.37"/>
	<path d="M293.13,56.82c-0.002,0.74-0.603,1.339-1.343,1.337c-0.738-0.002-1.335-0.599-1.337-1.337
		c0.005-0.742,0.608-1.34,1.35-1.34c0.229-0.001,0.454,0.062,0.65,0.18c0.416,0.238,0.672,0.681,0.67,1.16H293.13z"/>
	<path d="M154,56.82c-0.002,0.74-0.603,1.339-1.343,1.337c-0.738-0.002-1.335-0.599-1.337-1.337c0.005-0.742,0.608-1.34,1.35-1.34
		c0.229-0.001,0.454,0.062,0.65,0.18c0.416,0.238,0.672,0.681,0.67,1.16H154z"/>
	<path class="st28" d="M184.06,77.52v24.37H167.3V77.52H184.06 M205.9,89.7h-21.84 M144.96,89.7h22.34 M145,77.52v24.37
		 M205.9,77.52v24.37 M175.9,77.52v24.37"/>
	<path d="M216.82,90c0,0.74-0.6,1.34-1.34,1.34s-1.34-0.6-1.34-1.34c0-0.74,0.6-1.34,1.34-1.34l0,0
		C216.22,88.66,216.82,89.26,216.82,90z"/>
	<path class="st29" d="M186.09,111v24.38h-29.45V111H186.09 M224.69,123.19h-38.6 M117.53,123.19h39.11 M117.53,111v24.38
		 M224.69,111v24.38 M170.35,111v24.38"/>
	<path d="M234.69,123.1c-0.064,0.737-0.713,1.283-1.451,1.219c-0.649-0.056-1.163-0.571-1.219-1.219
		c0.001-0.481,0.255-0.926,0.67-1.17c0.642-0.368,1.461-0.145,1.829,0.498c0,0.001,0.001,0.002,0.001,0.002
		C234.631,122.636,234.689,122.866,234.69,123.1z"/>
	<path d="M232.52,123.1c-0.064,0.737-0.713,1.283-1.451,1.219c-0.649-0.056-1.163-0.571-1.219-1.219
		c0.001-0.481,0.255-0.926,0.67-1.17c0.642-0.368,1.461-0.145,1.829,0.498c0,0.001,0.001,0.002,0.001,0.002
		C232.461,122.636,232.519,122.866,232.52,123.1z"/>
	<path d="M231.85,123.1c-0.012,0.475-0.264,0.912-0.67,1.16c-0.648,0.358-1.463,0.124-1.821-0.524
		c-0.003-0.005-0.006-0.011-0.009-0.016c-0.111-0.188-0.169-0.402-0.17-0.62c-0.064-0.743,0.486-1.397,1.229-1.461
		c0.743-0.064,1.397,0.486,1.461,1.229c0.007,0.077,0.007,0.155,0,0.232H231.85z"/>
	<path d="M112.1,123.1c-0.064,0.737-0.713,1.283-1.451,1.219c-0.649-0.056-1.163-0.571-1.219-1.219
		c0.001-0.481,0.255-0.926,0.67-1.17c0.642-0.368,1.461-0.145,1.829,0.498c0,0.001,0.001,0.002,0.001,0.002
		C112.041,122.636,112.099,122.866,112.1,123.1z"/>
	<path d="M103.81,123.1c-0.012,0.475-0.264,0.912-0.67,1.16c-0.644,0.365-1.462,0.138-1.826-0.506
		c-0.113-0.199-0.173-0.425-0.174-0.654c0.001-0.481,0.255-0.926,0.67-1.17c0.644-0.365,1.462-0.138,1.826,0.506
		C103.751,122.639,103.811,122.867,103.81,123.1z"/>
	<path class="st30" d="M157.65,144v24.38h-27.42V144H157.65 M198.28,156.19h-40.63 M94.17,156.19h36.06 M94.17,144v24.38
		 M198.28,144v24.38 M143.94,144v24.38"/>
	<path class="st31" d="M162.23,177.05v24.38H146v-24.38h16.26 M184.6,189.24h-22.37 M123.63,189.24H146 M123.66,177.05v24.38
		 M184.6,177.05v24.38 M154.6,177.05v24.38"/>
	<path d="M122.14,189.37c0,0.746-0.604,1.35-1.35,1.35c-0.746,0-1.35-0.604-1.35-1.35c0-0.742,0.598-1.344,1.34-1.35
		c0.243,0.002,0.48,0.068,0.69,0.19C121.883,188.451,122.138,188.892,122.14,189.37z"/>
	<path d="M121.35,189.37c-0.012,0.723-0.609,1.3-1.332,1.287c-0.723-0.012-1.3-0.609-1.287-1.332c0.012-0.723,0.609-1.3,1.332-1.287
		c0.22,0.004,0.436,0.063,0.627,0.172C121.101,188.452,121.352,188.893,121.35,189.37z"/>
	<path d="M120.16,189.37c0.007,0.746-0.592,1.355-1.338,1.362c-0.746,0.007-1.355-0.592-1.362-1.338
		c-0.007-0.746,0.592-1.355,1.338-1.362c0.239-0.002,0.474,0.059,0.682,0.178C119.901,188.444,120.162,188.888,120.16,189.37z"/>
	<path class="st31" d="M162.73,210.06v24.38H146v-24.38h16.76 M183.08,222.25h-20.35 M121.6,222.25H146 M121.6,210.06v24.38
		 M183.05,210.06v24.38 M153.05,210.06v24.38"/>
	<path class="st32" d="M126.17,243.58V268h-15.75v-24.42H126.17 M149.53,255.77h-23.36 M88.08,255.77h22.34 M88.08,243.58V268
		 M149.53,243.62V268 M119.06,243.62V268"/>
	<polyline class="st33" points="79.45,288.78 79.45,23.68 295.79,23.68 295.79,288.78 79.45,288.78 	"/>
	<text transform="matrix(1 0 0 1 149.54 314.11)" class="st2 st3 st4">Li</text>
	<text transform="matrix(1 0 0 1 155.29 314.11)" class="st2 st3 st4">k</text>
	<text transform="matrix(1 0 0 1 159.13 314.11)" class="st2 st3 st4">elihood ratio sco</text>
	<text transform="matrix(1 0 0 1 218.59 314.11)" class="st2 st3 st4">r</text>
	<text transform="matrix(1 0 0 1 221.29 314.11)" class="st2 st3 st4">e</text>
</g>
</svg>
