<svg id="Layer_1" data-name="Layer 1" xmlns="http://www.w3.org/2000/svg" xmlns:xlink="http://www.w3.org/1999/xlink" viewBox="0 0 296.29 313.099"><defs><style>.cls-1,.cls-11,.cls-13,.cls-15,.cls-17,.cls-22,.cls-28,.cls-29,.cls-3,.cls-34,.cls-35,.cls-36,.cls-37,.cls-38,.cls-39,.cls-40,.cls-41,.cls-9{fill:none;}.cls-2{fill:#37b44a;}.cls-3{stroke:#37b44a;}.cls-11,.cls-13,.cls-15,.cls-17,.cls-22,.cls-3,.cls-9{stroke-miterlimit:3;stroke-width:0.32px;}.cls-24,.cls-30,.cls-31,.cls-4,.cls-41{isolation:isolate;}.cls-4{font-size:8.06px;}.cls-25,.cls-4{fill:#010101;}.cls-30,.cls-31,.cls-4{font-family:SegoeUI, Segoe UI;}.cls-5{letter-spacing:-0.055em;}.cls-6{letter-spacing:-0.003em;}.cls-7{letter-spacing:-0.013em;}.cls-8{fill:#5bba47;}.cls-9{stroke:#5bba47;}.cls-10{fill:#93c83e;}.cls-11{stroke:#93c83e;}.cls-12{fill:#dad124;}.cls-13{stroke:#dad124;}.cls-14{fill:#e89724;}.cls-15{stroke:#e89724;}.cls-16{fill:#f15623;}.cls-17{stroke:#f15623;}.cls-18{letter-spacing:-0.013em;}.cls-19{letter-spacing:0em;}.cls-20{letter-spacing:0em;}.cls-21{fill:#ed2224;}.cls-22{stroke:#ed2224;}.cls-23{letter-spacing:-0.05em;}.cls-26{fill:#dedede;}.cls-27{clip-path:url(#clip-path);}.cls-28{stroke:#a6a6a6;}.cls-28,.cls-29,.cls-34,.cls-35,.cls-36,.cls-37,.cls-38,.cls-39,.cls-40,.cls-41{stroke-miterlimit:10;}.cls-29,.cls-34{stroke:#bfbfbf;}.cls-30,.cls-31{font-size:6.6px;fill:#231f20;}.cls-31{letter-spacing:2.8em;}.cls-32{fill:#fff;}.cls-33{clip-path:url(#clip-path-2);}.cls-34{stroke-dasharray:2 2;}.cls-35{stroke:#05765a;}.cls-36{stroke:#1ea149;}.cls-37{stroke:#87c540;}.cls-38{stroke:#d1d033;}.cls-39{stroke:#e77924;}.cls-40{stroke:#ef4351;}.cls-41{stroke:#e6e6e6;opacity:0.05;}</style><clipPath id="clip-path" transform="translate(0 -1.106)"><rect class="cls-1" x="74.37" y="288.78" width="226.5" height="11.17"/></clipPath><clipPath id="clip-path-2" transform="translate(0 -1.106)"><rect class="cls-1" x="79.45" y="23.68" width="216.34" height="265.1"/></clipPath></defs><title>Structures_LR</title><polygon class="cls-2" points="0.85 46.074 0.85 53.464 14.94 53.464 14.94 46.074 0.85 46.074 0.85 46.074"/><rect class="cls-3" x="1.19" y="46.414" width="13.42" height="6.72"/><text class="cls-4" transform="translate(16.64 53.124)"><tspan class="cls-5">T</tspan><tspan class="cls-6" x="3.778" y="0">w</tspan><tspan x="9.579" y="0">o </tspan><tspan class="cls-7" x="16.51" y="0">p</tspan><tspan x="21.142" y="0">a</tspan><tspan class="cls-7" x="25.243" y="0">r</tspan><tspan x="27.938" y="0">ents</tspan></text><polygon class="cls-8" points="0.85 81.824 0.85 89.214 14.94 89.214 14.94 81.824 0.85 81.824 0.85 81.824"/><rect class="cls-9" x="1.19" y="82.154" width="13.42" height="6.71"/><text class="cls-4" transform="translate(16.64 88.874)">Child and spouse</text><polygon class="cls-10" points="0.85 115.514 0.85 122.894 14.94 122.894 14.94 115.514 0.85 115.514 0.85 115.514"/><rect class="cls-11" x="1.19" y="115.844" width="13.42" height="6.71"/><text class="cls-4" transform="translate(16.64 122.564)"><tspan class="cls-5">T</tspan><tspan class="cls-6" x="3.778" y="0">w</tspan><tspan x="9.579" y="0">o siblings</tspan></text><polygon class="cls-12" points="0.85 149.724 0.85 157.104 14.94 157.104 14.94 149.724 0.85 149.724 0.85 149.724"/><rect class="cls-13" x="1.19" y="150.054" width="13.42" height="6.71"/><text class="cls-4" transform="translate(16.64 156.774)">One sibling</text><polygon class="cls-14" points="1.19 184.954 1.19 192.344 15.28 192.344 15.28 184.954 1.19 184.954 1.19 184.954"/><rect class="cls-15" x="1.53" y="185.294" width="13.42" height="6.72"/><text class="cls-4" transform="translate(16.98 192.014)">One child</text><polygon class="cls-16" points="0 216.734 0 224.124 14.09 224.124 14.09 216.734 0 216.734 0 216.734"/><rect class="cls-17" x="0.34" y="217.074" width="13.42" height="6.72"/><text class="cls-4" transform="translate(15.79 223.794)">One <tspan class="cls-18" x="17.061" y="0">p</tspan><tspan class="cls-19" x="21.693" y="0">a</tspan><tspan class="cls-7" x="25.793" y="0">r</tspan><tspan class="cls-20" x="28.489" y="0">ent</tspan></text><polygon class="cls-21" points="0.85 249.344 0.85 256.724 14.94 256.724 14.94 249.344 0.85 249.344 0.85 249.344"/><rect class="cls-22" x="1.19" y="249.674" width="13.42" height="6.72"/><text class="cls-4" transform="translate(16.64 256.394)">Hal<tspan class="cls-23" x="11.775" y="0">f</tspan><tspan x="13.896" y="0">-sibling</tspan></text><g class="cls-24"><path class="cls-25" d="M93.571,8.29V6.716a2.814,2.814,0,0,0,1.864.718,1.257,1.257,0,0,0,.757-.2.617.617,0,0,0,.27-.519.751.751,0,0,0-.226-.518,4.047,4.047,0,0,0-1.082-.647,2.321,2.321,0,0,1-1.612-2.065,1.867,1.867,0,0,1,.7-1.522,2.871,2.871,0,0,1,1.871-.573,4.642,4.642,0,0,1,1.711.271V3.131A2.778,2.778,0,0,0,96.2,2.64a1.2,1.2,0,0,0-.723.2.616.616,0,0,0-.266.517.752.752,0,0,0,.209.536,3.263,3.263,0,0,0,.883.541,4.117,4.117,0,0,1,1.436.988,1.8,1.8,0,0,1,.393,1.161,1.873,1.873,0,0,1-.7,1.539,3.181,3.181,0,0,1-2.038.565A3.806,3.806,0,0,1,93.571,8.29Z" transform="translate(0 -1.106)"/><path class="cls-25" d="M102.918,8.378a3.063,3.063,0,0,1-1.519.3,2.566,2.566,0,0,1-1.878-.7A2.426,2.426,0,0,1,98.8,6.166a2.675,2.675,0,0,1,.769-2.024,2.846,2.846,0,0,1,2.058-.74,2.643,2.643,0,0,1,1.288.236V4.956a1.768,1.768,0,0,0-1.086-.364,1.432,1.432,0,0,0-1.06.391,1.457,1.457,0,0,0-.391,1.079,1.436,1.436,0,0,0,.374,1.05,1.373,1.373,0,0,0,1.027.381,2.047,2.047,0,0,0,1.136-.364Z" transform="translate(0 -1.106)"/><path class="cls-25" d="M106.335,8.683a2.707,2.707,0,0,1-1.979-.706,2.557,2.557,0,0,1-.72-1.915,2.556,2.556,0,0,1,.748-1.954A2.821,2.821,0,0,1,106.4,3.4a2.672,2.672,0,0,1,1.967.706,2.506,2.506,0,0,1,.713,1.866,2.665,2.665,0,0,1-.735,1.982A2.737,2.737,0,0,1,106.335,8.683Zm.04-4.091a1.036,1.036,0,0,0-.855.378,1.669,1.669,0,0,0-.3,1.072q0,1.451,1.17,1.451,1.116,0,1.116-1.49Q107.5,4.592,106.375,4.592Z" transform="translate(0 -1.106)"/><path class="cls-25" d="M113.376,4.926a1.352,1.352,0,0,0-.653-.152.943.943,0,0,0-.792.371,1.623,1.623,0,0,0-.285,1.011v2.4h-1.554V3.525h1.554v.934h.02a1.343,1.343,0,0,1,1.327-1.022,1,1,0,0,1,.383.059Z" transform="translate(0 -1.106)"/><path class="cls-25" d="M118.584,6.485H115.3q.079,1.1,1.382,1.1a2.689,2.689,0,0,0,1.46-.394V8.309a3.835,3.835,0,0,1-1.814.374,2.553,2.553,0,0,1-1.893-.676,2.556,2.556,0,0,1-.674-1.885,2.7,2.7,0,0,1,.728-1.988,2.426,2.426,0,0,1,1.79-.732,2.2,2.2,0,0,1,1.7.654,2.517,2.517,0,0,1,.6,1.776Zm-1.441-.954q0-1.082-.875-1.081a.831.831,0,0,0-.646.309,1.4,1.4,0,0,0-.332.772Z" transform="translate(0 -1.106)"/><path class="cls-25" d="M127.213,8.56h-1.554V7.867h-.019a1.743,1.743,0,0,1-1.559.816,1.908,1.908,0,0,1-1.519-.666,2.754,2.754,0,0,1-.576-1.861,3,3,0,0,1,.635-2,2.067,2.067,0,0,1,1.662-.753,1.415,1.415,0,0,1,1.357.7h.019V1.106h1.554Zm-1.524-2.448V5.733a1.19,1.19,0,0,0-.285-.816.945.945,0,0,0-.743-.325.934.934,0,0,0-.806.406,1.878,1.878,0,0,0-.29,1.114,1.627,1.627,0,0,0,.28,1.022,1,1,0,0,0,1.547-.019A1.581,1.581,0,0,0,125.689,6.112Z" transform="translate(0 -1.106)"/><path class="cls-25" d="M129.308,2.728a.9.9,0,0,1-.644-.233.754.754,0,0,1-.251-.573.726.726,0,0,1,.251-.57,1.049,1.049,0,0,1,1.291,0,.73.73,0,0,1,.248.57.75.75,0,0,1-.248.58A.925.925,0,0,1,129.308,2.728Zm.767,5.832h-1.554V3.525h1.554Z" transform="translate(0 -1.106)"/><path class="cls-25" d="M131.191,8.427V7.168a2.833,2.833,0,0,0,1.44.457q.738,0,.738-.457a.39.39,0,0,0-.177-.329,4.051,4.051,0,0,0-.772-.354,2.171,2.171,0,0,1-.959-.608,1.373,1.373,0,0,1-.27-.872,1.392,1.392,0,0,1,.575-1.166,2.484,2.484,0,0,1,1.539-.437,4.028,4.028,0,0,1,1.249.2V4.8a2.393,2.393,0,0,0-1.229-.344q-.615,0-.615.423a.441.441,0,0,0,.147.344,2.105,2.105,0,0,0,.64.3,2.487,2.487,0,0,1,1.057.617,1.285,1.285,0,0,1,.305.873,1.451,1.451,0,0,1-.583,1.212,2.6,2.6,0,0,1-1.625.45A4.093,4.093,0,0,1,131.191,8.427Z" transform="translate(0 -1.106)"/><path class="cls-25" d="M138.856,8.5a2.284,2.284,0,0,1-1.037.182q-1.643,0-1.643-1.706V4.67h-.816V3.525h.816V2.438L137.726,2V3.525h1.13V4.67h-1.13V6.707q0,.786.624.786a1.039,1.039,0,0,0,.506-.143Z" transform="translate(0 -1.106)"/><path class="cls-25" d="M143.016,4.926a1.356,1.356,0,0,0-.654-.152.945.945,0,0,0-.792.371,1.623,1.623,0,0,0-.285,1.011v2.4h-1.554V3.525h1.554v.934h.02a1.345,1.345,0,0,1,1.328-1.022,1.008,1.008,0,0,1,.383.059Z" transform="translate(0 -1.106)"/><path class="cls-25" d="M144.565,2.728a.906.906,0,0,1-.644-.233.754.754,0,0,1-.251-.573.726.726,0,0,1,.251-.57,1.049,1.049,0,0,1,1.291,0,.73.73,0,0,1,.248.57.75.75,0,0,1-.248.58A.923.923,0,0,1,144.565,2.728Zm.767,5.832h-1.554V3.525h1.554Z" transform="translate(0 -1.106)"/><path class="cls-25" d="M148.213,7.975h-.02V8.56H146.64V1.106h1.553V4.283h.02a1.846,1.846,0,0,1,1.638-.881,1.8,1.8,0,0,1,1.5.669,2.888,2.888,0,0,1,.526,1.829,3.117,3.117,0,0,1-.615,2.02,2,2,0,0,1-1.642.763A1.587,1.587,0,0,1,148.213,7.975Zm-.044-2.124v.516a1.176,1.176,0,0,0,.28.806.912.912,0,0,0,.718.32.955.955,0,0,0,.824-.41,1.986,1.986,0,0,0,.292-1.164,1.578,1.578,0,0,0-.267-.975.9.9,0,0,0-.765-.352.987.987,0,0,0-.775.349A1.326,1.326,0,0,0,148.169,5.851Z" transform="translate(0 -1.106)"/><path class="cls-25" d="M157.669,8.56H156.12V7.793H156.1a1.759,1.759,0,0,1-1.539.89q-1.751,0-1.751-2.119V3.525h1.548v2.9q0,1.066.846,1.067a.836.836,0,0,0,.669-.292,1.183,1.183,0,0,0,.251-.794V3.525h1.549Z" transform="translate(0 -1.106)"/><path class="cls-25" d="M162.021,8.5a2.291,2.291,0,0,1-1.038.182q-1.641,0-1.642-1.706V4.67h-.817V3.525h.817V2.438L160.89,2V3.525h1.131V4.67H160.89V6.707q0,.786.624.786a1.046,1.046,0,0,0,.507-.143Z" transform="translate(0 -1.106)"/><path class="cls-25" d="M163.683,2.728a.908.908,0,0,1-.645-.233.753.753,0,0,1-.25-.573.725.725,0,0,1,.25-.57,1.049,1.049,0,0,1,1.291,0,.727.727,0,0,1,.248.57.746.746,0,0,1-.248.58A.92.92,0,0,1,163.683,2.728Zm.766,5.832H162.9V3.525h1.553Z" transform="translate(0 -1.106)"/><path class="cls-25" d="M168.157,8.683a2.7,2.7,0,0,1-1.979-.706,2.557,2.557,0,0,1-.72-1.915,2.559,2.559,0,0,1,.747-1.954,2.821,2.821,0,0,1,2.021-.706,2.668,2.668,0,0,1,1.966.706,2.506,2.506,0,0,1,.714,1.866,2.665,2.665,0,0,1-.735,1.982A2.737,2.737,0,0,1,168.157,8.683Zm.039-4.091a1.036,1.036,0,0,0-.855.378,1.675,1.675,0,0,0-.305,1.072q0,1.451,1.17,1.451,1.116,0,1.116-1.49Q169.322,4.592,168.2,4.592Z" transform="translate(0 -1.106)"/><path class="cls-25" d="M176.776,8.56h-1.548v-2.8q0-1.17-.836-1.17a.827.827,0,0,0-.664.31,1.179,1.179,0,0,0-.261.787V8.56h-1.554V3.525h1.554v.8h.02A1.778,1.778,0,0,1,175.1,3.4q1.672,0,1.672,2.075Z" transform="translate(0 -1.106)"/><path class="cls-25" d="M182.357,7.975h-.02V8.56h-1.554V1.106h1.554V4.283h.02a1.843,1.843,0,0,1,1.637-.881,1.8,1.8,0,0,1,1.5.669,2.882,2.882,0,0,1,.527,1.829,3.118,3.118,0,0,1-.616,2.02,2,2,0,0,1-1.641.763A1.587,1.587,0,0,1,182.357,7.975Zm-.045-2.124v.516a1.176,1.176,0,0,0,.281.806.914.914,0,0,0,.718.32.956.956,0,0,0,.824-.41,1.994,1.994,0,0,0,.292-1.164,1.572,1.572,0,0,0-.268-.975.9.9,0,0,0-.764-.352.987.987,0,0,0-.775.349A1.327,1.327,0,0,0,182.312,5.851Z" transform="translate(0 -1.106)"/><path class="cls-25" d="M191.822,3.525l-2.046,5.438q-.737,1.962-2.221,1.962a2.855,2.855,0,0,1-.93-.128V9.558a1.311,1.311,0,0,0,.674.182.843.843,0,0,0,.836-.566l.265-.624-2.046-5.025h1.721l.94,3.063a4.133,4.133,0,0,1,.137.674h.02a4.742,4.742,0,0,1,.162-.664l.949-3.073Z" transform="translate(0 -1.106)"/><path class="cls-25" d="M196.8,7.975h-.021v2.9h-1.553V3.525h1.553v.758h.021a1.975,1.975,0,0,1,3.129-.209,2.852,2.852,0,0,1,.534,1.826,3.1,3.1,0,0,1-.622,2.02,2.028,2.028,0,0,1-1.655.763A1.565,1.565,0,0,1,196.8,7.975Zm-.045-2.065v.4a1.285,1.285,0,0,0,.275.851.9.9,0,0,0,.723.329.955.955,0,0,0,.824-.41,1.986,1.986,0,0,0,.292-1.164q0-1.326-1.032-1.327a.966.966,0,0,0-.779.362A1.438,1.438,0,0,0,196.754,5.91Z" transform="translate(0 -1.106)"/><path class="cls-25" d="M205.993,6.485h-3.284q.078,1.1,1.382,1.1a2.691,2.691,0,0,0,1.46-.394V8.309a3.842,3.842,0,0,1-1.815.374,2.55,2.55,0,0,1-1.892-.676,2.556,2.556,0,0,1-.674-1.885,2.7,2.7,0,0,1,.727-1.988,2.428,2.428,0,0,1,1.791-.732,2.2,2.2,0,0,1,1.7.654,2.521,2.521,0,0,1,.6,1.776Zm-1.44-.954q0-1.082-.875-1.081a.833.833,0,0,0-.647.309,1.4,1.4,0,0,0-.332.772Z" transform="translate(0 -1.106)"/><path class="cls-25" d="M211.845,8.56h-1.554V7.867h-.02a1.742,1.742,0,0,1-1.558.816,1.91,1.91,0,0,1-1.52-.666,2.759,2.759,0,0,1-.575-1.861,3,3,0,0,1,.634-2,2.069,2.069,0,0,1,1.662-.753,1.414,1.414,0,0,1,1.357.7h.02V1.106h1.554ZM210.32,6.112V5.733a1.186,1.186,0,0,0-.285-.816A1.007,1.007,0,0,0,208.486,5a1.885,1.885,0,0,0-.29,1.114,1.627,1.627,0,0,0,.281,1.022,1,1,0,0,0,1.546-.019A1.575,1.575,0,0,0,210.32,6.112Z" transform="translate(0 -1.106)"/><path class="cls-25" d="M213.939,2.728A.906.906,0,0,1,213.3,2.5a.754.754,0,0,1-.251-.573.726.726,0,0,1,.251-.57,1.049,1.049,0,0,1,1.291,0,.73.73,0,0,1,.248.57.75.75,0,0,1-.248.58A.925.925,0,0,1,213.939,2.728Zm.767,5.832h-1.554V3.525h1.554Z" transform="translate(0 -1.106)"/><path class="cls-25" d="M220.951,7.985a2.85,2.85,0,0,1-.811,2.171,3.294,3.294,0,0,1-2.351.769,3.71,3.71,0,0,1-1.612-.29V9.327a3.09,3.09,0,0,0,1.568.453,1.687,1.687,0,0,0,1.219-.416,1.49,1.49,0,0,0,.432-1.128v-.4h-.019a1.735,1.735,0,0,1-1.568.846A1.886,1.886,0,0,1,216.279,8a2.749,2.749,0,0,1-.565-1.819,3.06,3.06,0,0,1,.63-2.03A2.052,2.052,0,0,1,218,3.4a1.529,1.529,0,0,1,1.376.708h.019V3.525h1.555Zm-1.534-1.844v-.4a1.226,1.226,0,0,0-.283-.814.918.918,0,0,0-.736-.337.946.946,0,0,0-.81.4,1.89,1.89,0,0,0-.295,1.135,1.6,1.6,0,0,0,.28,1,.913.913,0,0,0,.767.367.948.948,0,0,0,.779-.371A1.524,1.524,0,0,0,219.417,6.141Z" transform="translate(0 -1.106)"/><path class="cls-25" d="M225.533,4.926a1.349,1.349,0,0,0-.653-.152.943.943,0,0,0-.792.371,1.617,1.617,0,0,0-.285,1.011v2.4h-1.554V3.525H223.8v.934h.019a1.345,1.345,0,0,1,1.328-1.022,1.008,1.008,0,0,1,.383.059Z" transform="translate(0 -1.106)"/><path class="cls-25" d="M230.74,6.485h-3.284q.078,1.1,1.382,1.1a2.691,2.691,0,0,0,1.46-.394V8.309a3.839,3.839,0,0,1-1.815.374,2.55,2.55,0,0,1-1.892-.676,2.556,2.556,0,0,1-.674-1.885,2.7,2.7,0,0,1,.728-1.988,2.426,2.426,0,0,1,1.79-.732,2.2,2.2,0,0,1,1.7.654,2.521,2.521,0,0,1,.6,1.776Zm-1.44-.954q0-1.082-.875-1.081a.833.833,0,0,0-.647.309,1.4,1.4,0,0,0-.332.772Z" transform="translate(0 -1.106)"/><path class="cls-25" d="M236.188,6.485H232.9q.078,1.1,1.382,1.1a2.691,2.691,0,0,0,1.46-.394V8.309a3.838,3.838,0,0,1-1.814.374,2.551,2.551,0,0,1-1.893-.676,2.556,2.556,0,0,1-.674-1.885,2.7,2.7,0,0,1,.728-1.988,2.426,2.426,0,0,1,1.79-.732,2.2,2.2,0,0,1,1.7.654,2.521,2.521,0,0,1,.6,1.776Zm-1.44-.954q0-1.082-.875-1.081a.83.83,0,0,0-.646.309,1.4,1.4,0,0,0-.332.772Z" transform="translate(0 -1.106)"/><path class="cls-25" d="M239.7,8.427V7.168a2.837,2.837,0,0,0,1.441.457q.738,0,.738-.457a.391.391,0,0,0-.178-.329,4.032,4.032,0,0,0-.771-.354,2.166,2.166,0,0,1-.959-.608,1.367,1.367,0,0,1-.271-.872,1.394,1.394,0,0,1,.575-1.166,2.486,2.486,0,0,1,1.539-.437,4.028,4.028,0,0,1,1.249.2V4.8a2.39,2.39,0,0,0-1.229-.344q-.613,0-.614.423a.441.441,0,0,0,.147.344,2.109,2.109,0,0,0,.639.3,2.487,2.487,0,0,1,1.057.617,1.28,1.28,0,0,1,.3.873,1.452,1.452,0,0,1-.582,1.212,2.607,2.607,0,0,1-1.626.45A4.1,4.1,0,0,1,239.7,8.427Z" transform="translate(0 -1.106)"/><path class="cls-25" d="M247.365,8.5a2.288,2.288,0,0,1-1.038.182q-1.642,0-1.642-1.706V4.67h-.816V3.525h.816V2.438L246.234,2V3.525h1.131V4.67h-1.131V6.707q0,.786.624.786a1.046,1.046,0,0,0,.507-.143Z" transform="translate(0 -1.106)"/><path class="cls-25" d="M251.524,4.926a1.349,1.349,0,0,0-.653-.152.945.945,0,0,0-.792.371,1.623,1.623,0,0,0-.285,1.011v2.4H248.24V3.525h1.554v.934h.019a1.346,1.346,0,0,1,1.329-1.022,1,1,0,0,1,.382.059Z" transform="translate(0 -1.106)"/><path class="cls-25" d="M257.061,8.56h-1.549V7.793h-.025a1.757,1.757,0,0,1-1.539.89q-1.751,0-1.75-2.119V3.525h1.549v2.9q0,1.066.846,1.067a.839.839,0,0,0,.669-.292,1.182,1.182,0,0,0,.25-.794V3.525h1.549Z" transform="translate(0 -1.106)"/><path class="cls-25" d="M262.185,8.378a3.067,3.067,0,0,1-1.52.3,2.569,2.569,0,0,1-1.878-.7,2.43,2.43,0,0,1-.718-1.814,2.672,2.672,0,0,1,.77-2.024A2.843,2.843,0,0,1,260.9,3.4a2.65,2.65,0,0,1,1.289.236V4.956a1.771,1.771,0,0,0-1.087-.364,1.432,1.432,0,0,0-1.06.391,1.457,1.457,0,0,0-.391,1.079,1.436,1.436,0,0,0,.374,1.05,1.376,1.376,0,0,0,1.028.381,2.049,2.049,0,0,0,1.136-.364Z" transform="translate(0 -1.106)"/><path class="cls-25" d="M266.246,8.5a2.284,2.284,0,0,1-1.037.182q-1.643,0-1.643-1.706V4.67h-.816V3.525h.816V2.438L265.115,2V3.525h1.131V4.67h-1.131V6.707q0,.786.624.786a1.046,1.046,0,0,0,.507-.143Z" transform="translate(0 -1.106)"/><path class="cls-25" d="M271.9,8.56h-1.549V7.793h-.024a1.758,1.758,0,0,1-1.539.89q-1.751,0-1.751-2.119V3.525h1.549v2.9q0,1.066.846,1.067a.834.834,0,0,0,.668-.292,1.183,1.183,0,0,0,.251-.794V3.525H271.9Z" transform="translate(0 -1.106)"/><path class="cls-25" d="M276.5,4.926a1.356,1.356,0,0,0-.654-.152.943.943,0,0,0-.792.371,1.623,1.623,0,0,0-.285,1.011v2.4h-1.554V3.525h1.554v.934h.02a1.344,1.344,0,0,1,1.327-1.022,1.01,1.01,0,0,1,.384.059Z" transform="translate(0 -1.106)"/><path class="cls-25" d="M281.705,6.485h-3.284q.078,1.1,1.382,1.1a2.693,2.693,0,0,0,1.46-.394V8.309a3.842,3.842,0,0,1-1.815.374,2.55,2.55,0,0,1-1.892-.676,2.552,2.552,0,0,1-.674-1.885,2.7,2.7,0,0,1,.727-1.988A2.427,2.427,0,0,1,279.4,3.4a2.2,2.2,0,0,1,1.7.654,2.521,2.521,0,0,1,.6,1.776Zm-1.44-.954q0-1.082-.875-1.081a.833.833,0,0,0-.647.309,1.4,1.4,0,0,0-.332.772Z" transform="translate(0 -1.106)"/></g><rect class="cls-26" x="79.45" y="22.574" width="216.34" height="265.1"/><g class="cls-27"><path class="cls-28" d="M95.7,288.78v1.52m21.83-1.52v1.52m21.33-1.52v1.52m21.84-1.52v1.52m21.3-1.52v1.52m21.84-1.52v1.52m21.84-1.52v1.52M247,288.78v1.52m21.83-1.52v1.52m21.33-1.52v1.52M85,288.78v3.05m21.33-3.05v3.05m21.84-3.05v3.05m21.33-3.05v3.05m21.84-3.05v3.05m21.83-3.05v3.05m21.33-3.05v3.05m21.84-3.05v3.05m21.33-3.05v3.05m21.84-3.05v3.05" transform="translate(0 -1.106)"/><path class="cls-29" d="M138.86,288.78v3.05m32.51-3.05v3.05" transform="translate(0 -1.106)"/></g><text class="cls-30" transform="translate(82.33 295.804)">-2</text><text class="cls-31" transform="translate(104.67 295.804)">02</text><text class="cls-31" transform="translate(147.83 295.804)">468</text><text class="cls-30" transform="translate(211.14 295.804)">10</text><text class="cls-30" transform="translate(232.98 295.804)">12</text><text class="cls-30" transform="translate(254.31 295.804)">14</text><text class="cls-30" transform="translate(276.15 295.804)">16</text><rect class="cls-32" x="79.45" y="22.574" width="216.34" height="265.1"/><g class="cls-33"><path class="cls-34" d="M171.37,288.78V23.68m-32.51,265.1V23.68" transform="translate(0 -1.106)"/></g><path class="cls-35" d="M234.34,44.51V68.88H202.85V44.51h31.49m45.71,12.18H234.34m-66,0h34.53M168.32,44.51V68.88M280.05,44.51V68.88M219.61,44.51V68.88" transform="translate(0 -1.106)"/><path d="M293.13,56.82a.776.776,0,1,0-.01,0Z" transform="translate(0 -1.106)"/><path d="M154,56.82a.776.776,0,1,0-.01,0Z" transform="translate(0 -1.106)"/><path class="cls-36" d="M184.06,77.52v24.37H167.3V77.52h16.76M205.9,89.7H184.06m-39.1,0H167.3M145,77.52v24.37m60.9-24.37v24.37m-30-24.37v24.37" transform="translate(0 -1.106)"/><path d="M216.82,90a1.341,1.341,0,1,1-.67-1.16A1.339,1.339,0,0,1,216.82,90Z" transform="translate(0 -1.106)"/><path class="cls-37" d="M186.09,111v24.38H156.64V111h29.45m38.6,12.19h-38.6m-68.56,0h39.11M117.53,111v24.38M224.69,111v24.38M170.35,111v24.38" transform="translate(0 -1.106)"/><path d="M234.69,123.1a1.34,1.34,0,1,1-.174-.664A1.333,1.333,0,0,1,234.69,123.1Z" transform="translate(0 -1.106)"/><path d="M232.52,123.1a1.34,1.34,0,1,1-.174-.664A1.333,1.333,0,0,1,232.52,123.1Z" transform="translate(0 -1.106)"/><path d="M231.85,123.1a1.37,1.37,0,0,1-.67,1.16,1.338,1.338,0,1,1,.69-1.16Z" transform="translate(0 -1.106)"/><path d="M112.1,123.1a1.34,1.34,0,1,1-.174-.664A1.333,1.333,0,0,1,112.1,123.1Z" transform="translate(0 -1.106)"/><path d="M103.81,123.1a1.37,1.37,0,0,1-.67,1.16,1.34,1.34,0,0,1-2-1.16,1.36,1.36,0,0,1,.67-1.17,1.34,1.34,0,0,1,2.01,1.17Z" transform="translate(0 -1.106)"/><path class="cls-38" d="M157.65,144v24.38H130.23V144h27.42m40.63,12.19H157.65m-63.48,0h36.06M94.17,144v24.38M198.28,144v24.38M143.94,144v24.38" transform="translate(0 -1.106)"/><path class="cls-39" d="M162.23,177.05v24.38H146V177.05h16.26m22.34,12.19H162.23m-38.6,0H146m-22.34-12.19v24.38m60.94-24.38v24.38m-30-24.38v24.38" transform="translate(0 -1.106)"/><path d="M122.14,189.37a1.351,1.351,0,1,1-.67-1.16A1.349,1.349,0,0,1,122.14,189.37Z" transform="translate(0 -1.106)"/><path d="M121.35,189.37a.771.771,0,1,1,.01,0Z" transform="translate(0 -1.106)"/><path d="M120.16,189.37a1.35,1.35,0,1,1-.68-1.16A1.35,1.35,0,0,1,120.16,189.37Z" transform="translate(0 -1.106)"/><path class="cls-39" d="M162.73,210.06v24.38H146V210.06h16.76m20.32,12.19H162.73m-41.13,0H146m-24.4-12.19v24.38m61.45-24.38v24.38m-30-24.38v24.38" transform="translate(0 -1.106)"/><path class="cls-40" d="M126.17,243.58V268H110.42V243.58h15.75m23.36,12.19H126.17m-38.09,0h22.34M88.08,243.58V268m61.45-24.38V268m-30.47-24.38V268" transform="translate(0 -1.106)"/><polyline class="cls-41" points="79.45 287.674 79.45 22.574 295.79 22.574 295.79 287.674 79.45 287.674"/><g class="cls-24"><path class="cls-25" d="M153.208,314.11h-2.929v-5.643h.661v5.045h2.268Z" transform="translate(0 -1.106)"/><path class="cls-25" d="M154.374,309.057a.406.406,0,0,1-.295-.118.4.4,0,0,1-.122-.3.413.413,0,0,1,.417-.421.417.417,0,0,1,.3.12.421.421,0,0,1,0,.6A.414.414,0,0,1,154.374,309.057Zm.314,5.053h-.645v-4.03h.645Z" transform="translate(0 -1.106)"/><path class="cls-25" d="M159.4,314.11h-.905l-1.779-1.936H156.7v1.936h-.645v-5.965h.645v3.781h.016l1.692-1.846h.847l-1.87,1.944Z" transform="translate(0 -1.106)"/><path class="cls-25" d="M163.192,312.257h-2.845a1.51,1.51,0,0,0,.362,1.039,1.246,1.246,0,0,0,.952.366,1.983,1.983,0,0,0,1.252-.449v.606a2.338,2.338,0,0,1-1.405.386,1.705,1.705,0,0,1-1.342-.549,2.249,2.249,0,0,1-.488-1.545,2.2,2.2,0,0,1,.533-1.533,1.712,1.712,0,0,1,1.324-.592,1.518,1.518,0,0,1,1.225.511,2.139,2.139,0,0,1,.432,1.421Zm-.661-.547a1.32,1.32,0,0,0-.269-.87.921.921,0,0,0-.739-.311,1.047,1.047,0,0,0-.775.326,1.489,1.489,0,0,0-.394.855Z" transform="translate(0 -1.106)"/><path class="cls-25" d="M164.87,314.11h-.645v-5.965h.645Z" transform="translate(0 -1.106)"/><path class="cls-25" d="M166.563,309.057a.405.405,0,0,1-.294-.118.4.4,0,0,1-.123-.3.408.408,0,0,1,.123-.3.4.4,0,0,1,.294-.12.418.418,0,0,1,.3.12.424.424,0,0,1,0,.6A.415.415,0,0,1,166.563,309.057Zm.316,5.053h-.646v-4.03h.646Z" transform="translate(0 -1.106)"/><path class="cls-25" d="M171.587,314.11h-.646v-2.322q0-1.259-.936-1.259a1.018,1.018,0,0,0-.795.364,1.353,1.353,0,0,0-.323.935v2.282h-.646v-5.965h.646v2.6h.015a1.467,1.467,0,0,1,1.323-.763q1.362,0,1.362,1.641Z" transform="translate(0 -1.106)"/><path class="cls-25" d="M174.544,314.205a1.869,1.869,0,0,1-1.427-.565,2.092,2.092,0,0,1-.533-1.5,2.178,2.178,0,0,1,.555-1.586,1.992,1.992,0,0,1,1.5-.571,1.808,1.808,0,0,1,1.407.555,2.2,2.2,0,0,1,.506,1.539,2.165,2.165,0,0,1-.545,1.544A1.906,1.906,0,0,1,174.544,314.205Zm.047-3.676a1.232,1.232,0,0,0-.985.423,1.739,1.739,0,0,0-.361,1.167,1.645,1.645,0,0,0,.365,1.129,1.245,1.245,0,0,0,.981.414,1.18,1.18,0,0,0,.962-.406,1.758,1.758,0,0,0,.337-1.152,1.794,1.794,0,0,0-.337-1.166A1.173,1.173,0,0,0,174.591,310.529Z" transform="translate(0 -1.106)"/><path class="cls-25" d="M179.323,314.205a1.87,1.87,0,0,1-1.427-.565,2.092,2.092,0,0,1-.533-1.5,2.178,2.178,0,0,1,.555-1.586,1.992,1.992,0,0,1,1.5-.571,1.807,1.807,0,0,1,1.407.555,2.2,2.2,0,0,1,.506,1.539,2.165,2.165,0,0,1-.545,1.544A1.905,1.905,0,0,1,179.323,314.205Zm.047-3.676a1.228,1.228,0,0,0-.984.423,1.74,1.74,0,0,0-.362,1.167,1.64,1.64,0,0,0,.366,1.129,1.243,1.243,0,0,0,.98.414,1.18,1.18,0,0,0,.962-.406,1.753,1.753,0,0,0,.337-1.152,1.788,1.788,0,0,0-.337-1.166A1.173,1.173,0,0,0,179.37,310.529Z" transform="translate(0 -1.106)"/><path class="cls-25" d="M185.856,314.11h-.644v-.684H185.2a1.489,1.489,0,0,1-1.384.779,1.5,1.5,0,0,1-1.214-.541,2.216,2.216,0,0,1-.455-1.475,2.412,2.412,0,0,1,.5-1.6,1.661,1.661,0,0,1,1.341-.6,1.291,1.291,0,0,1,1.208.654h.017v-2.5h.644Zm-.644-1.822v-.594a1.155,1.155,0,0,0-.323-.827,1.086,1.086,0,0,0-.819-.338,1.112,1.112,0,0,0-.928.433,1.894,1.894,0,0,0-.339,1.2,1.707,1.707,0,0,0,.325,1.1,1.062,1.062,0,0,0,.871.4,1.1,1.1,0,0,0,.876-.39A1.446,1.446,0,0,0,185.212,312.288Z" transform="translate(0 -1.106)"/><path class="cls-25" d="M191.586,310.733a.793.793,0,0,0-.488-.129.822.822,0,0,0-.691.389,1.8,1.8,0,0,0-.277,1.063v2.054h-.646v-4.03h.646v.831h.016a1.4,1.4,0,0,1,.42-.663.961.961,0,0,1,.634-.238,1.078,1.078,0,0,1,.386.054Z" transform="translate(0 -1.106)"/><path class="cls-25" d="M195.228,314.11h-.646v-.63h-.016a1.348,1.348,0,0,1-1.239.725,1.321,1.321,0,0,1-.942-.319,1.1,1.1,0,0,1-.341-.846q0-1.13,1.33-1.314l1.208-.169q0-1.029-.83-1.028a1.984,1.984,0,0,0-1.314.5v-.661a2.5,2.5,0,0,1,1.369-.377q1.421,0,1.421,1.5Zm-.646-2.039-.972.134a1.568,1.568,0,0,0-.676.223.639.639,0,0,0-.229.564.614.614,0,0,0,.211.483.811.811,0,0,0,.561.187,1.035,1.035,0,0,0,.793-.337,1.2,1.2,0,0,0,.312-.851Z" transform="translate(0 -1.106)"/><path class="cls-25" d="M198.369,314.071a1.237,1.237,0,0,1-.6.126q-1.059,0-1.059-1.18v-2.386h-.692v-.551h.692V309.1l.645-.209v1.192h1.015v.551h-1.015V312.9a.936.936,0,0,0,.138.578.548.548,0,0,0,.456.174.677.677,0,0,0,.421-.134Z" transform="translate(0 -1.106)"/><path class="cls-25" d="M199.618,309.057a.407.407,0,0,1-.295-.118.4.4,0,0,1-.122-.3.413.413,0,0,1,.417-.421.42.42,0,0,1,.3.12.424.424,0,0,1,0,.6A.417.417,0,0,1,199.618,309.057Zm.316,5.053h-.646v-4.03h.646Z" transform="translate(0 -1.106)"/><path class="cls-25" d="M202.98,314.205a1.866,1.866,0,0,1-1.426-.565,2.087,2.087,0,0,1-.533-1.5,2.182,2.182,0,0,1,.554-1.586,1.994,1.994,0,0,1,1.5-.571,1.807,1.807,0,0,1,1.407.555,2.2,2.2,0,0,1,.5,1.539,2.16,2.16,0,0,1-.545,1.544A1.905,1.905,0,0,1,202.98,314.205Zm.047-3.676a1.226,1.226,0,0,0-.983.423,1.74,1.74,0,0,0-.362,1.167,1.64,1.64,0,0,0,.366,1.129,1.241,1.241,0,0,0,.979.414,1.181,1.181,0,0,0,.963-.406,1.758,1.758,0,0,0,.336-1.152,1.794,1.794,0,0,0-.336-1.166A1.174,1.174,0,0,0,203.027,310.529Z" transform="translate(0 -1.106)"/><path class="cls-25" d="M208.1,313.965v-.693a1.906,1.906,0,0,0,1.161.39q.849,0,.849-.567a.5.5,0,0,0-.072-.274.741.741,0,0,0-.2-.2,1.554,1.554,0,0,0-.291-.156c-.111-.045-.232-.094-.36-.144a4.231,4.231,0,0,1-.47-.214,1.4,1.4,0,0,1-.339-.244.908.908,0,0,1-.205-.308,1.1,1.1,0,0,1-.068-.407.959.959,0,0,1,.129-.5,1.175,1.175,0,0,1,.347-.366,1.605,1.605,0,0,1,.493-.222,2.192,2.192,0,0,1,.573-.075,2.307,2.307,0,0,1,.937.181v.653a1.828,1.828,0,0,0-1.023-.291,1.214,1.214,0,0,0-.327.041.814.814,0,0,0-.25.117.527.527,0,0,0-.162.178.476.476,0,0,0-.056.231.55.55,0,0,0,.056.263.565.565,0,0,0,.168.189,1.223,1.223,0,0,0,.268.15c.1.044.223.093.357.146a4.73,4.73,0,0,1,.481.21,1.647,1.647,0,0,1,.362.244.961.961,0,0,1,.231.313,1.02,1.02,0,0,1,.08.421,1,1,0,0,1-.132.52,1.148,1.148,0,0,1-.352.366,1.607,1.607,0,0,1-.508.216,2.463,2.463,0,0,1-.6.071A2.286,2.286,0,0,1,208.1,313.965Z" transform="translate(0 -1.106)"/><path class="cls-25" d="M214.563,313.926a2.105,2.105,0,0,1-1.1.279,1.825,1.825,0,0,1-1.391-.561,2.032,2.032,0,0,1-.529-1.455,2.231,2.231,0,0,1,.57-1.6,2,2,0,0,1,1.524-.6,2.123,2.123,0,0,1,.936.2v.661a1.643,1.643,0,0,0-.961-.315,1.3,1.3,0,0,0-1.012.443,1.677,1.677,0,0,0-.4,1.163,1.6,1.6,0,0,0,.372,1.117,1.279,1.279,0,0,0,1,.41,1.619,1.619,0,0,0,.992-.35Z" transform="translate(0 -1.106)"/><path class="cls-25" d="M217.28,314.205a1.866,1.866,0,0,1-1.426-.565,2.088,2.088,0,0,1-.534-1.5,2.178,2.178,0,0,1,.555-1.586,1.992,1.992,0,0,1,1.5-.571,1.807,1.807,0,0,1,1.407.555,2.2,2.2,0,0,1,.506,1.539,2.165,2.165,0,0,1-.545,1.544A1.905,1.905,0,0,1,217.28,314.205Zm.047-3.676a1.228,1.228,0,0,0-.984.423,1.74,1.74,0,0,0-.362,1.167,1.645,1.645,0,0,0,.366,1.129,1.243,1.243,0,0,0,.98.414,1.18,1.18,0,0,0,.962-.406,1.753,1.753,0,0,0,.337-1.152,1.788,1.788,0,0,0-.337-1.166A1.173,1.173,0,0,0,217.327,310.529Z" transform="translate(0 -1.106)"/><path class="cls-25" d="M222.476,310.733a.8.8,0,0,0-.488-.129.822.822,0,0,0-.691.389,1.8,1.8,0,0,0-.277,1.063v2.054h-.646v-4.03h.646v.831h.015a1.408,1.408,0,0,1,.421-.663.961.961,0,0,1,.634-.238,1.074,1.074,0,0,1,.386.054Z" transform="translate(0 -1.106)"/><path class="cls-25" d="M226.365,312.257h-2.844a1.5,1.5,0,0,0,.361,1.039,1.25,1.25,0,0,0,.953.366,1.979,1.979,0,0,0,1.251-.449v.606a2.337,2.337,0,0,1-1.4.386,1.707,1.707,0,0,1-1.343-.549,2.249,2.249,0,0,1-.487-1.545,2.2,2.2,0,0,1,.533-1.533,1.712,1.712,0,0,1,1.324-.592,1.515,1.515,0,0,1,1.224.511,2.133,2.133,0,0,1,.432,1.421Zm-.661-.547a1.31,1.31,0,0,0-.269-.87.919.919,0,0,0-.738-.311,1.044,1.044,0,0,0-.775.326,1.483,1.483,0,0,0-.394.855Z" transform="translate(0 -1.106)"/></g></svg>