<svg id="Layer_1" data-name="Layer 1" xmlns="http://www.w3.org/2000/svg" xmlns:xlink="http://www.w3.org/1999/xlink" viewBox="0 0 296.29 316.13"><defs><style>.cls-1,.cls-11,.cls-13,.cls-15,.cls-17,.cls-22,.cls-3,.cls-32,.cls-33,.cls-38,.cls-39,.cls-40,.cls-41,.cls-42,.cls-43,.cls-44,.cls-45,.cls-9{fill:none;}.cls-2{fill:#37b44a;}.cls-3{stroke:#37b44a;}.cls-11,.cls-13,.cls-15,.cls-17,.cls-22,.cls-3,.cls-9{stroke-miterlimit:3;stroke-width:0.32px;}.cls-24,.cls-34,.cls-35,.cls-4,.cls-45,.cls-46{isolation:isolate;}.cls-4,.cls-46{font-size:8.06px;}.cls-24,.cls-4,.cls-46{fill:#010101;}.cls-34,.cls-35,.cls-4,.cls-46{font-family:SegoeUI, Segoe UI;}.cls-5{letter-spacing:-0.055em;}.cls-6{letter-spacing:-0.003em;}.cls-7{letter-spacing:-0.013em;}.cls-8{fill:#5bba47;}.cls-9{stroke:#5bba47;}.cls-10{fill:#93c83e;}.cls-11{stroke:#93c83e;}.cls-12{fill:#dad124;}.cls-13{stroke:#dad124;}.cls-14{fill:#e89724;}.cls-15{stroke:#e89724;}.cls-16{fill:#f15623;}.cls-17{stroke:#f15623;}.cls-18{letter-spacing:-0.013em;}.cls-19{letter-spacing:0em;}.cls-20{letter-spacing:0em;}.cls-21{fill:#ed2224;}.cls-22{stroke:#ed2224;}.cls-23{letter-spacing:-0.05em;}.cls-24{font-size:10.07px;font-family:SegoeUI-Bold, Segoe UI;font-weight:700;}.cls-25{letter-spacing:-0.004em;}.cls-26{letter-spacing:0em;}.cls-27{letter-spacing:0.004em;}.cls-28{letter-spacing:-0.004em;}.cls-29{letter-spacing:0.003em;}.cls-30{fill:#dedede;}.cls-31{clip-path:url(#clip-path);}.cls-32{stroke:#a6a6a6;}.cls-32,.cls-33,.cls-38,.cls-39,.cls-40,.cls-41,.cls-42,.cls-43,.cls-44,.cls-45{stroke-miterlimit:10;}.cls-33,.cls-38{stroke:#bfbfbf;}.cls-34,.cls-35{font-size:6.6px;fill:#231f20;}.cls-35{letter-spacing:2.8em;}.cls-36{fill:#fff;}.cls-37{clip-path:url(#clip-path-2);}.cls-38{stroke-dasharray:2 2;}.cls-39{stroke:#05765a;}.cls-40{stroke:#1ea149;}.cls-41{stroke:#87c540;}.cls-42{stroke:#d1d033;}.cls-43{stroke:#e77924;}.cls-44{stroke:#ef4351;}.cls-45{stroke:#e6e6e6;opacity:0.05;}.cls-46{letter-spacing:0.007em;}.cls-47{letter-spacing:-0.013em;}.cls-48{letter-spacing:0.007em;}.cls-49{letter-spacing:-0.006em;}</style><clipPath id="clip-path" transform="translate(0 -0.002)"><rect class="cls-1" x="74.37" y="288.78" width="226.5" height="11.17"/></clipPath><clipPath id="clip-path-2" transform="translate(0 -0.002)"><rect class="cls-1" x="79.45" y="23.68" width="216.34" height="265.1"/></clipPath></defs><title>Structures_LR</title><polygon class="cls-2" points="0.85 47.178 0.85 54.568 14.94 54.568 14.94 47.178 0.85 47.178 0.85 47.178"/><rect class="cls-3" x="1.19" y="47.518" width="13.42" height="6.72"/><text class="cls-4" transform="translate(16.64 54.228)"><tspan class="cls-5">T</tspan><tspan class="cls-6" x="3.778" y="0">w</tspan><tspan x="9.579" y="0">o </tspan><tspan class="cls-7" x="16.51" y="0">p</tspan><tspan x="21.142" y="0">a</tspan><tspan class="cls-7" x="25.243" y="0">r</tspan><tspan x="27.938" y="0">ents</tspan></text><polygon class="cls-8" points="0.85 82.928 0.85 90.318 14.94 90.318 14.94 82.928 0.85 82.928 0.85 82.928"/><rect class="cls-9" x="1.19" y="83.258" width="13.42" height="6.71"/><text class="cls-4" transform="translate(16.64 89.978)">Child and spouse</text><polygon class="cls-10" points="0.85 116.618 0.85 123.998 14.94 123.998 14.94 116.618 0.85 116.618 0.85 116.618"/><rect class="cls-11" x="1.19" y="116.948" width="13.42" height="6.71"/><text class="cls-4" transform="translate(16.64 123.668)"><tspan class="cls-5">T</tspan><tspan class="cls-6" x="3.778" y="0">w</tspan><tspan x="9.579" y="0">o siblings</tspan></text><polygon class="cls-12" points="0.85 150.828 0.85 158.208 14.94 158.208 14.94 150.828 0.85 150.828 0.85 150.828"/><rect class="cls-13" x="1.19" y="151.158" width="13.42" height="6.71"/><text class="cls-4" transform="translate(16.64 157.878)">One sibling</text><polygon class="cls-14" points="1.19 186.058 1.19 193.448 15.28 193.448 15.28 186.058 1.19 186.058 1.19 186.058"/><rect class="cls-15" x="1.53" y="186.398" width="13.42" height="6.72"/><text class="cls-4" transform="translate(16.98 193.118)">One child</text><polygon class="cls-16" points="0 217.838 0 225.228 14.09 225.228 14.09 217.838 0 217.838 0 217.838"/><rect class="cls-17" x="0.34" y="218.178" width="13.42" height="6.72"/><text class="cls-4" transform="translate(15.79 224.898)">One <tspan class="cls-18" x="17.061" y="0">p</tspan><tspan class="cls-19" x="21.693" y="0">a</tspan><tspan class="cls-7" x="25.793" y="0">r</tspan><tspan class="cls-20" x="28.489" y="0">ent</tspan></text><polygon class="cls-21" points="0.85 250.448 0.85 257.828 14.94 257.828 14.94 250.448 0.85 250.448 0.85 250.448"/><rect class="cls-22" x="1.19" y="250.778" width="13.42" height="6.72"/><text class="cls-4" transform="translate(16.64 257.498)">Hal<tspan class="cls-23" x="11.775" y="0">f</tspan><tspan x="13.896" y="0">-sibling</tspan></text><text class="cls-24" transform="translate(93.05 8.558)">Sco<tspan class="cls-25" x="16.388" y="0">r</tspan><tspan class="cls-26" x="20.356" y="0">e dist</tspan><tspan class="cls-27" x="46.028" y="0">r</tspan><tspan class="cls-26" x="50.075" y="0">ibution by pedig</tspan><tspan class="cls-28" x="128.545" y="0">r</tspan><tspan x="132.513" y="0">ee st</tspan><tspan class="cls-29" x="154.536" y="0">r</tspan><tspan x="158.573" y="0">uctu</tspan><tspan class="cls-25" x="179.509" y="0">r</tspan><tspan class="cls-26" x="183.478" y="0">e</tspan></text><rect class="cls-30" x="79.45" y="23.678" width="216.34" height="265.1"/><g class="cls-31"><path class="cls-32" d="M95.7,288.78v1.52m21.83-1.52v1.52m21.33-1.52v1.52m21.84-1.52v1.52m21.3-1.52v1.52m21.84-1.52v1.52m21.84-1.52v1.52M247,288.78v1.52m21.83-1.52v1.52m21.33-1.52v1.52M85,288.78v3.05m21.33-3.05v3.05m21.84-3.05v3.05m21.33-3.05v3.05m21.84-3.05v3.05m21.83-3.05v3.05m21.33-3.05v3.05m21.84-3.05v3.05m21.33-3.05v3.05m21.84-3.05v3.05" transform="translate(0 -0.002)"/><path class="cls-33" d="M138.86,288.78v3.05m32.51-3.05v3.05" transform="translate(0 -0.002)"/></g><text class="cls-34" transform="translate(82.33 296.908)">-2</text><text class="cls-35" transform="translate(104.67 296.908)">02</text><text class="cls-35" transform="translate(147.83 296.908)">468</text><text class="cls-34" transform="translate(211.14 296.908)">10</text><text class="cls-34" transform="translate(232.98 296.908)">12</text><text class="cls-34" transform="translate(254.31 296.908)">14</text><text class="cls-34" transform="translate(276.15 296.908)">16</text><rect class="cls-36" x="79.45" y="23.678" width="216.34" height="265.1"/><g class="cls-37"><path class="cls-38" d="M171.37,288.78V23.68m-32.51,265.1V23.68" transform="translate(0 -0.002)"/></g><path class="cls-39" d="M234.34,44.51V68.88H202.85V44.51h31.49m45.71,12.18H234.34m-66,0h34.53M168.32,44.51V68.88M280.05,44.51V68.88M219.61,44.51V68.88" transform="translate(0 -0.002)"/><path d="M293.13,56.82a.776.776,0,1,0-.01,0Z" transform="translate(0 -0.002)"/><path d="M154,56.82a.776.776,0,1,0-.01,0Z" transform="translate(0 -0.002)"/><path class="cls-40" d="M184.06,77.52v24.37H167.3V77.52h16.76M205.9,89.7H184.06m-39.1,0H167.3M145,77.52v24.37m60.9-24.37v24.37m-30-24.37v24.37" transform="translate(0 -0.002)"/><path d="M216.82,90a1.341,1.341,0,1,1-.67-1.16A1.339,1.339,0,0,1,216.82,90Z" transform="translate(0 -0.002)"/><path class="cls-41" d="M186.09,111v24.38H156.64V111h29.45m38.6,12.19h-38.6m-68.56,0h39.11M117.53,111v24.38M224.69,111v24.38M170.35,111v24.38" transform="translate(0 -0.002)"/><path d="M234.69,123.1a1.34,1.34,0,1,1-.174-.664A1.333,1.333,0,0,1,234.69,123.1Z" transform="translate(0 -0.002)"/><path d="M232.52,123.1a1.34,1.34,0,1,1-.174-.664A1.333,1.333,0,0,1,232.52,123.1Z" transform="translate(0 -0.002)"/><path d="M231.85,123.1a1.37,1.37,0,0,1-.67,1.16,1.338,1.338,0,1,1,.69-1.16Z" transform="translate(0 -0.002)"/><path d="M112.1,123.1a1.34,1.34,0,1,1-.174-.664A1.333,1.333,0,0,1,112.1,123.1Z" transform="translate(0 -0.002)"/><path d="M103.81,123.1a1.37,1.37,0,0,1-.67,1.16,1.34,1.34,0,0,1-2-1.16,1.36,1.36,0,0,1,.67-1.17,1.34,1.34,0,0,1,2.01,1.17Z" transform="translate(0 -0.002)"/><path class="cls-42" d="M157.65,144v24.38H130.23V144h27.42m40.63,12.19H157.65m-63.48,0h36.06M94.17,144v24.38M198.28,144v24.38M143.94,144v24.38" transform="translate(0 -0.002)"/><path class="cls-43" d="M162.23,177.05v24.38H146V177.05h16.26m22.34,12.19H162.23m-38.6,0H146m-22.34-12.19v24.38m60.94-24.38v24.38m-30-24.38v24.38" transform="translate(0 -0.002)"/><path d="M122.14,189.37a1.351,1.351,0,1,1-.67-1.16A1.349,1.349,0,0,1,122.14,189.37Z" transform="translate(0 -0.002)"/><path d="M121.35,189.37a.771.771,0,1,1,.01,0Z" transform="translate(0 -0.002)"/><path d="M120.16,189.37a1.35,1.35,0,1,1-.68-1.16A1.35,1.35,0,0,1,120.16,189.37Z" transform="translate(0 -0.002)"/><path class="cls-43" d="M162.73,210.06v24.38H146V210.06h16.76m20.32,12.19H162.73m-41.13,0H146m-24.4-12.19v24.38m61.45-24.38v24.38m-30-24.38v24.38" transform="translate(0 -0.002)"/><path class="cls-44" d="M126.17,243.58V268H110.42V243.58h15.75m23.36,12.19H126.17m-38.09,0h22.34M88.08,243.58V268m61.45-24.38V268m-30.47-24.38V268" transform="translate(0 -0.002)"/><polyline class="cls-45" points="79.45 288.778 79.45 23.678 295.79 23.678 295.79 288.778 79.45 288.778"/><text class="cls-46" transform="translate(149.54 314.108)">Li<tspan class="cls-47" x="5.859" y="0">k</tspan><tspan class="cls-48" x="9.76" y="0">elihood ratio sco</tspan><tspan class="cls-49" x="70.181" y="0">r</tspan><tspan class="cls-48" x="72.934" y="0">e</tspan></text></svg>