<svg xmlns="http://www.w3.org/2000/svg" xmlns:xlink="http://www.w3.org/1999/xlink" viewBox="0 0 296.29 316.13"><defs><style>.cls-1,.cls-10,.cls-12,.cls-14,.cls-16,.cls-20,.cls-21,.cls-26,.cls-27,.cls-29,.cls-3,.cls-30,.cls-31,.cls-32,.cls-33,.cls-34,.cls-6,.cls-8{fill:none;}.cls-2{fill:#37b44a;}.cls-11,.cls-13,.cls-15,.cls-2,.cls-28,.cls-5,.cls-7,.cls-9{fill-rule:evenodd;}.cls-3{stroke:#37b44a;}.cls-10,.cls-12,.cls-14,.cls-16,.cls-3,.cls-6,.cls-8{stroke-miterlimit:3;stroke-width:0.32px;}.cls-4{font-size:8.06px;}.cls-17,.cls-4{fill:#010101;}.cls-22,.cls-23,.cls-4{font-family:SegoeUI, Segoe UI;}.cls-5{fill:#5bba47;}.cls-6{stroke:#5bba47;}.cls-7{fill:#93c83e;}.cls-8{stroke:#93c83e;}.cls-9{fill:#dad124;}.cls-10{stroke:#dad124;}.cls-11{fill:#e89724;}.cls-12{stroke:#e89724;}.cls-13{fill:#f15623;}.cls-14{stroke:#f15623;}.cls-15{fill:#ed2224;}.cls-16{stroke:#ed2224;}.cls-17{font-size:10.07px;font-family:SegoeUI-Bold, Segoe UI;font-weight:700;}.cls-18{fill:#dedede;}.cls-19{clip-path:url(#clip-path);}.cls-20{stroke:#a6a6a6;}.cls-20,.cls-21,.cls-26,.cls-27,.cls-29,.cls-30,.cls-31,.cls-32,.cls-33,.cls-34{stroke-miterlimit:10;}.cls-21,.cls-26{stroke:#bfbfbf;}.cls-22,.cls-23{font-size:6.6px;fill:#231f20;}.cls-23{letter-spacing:2.8em;}.cls-24{fill:#fff;}.cls-25{clip-path:url(#clip-path-2);}.cls-26{stroke-dasharray:2 2;}.cls-27{stroke:#05765a;}.cls-29{stroke:#1ea149;}.cls-30{stroke:#87c540;}.cls-31{stroke:#d1d033;}.cls-32{stroke:#e77924;}.cls-33{stroke:#ef4351;}.cls-34{stroke:#e6e6e6;opacity:0.05;}</style><clipPath id="clip-path"><rect class="cls-1" x="74.37" y="288.78" width="226.5" height="11.17"/></clipPath><clipPath id="clip-path-2"><rect class="cls-1" x="79.45" y="23.68" width="216.34" height="265.1"/></clipPath></defs><title>Structures_LR</title><g id="Layer_2" data-name="Layer 2"><g id="Layer_1-2" data-name="Layer 1"><polygon class="cls-2" points="0.85 47.18 0.85 54.57 14.94 54.57 14.94 47.18 0.85 47.18 0.85 47.18"/><rect class="cls-3" x="1.19" y="47.52" width="13.42" height="6.72"/><text class="cls-4" transform="translate(16.64 54.23)">Two parents</text><polygon class="cls-5" points="0.85 82.93 0.85 90.32 14.94 90.32 14.94 82.93 0.85 82.93 0.85 82.93"/><rect class="cls-6" x="1.19" y="83.26" width="13.42" height="6.71"/><text class="cls-4" transform="translate(16.64 89.98)">Child and spouse</text><polygon class="cls-7" points="0.85 116.62 0.85 124 14.94 124 14.94 116.62 0.85 116.62 0.85 116.62"/><rect class="cls-8" x="1.19" y="116.95" width="13.42" height="6.71"/><text class="cls-4" transform="translate(16.64 123.67)">Two siblings</text><polygon class="cls-9" points="0.85 150.83 0.85 158.21 14.94 158.21 14.94 150.83 0.85 150.83 0.85 150.83"/><rect class="cls-10" x="1.19" y="151.16" width="13.42" height="6.71"/><text class="cls-4" transform="translate(16.64 157.88)">One sibling</text><polygon class="cls-11" points="1.19 186.06 1.19 193.45 15.28 193.45 15.28 186.06 1.19 186.06 1.19 186.06"/><rect class="cls-12" x="1.53" y="186.4" width="13.42" height="6.72"/><text class="cls-4" transform="translate(16.98 193.12)">One child</text><polygon class="cls-13" points="0 217.84 0 225.23 14.09 225.23 14.09 217.84 0 217.84 0 217.84"/><rect class="cls-14" x="0.34" y="218.18" width="13.42" height="6.72"/><text class="cls-4" transform="translate(15.79 224.9)">One parent</text><polygon class="cls-15" points="0.85 250.45 0.85 257.83 14.94 257.83 14.94 250.45 0.85 250.45 0.85 250.45"/><rect class="cls-16" x="1.19" y="250.78" width="13.42" height="6.72"/><text class="cls-4" transform="translate(16.64 257.5)">Half-sibling</text><text class="cls-17" transform="translate(93.05 8.56)">Score distribution by pedigree structure</text><rect class="cls-18" x="79.45" y="23.68" width="216.34" height="265.1"/><g class="cls-19"><path class="cls-20" d="M95.7,288.78v1.52m21.83-1.52v1.52m21.33-1.52v1.52m21.84-1.52v1.52M182,288.78v1.52m21.84-1.52v1.52m21.84-1.52v1.52M247,288.78v1.52m21.83-1.52v1.52m21.33-1.52v1.52M85,288.78v3.05m21.33-3.05v3.05m21.84-3.05v3.05m21.33-3.05v3.05m21.84-3.05v3.05m21.83-3.05v3.05m21.33-3.05v3.05m21.84-3.05v3.05m21.33-3.05v3.05m21.84-3.05v3.05"/><path class="cls-21" d="M138.86,288.78v3.05m32.51-3.05v3.05"/></g><text class="cls-22" transform="translate(82.33 296.91)">-2</text><text class="cls-23" transform="translate(104.67 296.91)">02</text><text class="cls-23" transform="translate(147.83 296.91)">468</text><text class="cls-22" transform="translate(211.14 296.91)">10</text><text class="cls-22" transform="translate(232.98 296.91)">12</text><text class="cls-22" transform="translate(254.31 296.91)">14</text><text class="cls-22" transform="translate(276.15 296.91)">16</text><rect class="cls-24" x="79.45" y="23.68" width="216.34" height="265.1"/><g class="cls-25"><path class="cls-26" d="M171.37,288.78V23.68m-32.51,265.1V23.68"/></g><path class="cls-27" d="M234.34,44.51V68.88H202.85V44.51h31.49m45.71,12.18H234.34m-66,0h34.53M168.32,44.51V68.88M280.05,44.51V68.88M219.61,44.51V68.88"/><path class="cls-28" d="M293.13,56.82a1.34,1.34,0,0,1-2.68,0,1.34,1.34,0,0,1,2-1.16,1.33,1.33,0,0,1,.67,1.16Z"/><path class="cls-28" d="M154,56.82a1.34,1.34,0,0,1-2.68,0,1.34,1.34,0,0,1,2-1.16,1.33,1.33,0,0,1,.67,1.16Z"/><path class="cls-29" d="M184.06,77.52v24.37H167.3V77.52h16.76M205.9,89.7H184.06m-39.1,0H167.3M145,77.52v24.37M205.9,77.52v24.37m-30-24.37v24.37"/><path class="cls-28" d="M216.82,90a1.34,1.34,0,1,1-.67-1.16,1.33,1.33,0,0,1,.67,1.16Z"/><path class="cls-30" d="M186.09,111v24.38H156.64V111h29.45m38.6,12.19h-38.6m-68.56,0h39.11M117.53,111v24.38M224.69,111v24.38M170.35,111v24.38"/><path class="cls-28" d="M234.69,123.1a1.35,1.35,0,0,1-.67,1.16,1.34,1.34,0,0,1-2-1.16,1.36,1.36,0,0,1,.67-1.17,1.34,1.34,0,0,1,2,1.17Z"/><path class="cls-28" d="M232.52,123.1a1.35,1.35,0,0,1-.67,1.16,1.34,1.34,0,0,1-2-1.16,1.36,1.36,0,0,1,.67-1.17,1.34,1.34,0,0,1,2,1.17Z"/><path class="cls-28" d="M231.85,123.1a1.37,1.37,0,0,1-.67,1.16,1.35,1.35,0,0,1-2-1.16,1.36,1.36,0,0,1,.68-1.17,1.34,1.34,0,0,1,1.34,0,1.35,1.35,0,0,1,.67,1.17Z"/><path class="cls-28" d="M112.1,123.1a1.35,1.35,0,0,1-.67,1.16,1.34,1.34,0,0,1-2-1.16,1.36,1.36,0,0,1,.67-1.17,1.34,1.34,0,0,1,2,1.17Z"/><path class="cls-28" d="M103.81,123.1a1.37,1.37,0,0,1-.67,1.16,1.34,1.34,0,0,1-2-1.16,1.36,1.36,0,0,1,.67-1.17,1.34,1.34,0,0,1,1.34,0,1.35,1.35,0,0,1,.67,1.17Z"/><path class="cls-31" d="M157.65,144v24.38H130.23V144h27.42m40.63,12.19H157.65m-63.48,0h36.06M94.17,144v24.38M198.28,144v24.38M143.94,144v24.38"/><path class="cls-32" d="M162.23,177.05v24.38H146V177.05h16.26m22.34,12.19H162.23m-38.6,0H146m-22.34-12.19v24.38m60.94-24.38v24.38m-30-24.38v24.38"/><path class="cls-28" d="M122.14,189.37a1.35,1.35,0,1,1-.67-1.16,1.35,1.35,0,0,1,.67,1.16Z"/><path class="cls-28" d="M121.35,189.37a1.34,1.34,0,0,1-2,1.16,1.34,1.34,0,0,1,1.34-2.32,1.33,1.33,0,0,1,.67,1.16Z"/><path class="cls-28" d="M120.16,189.37a1.35,1.35,0,1,1-.68-1.16,1.34,1.34,0,0,1,.68,1.16Z"/><path class="cls-32" d="M162.73,210.06v24.38H146V210.06h16.76m20.32,12.19H162.73m-41.13,0H146M121.6,210.06v24.38m61.45-24.38v24.38m-30-24.38v24.38"/><path class="cls-33" d="M126.17,243.58V268H110.42V243.58h15.75m23.36,12.19H126.17m-38.09,0h22.34M88.08,243.58V268m61.45-24.38V268m-30.47-24.38V268"/><polyline class="cls-34" points="79.45 288.78 79.45 23.68 295.79 23.68 295.79 288.78 79.45 288.78"/><text class="cls-4" transform="translate(149.54 314.11)">Likelihood ratio score</text></g></g></svg>