<svg xmlns="http://www.w3.org/2000/svg" xmlns:xlink="http://www.w3.org/1999/xlink" viewBox="0 0 438.41 316"><defs><style>.cls-1,.cls-2,.cls-28,.cls-34,.cls-36,.cls-38,.cls-40,.cls-42,.cls-44,.cls-46,.cls-70,.cls-71,.cls-72,.cls-73,.cls-74,.cls-75,.cls-76{fill:none;}.cls-1{clip-rule:evenodd;}.cls-2,.cls-26,.cls-3,.cls-32,.cls-35,.cls-37,.cls-39,.cls-41,.cls-43,.cls-45{fill-rule:evenodd;}.cls-3{fill:#fff;}.cls-4{font-size:10.07px;font-family:SegoeUI-Bold, SegoeUI Bold;font-weight:700;letter-spacing:-0.02em;}.cls-26,.cls-29,.cls-4,.cls-48{fill:#010101;}.cls-5{letter-spacing:0em;}.cls-6{letter-spacing:0.02em;}.cls-7{letter-spacing:-0.02em;}.cls-8{letter-spacing:0.01em;}.cls-9{letter-spacing:-0.01em;}.cls-10{letter-spacing:-0.01em;}.cls-11{letter-spacing:-0.07em;}.cls-12{letter-spacing:-0.02em;}.cls-13{letter-spacing:0em;}.cls-14{letter-spacing:-0.01em;}.cls-15{letter-spacing:-0.02em;}.cls-16{letter-spacing:-0.01em;}.cls-17{letter-spacing:0.02em;}.cls-18{letter-spacing:0.03em;}.cls-19{letter-spacing:0.07em;}.cls-20{letter-spacing:-0.01em;}.cls-21{letter-spacing:-0.02em;}.cls-22{letter-spacing:-0.01em;}.cls-23{letter-spacing:0em;}.cls-24{letter-spacing:-0.01em;}.cls-25{letter-spacing:0em;}.cls-27{clip-path:url(#clip-path);}.cls-28{stroke:#a5a5a5;}.cls-28,.cls-34,.cls-36,.cls-38,.cls-40,.cls-42,.cls-44,.cls-46,.cls-70,.cls-71,.cls-72,.cls-73,.cls-74,.cls-75,.cls-76{stroke-miterlimit:3;}.cls-28,.cls-70,.cls-71,.cls-72,.cls-73,.cls-74,.cls-75,.cls-76{stroke-width:0.32px;}.cls-29,.cls-48{font-size:8.06px;font-family:SegoeUI, SegoeUI;}.cls-30,.cls-48{letter-spacing:0.04em;}.cls-31{letter-spacing:-0.05em;}.cls-32{fill:#37b44a;}.cls-33{clip-path:url(#clip-path-12);}.cls-34,.cls-70{stroke:#37b44a;}.cls-34,.cls-36,.cls-38,.cls-40,.cls-42,.cls-44,.cls-46{stroke-width:0.64px;}.cls-35{fill:#5bba47;}.cls-36,.cls-71{stroke:#5bba47;}.cls-37{fill:#93c83e;}.cls-38,.cls-72{stroke:#93c83e;}.cls-39{fill:#dad124;}.cls-40,.cls-73{stroke:#dad124;}.cls-41{fill:#e89724;}.cls-42,.cls-74{stroke:#e89724;}.cls-43{fill:#f15623;}.cls-44,.cls-75{stroke:#f15623;}.cls-45{fill:#ed2224;}.cls-46,.cls-76{stroke:#ed2224;}.cls-47{clip-path:url(#clip-path-21);}.cls-49{letter-spacing:0em;}.cls-50{letter-spacing:-0.11em;}.cls-51{letter-spacing:-0.01em;}.cls-52{letter-spacing:0.02em;}.cls-53{letter-spacing:-0.02em;}.cls-54{letter-spacing:-0.02em;}.cls-55{letter-spacing:-0.03em;}.cls-56{letter-spacing:-0.01em;}.cls-57{letter-spacing:-0.01em;}.cls-58{letter-spacing:0.04em;}.cls-59{letter-spacing:-0.02em;}.cls-60{letter-spacing:0em;}.cls-61{letter-spacing:0.03em;}.cls-62{letter-spacing:-0.01em;}.cls-63{letter-spacing:-0.02em;}.cls-64{letter-spacing:-0.01em;}.cls-65{letter-spacing:0.01em;}.cls-66{letter-spacing:0em;}.cls-67{letter-spacing:0.03em;}.cls-68{letter-spacing:0em;}.cls-69{letter-spacing:-0.01em;}</style><clipPath id="clip-path"><polygon class="cls-1" points="12.08 16.17 35.56 16.17 35.56 294.19 12.08 294.19 12.08 16.17 12.08 16.17"/></clipPath><clipPath id="clip-path-12"><polygon class="cls-1" points="34.89 22.88 359.01 22.88 359.01 287.48 34.89 287.48 34.89 22.88 34.89 22.88"/></clipPath><clipPath id="clip-path-21"><polygon class="cls-1" points="31.18 286.81 368.72 286.81 368.72 302.25 31.18 302.25 31.18 286.81 31.18 286.81"/></clipPath></defs><title>Structures_LRndProb</title><g id="Layer_2" data-name="Layer 2"><g id="Layer_1-2" data-name="Layer 1"><polygon class="cls-3" points="0 10.12 0 10.79 0.67 10.79 0.67 10.12 0 10.12 0 10.12"/><polygon class="cls-3" points="0 10.12 0 10.79 0.67 10.79 0.67 10.12 0 10.12 0 10.12"/><text class="cls-4" transform="translate(69.12 8.43)">C<tspan class="cls-5" x="5.6" y="0">u</tspan><tspan class="cls-6" x="11.11" y="0">m</tspan><tspan class="cls-5" x="19.68" y="0">u</tspan><tspan class="cls-7" x="25.19" y="0">l</tspan><tspan class="cls-5" x="27.4" y="0">a</tspan><tspan class="cls-8" x="32.21" y="0">t</tspan><tspan class="cls-7" x="35.65" y="0">i</tspan><tspan class="cls-9" x="37.83" y="0">v</tspan><tspan class="cls-10" x="42.6" y="0">e</tspan><tspan class="cls-11" x="47.58" y="0"> </tspan><tspan class="cls-12" x="48.96" y="0">p</tspan><tspan class="cls-13" x="54.49" y="0">r</tspan><tspan class="cls-14" x="57.8" y="0">o</tspan><tspan class="cls-15" x="63.22" y="0">b</tspan><tspan class="cls-5" x="68.75" y="0">a</tspan><tspan class="cls-12" x="73.56" y="0">b</tspan><tspan class="cls-7" x="79.09" y="0">ili</tspan><tspan class="cls-8" x="85.67" y="0">t</tspan><tspan class="cls-5" x="89.11" y="0">y</tspan><tspan class="cls-11" x="93.81" y="0"> </tspan><tspan class="cls-16" x="95.19" y="0">o</tspan><tspan class="cls-17" x="100.61" y="0">f</tspan><tspan class="cls-11" x="103.71" y="0"> </tspan><tspan class="cls-14" x="105.09" y="0">o</tspan><tspan class="cls-12" x="110.51" y="0">b</tspan><tspan class="cls-18" x="116.04" y="0">s</tspan><tspan class="cls-10" x="120.29" y="0">e</tspan><tspan class="cls-19" x="125.27" y="0">r</tspan><tspan class="cls-20" x="129.25" y="0">v</tspan><tspan class="cls-7" x="134.01" y="0">i</tspan><tspan class="cls-5" x="136.2" y="0">n</tspan><tspan class="cls-21" x="141.75" y="0">g</tspan><tspan class="cls-11" x="147.19" y="0"> </tspan><tspan class="cls-8" x="148.57" y="0">t</tspan><tspan class="cls-13" x="152" y="0">r</tspan><tspan class="cls-5" x="155.32" y="0">u</tspan><tspan class="cls-22" x="160.83" y="0">e</tspan><tspan class="cls-11" x="165.8" y="0"> </tspan><tspan class="cls-6" x="167.18" y="0">m</tspan><tspan class="cls-23" x="175.76" y="0">a</tspan><tspan class="cls-8" x="180.57" y="0">t</tspan><tspan class="cls-24" x="184.01" y="0">c</tspan><tspan class="cls-25" x="188.39" y="0">h</tspan></text><path class="cls-26" d="M8.47,190.48A3.38,3.38,0,0,1,8.81,192,2.4,2.4,0,0,1,8,194a2.66,2.66,0,0,1-2,.72,2.93,2.93,0,0,1-2.18-.8A2.78,2.78,0,0,1,3,191.82a3.8,3.8,0,0,1,.21-1.34H3.9a2.9,2.9,0,0,0-.34,1.34,1.88,1.88,0,0,0,.68,1.55A2.3,2.3,0,0,0,6,194a2.34,2.34,0,0,0,1.63-.59A1.85,1.85,0,0,0,8.22,192a2.85,2.85,0,0,0-.38-1.47Zm.25-4.32v.63H8.05v0A1.27,1.27,0,0,1,8.81,188c0,1-.59,1.47-1.72,1.47H4.7v-.67H7c.84,0,1.26-.29,1.26-1a1,1,0,0,0-.33-.76,1.39,1.39,0,0,0-.93-.33H4.7v-.63Zm0-7v.63H6.42a2,2,0,0,0-1,.21.85.85,0,0,0-.29.71.8.8,0,0,0,.37.67,1.45,1.45,0,0,0,.93.29h2.3v.68H6.33c-.79,0-1.21.29-1.21.88a.82.82,0,0,0,.37.71,1.52,1.52,0,0,0,.93.29h2.3v.63h-4v-.63h.63v0a1.33,1.33,0,0,1-.76-1.26,1.22,1.22,0,0,1,.84-1.13,1.43,1.43,0,0,1-.84-1.34c0-.88.55-1.3,1.64-1.3Zm0-4.49v.62H8.05v.05a1.27,1.27,0,0,1,.76,1.21c0,1-.59,1.47-1.72,1.47H4.7v-.67H7c.84,0,1.26-.29,1.26-1a1,1,0,0,0-.33-.76,1.39,1.39,0,0,0-.93-.34H4.7v-.62Zm0-1.94v.63h-6v-.63Zm0-4.19v.63H8.09v0a1.3,1.3,0,0,1,.72,1.22,1.4,1.4,0,0,1-.34,1,1.1,1.1,0,0,1-.84.34c-.75,0-1.17-.46-1.3-1.35l-.16-1.21c-.72,0-1,.29-1,.84a1.91,1.91,0,0,0,.5,1.3H5A2.43,2.43,0,0,1,4.57,170c0-1,.51-1.42,1.51-1.42Zm-2.05.63.12,1a1.23,1.23,0,0,0,.26.67.57.57,0,0,0,.54.26.7.7,0,0,0,.5-.21,1,1,0,0,0,.17-.55,1.07,1.07,0,0,0-.33-.8,1.18,1.18,0,0,0-.84-.33Zm2-3.74a1.34,1.34,0,0,1,.13.63c0,.67-.42,1-1.18,1H5.24v.67H4.7v-.67h-1l-.21-.67H4.7v-1h.54v1H7.51a1,1,0,0,0,.58-.13.63.63,0,0,0,.17-.46.74.74,0,0,0-.12-.42Zm-5-1.17a.36.36,0,0,1-.13.29.32.32,0,0,1-.29.13.38.38,0,0,1-.29-.13.36.36,0,0,1-.13-.29.38.38,0,0,1,.13-.3.37.37,0,0,1,.29-.12.37.37,0,0,1,.29.12.38.38,0,0,1,.13.3Zm5.07-.34v.67h-4v-.67Zm-4-4.45,4,1.6v.63l-4,1.55v-.72l2.89-1a1.71,1.71,0,0,1,.59-.13h0l-.55-.13L4.7,160.13Zm2.14-3.94v2.85a1.38,1.38,0,0,0,1-.38,1.14,1.14,0,0,0,.38-.92,2.06,2.06,0,0,0-.46-1.26h.63a2.28,2.28,0,0,1,.38,1.38,1.67,1.67,0,0,1-.55,1.35,2.26,2.26,0,0,1-1.55.5,2.06,2.06,0,0,1-1.51-.54,1.64,1.64,0,0,1-.63-1.31,1.47,1.47,0,0,1,.55-1.25,2.18,2.18,0,0,1,1.38-.42Zm-.55.67a1.33,1.33,0,0,0-.84.25,1,1,0,0,0-.33.75,1,1,0,0,0,.33.76,1.47,1.47,0,0,0,.84.42Zm1.85-4.49h2.43v.63H4.7v-.63h.71a1.61,1.61,0,0,1-.84-1.43,1.6,1.6,0,0,1,.55-1.22,2.26,2.26,0,0,1,1.46-.42,2.33,2.33,0,0,1,1.6.51,1.58,1.58,0,0,1,.63,1.34,1.39,1.39,0,0,1-.67,1.22Zm-1.64,0h.55a1.36,1.36,0,0,0,.88-.34,1.14,1.14,0,0,0,.33-.8,1.06,1.06,0,0,0-.46-.92,1.83,1.83,0,0,0-1.22-.34,1.7,1.7,0,0,0-1.09.3,1.05,1.05,0,0,0-.37.84,1.1,1.1,0,0,0,.42.92,1.48,1.48,0,0,0,1,.34Zm-1.17-6.22a.88.88,0,0,0-.13.51.77.77,0,0,0,.38.67,1.76,1.76,0,0,0,1.09.29H8.72v.63h-4V147h.79a1.65,1.65,0,0,1-.62-.42,1,1,0,0,1-.26-.63,1,1,0,0,1,0-.42Zm3.48-2.35a1.93,1.93,0,0,1-.59,1.43,2.07,2.07,0,0,1-1.47.5,2.15,2.15,0,0,1-1.59-.54A2,2,0,0,1,4.57,143a1.78,1.78,0,0,1,.59-1.39,2.13,2.13,0,0,1,1.51-.5,2.09,2.09,0,0,1,1.55.54,1.9,1.9,0,0,1,.59,1.47Zm-3.69-.08a1.4,1.4,0,0,0,.42,1,1.7,1.7,0,0,0,1.17.33,1.53,1.53,0,0,0,1.13-.33,1.23,1.23,0,0,0,.42-1,1.16,1.16,0,0,0-.42-1,1.73,1.73,0,0,0-1.13-.33,1.94,1.94,0,0,0-1.17.33,1.32,1.32,0,0,0-.42,1Zm3-3.65v0h.58v.63h-6v-.63H5.41v0A1.51,1.51,0,0,1,4.57,138a1.56,1.56,0,0,1,.55-1.21,2.21,2.21,0,0,1,1.46-.42,2.33,2.33,0,0,1,1.6.5,1.54,1.54,0,0,1,.63,1.34,1.26,1.26,0,0,1-.67,1.18Zm-1.64,0h.55a1.36,1.36,0,0,0,.88-.34,1.15,1.15,0,0,0,.33-.83,1.06,1.06,0,0,0-.46-.89,1.83,1.83,0,0,0-1.22-.33,1.7,1.7,0,0,0-1.09.29,1.07,1.07,0,0,0-.37.84,1.1,1.1,0,0,0,.42.92,1.48,1.48,0,0,0,1,.34Zm2.22-7v.63H8.09a1.43,1.43,0,0,1,.72,1.26,1.32,1.32,0,0,1-.34.93,1,1,0,0,1-.84.33c-.75,0-1.17-.42-1.3-1.3l-.16-1.22c-.72,0-1,.3-1,.84a2,2,0,0,0,.5,1.3H5a2.46,2.46,0,0,1-.38-1.38c0-.92.51-1.39,1.51-1.39Zm-2.05.63.12,1a1.3,1.3,0,0,0,.26.67.56.56,0,0,0,.54.25.66.66,0,0,0,.5-.21,1.14,1.14,0,0,0,.17-.59,1.13,1.13,0,0,0-.33-.79,1.16,1.16,0,0,0-.84-.3Zm1.47-2.52h.58v.68h-6v-.68H5.41a1.57,1.57,0,0,1-.84-1.38A1.52,1.52,0,0,1,5.12,128a2.28,2.28,0,0,1,1.46-.46,2.38,2.38,0,0,1,1.6.5,1.66,1.66,0,0,1,.63,1.35,1.32,1.32,0,0,1-.67,1.21Zm-1.64,0h.55a1.17,1.17,0,0,0,.88-.33,1.07,1.07,0,0,0,.33-.8,1.11,1.11,0,0,0-.46-.92,2.08,2.08,0,0,0-1.22-.34,2,2,0,0,0-1.09.3,1.08,1.08,0,0,0-.37.88,1,1,0,0,0,.42.88,1.28,1.28,0,0,0,1,.33Zm-2.85-4.4a.36.36,0,0,1-.13.29.32.32,0,0,1-.29.13.38.38,0,0,1-.29-.13.36.36,0,0,1-.13-.29.38.38,0,0,1,.13-.3.37.37,0,0,1,.29-.12.37.37,0,0,1,.29.12.38.38,0,0,1,.13.3Zm5.07-.34v.67h-4v-.67Zm0-1.93v.63h-6v-.63Zm-5.07-1.64a.38.38,0,0,1-.13.3.32.32,0,0,1-.29.12.37.37,0,0,1-.29-.12.38.38,0,0,1-.13-.3.36.36,0,0,1,.13-.29.39.39,0,0,1,.58,0,.36.36,0,0,1,.13.29Zm5.07-.33v.67h-4v-.67Zm0-3.15a1.08,1.08,0,0,1,.13.59c0,.71-.42,1.05-1.18,1.05H5.24v.71H4.7v-.71h-1l-.21-.63H4.7v-1h.54v1H7.51a1,1,0,0,0,.58-.13.75.75,0,0,0,.05-.88Zm-4-4.07,4.65,1.85q1.26.5,1.26,1.38c0,.17,0,.29,0,.42H10a1.31,1.31,0,0,0,.09-.38.75.75,0,0,0-.59-.71l-.8-.34-4,1.56v-.72l3.1-1.09.29-.08h0a.92.92,0,0,1-.29-.09l-3.1-1.13Z"/><g class="cls-27"><line class="cls-28" x1="33.55" y1="261.29" x2="35.57" y2="261.29"/></g><g class="cls-27"><line class="cls-28" x1="33.55" y1="208.23" x2="35.57" y2="208.23"/></g><g class="cls-27"><line class="cls-28" x1="33.55" y1="155.18" x2="35.57" y2="155.18"/></g><g class="cls-27"><line class="cls-28" x1="33.55" y1="102.8" x2="35.57" y2="102.8"/></g><g class="cls-27"><line class="cls-28" x1="33.55" y1="49.75" x2="35.57" y2="49.75"/></g><g class="cls-27"><line class="cls-28" x1="31.54" y1="287.48" x2="35.57" y2="287.48"/></g><g class="cls-27"><line class="cls-28" x1="31.54" y1="234.42" x2="35.57" y2="234.42"/></g><g class="cls-27"><line class="cls-28" x1="31.54" y1="182.04" x2="35.57" y2="182.04"/></g><g class="cls-27"><line class="cls-28" x1="31.54" y1="128.99" x2="35.57" y2="128.99"/></g><g class="cls-27"><line class="cls-28" x1="31.54" y1="76.61" x2="35.57" y2="76.61"/></g><g class="cls-27"><line class="cls-28" x1="31.54" y1="23.55" x2="35.57" y2="23.55"/></g><text class="cls-29" transform="translate(25.5 290.84)">0</text><text class="cls-29" transform="translate(19.47 237.79)"><tspan class="cls-30">0</tspan><tspan class="cls-31" x="4.49" y="0">.</tspan><tspan x="5.75" y="0">2</tspan></text><text class="cls-29" transform="translate(19.47 185.4)"><tspan class="cls-30">0</tspan><tspan class="cls-31" x="4.49" y="0">.</tspan><tspan x="5.75" y="0">4</tspan></text><text class="cls-29" transform="translate(19.47 132.34)"><tspan class="cls-30">0</tspan><tspan class="cls-31" x="4.49" y="0">.</tspan><tspan x="5.75" y="0">6</tspan></text><text class="cls-29" transform="translate(19.47 79.94)"><tspan class="cls-30">0</tspan><tspan class="cls-31" x="4.49" y="0">.</tspan><tspan x="5.75" y="0">8</tspan></text><text class="cls-29" transform="translate(25.5 26.89)">1</text><polygon class="cls-3" points="35.23 23.22 35.23 287.14 358.67 287.14 358.67 23.22 35.23 23.22 35.23 23.22"/><polygon class="cls-32" points="35.23 27.71 56.83 25.99 78.39 25.61 99.94 25.53 121.5 25.53 143.06 25.53 164.62 25.53 186.17 25.53 207.77 25.53 229.33 25.53 250.89 25.53 272.44 25.53 294 25.53 315.56 25.53 337.11 25.53 358.67 25.53 358.67 287.14 35.23 287.14 35.23 27.71"/><g class="cls-33"><polyline class="cls-34" points="35.23 27.71 56.83 25.99 78.39 25.61 99.94 25.53 121.5 25.53 143.06 25.53 164.62 25.53 186.17 25.53 207.77 25.53 229.33 25.53 250.89 25.53 272.44 25.53 294 25.53 315.56 25.53 337.11 25.53 358.67 25.53"/></g><g class="cls-33"><polygon class="cls-35" points="35.23 72.45 56.83 64.48 78.39 62.97 99.94 62.63 121.5 62.55 143.06 62.51 164.62 62.51 186.17 62.51 207.77 62.51 229.33 62.51 250.89 62.51 272.44 62.51 294 62.51 315.56 62.51 337.11 62.51 358.67 62.51 358.67 287.14 35.23 287.14 35.23 72.45"/></g><g class="cls-33"><polyline class="cls-36" points="35.23 72.45 56.83 64.48 78.39 62.97 99.94 62.63 121.5 62.55 143.06 62.51 164.62 62.51 186.17 62.51 207.77 62.51 229.33 62.51 250.89 62.51 272.44 62.51 294 62.51 315.56 62.51 337.11 62.51 358.67 62.51"/></g><polygon class="cls-37" points="35.23 84.92 56.83 78.03 78.39 76.82 99.94 76.61 121.5 76.57 143.06 76.57 164.62 76.57 186.17 76.57 207.77 76.57 229.33 76.57 250.89 76.57 272.44 76.57 294 76.57 315.56 76.57 337.11 76.57 358.67 76.57 358.67 287.14 35.23 287.14 35.23 84.92"/><g class="cls-33"><polyline class="cls-38" points="35.23 84.92 56.83 78.03 78.39 76.82 99.94 76.61 121.5 76.57 143.06 76.57 164.62 76.57 186.17 76.57 207.77 76.57 229.33 76.57 250.89 76.57 272.44 76.57 294 76.57 315.56 76.57 337.11 76.57 358.67 76.57"/></g><polygon class="cls-39" points="35.23 147.96 56.83 138.56 78.39 137.05 99.94 136.8 121.5 136.71 143.06 136.71 164.62 136.71 186.17 136.71 207.77 136.71 229.33 136.71 250.89 136.71 272.44 136.71 294 136.71 315.56 136.71 337.11 136.71 358.67 136.71 358.67 287.14 35.23 287.14 35.23 147.96"/><g class="cls-33"><polyline class="cls-40" points="35.23 147.96 56.83 138.56 78.39 137.05 99.94 136.8 121.5 136.71 143.06 136.71 164.62 136.71 186.17 136.71 207.77 136.71 229.33 136.71 250.89 136.71 272.44 136.71 294 136.71 315.56 136.71 337.11 136.71 358.67 136.71"/></g><polygon class="cls-41" points="35.23 188.17 56.83 175.24 78.39 171.42 99.94 170.33 121.5 169.95 143.06 169.83 164.62 169.79 186.17 169.79 207.77 169.79 229.33 169.79 250.89 169.79 272.44 169.79 294 169.79 315.56 169.79 337.11 169.79 358.67 169.79 358.67 287.14 35.23 287.14 35.23 188.17"/><g class="cls-33"><polyline class="cls-42" points="35.23 188.17 56.83 175.24 78.39 171.42 99.94 170.33 121.5 169.95 143.06 169.83 164.62 169.79 186.17 169.79 207.77 169.79 229.33 169.79 250.89 169.79 272.44 169.79 294 169.79 315.56 169.79 337.11 169.79 358.67 169.79"/></g><g class="cls-33"><polygon class="cls-43" points="35.23 189.89 56.83 176.8 78.39 173.27 99.94 172.18 121.5 171.76 143.06 171.63 164.62 171.59 186.17 171.55 207.77 171.55 229.33 171.55 250.89 171.55 272.44 171.55 294 171.55 315.56 171.55 337.11 171.55 358.67 171.55 358.67 287.14 35.23 287.14 35.23 189.89"/></g><g class="cls-33"><polyline class="cls-44" points="35.23 189.89 56.83 176.8 78.39 173.27 99.94 172.18 121.5 171.76 143.06 171.63 164.62 171.59 186.17 171.55 207.77 171.55 229.33 171.55 250.89 171.55 272.44 171.55 294 171.55 315.56 171.55 337.11 171.55 358.67 171.55"/></g><polygon class="cls-45" points="35.23 276.86 56.83 275.05 78.39 274.72 99.94 274.68 121.5 274.63 143.06 274.63 164.62 274.63 186.17 274.63 207.77 274.63 229.33 274.63 250.89 274.63 272.44 274.63 294 274.63 315.56 274.63 337.11 274.63 358.67 274.63 358.67 287.14 35.23 287.14 35.23 276.86"/><g class="cls-33"><polyline class="cls-46" points="35.23 276.86 56.83 275.05 78.39 274.72 99.94 274.68 121.5 274.63 143.06 274.63 164.62 274.63 186.17 274.63 207.77 274.63 229.33 274.63 250.89 274.63 272.44 274.63 294 274.63 315.56 274.63 337.11 274.63 358.67 274.63"/></g><polyline class="cls-28" points="35.56 287.48 35.56 23.55 359.01 23.55 359.01 287.48 35.56 287.48"/><g class="cls-47"><line class="cls-28" x1="49.3" y1="287.48" x2="49.3" y2="289.49"/></g><g class="cls-47"><line class="cls-28" x1="70.78" y1="287.48" x2="70.78" y2="289.49"/></g><g class="cls-47"><line class="cls-28" x1="92.25" y1="287.48" x2="92.25" y2="289.49"/></g><g class="cls-47"><line class="cls-28" x1="113.72" y1="287.48" x2="113.72" y2="289.49"/></g><g class="cls-47"><line class="cls-28" x1="135.87" y1="287.48" x2="135.87" y2="289.49"/></g><g class="cls-47"><line class="cls-28" x1="157.34" y1="287.48" x2="157.34" y2="289.49"/></g><g class="cls-47"><line class="cls-28" x1="178.81" y1="287.48" x2="178.81" y2="289.49"/></g><g class="cls-47"><line class="cls-28" x1="200.29" y1="287.48" x2="200.29" y2="289.49"/></g><g class="cls-47"><line class="cls-28" x1="221.76" y1="287.48" x2="221.76" y2="289.49"/></g><g class="cls-47"><line class="cls-28" x1="243.23" y1="287.48" x2="243.23" y2="289.49"/></g><g class="cls-47"><line class="cls-28" x1="264.71" y1="287.48" x2="264.71" y2="289.49"/></g><g class="cls-47"><line class="cls-28" x1="286.85" y1="287.48" x2="286.85" y2="289.49"/></g><g class="cls-47"><line class="cls-28" x1="308.32" y1="287.48" x2="308.32" y2="289.49"/></g><g class="cls-47"><line class="cls-28" x1="329.8" y1="287.48" x2="329.8" y2="289.49"/></g><g class="cls-47"><line class="cls-28" x1="351.27" y1="287.48" x2="351.27" y2="289.49"/></g><g class="cls-47"><line class="cls-28" x1="38.57" y1="287.48" x2="38.57" y2="291.51"/></g><g class="cls-47"><line class="cls-28" x1="60.04" y1="287.48" x2="60.04" y2="291.51"/></g><g class="cls-47"><line class="cls-28" x1="81.51" y1="287.48" x2="81.51" y2="291.51"/></g><g class="cls-47"><line class="cls-28" x1="102.99" y1="287.48" x2="102.99" y2="291.51"/></g><g class="cls-47"><line class="cls-28" x1="125.13" y1="287.48" x2="125.13" y2="291.51"/></g><g class="cls-47"><line class="cls-28" x1="146.6" y1="287.48" x2="146.6" y2="291.51"/></g><g class="cls-47"><line class="cls-28" x1="168.08" y1="287.48" x2="168.08" y2="291.51"/></g><g class="cls-47"><line class="cls-28" x1="189.55" y1="287.48" x2="189.55" y2="291.51"/></g><g class="cls-47"><line class="cls-28" x1="211.02" y1="287.48" x2="211.02" y2="291.51"/></g><g class="cls-47"><line class="cls-28" x1="232.5" y1="287.48" x2="232.5" y2="291.51"/></g><g class="cls-47"><line class="cls-28" x1="253.97" y1="287.48" x2="253.97" y2="291.51"/></g><g class="cls-47"><line class="cls-28" x1="275.44" y1="287.48" x2="275.44" y2="291.51"/></g><g class="cls-47"><line class="cls-28" x1="297.59" y1="287.48" x2="297.59" y2="291.51"/></g><g class="cls-47"><line class="cls-28" x1="319.06" y1="287.48" x2="319.06" y2="291.51"/></g><g class="cls-47"><line class="cls-28" x1="340.53" y1="287.48" x2="340.53" y2="291.51"/></g><g class="cls-47"><line class="cls-28" x1="362.01" y1="287.48" x2="362.01" y2="291.51"/></g><text class="cls-29" transform="translate(33.57 300.24)">1</text><text class="cls-29" transform="translate(55.04 300.24)">2</text><text class="cls-29" transform="translate(76.49 300.24)">3</text><text class="cls-29" transform="translate(97.98 300.24)">4</text><text class="cls-29" transform="translate(120.11 300.24)">5</text><text class="cls-29" transform="translate(141.58 300.24)">6</text><text class="cls-29" transform="translate(163.08 300.24)">7</text><text class="cls-29" transform="translate(184.55 300.24)">8</text><text class="cls-29" transform="translate(206.02 300.24)">9</text><text class="cls-48" transform="translate(224.14 300.24)">1<tspan class="cls-49" x="4.49" y="0">0</tspan></text><text class="cls-48" transform="translate(245.61 300.24)">1<tspan class="cls-49" x="4.49" y="0">1</tspan></text><text class="cls-48" transform="translate(267.08 300.24)">1<tspan class="cls-49" x="4.49" y="0">2</tspan></text><text class="cls-48" transform="translate(289.24 300.24)">1<tspan class="cls-49" x="4.49" y="0">3</tspan></text><text class="cls-48" transform="translate(310.71 300.24)">1<tspan class="cls-49" x="4.49" y="0">4</tspan></text><text class="cls-48" transform="translate(332.16 300.24)">1<tspan class="cls-49" x="4.49" y="0">5</tspan></text><text class="cls-29" transform="translate(356.65 300.24)"><tspan class="cls-30">1</tspan><tspan x="4.49" y="0">6</tspan></text><text class="cls-29" transform="translate(115.44 313.98)"><tspan class="cls-50">T</tspan><tspan class="cls-51" x="3.14" y="0">r</tspan><tspan class="cls-52" x="5.67" y="0">u</tspan><tspan class="cls-53" x="10.24" y="0">e</tspan><tspan class="cls-54" x="14.1" y="0"> </tspan><tspan class="cls-55" x="15.63" y="0">m</tspan><tspan class="cls-56" x="22.13" y="0">a</tspan><tspan class="cls-57" x="25.95" y="0">t</tspan><tspan class="cls-58" x="28.58" y="0">c</tspan><tspan class="cls-52" x="32.49" y="0">h</tspan><tspan class="cls-59" x="37.1" y="0"> </tspan><tspan class="cls-51" x="38.62" y="0">r</tspan><tspan class="cls-56" x="41.15" y="0">a</tspan><tspan class="cls-52" x="44.97" y="0">n</tspan><tspan class="cls-60" x="49.58" y="0">k</tspan><tspan class="cls-54" x="53.37" y="0"> </tspan><tspan class="cls-61" x="54.89" y="0">(</tspan><tspan class="cls-62" x="57.43" y="0">s</tspan><tspan class="cls-63" x="60.57" y="0">e</tspan><tspan class="cls-56" x="64.43" y="0">a</tspan><tspan class="cls-64" x="68.25" y="0">r</tspan><tspan class="cls-58" x="70.77" y="0">c</tspan><tspan class="cls-52" x="74.69" y="0">h</tspan><tspan class="cls-65" x="79.3" y="0">i</tspan><tspan class="cls-52" x="81.24" y="0">n</tspan><tspan class="cls-57" x="85.85" y="0">g</tspan><tspan class="cls-59" x="90.31" y="0"> </tspan><tspan class="cls-52" x="91.84" y="0">un</tspan><tspan class="cls-60" x="101.02" y="0">k</tspan><tspan class="cls-52" x="104.82" y="0">n</tspan><tspan class="cls-66" x="109.43" y="0">o</tspan><tspan class="cls-67" x="113.84" y="0">w</tspan><tspan class="cls-52" x="119.98" y="0">n</tspan><tspan class="cls-59" x="124.59" y="0"> </tspan><tspan class="cls-68" x="126.12" y="0">p</tspan><tspan class="cls-53" x="130.67" y="0">e</tspan><tspan class="cls-51" x="134.53" y="0">r</tspan><tspan class="cls-69" x="137.05" y="0">s</tspan><tspan class="cls-66" x="140.19" y="0">o</tspan><tspan class="cls-52" x="144.59" y="0">n</tspan><tspan class="cls-62" x="149.2" y="0">s</tspan><tspan x="152.34" y="0">)</tspan></text><polygon class="cls-32" points="364.99 25.05 364.99 32.44 379.09 32.44 379.09 25.05 364.99 25.05 364.99 25.05"/><rect class="cls-70" x="365.33" y="25.39" width="13.42" height="6.72"/><text class="cls-29" transform="translate(380.79 32.1)">Two parents</text><polygon class="cls-35" points="364.99 61.8 364.99 69.19 379.09 69.19 379.09 61.8 364.99 61.8 364.99 61.8"/><rect class="cls-71" x="365.33" y="62.14" width="13.42" height="6.71"/><text class="cls-29" transform="translate(380.79 68.85)">Child and spouse</text><polygon class="cls-37" points="364.99 77.49 364.99 84.87 379.09 84.87 379.09 77.49 364.99 77.49 364.99 77.49"/><rect class="cls-72" x="365.33" y="77.82" width="13.42" height="6.71"/><text class="cls-29" transform="translate(380.79 84.54)">Two siblings</text><polygon class="cls-39" points="364.99 136.7 364.99 144.08 379.09 144.08 379.09 136.7 364.99 136.7 364.99 136.7"/><rect class="cls-73" x="365.33" y="137.03" width="13.42" height="6.71"/><text class="cls-29" transform="translate(380.79 143.75)">One sibling</text><polygon class="cls-41" points="364.99 169.94 364.99 177.32 379.09 177.32 379.09 169.94 364.99 169.94 364.99 169.94"/><rect class="cls-74" x="365.33" y="170.27" width="13.42" height="6.72"/><text class="cls-29" transform="translate(380.79 176.99)">One child</text><polygon class="cls-43" points="364.99 180.71 364.99 188.1 379.09 188.1 379.09 180.71 364.99 180.71 364.99 180.71"/><rect class="cls-75" x="365.33" y="181.05" width="13.42" height="6.72"/><text class="cls-29" transform="translate(380.79 187.77)">One parent</text><polygon class="cls-45" points="364.99 274.32 364.99 281.71 379.09 281.71 379.09 274.32 364.99 274.32 364.99 274.32"/><rect class="cls-76" x="365.33" y="274.65" width="13.42" height="6.72"/><text class="cls-29" transform="translate(380.79 281.37)">Half-sibling</text></g></g></svg>